<?xml version="1.0" standalone="no"?>
<!DOCTYPE svg PUBLIC "-//W3C//DTD SVG 1.1//EN" "http://www.w3.org/Graphics/SVG/1.1/DTD/svg11.dtd" >
<svg xmlns="http://www.w3.org/2000/svg" xmlns:xlink="http://www.w3.org/1999/xlink" version="1.1">
<metadata></metadata>
<defs>
<font id="frankmedium" horiz-adv-x="1378" >
<font-face units-per-em="2048" ascent="1536" descent="-512" />
<missing-glyph horiz-adv-x="339" />
<glyph unicode="&#xfb01;" horiz-adv-x="1202" d="M66 911v146q0 22 18 22h131v78q0 180 108.5 279.5t292.5 99.5q249 0 383 -164q19 -22 -4 -43l-110 -94q-19 -19 -39 4q-45 53 -92.5 77.5t-118.5 24.5q-95 0 -139.5 -47t-44.5 -153v-62h596q18 0 18 -22v-1028q0 -29 -29 -29h-180q-27 0 -27 29v860h-378v-862 q0 -12 -7 -19.5t-18 -7.5h-186q-10 0 -17.5 7t-7.5 20v862h-131q-18 0 -18 22z" />
<glyph unicode="&#xfb02;" horiz-adv-x="1202" d="M66 913v140q0 10 6.5 18t17.5 8h125v92q0 163 121 262t301 99q217 0 403 -127q25 -15 25 -49v-1329q0 -13 -8 -20t-19 -7h-184q-25 0 -25 27v1257q-76 72 -192 72q-50 0 -88 -17.5t-58.5 -46.5t-30 -61.5t-9.5 -67.5v-84h176q18 0 18 -22v-146q0 -22 -18 -22h-176v-871 q0 -18 -23 -18h-190q-23 0 -23 18v871h-125q-11 0 -17.5 7t-6.5 17z" />
<glyph horiz-adv-x="0" />
<glyph horiz-adv-x="682" />
<glyph unicode=" "  horiz-adv-x="339" />
<glyph unicode="&#x09;" horiz-adv-x="339" />
<glyph unicode="&#xa0;" horiz-adv-x="339" />
<glyph unicode="!" horiz-adv-x="595" d="M184 1497q0 9 7 16t18 7h176q27 0 27 -23l-33 -1026q0 -20 -27 -20h-112q-25 0 -25 20zM190 35v182q0 35 31 35h152q14 0 23.5 -9t9.5 -26v-182q0 -17 -9.5 -26t-23.5 -9h-152q-31 0 -31 35z" />
<glyph unicode="&#x22;" horiz-adv-x="835" d="M119 1485q-3 26 24 26h168q25 0 25 -26l-33 -535q0 -9 -8 -14.5t-19 -5.5h-98q-26 0 -26 20zM500 1485q-3 26 24 26h170q27 0 23 -26l-33 -535q0 -20 -27 -20h-98q-14 0 -19.5 4.5t-7.5 15.5z" />
<glyph unicode="#" horiz-adv-x="1316" d="M47 479l23 115q3 18 10.5 23.5t28.5 5.5h196l60 278h-191q-32 0 -27 29l21 117q5 26 33 26h205l92 416q6 20 30 20h152q20 0 16 -20l-92 -416h260l88 416q6 20 31 20h152q21 0 16 -18l-90 -418h180q31 0 29 -29l-23 -114q-5 -29 -33 -29h-194l-59 -278h182q33 0 26 -31 l-20 -113q-5 -28 -37 -28h-190l-97 -428q-3 -23 -30 -23h-146q-12 0 -16.5 7t-1.5 16l94 428h-258l-96 -431q-3 -20 -31 -20h-147q-23 0 -19 20l92 431h-190q-14 0 -22 6t-7 22zM502 623h262l59 278h-262z" />
<glyph unicode="$" horiz-adv-x="1159" d="M70 367q-10 39 20 51l125 51q28 11 42.5 4.5t23.5 -33.5q11 -37 33.5 -72.5t58 -69t89.5 -53.5t118 -20q128 0 194 51t66 144q0 35 -14.5 64t-38 51t-65.5 44.5t-83.5 40.5t-104.5 44q-7 3 -10.5 4t-9 3.5t-10.5 4.5q-97 40 -160.5 74.5t-117 81.5t-78.5 107t-25 138 q0 144 89.5 243.5t244.5 131.5v174q0 27 28 27h183q32 0 32 -29v-176q140 -16 240 -95.5t137 -178.5q19 -54 -14 -66l-100 -37q-6 -2 -19 -6t-18.5 -5.5t-15.5 -2.5t-15.5 1.5t-12 9t-12.5 17.5q-32 80 -103 131.5t-179 51.5q-109 0 -169.5 -48.5t-60.5 -119.5 q0 -27 6.5 -48.5t26 -42t39.5 -35.5t62 -36t78.5 -37t103.5 -44q8 -3 12 -5q79 -33 133 -60t107.5 -64t85 -75.5t50.5 -90t19 -113.5q0 -152 -105.5 -263.5t-275.5 -144.5v-170q0 -29 -26 -29h-189q-12 0 -20 8t-8 21v168q-140 19 -249.5 113t-137.5 215z" />
<glyph unicode="%" horiz-adv-x="1568" d="M72 1014v276q0 117 81.5 179.5t211.5 62.5t212 -62.5t82 -179.5v-276q0 -117 -82.5 -178.5t-211.5 -61.5q-130 0 -211.5 61.5t-81.5 178.5zM254 1016q0 -94 111 -94q52 0 81 24t29 70v272q0 47 -29 71.5t-81 24.5t-81.5 -25.5t-29.5 -72.5v-270zM283 33l786 1454 q6 14 13.5 18t27.5 4h143q16 0 20.5 -7.5t-1.5 -14.5l-789 -1464q-7 -13 -14 -18t-25 -5h-145q-34 0 -16 33zM909 217v277q0 119 81.5 182t211.5 63t212.5 -63.5t82.5 -181.5v-277q0 -118 -82 -179t-213 -61t-212 61t-81 179zM1092 219q0 -94 110 -94q111 0 111 94v275 q0 47 -29.5 72.5t-81.5 25.5q-53 0 -81.5 -25.5t-28.5 -72.5v-275z" />
<glyph unicode="&#x26;" horiz-adv-x="1456" d="M59 442q0 105 39 191.5t101 147.5t155 118q-86 103 -122.5 168.5t-36.5 149.5q0 59 23.5 115t67 102t113.5 74t156 28q90 0 161.5 -28t115.5 -75t69.5 -98t36.5 -108q8 -29 -23 -37l-161 -39q-31 -9 -37 27q-35 165 -166 165q-57 0 -92 -36.5t-35 -89.5q0 -24 8.5 -48.5 t31 -55t38 -49t52.5 -59t52 -57.5l420 -473q16 73 16 182v111q0 29 25 29h168q11 0 18 -8t7 -21v-113q-3 -213 -82 -354l245 -272q10 -13 4 -21t-18 -8h-217q-20 0 -37 20l-108 121q-175 -164 -451 -164q-109 0 -207 34t-171 93.5t-116 147.5t-43 190zM301 453 q0 -122 89.5 -201.5t225.5 -79.5q184 0 295 117l-417 471q-104 -60 -148.5 -134t-44.5 -173z" />
<glyph unicode="'" horiz-adv-x="425" d="M119 1485q-3 26 24 26h168q25 0 25 -26l-33 -535q0 -9 -8 -14.5t-19 -5.5h-98q-26 0 -26 20z" />
<glyph unicode="(" horiz-adv-x="731" d="M115 659q0 186 50.5 372t116.5 310.5t136 200.5q28 28 53 8l121 -100q23 -18 4 -37q-96 -106 -170 -313t-74 -443q0 -163 37 -323t83 -262.5t97 -175.5q8 -19 5 -26t-17 -20l-108 -86q-24 -17 -35 -15t-27 18q-42 45 -86.5 126t-87.5 193.5t-70.5 264t-27.5 308.5z" />
<glyph unicode=")" horiz-adv-x="731" d="M133 1415q-16 21 4 37l123 100q5 4 10 6.5t10 2t8.5 -1t7.5 -3t6 -4l6 -4.5l5 -4q52 -60 103 -147.5t97 -200.5t74.5 -253.5t28.5 -280.5q0 -157 -27.5 -308.5t-70.5 -264.5t-87.5 -194t-86.5 -126q-14 -16 -25.5 -18t-35.5 13l-111 91q-25 21 -10 43q83 116 149 320.5 t66 440.5q0 237 -73.5 444t-170.5 312z" />
<glyph unicode="*" horiz-adv-x="843" d="M61 1212l39 123q11 26 37 15l219 -105l-22 250q-4 25 24 25h138q26 0 22 -25l-24 -248l213 99q26 13 36 -15l37 -123q10 -26 -14 -34l-231 -58l165 -184q18 -23 -4 -39l-98 -74q-14 -10 -27 -7t-18 13l-131 213l-129 -211q-7 -11 -18.5 -14.5t-24.5 6.5l-100 78 q-10 8 -10 20t7 19l162 180l-231 62q-25 4 -17 34z" />
<glyph unicode="+" horiz-adv-x="1161" d="M59 573v121q0 17 9.5 26t23.5 9h381v389q0 33 33 33h147q33 0 33 -33v-389h381q14 0 24.5 -9.5t10.5 -25.5v-121q0 -36 -35 -36h-381v-400q0 -33 -33 -33h-147q-33 0 -33 33v400h-381q-33 0 -33 36z" />
<glyph unicode="," horiz-adv-x="456" d="M25 -172q80 68 101 152t21 282q0 29 31 29h168q19 0 26 -7t7 -22q0 -105 -22.5 -196t-61.5 -157t-86.5 -112.5t-102.5 -75.5q-17 -12 -36 7l-45 51q-24 28 0 49z" />
<glyph unicode="-" horiz-adv-x="976" d="M115 553v129q0 29 24 29h699q24 0 24 -29v-129q0 -29 -28 -29h-691q-28 0 -28 29z" />
<glyph unicode="." horiz-adv-x="473" d="M123 35v221q0 14 8.5 24.5t22.5 10.5h163q14 0 23.5 -9t9.5 -26v-221q0 -17 -9.5 -26t-23.5 -9h-163q-31 0 -31 35z" />
<glyph unicode="/" horiz-adv-x="813" d="M6.5 10q-2.5 10 5.5 25l574 1452q6 14 13.5 18t27.5 4h159q28 0 19 -22l-580 -1467q-9 -20 -39 -20h-159q-18 0 -20.5 10z" />
<glyph unicode="0" horiz-adv-x="1302" d="M131 477v543q0 500 520 500t520 -498v-545q0 -502 -520 -502t-520 502zM375 504q0 -155 65.5 -234.5t210.5 -79.5q156 0 216.5 76.5t60.5 235.5v493q0 158 -60.5 234t-216.5 76q-145 0 -210.5 -78.5t-65.5 -231.5v-491z" />
<glyph unicode="1" horiz-adv-x="1077" d="M127 1292q-3 27 20 35q9 2 63.5 14t96 22t90 26t70.5 30q41 24 70 80h159v-1284h248q12 0 18.5 -8.5t6.5 -18.5v-161q0 -27 -25 -27h-754q-24 0 -24 27v161q0 27 22 27h265v959l-279 -27q-34 -3 -37 24z" />
<glyph unicode="2" horiz-adv-x="1263" d="M123 0v143q0 117 19 201t70 163t143.5 144t236.5 127q175 77 239 144t64 161q0 98 -58 160t-180 62q-124 0 -190 -53t-102 -146q-13 -43 -50 -35l-139 53q-9 4 -12.5 6.5t-10 9.5t-5 13.5t3.5 20.5q58 160 191 253t314 93q244 0 365 -120.5t121 -318.5 q0 -168 -98.5 -275.5t-333.5 -213.5q-93 -42 -154 -77t-97.5 -64t-54.5 -64t-23 -65t-5 -78v-29h727q26 0 26 -29v-159q0 -27 -26 -27h-981z" />
<glyph unicode="3" horiz-adv-x="1243" d="M98 322q-9 41 23 51l127 49q46 18 61 -27q65 -205 301 -205q119 0 193 62.5t74 169.5v12q0 114 -71 178t-196 64h-106q-21 0 -21 22v156q0 25 21 25h108q110 0 175 55t65 145v25q0 94 -59.5 147.5t-176.5 53.5q-111 0 -173.5 -44t-100.5 -139q-12 -31 -45 -20l-137 47 q-29 10 -19 45q49 157 173 241.5t302 84.5q232 0 356 -107t124 -293v-28q0 -113 -65.5 -199.5t-166.5 -114.5q109 -26 182.5 -110.5t73.5 -221.5v-28q0 -197 -146.5 -320t-357.5 -123q-93 0 -172 20t-134.5 52.5t-99 78.5t-69.5 93.5t-43 102.5z" />
<glyph unicode="4" horiz-adv-x="1255" d="M86 498q-5 21 8 39l707 979q17 25 41 10l127 -107q27 -14 8 -47l-586 -813h340v248q0 24 29 24h190q25 0 25 -24v-248h155q25 0 25 -29v-159q0 -11 -7 -19t-18 -8h-155v-324q0 -12 -7 -19t-18 -7h-190q-29 0 -29 26v324h-590q-18 0 -24 21z" />
<glyph unicode="5" horiz-adv-x="1261" d="M127 313q-16 49 16 60l138 51q15 8 31 0.5t22 -25.5q30 -95 102.5 -152t192.5 -57q125 0 194.5 78t69.5 213v37q0 135 -65.5 207t-192.5 72q-157 0 -256 -138q-19 -27 -41 -14l-137 70q-16 9 -19 17q-3 7 -2 22l56 745h782q24 0 24 -29v-159q0 -12 -6.5 -19.5t-17.5 -7.5 h-578l-30 -403l2 -2q112 116 305 116q190 0 305 -121.5t115 -351.5v-51q0 -238 -139.5 -367t-366.5 -129q-95 0 -175 22.5t-133 57t-94.5 82t-64 89t-37.5 87.5z" />
<glyph unicode="6" horiz-adv-x="1294" d="M131 489v484q0 248 142 397.5t395 149.5q89 0 164 -21t123 -51t86.5 -73t58 -78t33.5 -74q11 -32 -27 -47l-150 -52q-15 -6 -24.5 1t-18.5 30q-61 150 -245 150q-293 0 -293 -334v-111l4 -2q111 137 326 137q213 0 341 -128t128 -351v-59q0 -208 -142.5 -345t-365.5 -137 q-258 0 -396.5 140t-138.5 374zM375 477q0 -129 74.5 -208t216.5 -79q120 0 192 80t72 207v27q0 135 -69 214t-193 79q-132 0 -212.5 -80t-80.5 -213v-27z" />
<glyph unicode="7" horiz-adv-x="1103" d="M106 1309v161q0 29 27 29h879q13 0 20.5 -8.5t7.5 -20.5v-110q0 -23 -18 -49q-133 -190 -246 -403t-192.5 -454.5t-79.5 -426.5q0 -13 -8.5 -20t-18.5 -7h-192q-11 0 -19 6.5t-8 20.5q0 143 44 314t119 339t157 316.5t174 287.5h-619q-12 0 -19.5 7t-7.5 18z" />
<glyph unicode="8" horiz-adv-x="1331" d="M121 401v37q0 140 66.5 226t199.5 139q-96 29 -155.5 110.5t-59.5 206.5v27q0 177 126.5 275t367.5 98t368 -98t127 -275v-27q0 -125 -60.5 -206.5t-156.5 -110.5q134 -53 201 -139.5t67 -225.5v-37q0 -203 -145.5 -314.5t-400.5 -111.5t-400 111.5t-145 314.5zM365 426 q0 -120 73.5 -179t227.5 -59t227.5 59t73.5 179v27q0 121 -73.5 181t-227.5 60q-301 0 -301 -241v-27zM406 1098q0 -105 67 -158t193 -53t193 53t67 158v20q0 108 -63 155.5t-197 47.5t-197 -47.5t-63 -155.5v-20z" />
<glyph unicode="9" horiz-adv-x="1292" d="M115 977v57q0 100 36 188t102 154.5t165.5 105t220.5 38.5q234 0 378 -130t144 -360v-512q0 -117 -30 -211t-79.5 -155t-118 -101.5t-142 -58t-154.5 -17.5q-178 0 -308.5 73.5t-185.5 189.5q-18 41 13 57l139 72q30 13 45 -17q36 -74 110.5 -117t178.5 -43 q132 0 210.5 69.5t78.5 219.5v144q-52 -65 -135 -102.5t-183 -37.5q-224 0 -354.5 137t-130.5 357zM358 981q0 -139 72 -219t207 -80q132 0 206.5 77t74.5 210v45q0 138 -73 214.5t-206 76.5t-207 -75t-74 -212v-37z" />
<glyph unicode=":" horiz-adv-x="458" d="M113 35v221q0 14 8 24.5t22 10.5h164q14 0 23.5 -9t9.5 -26v-221q0 -17 -9.5 -26t-23.5 -9h-164q-30 0 -30 35zM113 862v223q0 15 8 25t22 10h164q14 0 23.5 -9t9.5 -26v-221q0 -17 -9.5 -26t-23.5 -9h-164q-14 0 -22 9t-8 24z" />
<glyph unicode=";" horiz-adv-x="473" d="M4 -172q81 68 102 152t21 282q0 29 31 29h168q18 0 24 -7t6 -22q0 -204 -77 -341.5t-193 -199.5q-19 -11 -37 7l-45 51q-24 28 0 49zM127 862v223q0 35 31 35h161q33 0 33 -35v-221q0 -35 -33 -35h-161q-14 0 -22.5 9t-8.5 24z" />
<glyph unicode="&#x3c;" horiz-adv-x="1048" d="M102 563v135q0 33 29 39l754 258q33 11 33 -28v-144q0 -28 -23 -37l-537 -155l535 -156q25 -6 25 -35v-143q0 -22 -11.5 -27.5t-40.5 4.5l-735 250q-11 3 -20 14t-9 25z" />
<glyph unicode="=" horiz-adv-x="1013" d="M84 401v138q0 11 6.5 19.5t18.5 8.5h794q25 0 25 -28v-138q0 -28 -27 -28h-788q-29 0 -29 28zM84 729v137q0 10 6.5 18.5t18.5 8.5h794q25 0 25 -27v-137q0 -29 -27 -29h-788q-29 0 -29 29z" />
<glyph unicode="&#x3e;" horiz-adv-x="1048" d="M131 297v143q0 29 25 35l534 156l-536 155q-23 9 -23 37v144q0 39 33 28l754 -258q28 -6 28 -39v-135q0 -14 -8.5 -25t-19.5 -14l-736 -250q-29 -10 -40 -4.5t-11 27.5z" />
<glyph unicode="?" horiz-adv-x="870" d="M27 1307q-15 26 8 49q154 180 383 180q183 0 292 -107t109 -262q0 -59 -18.5 -112.5t-47.5 -95.5t-64.5 -82.5t-71 -78.5t-64.5 -77t-47.5 -85.5t-18.5 -96.5v-64q0 -17 -9 -26t-23 -9h-142q-14 0 -22 10t-8 25v74q0 70 22.5 134t57 109t74 91.5t74 84t57 84t22.5 93.5 q0 87 -50 138.5t-147 51.5q-144 0 -229 -123q-22 -31 -49 0zM283 35v182q0 15 8 25t22 10h142q14 0 23 -9t9 -26v-182q0 -17 -9 -26t-23 -9h-142q-30 0 -30 35z" />
<glyph unicode="@" horiz-adv-x="1703" d="M115 455v293q0 83 24.5 167.5t82.5 170t142.5 151t216 106.5t291.5 41q123 0 226 -20.5t175.5 -54.5t129 -82t91 -99t56.5 -109t30.5 -108.5t8.5 -101.5v-297q0 -58 -9 -107t-30.5 -93.5t-55 -75.5t-85.5 -49.5t-119 -18.5q-44 0 -83.5 10.5t-64.5 26t-43 31t-26 26.5 l-8 10q-111 -114 -277 -114q-72 0 -136 29t-106 88t-42 137v22q0 99 46 161t161 93.5t305 22.5v28q0 81 -43 127.5t-131 46.5q-131 0 -168 -125q-7 -23 -33 -12l-100 47q-20 9 -13 31q38 92 121.5 150.5t202.5 58.5q174 0 260 -90.5t86 -249.5v-307q0 -45 29.5 -76t75.5 -31 q53 0 87.5 40.5t34.5 115.5v323q0 59 -15 115.5t-54 115.5t-99.5 102.5t-159.5 71.5t-225 28q-127 0 -227 -29t-163.5 -76.5t-105.5 -114t-59.5 -137.5t-17.5 -151v-232q0 -103 33.5 -192t97.5 -157.5t167.5 -108t233.5 -39.5q149 0 261 23.5t170 51.5q26 10 34 -10l37 -100 q10 -27 -14 -37q-28 -13 -79 -31t-168.5 -39.5t-237.5 -21.5q-165 0 -295.5 45t-208 112.5t-128 156.5t-69 167.5t-18.5 153.5zM682 420q0 -48 37.5 -80.5t97.5 -32.5q124 0 197 94v177q-86 3 -147.5 -4t-97 -19.5t-55.5 -33.5t-26 -42t-6 -49v-10z" />
<glyph unicode="A" horiz-adv-x="1228" d="M16 9.5q-5 9.5 0 21.5l459 1439q12 35 41 35h207q32 0 41 -35l448 -1439q4 -12 -1.5 -21.5t-16.5 -9.5h-199q-26 0 -32 29l-111 379h-490l-114 -379q-9 -29 -37 -29h-178q-12 0 -17 9.5zM424 608h373l-181 627z" />
<glyph unicode="B" horiz-adv-x="1230" d="M145 0v1499h523q210 0 325 -100t115 -269v-38q0 -114 -59.5 -199.5t-157.5 -114.5q114 -22 186 -114t72 -228v-35q0 -179 -124 -290t-347 -111h-533zM389 215h227q150 0 219.5 50.5t69.5 180.5q-3 226 -260 226h-256v-457zM389 866h229q122 0 186 52t64 147v27 q0 102 -66.5 150t-203.5 48h-209v-424z" />
<glyph unicode="C" horiz-adv-x="1218" d="M125 489v510q0 237 140 379t397 142q104 0 189 -26t143.5 -73t97 -107t59.5 -134q3 -12 3 -23q0 -29 -28 -37l-139 -45q-11 -4 -19 -4q-27 0 -36 35q-60 199 -273 199q-138 0 -214 -85t-76 -239v-465q0 -153 73.5 -239.5t216.5 -86.5q111 0 178.5 56.5t92.5 150.5 q9 32 39 32q9 0 20 -3l137 -55q21 -7 23.5 -24.5t-6.5 -43.5q-15 -46 -42 -91t-70.5 -88t-97 -76t-125.5 -53t-151 -20q-267 0 -399.5 131.5t-132.5 382.5z" />
<glyph unicode="D" horiz-adv-x="1318" d="M145 0v1499h525q130 0 231 -38t164.5 -106t96 -158t32.5 -198v-514q0 -105 -33 -192.5t-96.5 -153t-164.5 -102.5t-230 -37h-525zM389 215h242q168 0 242.5 78.5t74.5 230.5v443q0 153 -75 235t-242 82h-242v-1069z" />
<glyph unicode="E" horiz-adv-x="1071" d="M145 0v1499h805q25 0 25 -31v-157q0 -11 -7 -19t-18 -8h-561v-418h510q25 0 25 -26v-156q0 -10 -7 -18.5t-18 -8.5h-510v-442h561q27 0 27 -29v-159q0 -11 -7 -19t-18 -8h-807z" />
<glyph unicode="F" horiz-adv-x="1003" d="M145 27v1472h779q24 0 24 -29v-157q0 -29 -24 -29h-535v-455h490q24 0 24 -28v-154q0 -29 -24 -29h-490v-591q0 -13 -7 -20t-17 -7h-193q-11 0 -19 6.5t-8 20.5z" />
<glyph unicode="G" horiz-adv-x="1316" d="M125 475v547q0 233 147.5 365.5t403.5 132.5q114 0 203.5 -26.5t150 -75.5t99.5 -107t65 -133q4 -12 4 -22q0 -26 -29 -36l-153 -45q-10 -4 -19 -4q-24 0 -34 31q-63 203 -285 203q-155 0 -232 -78t-77 -242v-483q0 -163 84 -237.5t227 -74.5q64 0 116.5 16t96 50.5 t68 95.5t24.5 144v116h-264q-27 0 -27 27v135q0 10 7 18.5t20 8.5h469q15 0 25 -8t10 -21v-303q0 -220 -151.5 -357t-397.5 -137q-265 0 -408 130.5t-143 369.5z" />
<glyph unicode="H" horiz-adv-x="1404" d="M145 27v1448q0 11 8.5 17.5t18.5 6.5h190q27 0 27 -24v-617h625v617q0 11 8 17.5t18 6.5h191q29 0 29 -24v-1448q0 -27 -29 -27h-189q-11 0 -19.5 6.5t-8.5 20.5v616h-625v-616q0 -13 -7 -20t-17 -7h-193q-11 0 -19 6.5t-8 20.5z" />
<glyph unicode="I" horiz-adv-x="557" d="M156 27v1446q0 13 8 19.5t18 6.5h191q26 0 26 -26v-1446q0 -27 -26 -27h-191q-10 0 -18 7t-8 20z" />
<glyph unicode="J" horiz-adv-x="931" d="M14 161q2 16 13 27l94 115q14 16 29 16q14 0 28 -14q83 -98 209 -98q86 0 133 52.5t47 152.5v1061q0 12 8.5 19t18.5 7h190q29 0 29 -29v-1040q0 -226 -110.5 -340.5t-309.5 -114.5q-114 0 -201.5 40t-166.5 116q-13 14 -11 30z" />
<glyph unicode="K" horiz-adv-x="1206" d="M145 27v1443q0 29 27 29h193q24 0 24 -26v-646l516 648q17 24 39 24h217q16 0 20 -13t-5 -22l-451 -571l469 -866q5 -12 0 -19.5t-16 -7.5h-230q-24 0 -33 18l-356 701l-170 -209v-483q0 -13 -7 -20t-17 -7h-193q-10 0 -18.5 7t-8.5 20z" />
<glyph unicode="L" horiz-adv-x="1030" d="M145 0v1475q0 11 8.5 17.5t18.5 6.5h193q10 0 17 -6.5t7 -17.5v-1260h606q25 0 25 -31v-157q0 -11 -7 -19t-18 -8h-850z" />
<glyph unicode="M" horiz-adv-x="1662" d="M145 27v1441q0 12 7.5 21.5t21.5 9.5h287q23 0 31 -22l231 -777q79 -271 108 -479q23 187 113 481q22 71 97 316.5t118 378.5q3 12 13 40t14 44q3 8 11 12.5t21.5 5.5t24.5 1t28 -0.5t25 -0.5h191q29 0 29 -26v-1446q0 -27 -23 -27h-176q-9 0 -16 7.5t-7 19.5v925 q0 133 13 293h-4l-361 -1220q-8 -25 -31 -25h-186q-21 0 -29 23l-344 1222v-57q1 -23 5 -76.5t6 -100t2 -91.5v-893q0 -13 -7.5 -20t-17.5 -7h-170q-10 0 -17.5 8t-7.5 19z" />
<glyph unicode="N" horiz-adv-x="1413" d="M145 27v1439q0 33 29 33h279q19 0 30 -22l371 -760q117 -230 195 -459h6q-21 236 -21 442v775q0 8 7.5 16t17.5 8h184q9 0 17 -7.5t8 -16.5v-1448q0 -27 -29 -27h-260q-23 0 -37 27l-387 778q-62 126 -190 434h-7q21 -226 21 -397v-815q0 -10 -8 -18.5t-17 -8.5h-184 q-10 0 -17.5 8t-7.5 19z" />
<glyph unicode="O" d="M125 492v471q0 125 33 225.5t100 175.5t176 115.5t254 40.5q270 0 417.5 -140.5t147.5 -373.5v-474q0 -265 -138.5 -411t-426.5 -146q-271 0 -417 139.5t-146 377.5zM369 518q0 -156 79 -242t240 -86t241.5 86t80.5 240v461q0 155 -80.5 241.5t-241.5 86.5 q-162 0 -240.5 -84.5t-78.5 -241.5v-461z" />
<glyph unicode="P" horiz-adv-x="1179" d="M145 27v1472h461q252 0 374 -120t122 -332v-74q0 -212 -123.5 -332.5t-376.5 -120.5h-213v-493q0 -12 -6.5 -19.5t-17.5 -7.5h-195q-10 0 -17.5 8t-7.5 19zM389 733h197q153 0 212.5 60t59.5 194v43q0 136 -59.5 196t-212.5 60h-197v-553z" />
<glyph unicode="Q" d="M125 520v354q0 82 2 123q2 117 36.5 211.5t102 165t174.5 108.5t248 38q270 0 417.5 -140.5t147.5 -373.5v-474q0 -366 -249 -493l165 -307q7 -9 2.5 -18t-18.5 -9h-156q-22 0 -34 21l-142 262q-67 -13 -133 -13q-283 0 -423 144.5t-140 400.5zM369 518q0 -133 60 -215 t179 -102q51 -6 86 -6h17l-136 254q-5 11 0.5 19.5t18.5 8.5h154q21 0 32 -20l113 -211q117 82 117 270v434q0 172 -75.5 263.5t-246.5 91.5q-172 0 -245.5 -90.5t-73.5 -262.5v-434z" />
<glyph unicode="R" horiz-adv-x="1216" d="M145 27v1472h504q238 0 351.5 -112.5t113.5 -309.5v-96q0 -292 -254 -391l299 -563q6 -11 0 -19t-16 -8h-228q-23 0 -32 18l-271 539h-223v-530q0 -12 -6.5 -19.5t-17.5 -7.5h-193q-11 0 -19 7.5t-8 19.5zM389 768h227q133 0 192.5 58.5t59.5 177.5v51q0 122 -59 176.5 t-197 54.5h-223v-518z" />
<glyph unicode="S" horiz-adv-x="1120" d="M55 309q-9 34 23 45l149 49q17 8 29 2.5t18 -28.5q48 -193 283 -193q97 0 169.5 51t72.5 150q0 94 -61 149.5t-224 129.5q-73 33 -124.5 59.5t-103 59.5t-84 67t-58.5 75.5t-38 91t-12 109.5q0 177 129.5 285.5t323.5 108.5q102 0 185.5 -24.5t140.5 -68.5t94 -97 t59 -118q13 -33 -22 -45l-148 -53q-15 -6 -26.5 0t-16.5 21q-67 176 -262 176q-106 0 -161.5 -48t-55.5 -137q0 -42 15 -73.5t62.5 -64.5t84 -51.5t130.5 -62.5q8 -4 12.5 -6t12 -5.5t13.5 -6.5q97 -44 161.5 -84.5t117.5 -94.5t78 -122.5t26 -157.5q0 -186 -136 -304 t-358 -118q-111 0 -200 27t-147.5 75t-95 105.5t-55.5 126.5z" />
<glyph unicode="T" horiz-adv-x="1083" d="M-10 1313v157q0 29 24 29h1055q11 0 18 -9.5t7 -19.5v-157q0 -10 -7 -18.5t-18 -8.5h-405v-1259q0 -12 -8 -19.5t-19 -7.5h-195q-9 0 -16.5 7.5t-7.5 19.5v1259h-404q-24 0 -24 27z" />
<glyph unicode="U" horiz-adv-x="1347" d="M133 444v1029q0 9 7 17.5t16 8.5h196q10 0 17.5 -7.5t7.5 -18.5v-988q0 -295 295 -295q152 0 228.5 76t76.5 219v988q0 9 6.5 17.5t15.5 8.5h189q10 0 18 -7.5t8 -18.5v-1029q0 -212 -145 -340.5t-397 -128.5q-262 0 -400.5 127t-138.5 342z" />
<glyph unicode="V" horiz-adv-x="1218" d="M14 1470q-5 12 0.5 20.5t18.5 8.5h207q22 0 28 -22l199 -703q85 -290 137 -565h4q43 212 146 565l211 703q5 22 28 22h191q13 0 19 -7.5t3 -18.5l-456 -1446q-10 -27 -37 -27h-224q-22 0 -32 27z" />
<glyph unicode="W" horiz-adv-x="1798" d="M4 1473q-3 11 3 18.5t16 7.5h198q24 0 29 -24l137 -629q83 -364 115 -637h4q37 287 115 635l147 631q6 24 31 24h178q25 0 31 -24l153 -627q90 -361 131 -639h4q35 254 117 639l135 629q6 22 27 22h190q27 0 21 -29l-350 -1443q-2 -10 -11 -18.5t-22 -8.5h-223 q-26 0 -33 27l-168 716q-35 146 -88 416h-2q-31 -200 -80 -416l-162 -716q-2 -10 -12.5 -18.5t-24.5 -8.5h-221q-26 0 -33 27z" />
<glyph unicode="X" horiz-adv-x="1232" d="M11 10q-5 10 1 21l469 721l-440 716q-6 15 -1 23t15 8h217q20 0 33 -20l320 -543l319 545q10 18 29 18h213q11 0 15 -10.5t-1 -18.5l-450 -708l473 -735q5 -9 0 -18t-19 -9h-209q-28 0 -39 20l-344 560l-331 -555q-17 -25 -39 -25h-213q-13 0 -18 10z" />
<glyph unicode="Y" horiz-adv-x="1177" d="M-7 1489.5q3 9.5 15 9.5h221q18 0 27 -18l336 -660l330 660q10 18 28 18h217q11 0 15.5 -10.5t-0.5 -18.5l-471 -870v-573q0 -12 -7 -19.5t-16 -7.5h-196q-9 0 -17 7.5t-8 19.5v571l-471 872q-6 10 -3 19.5z" />
<glyph unicode="Z" horiz-adv-x="1138" d="M43 143l735 1141h-631q-13 0 -19.5 7.5t-6.5 17.5v161q0 29 26 29h887q22 0 31 -26l31 -111l-740 -1147h705q24 0 24 -29v-161q0 -10 -6.5 -17.5t-17.5 -7.5h-959q-20 0 -26 20z" />
<glyph unicode="[" horiz-adv-x="733" d="M170 -293v1854h475q27 0 27 -27v-145q0 -23 -27 -23h-242v-1464h242q27 0 27 -27v-145q0 -23 -27 -23h-475z" />
<glyph unicode="\" horiz-adv-x="788" d="M20 1487q-9 22 19 22h160q20 0 27.5 -4t13.5 -18l573 -1452q8 -15 6 -25t-20 -10h-160q-30 0 -39 20z" />
<glyph unicode="]" horiz-adv-x="733" d="M61 -125q0 27 27 27h242v1464h-242q-27 0 -27 23v145q0 27 27 27h475v-1854h-475q-27 0 -27 23v145z" />
<glyph unicode="^" horiz-adv-x="1075" d="M131 731l283 733q10 29 35 29h178q31 0 41 -31l282 -751q10 -35 -26 -35h-160q-31 0 -37 24l-192 564l-189 -564q-6 -24 -37 -24h-157q-40 0 -21 55z" />
<glyph unicode="_" horiz-adv-x="788" d="M-4 -133h795v-115h-795v115z" />
<glyph unicode="`" horiz-adv-x="610" d="M116 1547.5q3 11.5 21 11.5h150q27 0 37 -19l168 -283q6 -12 0.5 -19t-17.5 -7h-110q-18 0 -27 12l-215 283q-10 10 -7 21.5z" />
<glyph unicode="a" horiz-adv-x="1089" d="M76 301v12q0 90 33 156t107 113q74 48 202 66q75 10 166 10q67 0 143 -5v58q0 123 -47.5 179t-153.5 56q-150 0 -198 -145q-13 -34 -47 -17l-123 64q-30 15 -19 39q59 129 156 191.5t256 62.5q185 0 296 -109.5t111 -308.5v-696q0 -27 -28 -27h-168q-29 0 -29 27v108 q-61 -73 -137.5 -115.5t-185.5 -42.5q-148 0 -241 92.5t-93 231.5zM311 322q0 -65 44.5 -107.5t117.5 -42.5q158 0 254 125v207q-39 1 -75 1q-108 1 -178 -13q-92 -18 -127.5 -56.5t-35.5 -105.5v-8z" />
<glyph unicode="b" horiz-adv-x="1206" d="M139 27v1484q0 11 8.5 18t18.5 7h182q11 0 20 -7t9 -18v-555q53 73 141 129t197 56q180 0 282.5 -116t102.5 -327v-278q0 -106 -34.5 -192t-94 -140t-135 -82.5t-160.5 -28.5q-63 0 -115.5 14t-89 37.5t-61 48.5t-41.5 54v-104q0 -12 -7 -19.5t-18 -7.5h-178 q-10 0 -18.5 7t-8.5 20zM377 438q0 -114 68.5 -190t183.5 -76q106 0 170.5 63t64.5 209v215q0 285 -227 285q-102 0 -181 -75.5t-79 -196.5v-234z" />
<glyph unicode="c" horiz-adv-x="1062" d="M104 420v280q0 140 63.5 242t165.5 150.5t228 48.5q166 0 276 -84.5t142 -237.5q7 -33 -25 -41l-147 -39q-15 -5 -27 -1t-16 24q-14 81 -62 132.5t-141 51.5q-102 0 -160.5 -64.5t-58.5 -199.5v-258q0 -128 58.5 -190t164.5 -62q163 0 211 156q5 15 13 20.5t16.5 4.5 t21.5 -7l121 -63q17 -9 24 -18.5t1 -28.5q-46 -122 -149.5 -190.5t-266.5 -68.5q-203 0 -328 114t-125 329z" />
<glyph unicode="d" horiz-adv-x="1208" d="M104 412v288q0 199 112.5 320t301.5 121q199 0 313 -121v491q0 11 8.5 18t18.5 7h182q11 0 20 -6.5t9 -18.5v-1484q0 -11 -7.5 -19t-17.5 -8h-182q-9 0 -16.5 7.5t-7.5 19.5v100q-43 -60 -127 -105t-195 -45q-182 0 -297 114t-115 321zM342 440q0 -135 63 -201.5 t179 -66.5q120 0 183.5 78t63.5 199v249q0 111 -72 179.5t-175 68.5q-242 0 -242 -297v-209z" />
<glyph unicode="e" horiz-adv-x="1105" d="M104 418v274q0 208 125.5 328.5t329.5 120.5q217 0 335 -117.5t118 -357.5v-142q0 -49 -54 -49h-620v-61q0 -114 55 -178t172 -64q171 0 238 141q13 33 47 17l123 -60q33 -20 16 -53q-57 -118 -165 -179t-259 -61q-223 0 -342 118t-119 323zM338 641h446v70 q0 103 -53 169t-172 66q-111 0 -166 -69t-55 -179v-57z" />
<glyph unicode="f" horiz-adv-x="778" d="M66 915v138q0 10 6.5 18t17.5 8h125v84q0 182 88.5 277.5t259.5 95.5q172 0 283 -135q20 -23 -8 -43l-103 -92q-21 -18 -35 6q-48 69 -133 69q-116 0 -116 -143v-119h282q25 0 25 -26v-135q0 -29 -27 -29h-280v-862q0 -13 -7.5 -20t-17.5 -7h-186q-10 0 -17.5 7t-7.5 20 v862h-125q-24 0 -24 26z" />
<glyph unicode="g" horiz-adv-x="1085" d="M47 -113q0 92 53 162.5t142 108.5q-99 54 -99 153q0 56 31.5 101.5t83.5 74.5q-162 91 -162 283v16q0 167 116.5 261t313.5 94q148 0 262 -60q59 36 140 61t137 25q16 0 20.5 -9.5t4.5 -27.5v-102q0 -15 -7 -23t-14 -9t-22 -1q-101 0 -150 -2q61 -80 61 -192v-45 q0 -149 -118.5 -239.5t-323.5 -90.5q-76 0 -133 14q-39 -24 -39 -61q0 -52 92 -66l277 -39q181 -25 253 -109.5t72 -242.5t-127.5 -262t-373.5 -104q-238 0 -364 86t-126 245zM272 -80q0 -88 67 -135t198 -47q276 0 276 180q0 74 -37 112t-141 52l-162 22l-59 9 q-69 -26 -105.5 -76.5t-36.5 -116.5zM313 776q0 -90 56 -134t157 -44q103 0 159 44t56 134q0 93 -55 143t-160 50q-104 0 -158.5 -50t-54.5 -143z" />
<glyph unicode="h" horiz-adv-x="1183" d="M139 27v1482q0 12 7.5 19.5t19.5 7.5h182q29 0 29 -27v-553q66 84 148.5 134.5t199.5 50.5q154 0 243 -98t89 -263v-753q0 -27 -29 -27h-180q-29 0 -29 27v700q0 110 -43.5 164.5t-136.5 54.5q-87 0 -156 -54.5t-106 -135.5v-729q0 -27 -29 -27h-180q-29 0 -29 27z" />
<glyph unicode="i" horiz-adv-x="509" d="M137 29v1056q0 16 9 25.5t22 9.5h174q13 0 22 -9.5t9 -23.5v-1058q0 -29 -31 -29h-174q-31 0 -31 29zM137 1307v194q0 35 31 35h172q33 0 33 -35v-194q0 -17 -9.5 -26t-23.5 -9h-172q-31 0 -31 35z" />
<glyph unicode="j" horiz-adv-x="528" d="M-16 -317q-24 21 8 49q85 65 124.5 149.5t39.5 214.5v991q0 14 8 23.5t20 9.5h176q13 0 22 -9.5t9 -25.5v-987q0 -322 -244 -528q-21 -18 -41 2zM156 1305v196q0 35 30 35h172q33 0 33 -37v-194q0 -33 -33 -33h-172q-30 0 -30 33z" />
<glyph unicode="k" horiz-adv-x="1079" d="M139 29v1480q0 12 8.5 19.5t20.5 7.5h180q11 0 20 -7.5t9 -19.5v-850l389 443q18 18 37 18h201q15 0 20 -11t-4 -22l-348 -391l387 -665q7 -13 2 -22t-17 -9h-215q-27 0 -36 18l-295 523l-121 -131v-381q0 -13 -8 -21t-19 -8h-182q-12 0 -20.5 8t-8.5 21z" />
<glyph unicode="l" horiz-adv-x="516" d="M139 29v1480q0 27 29 27h178q31 0 31 -29v-1478q0 -14 -8.5 -21.5t-20.5 -7.5h-180q-12 0 -20.5 8t-8.5 21z" />
<glyph unicode="m" horiz-adv-x="1736" d="M137 27v1067q0 26 29 26h172q12 0 20.5 -6.5t8.5 -19.5v-133q52 77 134 128.5t193 51.5q107 0 173.5 -56.5t97.5 -140.5q63 98 152 147.5t192 49.5q138 0 218.5 -96t80.5 -248v-770q0 -27 -27 -27h-180q-29 0 -29 27v716q0 201 -149 201q-86 0 -146 -55t-86 -133v-729 q0 -27 -26 -27h-183q-28 0 -28 27v718q0 100 -37 149.5t-115 49.5q-86 0 -145.5 -56t-83.5 -130v-731q0 -27 -29 -27h-178q-29 0 -29 27z" />
<glyph unicode="n" horiz-adv-x="1181" d="M137 27v1067q0 26 27 26h176q27 0 27 -26v-140q154 187 364 187q156 0 239 -97t83 -249v-768q0 -27 -29 -27h-178q-29 0 -29 27v700q0 36 -3.5 65t-15 59t-30.5 50t-51.5 32.5t-77.5 12.5q-91 0 -159.5 -55t-106.5 -135v-729q0 -13 -8 -20t-19 -7h-180q-29 0 -29 27z" />
<glyph unicode="o" horiz-adv-x="1163" d="M104 401v306q0 207 125.5 320.5t354.5 113.5q227 0 351 -113.5t124 -320.5v-295q0 -206 -125 -320.5t-352 -114.5q-228 0 -353 112t-125 312zM342 426q0 -132 64.5 -193t175.5 -61t176 62t65 192v266q0 131 -64.5 192.5t-176.5 61.5q-111 0 -175.5 -62t-64.5 -194v-264z " />
<glyph unicode="p" horiz-adv-x="1200" d="M135 -399v1495q0 11 7.5 17.5t17.5 6.5h178q27 0 27 -24v-144q54 77 143.5 133t202.5 56q180 0 282.5 -116t102.5 -327v-278q0 -106 -35 -192t-94.5 -140t-135.5 -82.5t-161 -28.5q-113 0 -187.5 45.5t-111.5 108.5v-530q0 -12 -7 -19.5t-18 -7.5h-186q-10 0 -17.5 7 t-7.5 20zM371 430q0 -113 68 -185.5t184 -72.5q237 0 237 272v215q0 285 -227 285q-104 0 -183 -75.5t-79 -196.5v-242z" />
<glyph unicode="q" horiz-adv-x="1208" d="M104 403v304q0 196 114.5 315t295.5 119q120 0 200.5 -45.5t123.5 -108.5v109q0 24 26 24h176q29 0 29 -24v-1495q0 -12 -8 -19.5t-19 -7.5h-184q-11 0 -19 7.5t-8 19.5v524q-121 -148 -321 -148q-177 0 -291.5 115.5t-114.5 310.5zM340 430q0 -120 61 -189t172 -69 q123 0 190.5 73t67.5 206v235q0 113 -67 186.5t-180 73.5q-125 0 -184.5 -78t-59.5 -198v-240z" />
<glyph unicode="r" horiz-adv-x="745" d="M137 27v1067q0 26 27 26h174q29 0 29 -28v-181q54 103 141.5 166.5t204.5 63.5q15 0 22.5 -5t8 -12.5t-0.5 -15.5l-26 -170q-6 -25 -33 -25q-5 0 -23.5 1t-31.5 1q-95 -3 -163 -68t-93 -147v-673q0 -13 -7.5 -20t-17.5 -7h-186q-10 0 -17.5 7t-7.5 20z" />
<glyph unicode="s" horiz-adv-x="931" d="M71.5 273q4.5 7 22.5 12l139 55q33 12 41 -23q14 -68 67 -110.5t140 -42.5q76 0 123 37t47 96q0 43 -31 75.5t-80 55t-108.5 44t-119.5 49t-109 63.5t-80 95t-31 136q0 145 106 235.5t279 90.5q149 0 244 -73.5t127 -193.5q8 -27 -17 -34l-155 -41q-14 -3 -19.5 1 t-11.5 21q-41 129 -180 129q-75 0 -116.5 -32.5t-41.5 -90.5q0 -39 31 -69t80.5 -50.5t109.5 -41.5t119.5 -49.5t109 -66.5t80.5 -100t31 -143q0 -144 -106 -237t-281 -93q-331 0 -409 265q-5 24 -0.5 31z" />
<glyph unicode="t" horiz-adv-x="768" d="M31 915v138q0 10 6.5 18t17.5 8h135v254q0 12 7 19.5t18 7.5h180q9 0 17 -8t8 -19v-254h211q22 0 22 -26v-138q0 -26 -24 -26h-203v-531q0 -96 34.5 -129.5t127.5 -33.5h65q13 0 20 -7.5t7 -17.5v-141q0 -29 -33 -29h-102q-80 0 -141 15.5t-111 51.5t-76.5 101.5 t-26.5 157.5v563h-135q-24 0 -24 26z" />
<glyph unicode="u" horiz-adv-x="1181" d="M127 313v781q0 26 29 26h182q27 0 27 -24v-729q0 -99 42.5 -147t118.5 -48t152 42t131 116v764q0 26 27 26h182q12 0 20.5 -6.5t8.5 -17.5v-1069q0 -12 -8 -19.5t-19 -7.5h-178q-11 0 -19 7.5t-8 19.5v104q-76 -70 -161 -112t-197 -42q-160 0 -245 88t-85 248z" />
<glyph unicode="v" horiz-adv-x="1013" d="M12 1090q-5 12 0 21t17 9h211q24 0 30 -24l150 -488q51 -175 96 -413h4q45 239 96 413l148 488q6 24 29 24h192q12 0 16.5 -9t-0.5 -21l-356 -1063q-9 -27 -35 -27h-198q-27 0 -37 27z" />
<glyph unicode="w" horiz-adv-x="1499" d="M33 1090q-7 30 22 30h185q24 0 30 -26l119 -494q47 -208 70 -399h4q19 174 72 399l116 494q7 26 31 26h168q24 0 31 -26l112 -496q56 -259 70 -397h4q18 170 72 399l116 494q6 26 29 26h162q28 0 20 -30l-286 -1063q-8 -27 -31 -27h-197q-23 0 -30 27l-95 387 q-58 240 -71 397h-4q-15 -160 -72 -399l-96 -385q-7 -27 -33 -27h-201q-27 0 -33 27z" />
<glyph unicode="x" horiz-adv-x="1003" d="M38 8.5q-6 8.5 1 20.5l340 534l-328 522q-9 12 -4.5 23.5t16.5 11.5h195q21 0 35 -22l225 -367l221 367q13 22 33 22h180q18 0 23.5 -11.5t-4.5 -23.5l-336 -524l328 -532q7 -9 2 -19t-21 -10h-194q-25 0 -39 25l-213 366l-215 -368q-14 -23 -35 -23h-193q-11 0 -17 8.5z " />
<glyph unicode="y" horiz-adv-x="993" d="M0 1094q-4 8 0 17t16 9h217q17 0 25 -22l250 -817l252 815q7 24 24 24h199q27 0 16 -26l-391 -1090q-58 -165 -143.5 -267t-196.5 -171q-35 -20 -53 4l-90 123q-28 32 4 47q91 46 149.5 108t100.5 170z" />
<glyph unicode="z" horiz-adv-x="972" d="M53 117l539 807h-449q-12 0 -19 7.5t-7 18.5v144q0 26 22 26h713q25 0 33 -26l26 -90l-536 -809h514q11 0 17.5 -7.5t6.5 -17.5v-143q0 -27 -26 -27h-774q-25 0 -31 27z" />
<glyph unicode="{" horiz-adv-x="770" d="M61 561v135q0 23 29 27q106 9 143 56.5t37 164.5v324q0 137 65.5 219t196.5 82h111q27 0 27 -27v-143q0 -11 -7.5 -18t-19.5 -7h-63q-51 0 -76 -28.5t-25 -77.5v-391q0 -93 -58 -158.5t-149 -83.5v-4q87 -16 147 -84t60 -164v-369q0 -62 25.5 -91t81.5 -29h57 q27 0 27 -27v-143q0 -11 -7.5 -18t-19.5 -7h-111q-128 0 -195 78.5t-67 210.5v377q0 77 -45 121t-133 51q-16 2 -23.5 6.5t-7.5 17.5z" />
<glyph unicode="|" horiz-adv-x="542" d="M160 -510v2124q0 26 28 26h164q31 0 31 -28v-2122q0 -14 -8.5 -21.5t-20.5 -7.5h-166q-28 0 -28 29z" />
<glyph unicode="}" horiz-adv-x="776" d="M106 -127q0 10 7 18.5t20 8.5h57q56 0 81.5 29t25.5 91v369q0 97 55.5 165.5t141.5 82.5v6q-87 12 -142 78t-55 162v385q0 102 -98 102h-66q-12 0 -19.5 8t-7.5 19v139q0 10 7 17.5t20 7.5h111q133 0 197.5 -80t64.5 -219v-312q0 -117 37.5 -164.5t142.5 -56.5 q29 -4 29 -27v-133q0 -13 -6.5 -17.5t-24.5 -6.5q-178 -18 -178 -172v-379q0 -130 -67 -207.5t-195 -77.5h-111q-11 0 -19 7.5t-8 17.5v139z" />
<glyph unicode="~" horiz-adv-x="1079" d="M63 623q34 56 109 109.5t154 53.5q68 0 145 -27.5t146.5 -55t121.5 -27.5q73 0 146 90q20 23 37 6l92 -88q12 -12 2 -31q-34 -62 -106 -114t-152 -52q-64 0 -128 17.5t-107 38t-94 38t-93 17.5q-31 0 -63 -18.5t-44.5 -32t-35.5 -39.5q-18 -22 -37 -6l-90 90 q-12 12 -3 31z" />
<glyph unicode="&#xa1;" horiz-adv-x="595" d="M184 -354l31 1026q0 20 25 20h112q27 0 27 -20l33 -1026q0 -25 -27 -25h-176q-25 0 -25 25zM190 924v184q0 35 31 35h152q14 0 23.5 -9t9.5 -26v-182q0 -17 -9.5 -26t-23.5 -9h-152q-31 0 -31 33z" />
<glyph unicode="&#xa2;" horiz-adv-x="1054" d="M113 422v276q0 173 89 283.5t236 142.5v164q0 27 29 27h168q21 0 30 -8.5t9 -30.5v-148q136 -24 218.5 -108t102.5 -203q3 -34 -24 -41l-154 -37q-39 -12 -43 21q-32 184 -207 184q-99 0 -159 -65.5t-60 -214.5v-236q0 -252 221 -252q154 0 207 156q8 21 21.5 23.5 t29.5 -7.5l125 -65q19 -8 25.5 -18t-0.5 -29q-37 -97 -114.5 -160.5t-188.5 -83.5v-172q0 -13 -8 -20t-19 -7h-180q-29 0 -29 27v172q-152 29 -238.5 138t-86.5 292z" />
<glyph unicode="&#xa3;" horiz-adv-x="1198" d="M94 659v146q0 26 25 26h153q-3 24 -17.5 114t-14.5 147q0 202 131 315t338 113q158 0 265.5 -79t158.5 -220q8 -19 1.5 -36t-26.5 -24l-121 -51q-37 -13 -55 31q-30 92 -85.5 138t-148.5 46q-99 0 -159 -59t-60 -168q0 -47 16.5 -139.5t20.5 -127.5h311q25 0 25 -26v-146 q0 -28 -27 -28h-301q3 -255 -104 -430h667q12 0 18.5 -8.5t6.5 -18.5v-145q0 -29 -29 -29h-907q-11 8 -31 44.5t-20 49.5q0 6 5.5 15.5t19 29t20.5 29.5q119 192 119 416q0 29 -2 47h-160q-33 0 -33 28z" />
<glyph unicode="&#xa4;" horiz-adv-x="1347" d="M63 535v124q0 27 25 27h152v123h-150q-27 0 -27 29v129q0 26 25 26h152v39q0 215 143 351.5t377 136.5q210 0 347 -98t173 -244q12 -48 -25 -60l-147 -45q-15 -4 -26.5 3t-16.5 22q-65 219 -305 219q-137 0 -207 -76t-70 -205v-43h367q29 0 29 -26v-129q0 -29 -29 -29 h-367v-123h371q12 0 18.5 -8.5t6.5 -18.5v-124q0 -29 -29 -29h-365v-62q0 -131 68.5 -201.5t206.5 -70.5q247 0 303 219q12 42 57 29l131 -49q40 -15 17 -72q-123 -324 -508 -324q-245 0 -382.5 131t-137.5 359v41h-150q-27 0 -27 29z" />
<glyph unicode="&#xa5;" horiz-adv-x="1202" d="M15.5 1489.5q3.5 9.5 13.5 9.5h221q17 0 26 -18l328 -658l322 658q10 18 28 18h217q11 0 15.5 -10.5t-0.5 -18.5l-463 -866v-33h274q11 0 18 -8.5t7 -19.5v-135q0 -11 -7 -20t-18 -9h-274v-352q0 -12 -7 -19.5t-16 -7.5h-196q-9 0 -17 7.5t-8 19.5v352h-278q-11 0 -18 9 t-7 20v137q0 11 6.5 18.5t18.5 7.5h278v33l-461 866q-6 10 -2.5 19.5z" />
<glyph unicode="&#xa6;" horiz-adv-x="530" d="M158 408q0 12 7 19t15 7h170q9 0 16 -7t7 -19v-924q0 -12 -7 -19.5t-16 -7.5h-170q-8 0 -15 7t-7 20v924zM158 688v926q0 12 7 19t15 7h170q9 0 16 -8t7 -18v-926q0 -10 -7 -17t-16 -7h-170q-8 0 -15 6.5t-7 17.5z" />
<glyph unicode="&#xa7;" horiz-adv-x="1056" d="M126.5 111q-0.5 6 1 10t2.5 6.5t4.5 5t5 3.5t6.5 3t6 2l137 37q33 10 41 -22q32 -162 196 -162q78 0 118 38t40 107t-61 121t-193 113q-144 67 -213.5 138.5t-69.5 186.5q0 86 51 154.5t136 97.5q-98 52 -152.5 122t-54.5 171q0 53 23 103.5t68 93t120.5 68.5t171.5 26 q144 0 240.5 -67t128.5 -179q6 -28 -15 -37l-157 -49q-28 -9 -33 21q-8 59 -51 97t-113 38q-74 0 -111 -30.5t-37 -78.5q0 -50 54.5 -97t206.5 -112q158 -69 227.5 -144t69.5 -194q0 -89 -55 -158.5t-142 -103.5q215 -120 215 -301q0 -140 -117.5 -232.5t-296.5 -92.5 q-155 0 -260 72t-135 212q-2 7 -2.5 13zM367 698q0 -65 54 -112t124 -47q74 0 113.5 41.5t39.5 109.5q0 70 -53.5 114t-130.5 44q-68 0 -107.5 -42.5t-39.5 -107.5z" />
<glyph unicode="&#xa8;" horiz-adv-x="862" d="M131 1303v180q0 35 31 35h141q14 0 23.5 -9t9.5 -26v-180q0 -17 -9.5 -26t-23.5 -9h-141q-31 0 -31 35zM526 1303v180q0 14 8.5 24.5t22.5 10.5h143q14 0 23.5 -9t9.5 -26v-180q0 -17 -9.5 -26t-23.5 -9h-143q-13 0 -22 9.5t-9 25.5z" />
<glyph unicode="&#xa9;" horiz-adv-x="1554" d="M43 731q0 154 58 290t157 230.5t234 149.5t284 55q218 0 386.5 -94.5t258.5 -259t90 -371.5q0 -148 -58.5 -283.5t-157.5 -233.5t-235 -156t-284 -58q-213 0 -379 88t-260 255t-94 388zM197 733q0 -169 71 -303.5t204 -211.5t306 -77q157 0 291 80.5t212.5 217 t78.5 294.5q0 162 -72 294t-206 210t-304 78q-167 0 -301 -79t-207 -211.5t-73 -291.5zM449 618v205q0 156 94.5 242t236.5 86q138 0 220 -66t100 -172q3 -22 -19 -28l-116 -29q-27 -8 -31 16q-22 132 -148 132q-159 0 -159 -205v-176q0 -187 157 -187q117 0 152 113 q10 28 37 12l96 -47q25 -14 16 -37q-33 -88 -111 -137t-196 -49q-148 0 -238.5 84t-90.5 243z" />
<glyph unicode="&#xaa;" horiz-adv-x="851" d="M82 924v12q0 137 114 199t369 59v29q0 73 -36.5 113t-110.5 40q-111 0 -162 -104q-11 -22 -31 -12l-94 43q-21 7 -12 28q36 83 111.5 136t191.5 53q159 0 247.5 -81.5t88.5 -230.5v-481q0 -18 -23 -18h-143q-23 0 -23 18v66q-109 -101 -247 -101q-99 0 -169.5 63.5 t-70.5 168.5zM256 934q0 -45 33 -71.5t86 -26.5q106 0 190 88v147q-122 4 -192 -12t-93.5 -44t-23.5 -73v-8z" />
<glyph unicode="&#xab;" horiz-adv-x="1150" d="M76 610l313 457q8 13 22 16.5t29 -4.5l109 -67q27 -18 8 -41l-250 -359l250 -358q19 -26 -8 -41l-109 -68q-16 -9 -29 -5t-22 16zM549 610l313 457q6 13 20 16.5t29 -4.5l109 -67q26 -17 10 -41l-252 -359l252 -358q15 -27 -10 -41l-109 -68q-16 -9 -29 -5t-20 16z" />
<glyph unicode="&#xac;" horiz-adv-x="1126" d="M33 584v118q0 27 24 27h1024v-536q0 -23 -28 -23h-111q-11 0 -19 7t-8 18v360h-858q-11 0 -17.5 8.5t-6.5 20.5z" />
<glyph unicode="&#xad;" horiz-adv-x="991" d="M141 553v129q0 27 25 27h696q25 0 25 -27v-129q0 -29 -27 -29h-692q-27 0 -27 29z" />
<glyph unicode="&#xae;" horiz-adv-x="1021" d="M80 1096q0 178 126.5 303t305.5 125q182 0 306 -123.5t124 -304.5q0 -178 -125.5 -299t-304.5 -121q-184 0 -308 119t-124 301zM178 1096q0 -141 94.5 -237.5t239.5 -96.5q140 0 236 98t96 236q0 145 -96 242.5t-236 97.5q-142 0 -238 -98.5t-96 -241.5zM360 891v430h164 q76 0 116 -39t40 -94v-12q0 -44 -22 -79.5t-62 -52.5l84 -153q4 -8 -4 -8h-88q-7 0 -10 6l-72 147h-53v-145q0 -8 -7 -8h-77q-9 0 -9 8zM451 1106h59q44 0 62 18t18 52v8q0 65 -74 65h-65v-143z" />
<glyph unicode="&#xaf;" horiz-adv-x="856" d="M156 1364v123q0 11 6.5 20t17.5 9h496q22 0 22 -29v-123q0 -27 -24 -27h-494q-24 0 -24 27z" />
<glyph unicode="&#xb0;" horiz-adv-x="839" d="M82 1202q0 137 99.5 234.5t238.5 97.5q148 0 243 -92.5t95 -239.5q0 -137 -99.5 -233.5t-238.5 -96.5q-147 0 -242.5 91.5t-95.5 238.5zM244 1202q0 -72 49.5 -123t124.5 -51q72 0 123 49.5t51 124.5q0 73 -48.5 123.5t-125.5 50.5q-72 0 -123 -49.5t-51 -124.5z" />
<glyph unicode="&#xb1;" horiz-adv-x="1161" d="M57 31v131q0 11 9 21t26 10h381v47v297h-381q-33 0 -33 36v121q0 17 9.5 26t23.5 9h381v389q0 23 13.5 28t62.5 5h104q33 0 33 -33v-389h381q14 0 24.5 -9.5t10.5 -25.5v-121q0 -36 -35 -36h-381v-344h377q11 0 18.5 -4t11 -8.5t5.5 -14t2.5 -14.5t0 -16t-0.5 -13v-88 q0 -35 -39 -35h-969q-17 0 -26 10t-9 21z" />
<glyph unicode="&#xb2;" horiz-adv-x="694" d="M55 711v118q0 105 50 176.5t151 124.5q15 8 49 24.5t48 24.5t37.5 23t33.5 26t18.5 27.5t8.5 34.5q0 37 -25.5 60.5t-79.5 23.5q-108 0 -149 -92q-7 -15 -12.5 -20t-16.5 -2l-94 38q-16 5 -19 14t8 36q43 83 117.5 127.5t173.5 44.5q128 0 200.5 -59t72.5 -171 q0 -48 -19 -87.5t-59.5 -72.5t-82 -57.5t-108.5 -56.5q-76 -36 -102.5 -70t-26.5 -88h351q24 0 24 -27v-88q0 -32 -26 -32h-523z" />
<glyph unicode="&#xb3;" horiz-adv-x="681" d="M49 872q-12 33 10 43l91 37q23 11 32 -16q39 -90 148 -90q48 0 78 26t30 72v12q0 48 -32 76.5t-87 28.5h-73q-21 0 -21 26v78q0 29 23 29h71q48 0 83.5 25t35.5 65v6q0 40 -26.5 65t-75.5 25q-108 0 -152 -90q-8 -19 -13.5 -22.5t-20.5 2.5l-89 33q-22 10 -10 34 q31 76 107.5 129.5t183.5 53.5q135 0 202.5 -60t67.5 -155v-13q0 -59 -35 -106t-81 -58q49 -18 82.5 -63t33.5 -104v-21q0 -104 -73 -172t-199 -68q-113 0 -185.5 49t-105.5 123z" />
<glyph unicode="&#xb4;" horiz-adv-x="610" d="M117 1238q-5 7 2 19l166 283q12 19 39 19h149q17 0 20 -11.5t-6 -21.5l-215 -283q-9 -12 -26 -12h-111q-13 0 -18 7z" />
<glyph unicode="&#xb5;" horiz-adv-x="1187" d="M139 -418v1510q0 28 27 28h174q12 0 20.5 -7t8.5 -19v-672q0 -94 54.5 -153.5t149.5 -59.5q63 0 120.5 34t87.5 75t36 73v703q0 26 27 26h184q10 0 18.5 -6.5t8.5 -17.5v-1069q0 -12 -8 -19.5t-19 -7.5h-168q-11 0 -18.5 7.5t-7.5 19.5v123q-39 -75 -104 -124t-159 -49 q-77 0 -128.5 31.5t-73.5 75.5v-502q0 -12 -8 -19t-19 -7h-176q-11 0 -19 7t-8 19z" />
<glyph unicode="&#xb6;" horiz-adv-x="1222" d="M43 938q0 252 163.5 407.5t450.5 155.5h478q24 0 24 -20v-127q0 -25 -26 -25h-119v-1587q0 -29 -31 -29h-143q-29 0 -29 27v1589h-129v-866h-145q-232 0 -363 125.5t-131 349.5z" />
<glyph unicode="&#xb7;" horiz-adv-x="514" d="M152 524v221q0 15 8 25t22 10h148q14 0 23 -9t9 -26v-221q0 -17 -9 -26t-23 -9h-148q-30 0 -30 35z" />
<glyph unicode="&#xb8;" horiz-adv-x="913" d="M238 -324l32 66q9 18 25 8q92 -51 147 -51q40 0 60 17t20 42v6q0 35 -42 54.5t-122 9.5v207h150v-109q79 0 125.5 -46t46.5 -111v-19q0 -68 -61 -120t-164 -52q-113 0 -209 66q-18 14 -8 32z" />
<glyph unicode="&#xb9;" horiz-adv-x="579" d="M51 1378q-4 18 10 21q146 35 175 53q21 13 43 57h127v-657h129q12 0 12 -14v-113q0 -14 -12 -14h-439q-12 0 -12 14v113q0 14 12 14h137v440l-153 -14q-19 -3 -19 12z" />
<glyph unicode="&#xba;" horiz-adv-x="841" d="M74 993v234q0 143 96 218t250 75q159 0 253.5 -74.5t94.5 -224.5v-228q0 -150 -96.5 -225.5t-251.5 -75.5q-163 0 -254.5 77t-91.5 224zM250 1006q0 -78 43.5 -123t126.5 -45q172 0 172 168v204q0 166 -172 166q-85 0 -127.5 -44.5t-42.5 -121.5v-204z" />
<glyph unicode="&#xbb;" horiz-adv-x="1150" d="M123 250l250 360l-250 357q-19 26 8 41l109 67q16 9 29.5 5.5t21.5 -15.5l313 -457l-313 -454q-8 -13 -22 -17t-29 4l-109 68q-27 18 -8 41zM592 250l252 360l-252 357q-15 27 10 41l109 67q16 9 29 5.5t20 -15.5l313 -457l-313 -454q-6 -13 -20 -17t-29 4l-109 68 q-26 17 -10 41z" />
<glyph unicode="&#xbc;" horiz-adv-x="1540" d="M76 1348q-3 17 12 20q141 34 172 53q18 11 45 52h125v-644h123q14 0 14 -12v-112q0 -13 -14 -13h-428q-12 0 -12 13v112q0 12 12 12h133v435l-152 -15q-17 -2 -20 13zM328 35l784 1452q7 13 13.5 17.5t25.5 4.5h123q27 0 18 -22l-796 -1467q-11 -20 -41 -20h-111 q-35 0 -16 35zM840 313q-2 10 4 25l379 571q7 21 28 11l97 -64q21 -13 4 -35l-314 -467h162v123q0 17 19 17h122q8 0 14.5 -5t6.5 -12v-123h86q16 0 16 -18v-100q0 -23 -16 -23h-86v-145q0 -10 -6.5 -15.5t-14.5 -5.5h-131q-18 0 -18 21v145h-320q-13 0 -16 16z" />
<glyph unicode="&#xbd;" horiz-adv-x="1638" d="M76 1348q-3 17 12 20q141 34 172 53q18 11 45 52h125v-644h123q14 0 14 -12v-112q0 -13 -14 -13h-428q-12 0 -12 13v112q0 12 12 12h133v435l-152 -15q-17 -2 -20 13zM328 35l784 1452q7 13 13.5 17.5t25.5 4.5h123q27 0 18 -22l-796 -1467q-11 -20 -41 -20h-111 q-35 0 -16 35zM991 106v123q0 106 50 177t153 122q11 6 33 16.5t33 16t29 15t27.5 16t22.5 15.5t20 17.5t14 18.5t10 20.5t3 22.5q0 84 -102 84q-108 0 -149 -92q-9 -29 -27 -21l-96 37q-15 5 -17.5 13.5t9.5 35.5q92 175 282 175q126 0 201.5 -62.5t75.5 -167.5 q0 -48 -19 -88t-58 -73.5t-82 -59t-108 -55.5q-78 -36 -104.5 -69.5t-26.5 -88.5h353q22 0 22 -25v-88q0 -35 -27 -35h-522z" />
<glyph unicode="&#xbe;" horiz-adv-x="1546" d="M70 813q-16 32 10 43l94 39q23 10 33 -16q21 -50 54 -73.5t89 -23.5q109 0 109 103v12q0 48 -28.5 76t-82.5 28h-80q-20 0 -20 27v78q0 29 22 29h72q50 0 83.5 23t33.5 67v6q0 39 -25 64.5t-78 25.5q-104 0 -145 -94q-8 -18 -16 -23t-23 2l-84 37q-23 7 -12 35 q31 75 109 128.5t177 53.5q128 0 200.5 -60t72.5 -159v-16q0 -59 -35 -102t-82 -54q50 -19 83.5 -62.5t33.5 -105.5v-20q0 -106 -72.5 -175t-202.5 -69q-218 0 -290 176zM334 35l807 1452q7 13 13.5 17.5t25.5 4.5h123q31 0 18 -22l-819 -1467q-11 -20 -41 -20h-111 q-35 0 -16 35zM846 313q-2 10 4 25l379 571q7 21 28 11l97 -64q21 -13 4 -35l-314 -467h162v123q0 17 19 17h123q8 0 14 -5t6 -12v-123h86q16 0 16 -18v-100q0 -23 -16 -23h-86v-145q0 -21 -20 -21h-131q-19 0 -19 21v145h-319q-14 0 -17 16z" />
<glyph unicode="&#xbf;" horiz-adv-x="911" d="M80 -82q0 59 18.5 113t47.5 96.5t64.5 83t71 79t64.5 77t47.5 85.5t18.5 97v63q0 17 9 26t23 9h142q14 0 22 -10.5t8 -24.5v-73q0 -83 -31.5 -156.5t-77 -126.5t-90.5 -102t-76.5 -103t-31.5 -108q0 -87 49.5 -139t147.5 -52q144 0 229 121q20 31 49 2l86 -96 q16 -21 -8 -49q-153 -179 -381 -179q-184 0 -292.5 106.5t-108.5 260.5zM412 870v183q0 34 32 34h142q13 0 21.5 -9t8.5 -25v-185q0 -32 -30 -32h-142q-32 0 -32 34z" />
<glyph unicode="&#xc0;" horiz-adv-x="1224" d="M14 9.5q-5 9.5 0 21.5l459 1439q12 35 41 35h207q32 0 41 -35l448 -1439q4 -12 -1.5 -21.5t-16.5 -9.5h-199q-26 0 -32 29l-111 379h-490l-114 -379q-9 -29 -37 -29h-178q-12 0 -17 9.5zM303.5 1963q3.5 11 20.5 11h149q28 0 39 -18l166 -283q7 -12 2 -19t-18 -7h-111 q-18 0 -27 12l-215 283q-9 10 -5.5 21zM422 608h373l-181 627z" />
<glyph unicode="&#xc1;" horiz-adv-x="1224" d="M14 9.5q-5 9.5 0 21.5l459 1439q12 35 41 35h207q32 0 41 -35l448 -1439q4 -12 -1.5 -21.5t-16.5 -9.5h-199q-26 0 -32 29l-111 379h-490l-114 -379q-9 -29 -37 -29h-178q-12 0 -17 9.5zM422 608h373l-181 627zM551 1656q-5 7 2 19l166 281q11 20 37 20h149q18 0 22 -11 t-5 -21l-217 -283q-9 -12 -27 -12h-109q-13 0 -18 7z" />
<glyph unicode="&#xc2;" horiz-adv-x="1224" d="M14 9.5q-5 9.5 0 21.5l459 1439q12 35 41 35h207q32 0 41 -35l448 -1439q4 -12 -1.5 -21.5t-16.5 -9.5h-199q-26 0 -32 29l-111 379h-490l-114 -379q-9 -29 -37 -29h-178q-12 0 -17 9.5zM348 1671l168 258q1 1 3 4q13 16 25 18q5 1 13 1h109q16 0 23 -5t16 -18l167 -260 q6 -9 2.5 -15.5t-14.5 -6.5h-121q-14 0 -19.5 4.5t-12.5 17.5l-97 172l-98 -176q-9 -18 -29 -18h-118q-29 0 -17 24zM422 608h373l-181 627z" />
<glyph unicode="&#xc3;" horiz-adv-x="1224" d="M14 9.5q-5 9.5 0 21.5l459 1439q4 13 12 21.5t21 11t21.5 3.5t26.5 0t24 -1h143q32 0 41 -35l448 -1439q4 -12 -1.5 -21.5t-16.5 -9.5h-199q-26 0 -32 29l-111 379h-490l-114 -379q-9 -29 -37 -29h-178q-12 0 -17 9.5zM285 1796q29 45 76 85t104 48q18 5 41 2 q43 -2 86 -23.5t78.5 -42t60.5 -20.5q28 0 50 16.5t30.5 33.5t21 27t21.5 -3l78 -82q10 -13 -2 -29q-34 -52 -85 -90.5t-112 -38.5q-40 0 -77 13.5t-60 30.5t-50 30.5t-50 13.5q-58 0 -99 -73q-10 -14 -24 0l-86 78q-9 9 -2 24zM422 608h373l-181 627z" />
<glyph unicode="&#xc4;" horiz-adv-x="1224" d="M14 9.5q-5 9.5 0 21.5l459 1439q12 35 41 35h207q32 0 41 -35l448 -1439q4 -12 -1.5 -21.5t-16.5 -9.5h-199q-26 0 -32 29l-111 379h-490l-114 -379q-9 -29 -37 -29h-178q-12 0 -17 9.5zM313 1720v181q0 14 8.5 24t22.5 10h141q14 0 23.5 -9t9.5 -25v-181q0 -16 -9.5 -25 t-23.5 -9h-141q-31 0 -31 34zM422 608h373l-181 627zM711 1720v181q0 34 30 34h142q32 0 32 -34v-181q0 -34 -32 -34h-142q-30 0 -30 34z" />
<glyph unicode="&#xc5;" horiz-adv-x="1224" d="M14 9.5q-5 9.5 0 21.5l459 1439q12 35 41 35h207q32 0 41 -35l448 -1439q4 -12 -1.5 -21.5t-16.5 -9.5h-199q-26 0 -32 29l-111 379h-490l-114 -379q-9 -29 -37 -29h-178q-12 0 -17 9.5zM422 608h373l-181 627zM428 1782q0 82 56 136t139 54q84 0 140 -53t56 -137 q0 -81 -56 -134t-140 -53t-139.5 53t-55.5 134zM541 1782q0 -34 23 -57t59 -23q35 0 59.5 23t24.5 57q0 37 -23.5 59.5t-60.5 22.5q-36 0 -59 -23t-23 -59z" />
<glyph unicode="&#xc6;" horiz-adv-x="1734" d="M8 9.5q-6 9.5 0 21.5l686 1431q16 37 41 37h879q24 0 24 -31v-157q0 -27 -24 -27h-561v-418h510q24 0 24 -26v-156q0 -10 -6.5 -18.5t-17.5 -8.5h-510v-442h561q26 0 26 -29v-159q0 -27 -24 -27h-774q-14 0 -23.5 8t-9.5 21v290h-412l-135 -290q-7 -17 -15 -23t-22 -6 h-200q-11 0 -17 9.5zM494 524h315v670z" />
<glyph unicode="&#xc7;" horiz-adv-x="1218" d="M90 489v510q0 237 140 379t397 142q203 0 323.5 -93t163.5 -247q13 -49 -22 -60l-142 -45q-44 -16 -53 31q-60 199 -272 199q-138 0 -214.5 -85t-76.5 -239v-465q0 -153 73.5 -239.5t217.5 -86.5q111 0 178 56.5t92 150.5q11 42 57 29l138 -55q22 -7 24.5 -24.5 t-8.5 -43.5q-34 -111 -138.5 -203.5t-258.5 -115.5v-80q78 0 125 -46.5t47 -111.5v-18q0 -68 -61.5 -120t-164.5 -52q-115 0 -209 65q-18 14 -10 33l35 65q9 17 25 9q94 -52 145 -52q41 0 61.5 17t20.5 43v6q0 35 -42 54t-122 9v172q-469 34 -469 512z" />
<glyph unicode="&#xc8;" horiz-adv-x="1071" d="M145 0v1499h805q25 0 25 -31v-157q0 -11 -7 -19t-18 -8h-561v-418h510q25 0 25 -26v-156q0 -10 -7 -18.5t-18 -8.5h-510v-442h561q27 0 27 -29v-159q0 -11 -7 -19t-18 -8h-807zM266.5 1963q3.5 11 20.5 11h149q28 0 39 -18l166 -283q7 -12 2 -19t-18 -7h-111 q-18 0 -27 12l-215 283q-9 10 -5.5 21z" />
<glyph unicode="&#xc9;" horiz-adv-x="1071" d="M145 0v1499h805q25 0 25 -31v-157q0 -11 -7 -19t-18 -8h-561v-418h510q25 0 25 -26v-156q0 -10 -7 -18.5t-18 -8.5h-510v-442h561q27 0 27 -29v-159q0 -11 -7 -19t-18 -8h-807zM490 1654q-5 7 2 19l165 283q11 18 37 18h150q17 0 21 -11t-5 -21l-217 -283q-6 -12 -25 -12 h-110q-13 0 -18 7z" />
<glyph unicode="&#xca;" horiz-adv-x="1071" d="M145 0v1499h805q25 0 25 -31v-157q0 -11 -7 -19t-18 -8h-561v-418h510q25 0 25 -26v-156q0 -10 -7 -18.5t-18 -8.5h-510v-442h561q27 0 27 -29v-159q0 -11 -7 -19t-18 -8h-807zM299.5 1669q-3.5 8 3.5 17l168 260q9 14 15.5 17t25.5 3h109q16 0 23 -4t15 -16l168 -260 q6 -9 2 -17t-16 -8h-119q-14 0 -20 4.5t-15 17.5l-94 172l-98 -174q-10 -20 -29 -20h-121q-14 0 -17.5 8z" />
<glyph unicode="&#xcb;" horiz-adv-x="1071" d="M145 0v1499h805q25 0 25 -31v-157q0 -11 -7 -19t-18 -8h-561v-418h510q25 0 25 -26v-156q0 -10 -7 -18.5t-18 -8.5h-510v-442h561q27 0 27 -29v-159q0 -11 -7 -19t-18 -8h-807zM256 1720v181q0 14 8.5 24t22.5 10h141q33 0 33 -34v-181q0 -34 -33 -34h-141q-31 0 -31 34z M653 1720v181q0 14 8.5 24t22.5 10h141q14 0 23.5 -9t9.5 -25v-181q0 -16 -9.5 -25t-23.5 -9h-141q-31 0 -31 34z" />
<glyph unicode="&#xcc;" horiz-adv-x="557" d="M-38 1965q4 11 22 11h149q26 0 37 -20l166 -281q7 -12 1.5 -19t-18.5 -7h-110q-19 0 -25 12l-217 283q-9 10 -5 21zM156 27v1446q0 13 8 19.5t18 6.5h191q26 0 26 -26v-1446q0 -27 -26 -27h-191q-10 0 -18 7t-8 20z" />
<glyph unicode="&#xcd;" horiz-adv-x="557" d="M156 27v1446q0 13 8 19.5t18 6.5h191q26 0 26 -26v-1446q0 -27 -26 -27h-191q-10 0 -18 7t-8 20zM218.5 1656q-5.5 7 0.5 19l168 281q9 20 37 20h149q18 0 21.5 -11t-6.5 -21l-215 -283q-9 -12 -27 -12h-110q-12 0 -17.5 7z" />
<glyph unicode="&#xce;" horiz-adv-x="557" d="M18 1671l168 258q1 1 3 4q13 16 25 18l13 1h109q16 0 23 -5t16 -18l168 -260q6 -9 2 -15.5t-15 -6.5h-120q-14 0 -20.5 4.5t-12.5 17.5l-96 172l-99 -176q-9 -18 -28 -18h-119q-29 0 -17 24zM156 27v1446q0 13 8 19.5t18 6.5h191q26 0 26 -26v-1446q0 -27 -26 -27h-191 q-10 0 -18 7t-8 20z" />
<glyph unicode="&#xcf;" horiz-adv-x="557" d="M-23 1720v181q0 14 8.5 24t22.5 10h142q32 0 32 -34v-181q0 -34 -32 -34h-142q-31 0 -31 34zM156 27v1446q0 13 8 19.5t18 6.5h191q26 0 26 -26v-1446q0 -27 -26 -27h-191q-10 0 -18 7t-8 20zM375 1720v181q0 14 8.5 24t22.5 10h141q14 0 23.5 -9t9.5 -25v-181 q0 -16 -9.5 -25t-23.5 -9h-141q-31 0 -31 34z" />
<glyph unicode="&#xd0;" horiz-adv-x="1318" d="M20 696v138q0 11 6.5 19.5t18.5 8.5h100v637h525q130 0 231 -38t164.5 -106t96 -158t32.5 -198v-514q0 -105 -33 -192.5t-96.5 -153t-164.5 -102.5t-230 -37h-525v668h-96q-29 0 -29 28zM389 215h242q168 0 242.5 78.5t74.5 230.5v443q0 153 -75 235t-242 82h-242v-422 h301q25 0 25 -28v-138q0 -28 -27 -28h-299v-453z" />
<glyph unicode="&#xd1;" horiz-adv-x="1413" d="M145 27v1439q0 33 29 33h279q19 0 30 -22l357 -734q123 -255 209 -485h6q-21 237 -21 502v715q0 8 7.5 16t17.5 8h184q9 0 17 -7.5t8 -16.5v-1448q0 -27 -29 -27h-260q-25 0 -51 53l-359 725q-29 55 -58.5 120t-48 108t-50.5 121t-47 112h-7q21 -243 21 -428v-784 q0 -10 -8 -18.5t-17 -8.5h-184q-10 0 -17.5 8t-7.5 19zM414 1796q29 45 76 85t104 48q18 5 41 2q43 -2 86 -23.5t78.5 -42t60.5 -20.5q28 0 50 16.5t30.5 33.5t21 27t21.5 -3l78 -82q10 -13 -2 -29q-34 -52 -85 -90.5t-112 -38.5q-40 0 -77 13.5t-60 30.5t-50 30.5t-50 13.5 q-58 0 -99 -73q-10 -14 -24 0l-86 78q-9 9 -2 24z" />
<glyph unicode="&#xd2;" d="M125 492v471q0 125 33 225.5t100 175.5t176 115.5t254 40.5q270 0 417.5 -140.5t147.5 -373.5v-474q0 -265 -138.5 -411t-426.5 -146q-271 0 -417 139.5t-146 377.5zM369 518q0 -156 79 -242t240 -86t241.5 86t80.5 240v461q0 155 -80.5 241.5t-241.5 86.5 q-162 0 -240.5 -84.5t-78.5 -241.5v-461zM388 1964q4 10 22 10h149q26 0 37 -18l166 -281q7 -12 1.5 -20t-18.5 -8h-110q-17 0 -25 12l-217 285q-9 10 -5 20z" />
<glyph unicode="&#xd3;" d="M125 492v471q0 125 33 225.5t100 175.5t176 115.5t254 40.5q270 0 417.5 -140.5t147.5 -373.5v-474q0 -265 -138.5 -411t-426.5 -146q-271 0 -417 139.5t-146 377.5zM369 518q0 -156 79 -242t240 -86t241.5 86t80.5 240v461q0 155 -80.5 241.5t-241.5 86.5 q-162 0 -240.5 -84.5t-78.5 -241.5v-461zM612.5 1656q-5.5 7 1.5 19l166 281q11 20 39 20h150q17 0 20 -11t-6 -21l-215 -283q-9 -12 -27 -12h-110q-13 0 -18.5 7z" />
<glyph unicode="&#xd4;" d="M125 492v471q0 125 33 225.5t100 175.5t176 115.5t254 40.5q270 0 417.5 -140.5t147.5 -373.5v-474q0 -265 -138.5 -411t-426.5 -146q-271 0 -417 139.5t-146 377.5zM369 518q0 -156 79 -242t240 -86t241.5 86t80.5 240v461q0 155 -80.5 241.5t-241.5 86.5 q-162 0 -240.5 -84.5t-78.5 -241.5v-461zM431 1654.5q-4 7.5 1 16.5l170 258q10 15 16.5 19t24.5 4h109q23 0 36 -23l170 -260q6 -9 2 -15.5t-16 -6.5h-119q-14 0 -20 4.5t-14 17.5l-95 172l-98 -176q-12 -18 -29 -18h-120q-14 0 -18 7.5z" />
<glyph unicode="&#xd5;" d="M125 492v471q0 125 33 225.5t100 175.5t176 115.5t254 40.5q270 0 417.5 -140.5t147.5 -373.5v-474q0 -265 -138.5 -411t-426.5 -146q-271 0 -417 139.5t-146 377.5zM369 518q0 -156 79 -242t240 -86t241.5 86t80.5 240v461q0 155 -80.5 241.5t-241.5 86.5 q-162 0 -240.5 -84.5t-78.5 -241.5v-461zM373 1772q-7 10 0 24q25 44 72.5 85t105.5 50q14 2 43 2q43 -3 86.5 -25t78.5 -42.5t60 -20.5q27 0 49 16.5t31 33.5t21.5 27t21.5 -3l78 -82q10 -13 -2 -29q-36 -53 -86.5 -91t-110.5 -38q-40 0 -77 13.5t-60 30.5t-50 30.5 t-50 13.5q-60 0 -99 -73q-10 -13 -26 0z" />
<glyph unicode="&#xd6;" d="M125 492v471q0 125 33 225.5t100 175.5t176 115.5t254 40.5q270 0 417.5 -140.5t147.5 -373.5v-474q0 -265 -138.5 -411t-426.5 -146q-271 0 -417 139.5t-146 377.5zM369 518q0 -156 79 -242t240 -86t241.5 86t80.5 240v461q0 155 -80.5 241.5t-241.5 86.5 q-162 0 -240.5 -84.5t-78.5 -241.5v-461zM393 1720v181q0 34 31 34h141q14 0 23.5 -9t9.5 -25v-181q0 -16 -9.5 -25t-23.5 -9h-141q-31 0 -31 34zM788 1720v181q0 14 8.5 24t22.5 10h144q32 0 32 -34v-181q0 -34 -32 -34h-144q-13 0 -22 9t-9 25z" />
<glyph unicode="&#xd7;" horiz-adv-x="1097" d="M72 287l346 346l-338 340q-26 23 -4 45l90 88q22 22 41 4l344 -344l342 344q22 18 41 -4l88 -86q25 -22 0 -47l-340 -340l346 -344q22 -21 -4 -47l-82 -82q-24 -27 -47 -4l-344 346l-352 -350q-5 -8 -17.5 -7.5t-23.5 11.5l-84 86q-25 25 -2 45z" />
<glyph unicode="&#xd8;" d="M125 492v512q0 235 146.5 375.5t416.5 140.5q192 0 322 -74l57 100q8 14 15 18.5t26 4.5h119q16 0 20 -7.5t-2 -15.5l-110 -196q118 -136 118 -344v-514q0 -238 -146.5 -377.5t-418.5 -139.5q-171 0 -301 62l-57 -103q-8 -13 -15.5 -17.5t-23.5 -4.5h-121q-37 0 -14 35 l102 178q-133 136 -133 367zM369 518q0 -86 24 -153l504 882q-80 58 -209 58q-162 0 -240.5 -84.5t-78.5 -241.5v-461zM502 236q75 -46 186 -46q161 0 241.5 86t80.5 240v461q0 62 -19 121z" />
<glyph unicode="&#xd9;" horiz-adv-x="1347" d="M133 444v1029q0 9 7 17.5t16 8.5h196q10 0 17.5 -7.5t7.5 -18.5v-988q0 -295 295 -295q152 0 228.5 76t76.5 219v988q0 9 6.5 17.5t15.5 8.5h189q10 0 18 -7.5t8 -18.5v-1029q0 -212 -145 -340.5t-397 -128.5q-262 0 -400.5 127t-138.5 342zM375 1964q3 10 20 10h150 q28 0 39 -18l166 -281q7 -12 1.5 -20t-18.5 -8h-110q-15 0 -27 12l-215 285q-9 10 -6 20z" />
<glyph unicode="&#xda;" horiz-adv-x="1347" d="M133 444v1029q0 9 7 17.5t16 8.5h196q10 0 17.5 -7.5t7.5 -18.5v-988q0 -295 295 -295q152 0 228.5 76t76.5 219v988q0 9 6.5 17.5t15.5 8.5h189q10 0 18 -7.5t8 -18.5v-1029q0 -212 -145 -340.5t-397 -128.5q-262 0 -400.5 127t-138.5 342zM603.5 1655q-5.5 8 0.5 20 l168 281q9 18 37 18h149q18 0 21.5 -10t-6.5 -20l-215 -285q-12 -12 -27 -12h-110q-12 0 -17.5 8z" />
<glyph unicode="&#xdb;" horiz-adv-x="1347" d="M133 444v1029q0 9 7 17.5t16 8.5h196q10 0 17.5 -7.5t7.5 -18.5v-988q0 -295 295 -295q152 0 228.5 76t76.5 219v988q0 9 6.5 17.5t15.5 8.5h189q10 0 18 -7.5t8 -18.5v-1029q0 -212 -145 -340.5t-397 -128.5q-262 0 -400.5 127t-138.5 342zM416 1686l170 260q9 14 15 17 t26 3h106q28 0 39 -20l170 -260q6 -9 2 -17t-16 -8h-119q-22 0 -35 22l-96 172l-96 -174q-13 -20 -29 -20h-121q-28 0 -16 25z" />
<glyph unicode="&#xdc;" horiz-adv-x="1347" d="M133 444v1029q0 9 7 17.5t16 8.5h196q10 0 17.5 -7.5t7.5 -18.5v-988q0 -295 295 -295q152 0 228.5 76t76.5 219v988q0 9 6.5 17.5t15.5 8.5h189q10 0 18 -7.5t8 -18.5v-1029q0 -212 -145 -340.5t-397 -128.5q-262 0 -400.5 127t-138.5 342zM377 1720v181q0 14 8.5 24 t22.5 10h143q14 0 23.5 -9t9.5 -25v-181q0 -16 -9.5 -25t-23.5 -9h-143q-13 0 -22 9t-9 25zM774 1720v181q0 14 8.5 24t22.5 10h141q33 0 33 -34v-181q0 -34 -33 -34h-141q-31 0 -31 34z" />
<glyph unicode="&#xdd;" horiz-adv-x="1177" d="M-7 1489.5q3 9.5 15 9.5h221q18 0 27 -18l336 -660l330 660q10 18 28 18h217q11 0 15.5 -10.5t-0.5 -18.5l-471 -870v-573q0 -12 -7 -19.5t-16 -7.5h-196q-9 0 -17 7.5t-8 19.5v571l-471 872q-6 10 -3 19.5zM533 1655q-5 8 2 20l165 281q11 18 37 18h150q18 0 21.5 -10 t-5.5 -20l-217 -285q-8 -12 -24 -12h-111q-13 0 -18 8z" />
<glyph unicode="&#xde;" horiz-adv-x="1161" d="M145 27v1446q0 12 8.5 19t18.5 7h190q11 0 19 -7t8 -19v-216h209q241 0 370.5 -112t129.5 -340v-103q0 -219 -133.5 -333.5t-362.5 -114.5h-213v-227q0 -12 -7.5 -19.5t-19.5 -7.5h-190q-10 0 -18.5 7t-8.5 20zM389 467h193q139 0 205.5 58.5t66.5 183.5v84 q0 135 -72 193t-207 58h-186v-577z" />
<glyph unicode="&#xdf;" horiz-adv-x="1236" d="M133 25v1056q0 222 115 337.5t346 115.5q102 0 185.5 -31t137 -84t82.5 -121.5t29 -144.5v-37q0 -193 -158 -272q55 -13 104 -40.5t93.5 -71.5t71 -113t26.5 -154v-62q0 -67 -12 -126.5t-41 -115.5t-74 -96t-116 -64t-162 -24q-107 0 -184.5 41t-122.5 113q-18 30 4 49 l102 88q13 13 24.5 11t24.5 -23q29 -40 63 -62t85 -22q85 0 128.5 56t43.5 178v51q0 79 -24 136.5t-65 87t-86.5 43t-97.5 13.5h-88q-24 0 -24 25v141q0 27 28 27h60q82 0 122 54t40 144q0 98 -52 152.5t-155 54.5q-115 0 -165 -63t-50 -197v-1048q0 -27 -29 -27h-182 q-10 0 -18.5 6.5t-8.5 18.5z" />
<glyph unicode="&#xe0;" horiz-adv-x="1087" d="M72 301v12q0 90 33 156t106.5 113.5t202 65.5t309.5 5v58q0 123 -48.5 179t-152.5 56q-76 0 -127 -38.5t-73 -106.5q-12 -34 -46 -17l-124 64q-28 14 -17 39q59 129 155.5 191.5t254.5 62.5q186 0 297.5 -110t111.5 -308v-696q0 -27 -28 -27h-168q-29 0 -29 27v108 q-132 -158 -326 -158q-147 0 -239 92.5t-92 231.5zM234 1556.5q3 10.5 20 10.5h149q27 0 39 -19l166 -280q7 -12 1.5 -20.5t-17.5 -8.5h-111q-14 0 -26 12l-215 285q-9 10 -6 20.5zM305 322q0 -64 45 -107t117 -43q160 0 256 125v207q-162 6 -255 -12.5t-128 -56.5t-35 -105 v-8z" />
<glyph unicode="&#xe1;" horiz-adv-x="1087" d="M72 301v12q0 90 33 156t106.5 113.5t202 65.5t309.5 5v58q0 123 -48.5 179t-152.5 56q-76 0 -127 -38.5t-73 -106.5q-12 -34 -46 -17l-124 64q-28 14 -17 39q59 129 155.5 191.5t254.5 62.5q186 0 297.5 -110t111.5 -308v-696q0 -27 -28 -27h-168q-29 0 -29 27v108 q-132 -158 -326 -158q-147 0 -239 92.5t-92 231.5zM305 322q0 -64 45 -107t117 -43q160 0 256 125v207q-162 6 -255 -12.5t-128 -56.5t-35 -105v-8zM473.5 1247.5q-5.5 8.5 1.5 20.5l166 280q12 19 37 19h149q18 0 22 -10.5t-5 -20.5l-217 -285q-12 -12 -27 -12h-108 q-13 0 -18.5 8.5z" />
<glyph unicode="&#xe2;" horiz-adv-x="1087" d="M72 301v12q0 90 33 156t106.5 113.5t202 65.5t309.5 5v58q0 123 -48.5 179t-152.5 56q-76 0 -127 -38.5t-73 -106.5q-12 -34 -46 -17l-124 64q-28 14 -17 39q59 129 155.5 191.5t254.5 62.5q186 0 297.5 -110t111.5 -308v-696q0 -27 -28 -27h-168q-29 0 -29 27v108 q-132 -158 -326 -158q-147 0 -239 92.5t-92 231.5zM289 1284l170 258q7 11 10 14.5t10.5 6t20.5 2.5h106q26 0 39 -23l170 -260q6 -9 2 -15.5t-16 -6.5h-119q-22 0 -35 22l-96 172l-96 -176q-12 -18 -29 -18h-121q-28 0 -16 24zM305 322q0 -64 45 -107t117 -43 q160 0 256 125v207q-162 6 -255 -12.5t-128 -56.5t-35 -105v-8z" />
<glyph unicode="&#xe3;" horiz-adv-x="1087" d="M72 301v12q0 90 33 156t106.5 113.5t202 65.5t309.5 5v58q0 123 -48.5 179t-152.5 56q-76 0 -127 -38.5t-73 -106.5q-12 -34 -46 -17l-124 64q-28 14 -17 39q59 129 155.5 191.5t254.5 62.5q186 0 297.5 -110t111.5 -308v-696q0 -27 -28 -27h-168q-29 0 -29 27v108 q-132 -158 -326 -158q-147 0 -239 92.5t-92 231.5zM215 1370q-11 11 0 25q26 44 73 84.5t105 48.5q20 6 41 2q44 -2 87.5 -23.5t78.5 -42t62 -20.5q23 0 41 11t27.5 25t19.5 27t15.5 16.5t16.5 -5.5l78 -82q10 -13 -2 -29q-34 -52 -84 -90.5t-110 -38.5q-51 0 -96 22t-80 44 t-62 22q-34 0 -56 -19t-44 -55q-11 -14 -25 0zM305 322q0 -64 45 -107t117 -43q160 0 256 125v207q-162 6 -255 -12.5t-128 -56.5t-35 -105v-8z" />
<glyph unicode="&#xe4;" horiz-adv-x="1087" d="M72 301v12q0 90 33 156t106.5 113.5t202 65.5t309.5 5v58q0 123 -48.5 179t-152.5 56q-76 0 -127 -38.5t-73 -106.5q-12 -34 -46 -17l-124 64q-28 14 -17 39q59 129 155.5 191.5t254.5 62.5q186 0 297.5 -110t111.5 -308v-696q0 -27 -28 -27h-168q-29 0 -29 27v108 q-132 -158 -326 -158q-147 0 -239 92.5t-92 231.5zM240 1309v180q0 33 30 33h142q32 0 32 -35v-178q0 -35 -32 -35h-142q-30 0 -30 35zM305 322q0 -64 45 -107t117 -43q160 0 256 125v207q-162 6 -255 -12.5t-128 -56.5t-35 -105v-8zM637 1309v180q0 14 8.5 23.5t22.5 9.5 h141q14 0 23.5 -9t9.5 -26v-178q0 -17 -9.5 -26t-23.5 -9h-141q-31 0 -31 35z" />
<glyph unicode="&#xe5;" horiz-adv-x="1087" d="M72 301v12q0 90 33 156t106.5 113.5t202 65.5t309.5 5v58q0 123 -48.5 179t-152.5 56q-76 0 -127 -38.5t-73 -106.5q-12 -34 -46 -17l-124 64q-28 14 -17 39q59 129 155.5 191.5t254.5 62.5q186 0 297.5 -110t111.5 -308v-696q0 -27 -28 -27h-168q-29 0 -29 27v108 q-132 -158 -326 -158q-147 0 -239 92.5t-92 231.5zM305 322q0 -64 45 -107t117 -43q160 0 256 125v207q-162 6 -255 -12.5t-128 -56.5t-35 -105v-8zM342 1419q0 82 57 135.5t138 53.5q85 0 141.5 -52.5t56.5 -136.5q0 -81 -57 -133.5t-141 -52.5t-139.5 52.5t-55.5 133.5z M457 1419q0 -35 22.5 -57.5t57.5 -22.5q37 0 61.5 22.5t24.5 57.5q0 37 -24 59.5t-62 22.5q-35 0 -57.5 -23.5t-22.5 -58.5z" />
<glyph unicode="&#xe6;" horiz-adv-x="1712" d="M66 301v12q0 91 33 155.5t107.5 109t201.5 62.5t309 11v80q0 98 -50 156.5t-155 58.5q-147 0 -207 -147q-13 -29 -45 -13l-123 64q-26 13 -18 39q54 120 148 186t251 66q202 0 326 -133q59 68 136.5 100.5t195.5 32.5q222 0 337 -129t115 -367v-123q0 -21 -14.5 -34 t-36.5 -13h-625v-53q0 -122 52.5 -186t179.5 -64q90 0 144 37.5t87 103.5q15 31 49 17l123 -60q36 -18 17 -55q-58 -113 -166 -175.5t-254 -62.5q-264 0 -379 170q-180 -170 -383 -170q-160 0 -258 92.5t-98 231.5zM301 322q0 -65 44.5 -107.5t117.5 -42.5q78 0 151.5 34.5 t118.5 94.5q-16 62 -16 156v47q-161 6 -253.5 -12.5t-127.5 -56.5t-35 -105v-8zM952 641h449v70q0 99 -57.5 167t-167.5 68q-113 0 -168.5 -67.5t-55.5 -184.5v-53z" />
<glyph unicode="&#xe7;" horiz-adv-x="1062" d="M104 420v280q0 140 63.5 242t165.5 150.5t228 48.5q166 0 276 -84.5t142 -237.5q7 -33 -25 -41l-147 -39q-15 -5 -27 -1t-16 24q-14 81 -62 132.5t-141 51.5q-102 0 -160.5 -64.5t-58.5 -199.5v-258q0 -128 58.5 -190t164.5 -62q163 0 211 156q5 15 13 20.5t16.5 4.5 t21.5 -7l121 -63q17 -9 24 -18.5t1 -28.5q-88 -233 -355 -256v-60q79 0 126 -47t47 -113v-16q0 -69 -61.5 -120.5t-164.5 -51.5q-69 0 -124 21t-85 45q-18 13 -10 32l35 66q8 16 25 8q82 -51 145 -51q42 0 62 16t20 41v6q0 37 -42 56.5t-122 9.5v162q-168 23 -266.5 133.5 t-98.5 302.5z" />
<glyph unicode="&#xe8;" horiz-adv-x="1105" d="M104 418v274q0 208 125.5 328.5t329.5 120.5q217 0 335 -117.5t118 -357.5v-142q0 -49 -54 -49h-620v-61q0 -114 55 -178t172 -64q171 0 238 141q13 33 47 17l123 -60q33 -20 16 -53q-57 -118 -165 -179t-259 -61q-223 0 -342 118t-119 323zM243 1556.5q4 10.5 21 10.5 h150q25 0 37 -19l165 -280q7 -12 1.5 -20.5t-17.5 -8.5h-111q-16 0 -24 12l-217 285q-9 10 -5 20.5zM338 641h446v70q0 103 -53 169t-172 66q-111 0 -166 -69t-55 -179v-57z" />
<glyph unicode="&#xe9;" horiz-adv-x="1105" d="M104 418v274q0 208 125.5 328.5t329.5 120.5q217 0 335 -117.5t118 -357.5v-142q0 -49 -54 -49h-620v-61q0 -114 55 -178t172 -64q171 0 238 141q13 33 47 17l123 -60q33 -20 16 -53q-57 -118 -165 -179t-259 -61q-223 0 -342 118t-119 323zM338 641h446v70 q0 103 -53 169t-172 66q-111 0 -166 -69t-55 -179v-57zM492.5 1247.5q-5.5 8.5 1.5 20.5l165 280q12 19 37 19h150q17 0 21 -10.5t-5 -20.5l-217 -285q-12 -12 -27 -12h-108q-12 0 -17.5 8.5z" />
<glyph unicode="&#xea;" horiz-adv-x="1105" d="M104 418v274q0 208 125.5 328.5t329.5 120.5q217 0 335 -117.5t118 -357.5v-142q0 -49 -54 -49h-620v-61q0 -114 55 -178t172 -64q171 0 238 141q13 33 47 17l123 -60q33 -20 16 -53q-57 -118 -165 -179t-259 -61q-223 0 -342 118t-119 323zM309 1280l168 258q1 1 3 4 q13 16 25 18q5 1 13 1h109q16 0 23 -5t16 -18l168 -260q6 -9 2 -16t-15 -7h-121q-14 0 -19.5 4.5t-12.5 18.5l-97 172l-98 -176q-9 -19 -29 -19h-118q-30 0 -17 25zM338 641h446v70q0 103 -53 169t-172 66q-111 0 -166 -69t-55 -179v-57z" />
<glyph unicode="&#xeb;" horiz-adv-x="1105" d="M113 418v274q0 208 124.5 328.5t329.5 120.5q217 0 334 -117.5t117 -357.5v-142q0 -49 -51 -49h-621v-61q0 -114 55 -178t172 -64q173 0 236 141q16 33 49 17l121 -60q35 -21 18 -53q-57 -118 -165.5 -179t-258.5 -61q-223 0 -341.5 118t-118.5 323zM270 1311v180 q0 14 8.5 23.5t22.5 9.5h143q14 0 23.5 -9t9.5 -26v-178q0 -17 -9.5 -26t-23.5 -9h-143q-13 0 -22 9.5t-9 25.5zM346 641h445v70q0 49 -11.5 89t-36.5 74t-70.5 53t-107.5 19q-110 0 -164.5 -69t-54.5 -179v-57zM668 1311v180q0 33 30 33h142q32 0 32 -35v-178 q0 -35 -32 -35h-142q-30 0 -30 35z" />
<glyph unicode="&#xec;" horiz-adv-x="509" d="M-54 1556.5q3 10.5 21 10.5h150q27 0 37 -19l168 -280q6 -12 0.5 -20.5t-17.5 -8.5h-110q-15 0 -27 12l-215 285q-10 10 -7 20.5zM137 29v1056q0 16 9 25.5t22 9.5h174q13 0 22 -9.5t9 -23.5v-1058q0 -29 -31 -29h-174q-31 0 -31 29z" />
<glyph unicode="&#xed;" horiz-adv-x="509" d="M137 29v1056q0 16 9 25.5t22 9.5h174q13 0 22 -9.5t9 -23.5v-1058q0 -29 -31 -29h-174q-31 0 -31 29zM191.5 1247.5q-5.5 8.5 1.5 20.5l165 280q12 19 39 19h150q17 0 20 -10.5t-6 -20.5l-215 -285q-12 -12 -27 -12h-110q-12 0 -17.5 8.5z" />
<glyph unicode="&#xee;" horiz-adv-x="509" d="M-8 1284l170 258q10 15 16.5 19t24.5 4h108q24 0 37 -23l170 -260q6 -9 2 -15.5t-16 -6.5h-119q-14 0 -20 4.5t-15 17.5l-94 172l-98 -176q-12 -18 -29 -18h-121q-28 0 -16 24zM137 29v1056q0 16 9 25.5t22 9.5h174q13 0 22 -9.5t9 -23.5v-1058q0 -29 -31 -29h-174 q-31 0 -31 29z" />
<glyph unicode="&#xef;" horiz-adv-x="643" d="M20 1307v180q0 14 8.5 24.5t22.5 10.5h142q32 0 32 -35v-180q0 -35 -32 -35h-142q-31 0 -31 35zM203 29v1056q0 17 8.5 26t21.5 9h175q13 0 21.5 -9.5t8.5 -23.5v-1058q0 -29 -30 -29h-175q-30 0 -30 29zM418 1307v180q0 14 8.5 24.5t22.5 10.5h141q14 0 23.5 -9t9.5 -26 v-180q0 -17 -9.5 -26t-23.5 -9h-141q-31 0 -31 35z" />
<glyph unicode="&#xf0;" horiz-adv-x="1230" d="M113 422v211q0 206 126 324t347 118q86 0 161 -29t111 -59q-45 140 -164 248l-71 -76q-8 -9 -18.5 -8.5t-18.5 8.5l-92 84q-8 6 -8.5 16.5t6.5 18.5l69 76q-51 42 -94 63q-40 20 -12 56l106 124q22 28 57 0q6 -6 39 -33.5t50 -43.5l75 82q9 10 20 10t19 -8l94 -88 q8 -6 9 -17t-6 -20l-78 -84q139 -145 202.5 -321.5t63.5 -418.5v-170q-1 -109 -32.5 -200.5t-92.5 -161t-159 -109t-224 -39.5q-239 0 -362 116t-123 331zM348 422q0 -72 22 -123.5t60 -78.5t79 -38.5t89 -11.5q270 0 270 268v178q0 129 -78 199t-190 70q-108 0 -180 -69 t-72 -198v-196z" />
<glyph unicode="&#xf1;" horiz-adv-x="1181" d="M137 27v1067q0 26 27 26h176q27 0 27 -26v-140q154 187 364 187q156 0 239 -97t83 -249v-768q0 -27 -29 -27h-178q-29 0 -29 27v700q0 36 -4 65t-15.5 59t-30.5 50t-51.5 32.5t-76.5 12.5q-91 0 -159.5 -55t-106.5 -135v-729q0 -10 -5 -16t-16 -8.5t-18 -3t-23.5 0 t-19.5 0.5h-125q-29 0 -29 27zM293 1370q-7 10 0 25q25 44 72.5 85t105.5 50q14 2 43 2q43 -3 86.5 -25t78.5 -42.5t60 -20.5q27 0 49 16.5t31 33.5t21.5 27t21.5 -3l78 -82q10 -13 -2 -29q-36 -53 -86.5 -91t-110.5 -38q-40 0 -77 14t-60 30t-50 30t-50 14q-58 0 -98 -74 q-10 -14 -27 0z" />
<glyph unicode="&#xf2;" horiz-adv-x="1179" d="M113 401v306q0 207 125 320.5t352 113.5q228 0 352.5 -113.5t124.5 -320.5v-295q0 -206 -125 -320.5t-352 -114.5q-228 0 -352.5 112t-124.5 312zM294 1556.5q4 10.5 21 10.5h150q25 0 37 -19l166 -280q7 -14 1.5 -21.5t-18.5 -7.5h-110q-19 0 -25 12l-217 285 q-9 10 -5 20.5zM348 426q0 -132 65 -193t177 -61q111 0 175 62t64 192v266q0 131 -63.5 192.5t-175.5 61.5q-111 0 -176.5 -62t-65.5 -194v-264z" />
<glyph unicode="&#xf3;" horiz-adv-x="1179" d="M113 401v306q0 207 125 320.5t352 113.5q228 0 352.5 -113.5t124.5 -320.5v-295q0 -206 -125 -320.5t-352 -114.5q-228 0 -352.5 112t-124.5 312zM348 426q0 -132 65 -193t177 -61q111 0 175 62t64 192v266q0 131 -63.5 192.5t-175.5 61.5q-111 0 -176.5 -62t-65.5 -194 v-264zM533 1246.5q-5 7.5 2 21.5l165 280q4 7 11 11.5t18.5 6t18.5 2t23 0t20 -0.5h98q17 0 20 -10.5t-6 -20.5l-211 -279q-18 -18 -63 -18h-78q-13 0 -18 7.5z" />
<glyph unicode="&#xf4;" horiz-adv-x="1179" d="M113 401v306q0 207 125 320.5t352 113.5q228 0 352.5 -113.5t124.5 -320.5v-295q0 -206 -125 -320.5t-352 -114.5q-228 0 -352.5 112t-124.5 312zM332 1284l170 258q10 15 16.5 19t24.5 4h108q24 0 37 -23l170 -260q6 -9 2 -15.5t-16 -6.5h-119q-14 0 -20 4.5t-15 17.5 l-94 172l-98 -176q-12 -18 -29 -18h-121q-28 0 -16 24zM348 426q0 -132 65 -193t177 -61q111 0 175 62t64 192v266q0 131 -63.5 192.5t-175.5 61.5q-111 0 -176.5 -62t-65.5 -194v-264z" />
<glyph unicode="&#xf5;" horiz-adv-x="1179" d="M113 401v306q0 207 125 320.5t352 113.5q228 0 352.5 -113.5t124.5 -320.5v-295q0 -206 -125 -320.5t-352 -114.5q-228 0 -352.5 112t-124.5 312zM285 1370q-11 11 0 25q25 44 72.5 85t105.5 50q14 2 43 2q43 -3 86.5 -25t78.5 -42.5t60 -20.5q27 0 49 16.5t31 33.5 t21.5 27t21.5 -3l76 -82q12 -15 -2 -29q-34 -52 -84.5 -90.5t-110.5 -38.5q-51 0 -95.5 22t-79.5 44t-62 22q-34 0 -57 -19t-44 -55q-8 -16 -24 0zM348 426q0 -132 65 -193t177 -61q111 0 175 62t64 192v266q0 131 -63.5 192.5t-175.5 61.5q-111 0 -176.5 -62t-65.5 -194 v-264z" />
<glyph unicode="&#xf6;" horiz-adv-x="1179" d="M113 401v306q0 207 125 320.5t352 113.5q228 0 352.5 -113.5t124.5 -320.5v-295q0 -206 -125 -320.5t-352 -114.5q-228 0 -352.5 112t-124.5 312zM305 1307v180q0 14 8.5 24.5t22.5 10.5h141q14 0 23.5 -9t9.5 -26v-180q0 -17 -9.5 -26t-23.5 -9h-141q-13 0 -22 10t-9 25 zM348 426q0 -132 65 -193t177 -61q111 0 175 62t64 192v266q0 131 -63.5 192.5t-175.5 61.5q-111 0 -176.5 -62t-65.5 -194v-264zM702 1307v180q0 35 31 35h141q14 0 23.5 -9t9.5 -26v-180q0 -17 -9.5 -26t-23.5 -9h-141q-13 0 -22 10t-9 25z" />
<glyph unicode="&#xf7;" horiz-adv-x="1165" d="M59 563v139q0 11 7 19t18 8h999q23 0 23 -29v-137q0 -11 -6.5 -18.5t-18.5 -7.5h-997q-12 0 -18.5 7.5t-6.5 18.5zM479 133v221q0 35 31 35h145q14 0 23.5 -9t9.5 -26v-221q0 -17 -9.5 -26t-23.5 -9h-145q-31 0 -31 35zM479 926v223q0 35 31 35h145q14 0 23.5 -9t9.5 -26 v-221q0 -17 -9.5 -26t-23.5 -9h-145q-14 0 -22.5 9t-8.5 24z" />
<glyph unicode="&#xf8;" horiz-adv-x="1179" d="M113 401v306q0 207 125 320.5t354 113.5q135 0 231 -41l43 71q8 14 15 18.5t26 4.5l101 -2q16 0 20 -8t-2 -15l-82 -143q123 -114 123 -319v-295q0 -206 -125 -320.5t-352 -114.5q-132 0 -230 37l-51 -88q-6 -13 -13.5 -17.5t-25.5 -4.5h-104q-33 0 -14 35l86 147 q-125 113 -125 315zM350 426q0 -70 21 -113l348 605q-52 28 -129 28q-111 0 -175.5 -62t-64.5 -194v-264zM465 195q61 -23 125 -23q111 0 176 62t65 192v266q0 59 -20 107z" />
<glyph unicode="&#xf9;" horiz-adv-x="1181" d="M127 313v781q0 26 29 26h182q27 0 27 -24v-729q0 -99 42.5 -147t118.5 -48t152 42t131 116v764q0 26 27 26h182q12 0 20.5 -6.5t8.5 -17.5v-1069q0 -12 -8 -19.5t-19 -7.5h-178q-11 0 -19 7.5t-8 19.5v104q-76 -70 -161 -112t-197 -42q-160 0 -245 88t-85 248z M285 1556.5q3 10.5 20 10.5h150q27 0 39 -19l165 -280q7 -12 1.5 -20.5t-17.5 -8.5h-111q-14 0 -26 12l-215 285q-9 10 -6 20.5z" />
<glyph unicode="&#xfa;" horiz-adv-x="1181" d="M127 313v781q0 26 29 26h182q27 0 27 -24v-729q0 -99 42.5 -147t118.5 -48t152 42t131 116v764q0 26 27 26h182q12 0 20.5 -6.5t8.5 -17.5v-1069q0 -12 -8 -19.5t-19 -7.5h-178q-11 0 -19 7.5t-8 19.5v104q-76 -70 -161 -112t-197 -42q-160 0 -245 88t-85 248z M516.5 1247.5q-5.5 8.5 1.5 20.5l166 280q12 19 39 19h149q17 0 20.5 -10.5t-5.5 -20.5l-215 -285q-12 -12 -27 -12h-110q-13 0 -18.5 8.5z" />
<glyph unicode="&#xfb;" horiz-adv-x="1181" d="M127 313v781q0 26 29 26h182q27 0 27 -24v-729q0 -99 42.5 -147t118.5 -48t152 42t131 116v764q0 26 27 26h182q12 0 20.5 -6.5t8.5 -17.5v-1069q0 -12 -8 -19.5t-19 -7.5h-178q-11 0 -19 7.5t-8 19.5v104q-76 -70 -161 -112t-197 -42q-160 0 -245 88t-85 248zM328 1284 l170 258q10 15 16.5 19t24.5 4h108q24 0 37 -23l170 -260q6 -9 2 -15.5t-16 -6.5h-119q-14 0 -20 4.5t-15 17.5l-94 172l-98 -176q-12 -18 -29 -18h-121q-28 0 -16 24z" />
<glyph unicode="&#xfc;" horiz-adv-x="1181" d="M127 313v781q0 26 29 26h182q27 0 27 -24v-729q0 -99 42.5 -147t118.5 -48t152 42t131 116v764q0 26 27 26h182q12 0 20.5 -6.5t8.5 -17.5v-1069q0 -12 -8 -19.5t-19 -7.5h-178q-11 0 -19 7.5t-8 19.5v104q-76 -70 -161 -112t-197 -42q-160 0 -245 88t-85 248zM289 1307 v180q0 35 30 35h142q14 0 23.5 -9t9.5 -26v-180q0 -17 -9.5 -26t-23.5 -9h-142q-13 0 -21.5 10t-8.5 25zM684 1307v180q0 14 8.5 24.5t22.5 10.5h143q14 0 23.5 -9t9.5 -26v-180q0 -17 -9.5 -26t-23.5 -9h-143q-12 0 -21.5 10t-9.5 25z" />
<glyph unicode="&#xfd;" horiz-adv-x="993" d="M0 1094q-4 8 0 17t16 9h217q17 0 25 -22l250 -817l252 815q7 24 24 24h199q27 0 16 -26l-391 -1090q-58 -165 -143.5 -267t-196.5 -171q-35 -20 -53 4l-90 123q-28 32 4 47q91 46 149.5 108t100.5 170zM436.5 1246.5q-5.5 7.5 1.5 21.5l166 280q12 19 39 19h150 q17 0 20 -10.5t-6 -20.5l-215 -285q-9 -12 -27 -12h-110q-13 0 -18.5 7.5z" />
<glyph unicode="&#xfe;" horiz-adv-x="1206" d="M139 -397v1908q0 11 8.5 18t18.5 7h176q11 0 19 -7t8 -18v-559q24 32 54 60.5t73.5 60t101.5 50t121 18.5q182 0 281.5 -117.5t99.5 -302.5v-309q0 -103 -32 -187t-87 -137.5t-125 -82t-149 -28.5q-217 0 -330 148v-522q0 -11 -7.5 -19t-17.5 -8h-186q-10 0 -18.5 7 t-8.5 20zM377 434q0 -68 25 -125.5t83.5 -97t143.5 -39.5q235 0 235 262v244q0 130 -55 198t-160 68q-121 0 -196.5 -85t-75.5 -230v-195z" />
<glyph unicode="&#xff;" horiz-adv-x="993" d="M0 1094q-4 8 0 17t16 9h217q17 0 25 -22l250 -817l252 815q7 24 24 24h199q27 0 16 -26l-391 -1090q-58 -165 -143.5 -267t-196.5 -171q-35 -20 -53 4l-90 123q-28 32 4 47q91 46 149.5 108t100.5 170zM213 1311v180q0 14 8.5 24.5t22.5 10.5h143q14 0 23.5 -9t9.5 -26 v-178q0 -17 -9.5 -26t-23.5 -9h-143q-12 0 -21.5 9t-9.5 24zM610 1311v180q0 14 8.5 24.5t22.5 10.5h141q33 0 33 -35v-178q0 -35 -33 -35h-141q-14 0 -22.5 9t-8.5 24z" />
<glyph unicode="&#x152;" horiz-adv-x="1935" d="M125 492v512q0 235 146.5 375.5t416.5 140.5q200 0 322 -115v94h805q11 0 17.5 -9.5t6.5 -21.5v-157q0 -27 -24 -27h-562v-418h510q25 0 25 -26v-156q0 -10 -7 -18.5t-18 -8.5h-510v-442h562q24 0 24 -29v-159q0 -27 -24 -27h-805v109q-47 -62 -130 -98t-192 -36 q-271 0 -417 139.5t-146 377.5zM369 518q0 -156 79 -242t240 -86t241.5 86t80.5 240v467q-2 152 -82 237t-240 85q-162 0 -240.5 -84.5t-78.5 -241.5v-461z" />
<glyph unicode="&#x153;" horiz-adv-x="1843" d="M113 395v310q0 200 133.5 318t345.5 118q225 0 377 -140q127 140 329 140q224 0 338.5 -128t114.5 -380v-121q0 -37 -41 -37h-629v-90q5 -99 61 -156t165 -57q98 0 148.5 34.5t82.5 106.5q14 31 49 17l129 -60q36 -16 19 -55q-58 -115 -166.5 -176.5t-261.5 -61.5 q-218 0 -344 132q-59 -65 -155 -98.5t-212 -33.5q-228 0 -355.5 109.5t-127.5 308.5zM348 414q0 -242 248 -242q124 0 185 60t61 192v266q-2 127 -56.5 191.5t-187.5 64.5q-122 0 -186 -64t-64 -188v-280zM1081 641h443v70q0 99 -58 167t-168 68q-105 0 -161 -64.5 t-56 -166.5v-74z" />
<glyph unicode="&#x178;" horiz-adv-x="1177" d="M-7 1489.5q3 9.5 15 9.5h221q18 0 27 -18l336 -660l330 660q10 18 28 18h217q11 0 15.5 -10.5t-0.5 -18.5l-471 -870v-573q0 -12 -7 -19.5t-16 -7.5h-196q-9 0 -17 7.5t-8 19.5v571l-471 872q-6 10 -3 19.5zM297 1720v181q0 34 31 34h141q14 0 23.5 -9t9.5 -25v-181 q0 -16 -9.5 -25t-23.5 -9h-141q-31 0 -31 34zM692 1720v181q0 14 8.5 24t22.5 10h143q14 0 23.5 -9t9.5 -25v-181q0 -16 -9.5 -25t-23.5 -9h-143q-13 0 -22 9t-9 25z" />
<glyph unicode="&#x2c6;" horiz-adv-x="763" d="M119 1284l170 258q10 15 16.5 19t24.5 4h108q24 0 37 -23l170 -260q6 -9 2 -15.5t-16 -6.5h-119q-14 0 -20.5 4.5t-14.5 17.5l-94 172l-98 -176q-12 -18 -29 -18h-121q-28 0 -16 24z" />
<glyph unicode="&#x2dc;" horiz-adv-x="892" d="M123 1366q-10 8 0 25q26 43 73 83.5t105 49.5q7 2 43 2q43 -2 86 -23.5t78.5 -42t60.5 -20.5q27 0 49 16t31 33t21.5 26.5t21.5 -2.5l76 -81q11 -14 -2 -31q-33 -51 -84 -89t-111 -38q-51 0 -95.5 22t-79.5 44t-62 22q-34 0 -56.5 -19t-44.5 -55q-3 -8 -9.5 -8.5 t-14.5 6.5z" />
<glyph unicode="&#x2000;" horiz-adv-x="988" />
<glyph unicode="&#x2001;" horiz-adv-x="1976" />
<glyph unicode="&#x2002;" horiz-adv-x="988" />
<glyph unicode="&#x2003;" horiz-adv-x="1976" />
<glyph unicode="&#x2004;" horiz-adv-x="658" />
<glyph unicode="&#x2005;" horiz-adv-x="494" />
<glyph unicode="&#x2006;" horiz-adv-x="329" />
<glyph unicode="&#x2007;" horiz-adv-x="329" />
<glyph unicode="&#x2008;" horiz-adv-x="247" />
<glyph unicode="&#x2009;" horiz-adv-x="395" />
<glyph unicode="&#x200a;" horiz-adv-x="109" />
<glyph unicode="&#x2010;" horiz-adv-x="976" d="M115 553v129q0 29 24 29h699q24 0 24 -29v-129q0 -29 -28 -29h-691q-28 0 -28 29z" />
<glyph unicode="&#x2011;" horiz-adv-x="976" d="M115 553v129q0 29 24 29h699q24 0 24 -29v-129q0 -29 -28 -29h-691q-28 0 -28 29z" />
<glyph unicode="&#x2012;" horiz-adv-x="976" d="M115 553v129q0 29 24 29h699q24 0 24 -29v-129q0 -29 -28 -29h-691q-28 0 -28 29z" />
<glyph unicode="&#x2013;" horiz-adv-x="1091" d="M115 553v125q0 27 24 27h815q23 0 23 -29v-123q0 -10 -7 -18.5t-18 -8.5h-813q-11 0 -17.5 8.5t-6.5 18.5z" />
<glyph unicode="&#x2014;" horiz-adv-x="2115" d="M115 553v125q0 27 24 27h1839q23 0 23 -29v-123q0 -10 -7 -18.5t-18 -8.5h-1837q-11 0 -17.5 8.5t-6.5 18.5z" />
<glyph unicode="&#x2018;" horiz-adv-x="505" d="M113 1018q0 104 22 191.5t61.5 150t85.5 106t101 72.5q19 12 37 -6l45 -53q11 -11 11.5 -24.5t-11.5 -22.5q-81 -69 -102 -145.5t-21 -268.5q0 -29 -31 -29h-168q-18 0 -24 7t-6 22z" />
<glyph unicode="&#x2019;" horiz-adv-x="534" d="M68 1018q-23 27 2 49q81 69 100.5 143.5t19.5 270.5q0 28 31 28h168q19 0 26 -6.5t7 -21.5q0 -85 -15 -158.5t-40 -129t-60 -101.5t-73 -77t-82 -54q-21 -13 -37 6z" />
<glyph unicode="&#x201a;" horiz-adv-x="456" d="M25 -172q80 68 101 152t21 282q0 29 31 29h168q19 0 26 -7t7 -22q0 -105 -22.5 -196t-61.5 -157t-86.5 -112.5t-102.5 -75.5q-17 -12 -36 7l-45 51q-24 28 0 49z" />
<glyph unicode="&#x201c;" horiz-adv-x="921" d="M113 1026q0 105 22 192.5t61.5 150t85 106t101.5 73.5q22 9 37 -8l45 -51q24 -28 0 -49q-81 -68 -102 -144t-21 -270q0 -29 -31 -29h-168q-30 0 -30 29zM526 1026q0 105 22.5 192.5t62 150t86 106t102.5 73.5q21 11 37 -8l45 -51q24 -28 0 -49q-81 -68 -102 -144 t-21 -270q0 -29 -31 -29h-168q-33 0 -33 29z" />
<glyph unicode="&#x201d;" horiz-adv-x="940" d="M59 1022q-24 28 0 49q81 68 102 144t21 270q0 28 31 28h168q19 0 25 -7t6 -21q0 -105 -22 -192.5t-61 -150t-85.5 -106t-102.5 -73.5q-22 -9 -37 8zM473 1022q-23 27 2 49q81 67 101 143t20 271q0 28 31 28h168q32 0 32 -28q0 -105 -22 -192.5t-61.5 -150t-85 -106 t-101.5 -73.5q-24 -10 -37 8z" />
<glyph unicode="&#x201e;" horiz-adv-x="874" d="M25 -207q81 69 101.5 144.5t20.5 269.5q0 29 31 29h168q19 0 26 -7t7 -22q0 -202 -76.5 -329.5t-196.5 -190.5q-17 -13 -36 6l-45 51q-24 28 0 49zM442 -207q82 69 102.5 145t20.5 269q0 29 31 29h168q31 0 31 -29q0 -105 -22 -192.5t-61.5 -149.5t-85.5 -105t-102 -73 q-19 -12 -37 6l-45 51q-24 28 0 49z" />
<glyph unicode="&#x2022;" horiz-adv-x="868" d="M121 653q0 129 91.5 221.5t221.5 92.5q132 0 224 -91t92 -223q0 -130 -92.5 -222.5t-223.5 -92.5q-132 0 -222.5 91.5t-90.5 223.5z" />
<glyph unicode="&#x2026;" horiz-adv-x="1456" d="M123 35v221q0 14 8.5 24.5t22.5 10.5h145q33 0 33 -35v-221q0 -35 -33 -35h-145q-31 0 -31 35zM725 35v221q0 14 8.5 24.5t22.5 10.5h145q33 0 33 -35v-221q0 -35 -33 -35h-145q-31 0 -31 35zM1022 35v221q0 14 8.5 24.5t22.5 10.5h147q14 0 23.5 -9t9.5 -26v-221 q0 -17 -9.5 -26t-23.5 -9h-147q-13 0 -22 9.5t-9 25.5z" />
<glyph unicode="&#x202f;" horiz-adv-x="395" />
<glyph unicode="&#x2039;" horiz-adv-x="679" d="M84 608l313 457q8 12 21.5 15.5t27.5 -5.5l111 -67q27 -15 8 -41l-250 -357l250 -360q19 -23 -8 -41l-111 -68q-14 -8 -27.5 -4t-21.5 17z" />
<glyph unicode="&#x203a;" horiz-adv-x="679" d="M123 250l250 360l-250 357q-19 26 8 41l109 67q16 9 29.5 5.5t21.5 -15.5l313 -457l-313 -454q-8 -13 -22 -17t-29 4l-109 68q-27 18 -8 41z" />
<glyph unicode="&#x205f;" horiz-adv-x="494" />
<glyph unicode="&#x20ac;" horiz-adv-x="1347" d="M63 535v124q0 27 25 27h152v123h-150q-27 0 -27 29v129q0 26 25 26h152v39q0 215 143 351.5t377 136.5q210 0 347 -98t173 -244q12 -48 -25 -60l-147 -45q-15 -4 -26.5 3t-16.5 22q-65 219 -305 219q-137 0 -207 -76t-70 -205v-43h367q29 0 29 -26v-129q0 -29 -29 -29 h-367v-123h371q12 0 18.5 -8.5t6.5 -18.5v-124q0 -29 -29 -29h-365v-62q0 -131 68.5 -201.5t206.5 -70.5q247 0 303 219q12 42 57 29l131 -49q40 -15 17 -72q-123 -324 -508 -324q-245 0 -382.5 131t-137.5 359v41h-150q-27 0 -27 29z" />
<glyph unicode="&#x2122;" horiz-adv-x="1140" d="M33 1419v64q0 16 10 16h432q10 0 10 -16v-64q0 -16 -10 -16h-160v-496q0 -12 -12 -12h-90q-12 0 -12 12v496h-158q-10 0 -10 16zM539 905v582q0 12 12 12h125q9 0 14 -10l74 -250q45 -152 51 -184q9 45 53 184l76 250q2 10 14 10h119q13 0 13 -10v-582q0 -12 -11 -12h-94 q-7 0 -10 12v267v108l-117 -377q-5 -10 -12 -10h-64q-9 0 -12 10l-121 379q2 -17 2 -98v-281q0 -10 -10 -10h-94q-8 0 -8 10z" />
<glyph unicode="&#x25fc;" horiz-adv-x="1116" d="M0 0v1116h1116v-1116h-1116z" />
</font>
</defs>
</svg>
