<?xml version="1.0" standalone="no"?>
<!DOCTYPE svg PUBLIC "-//W3C//DTD SVG 1.1//EN" "http://www.w3.org/Graphics/SVG/1.1/DTD/svg11.dtd" >
<svg xmlns="http://www.w3.org/2000/svg" xmlns:xlink="http://www.w3.org/1999/xlink" version="1.1">
<metadata></metadata>
<defs>
<font id="frank_regularregular" horiz-adv-x="1052" >
<font-face units-per-em="2048" ascent="1536" descent="-512" />
<missing-glyph horiz-adv-x="382" />
<glyph unicode="&#xfb01;" horiz-adv-x="1132" d="M74 952v105q0 22 18 22h121v88q0 173 99 271t270 98q243 0 356 -158q17 -23 -4 -41l-82 -67q-20 -17 -35 2q-40 54 -90.5 82t-130.5 28q-102 0 -151.5 -52t-49.5 -173v-78h572q18 0 18 -22v-1028q0 -29 -27 -29h-129q-26 0 -26 27v903h-408v-907q0 -23 -24 -23h-133 q-25 0 -25 23v907h-121q-18 0 -18 22z" />
<glyph unicode="&#xfb02;" horiz-adv-x="1132" d="M74 954v101q0 24 20 24h119v101q0 155 111 252.5t278 97.5q202 0 359 -117q24 -19 24 -49v-1337q0 -13 -8 -20t-19 -7h-131q-24 0 -24 27v1290q-73 69 -201 69q-106 0 -156.5 -62t-50.5 -150v-95h197q18 0 18 -22v-105q0 -22 -18 -22h-197v-912q0 -18 -22 -18h-137 q-23 0 -23 18v912h-119q-20 0 -20 24z" />
<glyph horiz-adv-x="0" />
<glyph horiz-adv-x="682" />
<glyph unicode=" "  horiz-adv-x="382" />
<glyph unicode="&#x09;" horiz-adv-x="382" />
<glyph unicode="&#xa0;" horiz-adv-x="382" />
<glyph unicode="!" horiz-adv-x="546" d="M184 1495q0 23 25 23h131q22 0 22 -23l-20 -1026q0 -20 -25 -20h-88q-22 0 -22 20zM188 31v172q0 14 8 23.5t21 9.5h113q30 0 30 -33v-170q0 -33 -30 -33h-113q-13 0 -21 8t-8 23z" />
<glyph unicode="&#x22;" horiz-adv-x="716" d="M102 1487q0 22 23 22h137q21 0 21 -22l-29 -520q0 -7 -7 -12t-16 -5h-75q-22 0 -25 19zM436 1487q-3 22 21 22h137q23 0 20 -22l-28 -520q0 -7 -7 -12t-16 -5h-76q-22 0 -22 19z" />
<glyph unicode="#" horiz-adv-x="1294" d="M55 496l15 86q1 13 8 18.5t22 5.5h211l68 316h-203q-27 0 -22 24l14 86q3 25 27 25h215l94 434q6 18 26 18h115q18 0 14 -18l-92 -434h303l93 434q3 18 24 18h117q18 0 14 -16l-94 -436h193q27 0 22 -27l-14 -84q-3 -24 -27 -24h-205l-67 -316h192q28 0 23 -26l-15 -84 q-3 -25 -30 -25h-201l-96 -451q-3 -20 -25 -20h-112q-20 0 -17 20l96 451h-303l-96 -453q-6 -18 -27 -18h-112q-21 0 -17 18l97 453h-205q-11 0 -18.5 6.5t-4.5 18.5zM467 606h303l68 316h-306z" />
<glyph unicode="$" horiz-adv-x="1114" d="M72 365q-8 35 18 45l100 39q40 14 52 -25q19 -94 103 -164t216 -70q139 0 212 60t73 166q0 30 -8.5 55.5t-20 45.5t-37.5 40.5t-47 34t-63 33t-70 31.5t-84 34q-101 40 -164 72.5t-120.5 80t-84 109.5t-26.5 144q0 138 94 235.5t250 122.5v172q0 27 27 27h133 q30 0 30 -29v-172q140 -14 240.5 -94t132.5 -178q16 -45 -14 -56l-82 -30q-21 -10 -40 -10t-28 22q-27 86 -103 142.5t-194 56.5q-120 0 -189 -55.5t-69 -139.5q0 -28 7 -51.5t17 -42.5t33.5 -38t44 -33t61 -33.5t73 -33.5t90.5 -38q102 -41 165.5 -74t123 -81t87 -109.5 t27.5 -141.5q0 -156 -108 -261t-275 -132v-172q0 -27 -26 -27h-135q-29 0 -29 27v170q-148 17 -258 110.5t-135 215.5z" />
<glyph unicode="%" horiz-adv-x="1519" d="M84 1006v290q0 115 74.5 174.5t199.5 59.5t201 -60t76 -174v-290q0 -114 -75.5 -172t-201.5 -58q-125 0 -199.5 58t-74.5 172zM236 1006q0 -107 122 -107q125 0 125 107v290q0 56 -34 82.5t-91 26.5q-56 0 -89 -27.5t-33 -83.5v-288zM279 27l778 1462q6 12 13 16t24 4 h114q13 0 16.5 -6.5t-1.5 -13.5l-781 -1471q-12 -18 -34 -18h-115q-29 0 -14 27zM887 211v295q0 115 75 176t199 61t199.5 -61t75.5 -176v-295q0 -114 -75.5 -172.5t-201.5 -58.5q-125 0 -198.5 58t-73.5 173zM1036 211q0 -109 123 -109q56 0 89.5 26.5t33.5 82.5v295 q0 58 -33 86.5t-90 28.5t-90 -28.5t-33 -86.5v-295z" />
<glyph unicode="&#x26;" horiz-adv-x="1421" d="M82 440q0 107 39.5 194.5t103 148.5t158.5 118q-42 50 -56 67.5t-43.5 58.5t-40 65.5t-20.5 61t-10 73.5q0 124 92.5 216.5t255.5 92.5q82 0 147.5 -25t107.5 -67.5t67.5 -89t38.5 -99.5q8 -26 -23 -34l-115 -29q-30 -8 -36 25q-42 169 -191 172q-75 0 -120.5 -48 t-45.5 -114q0 -23 7.5 -46.5t15.5 -41t29.5 -45.5t34.5 -43t45.5 -51t47.5 -54l455 -514q18 71 18 201v143q0 29 25 29h125q23 0 23 -29v-131q0 -218 -70 -350l239 -266q10 -13 4 -21t-18 -8h-158q-19 0 -36 20l-129 144q-164 -184 -451 -184q-222 0 -369 128.5t-147 331.5z M270 444q0 -143 100 -227t242 -84q211 0 330 150l-450 505q-117 -62 -169.5 -145t-52.5 -199z" />
<glyph unicode="'" horiz-adv-x="368" d="M102 1487q0 22 23 22h137q21 0 21 -22l-29 -520q0 -7 -7 -12t-16 -5h-75q-22 0 -25 19z" />
<glyph unicode="(" horiz-adv-x="712" d="M131 662q0 148 30 294t77.5 258t96 194.5t95.5 133.5q22 22 41 6l88 -71q20 -15 4 -31q-94 -111 -171 -325t-77 -462q0 -130 22.5 -257t58.5 -227.5t73.5 -175.5t75.5 -128q14 -22 -10 -39l-76 -61q-30 -23 -49 2q-43 52 -86.5 130t-89.5 190t-74.5 262t-28.5 307z" />
<glyph unicode=")" horiz-adv-x="712" d="M150 1446q-14 19 4 33l88 71q21 17 41 -8q51 -60 99.5 -143.5t95.5 -195t75.5 -253.5t28.5 -288q0 -157 -28.5 -307t-74 -261.5t-89 -189.5t-85.5 -127q-20 -26 -49 -6l-80 63q-22 19 -8 37q87 118 158 333t71 455q0 250 -76.5 464t-170.5 323z" />
<glyph unicode="*" horiz-adv-x="794" d="M72 1241l30 96q5 24 29 15l215 -99l-20 242q-2 9 4 16t18 7h107q20 0 20 -23l-22 -242l209 95q21 11 30 -15l31 -94q9 -27 -14 -31l-224 -55l156 -180q18 -18 -2 -35l-80 -59q-21 -15 -37 8l-125 205l-125 -205q-17 -22 -34 -8l-80 63q-18 12 -4 31l157 180l-225 57 q-23 4 -14 31z" />
<glyph unicode="+" horiz-adv-x="1177" d="M70 586v94q0 14 7.5 22.5t18.5 8.5h408v413q0 27 28 27h113q27 0 27 -27v-413h407q13 0 21 -8.5t8 -22.5v-94q0 -29 -29 -29h-407v-422q0 -26 -27 -26h-113q-28 0 -28 26v422h-408q-26 0 -26 29z" />
<glyph unicode="," horiz-adv-x="417" d="M30.5 -184.5q0.5 11.5 10.5 20.5q70 68 89.5 149t19.5 269q0 25 24 25h129q25 0 25 -25q0 -350 -217 -500q-18 -13 -33 2l-39 41q-9 7 -8.5 18.5z" />
<glyph unicode="-" horiz-adv-x="935" d="M119 565v99q0 24 22 24h654q22 0 22 -24v-99q0 -24 -24 -24h-652q-22 0 -22 24z" />
<glyph unicode="." horiz-adv-x="423" d="M123 31v215q0 33 29 33h120q29 0 29 -33v-213q0 -33 -29 -33h-120q-29 0 -29 31z" />
<glyph unicode="/" horiz-adv-x="786" d="M8 29l600 1460q6 13 12 16.5t23 3.5h121q24 0 16 -20l-604 -1471q-8 -18 -35 -18h-116q-28 0 -17 29z" />
<glyph unicode="0" horiz-adv-x="1269" d="M141 451v591q0 231 122 353.5t372 122.5t371.5 -121t121.5 -350v-596q0 -228 -122 -351t-371 -123q-250 0 -372 121.5t-122 352.5zM330 465q0 -158 73 -239t232 -81q164 0 234.5 78.5t70.5 241.5v563q0 160 -71 241t-234 81q-159 0 -232 -82t-73 -240v-563z" />
<glyph unicode="1" horiz-adv-x="1071" d="M131 1294q-3 24 14 27q12 3 67 15.5t98.5 23t92 26t70.5 29.5q33 21 72 82h119v-1331h272q22 0 22 -23v-118q0 -25 -22 -25h-739q-23 0 -23 25v118q0 23 21 23h280v1053l-307 -39q-26 0 -29 22z" />
<glyph unicode="2" horiz-adv-x="1243" d="M135 0v145q0 110 20 189.5t72.5 154.5t143.5 139t233 130q133 62 202 114t92.5 101.5t23.5 122.5q0 112 -71.5 183t-199.5 71q-131 0 -202 -54t-115 -159q-14 -38 -43 -29l-103 39q-1 0 -2 1q-10 5 -14 8.5t-8 13t4 22.5q60 151 181.5 238.5t299.5 87.5q224 0 343.5 -119 t119.5 -305q0 -169 -90.5 -272.5t-327.5 -213.5q-121 -57 -192.5 -101.5t-109.5 -92t-49 -91t-11 -112.5v-45h747q23 0 23 -25v-114q0 -27 -23 -27h-944z" />
<glyph unicode="3" horiz-adv-x="1216" d="M102 305q-11 40 21 51l92 35q42 18 53 -20q28 -102 109.5 -164t218.5 -62q133 0 216 69.5t83 195.5v18q0 127 -78.5 199.5t-220.5 72.5h-96q-21 0 -21 23v111q0 24 21 24h100q116 0 189 65t73 167v28q0 114 -67 173t-193 59q-116 0 -183 -50t-108 -155q-12 -31 -39 -21 l-102 37q-28 9 -16 43q48 148 164 231t284 83q219 0 334 -103.5t115 -288.5v-30q0 -112 -69.5 -201t-170.5 -113q53 -11 100 -35.5t87 -65.5t63.5 -104t23.5 -141v-26q0 -127 -65 -226.5t-175 -153t-245 -53.5q-89 0 -164.5 19t-129 50.5t-95.5 75t-67.5 88.5t-41.5 95z" />
<glyph unicode="4" horiz-adv-x="1234" d="M90 492q-4 17 8 34l707 983q16 23 37 11l94 -80q24 -14 8 -41l-614 -856h407v278q0 23 27 23h139q25 0 25 -23v-278h174q24 0 24 -27v-115q0 -24 -24 -24h-174v-365q0 -24 -25 -24h-139q-27 0 -27 24v365h-604q-17 0 -22 18z" />
<glyph unicode="5" horiz-adv-x="1232" d="M137 299q-16 46 17 57l96 37q13 7 28 2.5t21 -22.5q29 -101 108 -164.5t209 -63.5q140 0 218.5 86.5t78.5 239.5v41q0 154 -71 233.5t-209 79.5q-93 0 -160 -36.5t-121 -116.5q-17 -23 -39 -10l-100 49q-16 9 -18.5 16.5t-1.5 20.5l55 749h737q23 0 23 -24v-117 q0 -25 -23 -25h-577l-35 -477l4 -2q54 60 126 95.5t189 35.5q188 0 300 -121t112 -348v-49q0 -230 -132.5 -359t-353.5 -129q-89 0 -164 21t-126 53t-91 76.5t-62.5 85.5t-37.5 86z" />
<glyph unicode="6" horiz-adv-x="1269" d="M141 469v494q0 260 135 407.5t381 147.5q81 0 150.5 -19t117 -48.5t85 -70t59 -78t35.5 -77.5q7 -20 1 -29t-24 -16l-108 -39q-12 -7 -21 -1.5t-18 27.5q-32 82 -100.5 132.5t-176.5 50.5q-161 0 -243.5 -93.5t-83.5 -293.5v-144l4 -2q45 73 137.5 119.5t210.5 46.5 q207 0 332 -124.5t125 -342.5v-67q0 -209 -138.5 -340.5t-347.5 -131.5q-244 0 -378 136t-134 356zM332 463q0 -142 83 -230t240 -88q131 0 213 88.5t82 229.5v41q0 151 -75 236t-213 85q-147 0 -238.5 -88t-91.5 -235v-39z" />
<glyph unicode="7" horiz-adv-x="1081" d="M115 1356v117q0 24 22 24h850q12 0 19.5 -6.5t7.5 -17.5v-84q0 -26 -17 -50q-136 -194 -254 -419.5t-200 -471t-82 -423.5q0 -25 -25 -25h-141q-25 0 -25 25q0 138 46.5 313.5t123.5 350.5t166.5 337.5t186.5 304.5h-656q-22 0 -22 25z" />
<glyph unicode="8" horiz-adv-x="1292" d="M131 393v45q0 140 70 227.5t202 137.5q-96 31 -158.5 109.5t-62.5 205.5v33q0 174 120.5 270.5t342.5 96.5t343.5 -96.5t121.5 -270.5v-33q0 -127 -62.5 -205.5t-160.5 -109.5q133 -50 203.5 -137.5t70.5 -227.5v-45q0 -194 -138 -305t-378 -111t-377 110.5t-137 305.5z M319 412q0 -131 83 -200t243 -69t243 69t83 200v32q0 133 -83 202t-243 69q-159 0 -242.5 -69t-83.5 -202v-32zM367 1102q0 -111 74 -170.5t204 -59.5q131 0 206 59.5t75 170.5v33q0 223 -281 223q-278 0 -278 -223v-33z" />
<glyph unicode="9" horiz-adv-x="1255" d="M119 985v59q0 131 58 238t173 171.5t268 64.5q227 0 361.5 -131.5t134.5 -354.5v-526q0 -136 -41 -240.5t-112 -166t-158.5 -92t-188.5 -30.5q-163 0 -283 65t-175 169q-20 39 8 55l100 53q29 15 43 -14q83 -160 301 -160q69 0 124 18t99.5 56t68.5 104.5t24 157.5v176 q-47 -75 -136.5 -117t-201.5 -42q-215 0 -341 134.5t-126 352.5zM309 987q0 -153 77 -242.5t226 -89.5q142 0 227 84t85 222v63q0 155 -80.5 240.5t-225.5 85.5q-142 0 -225.5 -83t-83.5 -233v-47z" />
<glyph unicode=":" horiz-adv-x="434" d="M125 31v215q0 14 8 23.5t21 9.5h120q13 0 22 -8.5t9 -24.5v-213q0 -16 -9 -24.5t-22 -8.5h-120q-12 0 -20.5 8t-8.5 23zM125 872v215q0 14 8 22.5t21 8.5h120q31 0 31 -31v-213q0 -32 -31 -32h-120q-29 0 -29 30z" />
<glyph unicode=";" horiz-adv-x="442" d="M18.5 -184.5q0.5 11.5 10.5 20.5q70 67 89 148t19 270q0 25 25 25h129q24 0 24 -25q0 -350 -217 -500q-17 -13 -32 2l-39 41q-9 7 -8.5 18.5zM137 872v215q0 31 27 31h121q30 0 30 -31v-213q0 -32 -30 -32h-121q-27 0 -27 30z" />
<glyph unicode="&#x3c;" horiz-adv-x="1028" d="M115 578v108q0 24 22 33l721 254q13 5 22 -1t9 -24v-110q0 -24 -21 -31l-549 -174l547 -174q23 -7 23 -33v-107q0 -20 -10 -25t-33 3l-709 248q-22 7 -22 33z" />
<glyph unicode="=" horiz-adv-x="1009" d="M100 428v102q0 25 23 25h764q22 0 22 -25v-102q0 -25 -24 -25h-760q-25 0 -25 25zM100 739v103q0 24 23 24h764q22 0 22 -24v-103q0 -26 -24 -26h-760q-25 0 -25 26z" />
<glyph unicode="&#x3e;" horiz-adv-x="1028" d="M141 319v107q0 27 21 33l549 174l-549 174q-21 6 -21 31v110q0 35 31 25l719 -254q22 -9 22 -33v-108q0 -26 -22 -33l-709 -248q-23 -8 -32 -3t-9 25z" />
<glyph unicode="?" horiz-adv-x="858" d="M39 1327q-12 16 8 41q66 75 158.5 121.5t206.5 46.5q179 0 281 -104.5t102 -260.5q0 -58 -19 -112t-49 -96t-66.5 -83t-73 -80t-66.5 -78.5t-49 -87.5t-19 -99v-58q0 -33 -29 -33h-107q-28 0 -28 31v68q0 68 24 131t60 108.5t78.5 94t78.5 88.5t60 90.5t24 101.5 q0 101 -56 160t-167 59q-155 0 -239 -125q-20 -26 -41 -2zM289 31v172q0 14 7.5 23.5t20.5 9.5h107q29 0 29 -33v-170q0 -33 -29 -33h-107q-28 0 -28 31z" />
<glyph unicode="@" horiz-adv-x="1726" d="M131 455v284q0 96 28.5 187t89 173t147 144t211 98.5t272.5 36.5q157 0 282 -32t205 -86t133.5 -128.5t75.5 -154.5t22 -170v-315q0 -69 -16 -127t-49.5 -105t-91 -73.5t-133.5 -26.5q-45 0 -84.5 11.5t-64 28t-42 33t-24.5 27.5l-7 12q-110 -120 -280 -120 q-112 0 -195.5 71t-83.5 187v24q0 71 26 121.5t85 86.5t160.5 51t246.5 9v27q0 205 -188 205q-147 0 -184 -133q-6 -23 -31 -10l-76 36q-19 10 -10 31q34 86 113 142.5t196 56.5q167 0 247.5 -87.5t80.5 -248.5v-326q0 -47 32.5 -83t90.5 -36q64 0 104.5 49.5t40.5 135.5 v332q0 72 -17.5 135.5t-59.5 122.5t-106.5 101t-166 67.5t-229.5 25.5q-157 0 -275.5 -43.5t-187 -118.5t-102 -167t-33.5 -199v-244q0 -108 33 -199.5t98.5 -164.5t174.5 -114.5t251 -41.5q234 0 438 82q20 10 29 -8l28 -80q9 -23 -12 -33q-227 -94 -483 -94 q-161 0 -288 42t-204 107t-127.5 151.5t-70 168.5t-19.5 166zM672 416q0 -62 43 -101t114 -39q135 0 213 107v207q-115 4 -190.5 -6t-113.5 -33.5t-52 -52t-14 -70.5v-12z" />
<glyph unicode="A" horiz-adv-x="1175" d="M20 29l461 1444q10 30 35 30h152q25 0 34 -30l451 -1446q4 -12 -0.5 -19.5t-13.5 -7.5h-152q-23 0 -29 25l-122 411h-508l-125 -411q-7 -25 -31 -25h-137q-22 0 -15 29zM377 594h414l-201 684z" />
<glyph unicode="B" horiz-adv-x="1202" d="M162 0v1497h479q204 0 315 -98t111 -266v-46q0 -115 -61 -201t-160 -112q112 -19 186 -111.5t74 -228.5v-45q0 -174 -115.5 -281.5t-328.5 -107.5h-500zM352 166h262q156 0 230 59t74 211q-1 124 -75 190t-210 66h-281v-526zM352 846h264q122 0 193.5 58.5t71.5 170.5v29 q0 231 -289 231h-240v-489z" />
<glyph unicode="C" horiz-adv-x="1198" d="M141 467v561q0 226 137.5 358t376.5 132q187 0 305 -86.5t166 -239.5q11 -40 -20 -51l-105 -37q-37 -13 -45 26q-33 105 -110 162.5t-193 57.5q-150 0 -235.5 -86t-85.5 -246v-537q0 -158 79 -247t240 -89q120 0 197.5 62t103.5 160q8 27 33 27q8 0 19 -3l100 -39 q19 -6 22 -19.5t-6 -37.5q-25 -80 -85 -150t-162.5 -119t-223.5 -49q-256 0 -382 125.5t-126 364.5z" />
<glyph unicode="D" horiz-adv-x="1306" d="M162 0v1497h506q238 0 366.5 -135t128.5 -354v-527q0 -213 -129 -347t-366 -134h-506zM352 166h281q342 0 342 340v481q0 161 -82.5 252.5t-259.5 91.5h-281v-1165z" />
<glyph unicode="E" d="M162 0v1497h770q22 0 22 -27v-114q0 -25 -22 -25h-580v-485h529q22 0 22 -27v-110q0 -25 -22 -25h-529v-518h580q22 0 22 -25v-116q0 -25 -22 -25h-770z" />
<glyph unicode="F" horiz-adv-x="983" d="M162 23v1474h741q25 0 25 -24v-115q0 -27 -23 -27h-553v-522h506q23 0 23 -25v-112q0 -25 -23 -25h-506v-624q0 -23 -24 -23h-140q-26 0 -26 23z" />
<glyph unicode="G" horiz-adv-x="1298" d="M141 455v571q0 236 142 364t387 128q109 0 194 -24t143 -70t96 -101t66 -129q8 -25 3 -36t-23 -17l-113 -37q-33 -11 -43 24q-37 109 -112.5 165.5t-204.5 56.5q-169 0 -256.5 -81.5t-87.5 -267.5v-528q0 -173 91 -250.5t247 -77.5q51 0 96.5 9t90.5 31.5t77 57t52 90 t20 126.5v172h-293q-23 0 -23 24v99q0 24 23 24h444q35 0 35 -28v-306q0 -212 -146.5 -339.5t-383.5 -127.5q-248 0 -384.5 125.5t-136.5 352.5z" />
<glyph unicode="H" horiz-adv-x="1380" d="M162 23v1454q0 20 24 20h142q24 0 24 -20v-639h678v639q0 20 23 20h141q25 0 25 -20v-1454q0 -23 -25 -23h-139q-25 0 -25 23v647h-678v-647q0 -23 -24 -23h-142q-24 0 -24 23z" />
<glyph unicode="I" horiz-adv-x="534" d="M172 23v1452q0 22 25 22h141q24 0 24 -22v-1452q0 -23 -24 -23h-141q-25 0 -25 23z" />
<glyph unicode="J" horiz-adv-x="897" d="M29 129q-25 25 0 51l71 84q28 31 52 0q87 -106 219 -106q100 0 153.5 60.5t53.5 178.5v1078q0 22 24 22h139q27 0 27 -22v-1063q0 -217 -103 -326t-290 -109q-111 0 -192.5 40t-153.5 112z" />
<glyph unicode="K" horiz-adv-x="1157" d="M162 23v1452q0 22 26 22h140q24 0 24 -22v-691l551 693q17 20 33 20h164q13 0 16.5 -10t-4.5 -19l-461 -583l484 -860q6 -12 1.5 -18.5t-14.5 -6.5h-176q-19 0 -28 18l-394 730l-172 -211v-514q0 -23 -24 -23h-142q-24 0 -24 23z" />
<glyph unicode="L" horiz-adv-x="1005" d="M162 0v1477q0 20 24 20h142q24 0 24 -20v-1311h621q22 0 22 -27v-114q0 -25 -20 -25h-813z" />
<glyph unicode="M" horiz-adv-x="1628" d="M162 23v1447q0 27 28 27h216q22 0 30 -22l254 -811q80 -251 127 -488q34 200 123 488q164 512 246 766q11 38 20 55q2 5 7 7.5t14 3.5t15 1.5t18.5 0t15.5 -0.5h162q28 0 28 -27v-1445q0 -25 -22 -25h-133q-21 0 -21 25v948q0 217 10 317h-4l-393 -1267q-8 -23 -31 -23 h-135q-20 0 -28 23l-383 1271q2 -41 2 -133q1 -20 4.5 -112t3.5 -146v-880q0 -10 -7.5 -16.5t-17.5 -6.5h-127q-9 0 -15.5 7t-6.5 16z" />
<glyph unicode="N" horiz-adv-x="1394" d="M162 23v1447q0 14 5.5 20.5t22.5 6.5h209q20 0 31 -22l412 -799q125 -238 217 -477h8q-16 213 -16 428v850q0 8 6.5 14t15.5 6h137q9 0 16 -5.5t7 -14.5v-1452q0 -25 -27 -25h-198q-19 0 -33 25l-438 843q-60 117 -201 430h-8q16 -206 16 -391v-884q0 -9 -6.5 -16 t-15.5 -7h-138q-8 0 -15 6.5t-7 16.5z" />
<glyph unicode="O" horiz-adv-x="1363" d="M141 461v477q0 136 28.5 239.5t91 181.5t168.5 118.5t253 40.5q253 0 397 -132.5t144 -355.5v-475q0 -139 -29 -243t-91.5 -180.5t-168 -115.5t-252.5 -39q-255 0 -398 129t-143 355zM332 479q0 -157 91.5 -245.5t258.5 -88.5t259.5 88.5t92.5 243.5v537 q0 157 -92.5 246.5t-259.5 89.5t-258.5 -88.5t-91.5 -245.5v-537z" />
<glyph unicode="P" horiz-adv-x="1153" d="M162 23v1474h438q469 0 469 -434v-66q0 -207 -113 -322.5t-358 -115.5h-246v-536q0 -23 -22 -23h-146q-9 0 -15.5 7t-6.5 16zM352 723h234q164 0 228.5 69t64.5 216v45q0 146 -64.5 212t-230.5 66h-232v-608z" />
<glyph unicode="Q" horiz-adv-x="1363" d="M141 530v357q0 47 4 129q23 502 537 502q253 0 397 -132.5t144 -355.5v-475q0 -194 -56.5 -323t-181.5 -193l170 -313q7 -10 2.5 -18.5t-18.5 -8.5h-125q-20 0 -31 20l-147 273q-70 -15 -154 -15q-541 0 -541 553zM332 479q0 -144 80 -230t223 -97q26 -3 51 -3q33 0 64 5 l-156 288q-6 10 -1.5 18.5t17.5 8.5h125q18 0 29 -20l135 -248q135 86 135 276v475q0 195 -81 296.5t-271 101.5q-191 0 -270.5 -100t-79.5 -296v-475z" />
<glyph unicode="R" horiz-adv-x="1187" d="M162 23v1474h459q119 0 207 -29.5t140 -85t76.5 -129t24.5 -166.5v-83q0 -147 -66 -249t-200 -145l311 -585q5 -12 0.5 -18.5t-14.5 -6.5h-172q-20 0 -29 18l-289 568h-258v-563q0 -23 -24 -23h-142q-24 0 -24 23zM352 748h256q271 0 271 268v59q0 131 -64.5 193.5 t-220.5 62.5h-242v-583z" />
<glyph unicode="S" horiz-adv-x="1081" d="M59 301q-8 33 23 43l111 37q15 6 24.5 1t15.5 -26q22 -100 101.5 -157.5t208.5 -57.5q114 0 191 58.5t77 175.5q0 46 -11 82t-30.5 64t-59 56.5t-82 52t-114.5 58.5q-89 42 -143.5 71t-112.5 71t-89 83.5t-51 99t-20 128.5q0 169 122 273t315 104q180 0 293.5 -84 t160.5 -217q10 -31 -20 -43l-111 -39q-25 -11 -39 16q-70 201 -282 201q-124 0 -188 -54t-64 -157q0 -50 16.5 -87t68.5 -74.5t88 -57t134 -67.5l9 -4.5l8 -4l9 -4.5q78 -38 128.5 -67t103.5 -70.5t83.5 -85t50.5 -103.5q21 -63 20 -136q0 -182 -126 -292 q-128 -112 -337 -111q-201 0 -321.5 90t-160.5 234z" />
<glyph unicode="T" horiz-adv-x="1042" d="M-10 1358v115q0 24 22 24h1020q21 0 21 -24v-115q0 -27 -21 -27h-418v-1308q0 -23 -22 -23h-146q-8 0 -14 7t-6 16v1308h-414q-22 0 -22 27z" />
<glyph unicode="U" horiz-adv-x="1320" d="M145 420v1055q0 9 7 15.5t16 6.5h145q9 0 16 -6t7 -16v-1035q0 -143 80.5 -219t240.5 -76q163 0 247.5 76.5t84.5 218.5v1035q0 9 6.5 15.5t14.5 6.5h141q9 0 16 -6t7 -16v-1055q0 -196 -135 -319.5t-382 -123.5q-252 0 -382 122t-130 321z" />
<glyph unicode="V" horiz-adv-x="1177" d="M27 1473q-9 24 16 24h156q13 0 18 -3.5t8 -14.5l207 -727q91 -313 154 -584h4q57 246 155 582l218 729q5 18 26 18h146q24 0 18 -22l-453 -1450q-7 -25 -32 -25h-168q-24 0 -31 25z" />
<glyph unicode="W" horiz-adv-x="1744" d="M20 1475q-6 22 17 22h151q21 0 25 -20l149 -674q91 -399 123 -635h4q35 236 121 633l156 676q5 20 31 20h137q26 0 31 -20l161 -672q90 -375 131 -637h5q26 165 122 637l148 674q4 18 24 18h146q23 0 18 -24l-346 -1448q-2 -10 -11 -17.5t-22 -7.5h-170q-24 0 -30 25 l-172 749q-69 291 -103 461h-2q-40 -229 -92 -461l-170 -749q-2 -10 -11.5 -17.5t-23.5 -7.5h-168q-24 0 -30 25z" />
<glyph unicode="X" horiz-adv-x="1183" d="M21 9q-4 9 2 20l460 725l-440 716q-7 12 -2.5 19.5t14.5 7.5h164q17 0 29 -18l344 -580l344 580q10 18 27 18h161q11 0 15.5 -8.5t-0.5 -15.5l-447 -715l469 -733q5 -7 1 -16t-17 -9h-158q-22 0 -33 20l-368 592l-355 -589q-15 -23 -34 -23h-160q-12 0 -16 9z" />
<glyph unicode="Y" horiz-adv-x="1120" d="M-3 1490.5q3 6.5 13 6.5h166q18 0 27 -18l360 -693l357 693q10 18 26 18h162q11 0 15 -8.5t-1 -15.5l-467 -861v-589q0 -10 -6.5 -16.5t-15.5 -6.5h-146q-8 0 -15 6.5t-7 16.5v587l-465 863q-6 11 -3 17.5z" />
<glyph unicode="Z" horiz-adv-x="1114" d="M45 111l774 1220h-680q-24 0 -24 23v119q0 24 24 24h873q20 0 28 -22l27 -84l-776 -1225h745q10 0 16.5 -7t6.5 -18v-116q0 -25 -23 -25h-940q-21 0 -26 20z" />
<glyph unicode="[" horiz-adv-x="684" d="M172 -287v1848h416q22 0 22 -25v-102q0 -25 -24 -25h-232v-1544h234q22 0 22 -25v-102q0 -25 -24 -25h-414z" />
<glyph unicode="\" horiz-adv-x="772" d="M31 1489q-8 20 16 20h121q17 0 23 -3.5t12 -16.5l600 -1460q11 -29 -17 -29h-116q-27 0 -35 18z" />
<glyph unicode="]" horiz-adv-x="684" d="M74 -160q0 25 24 25h234v1544h-234q-11 0 -17.5 7.5t-6.5 17.5v102q0 25 24 25h414v-1848h-412q-13 0 -19.5 7.5t-6.5 17.5v102z" />
<glyph unicode="^" horiz-adv-x="1056" d="M156 754l272 708q8 23 31 23h135q24 0 35 -25l276 -719q10 -30 -26 -30h-121q-24 0 -31 20l-203 572l-198 -570q-6 -22 -33 -22h-115q-36 0 -22 43z" />
<glyph unicode="_" horiz-adv-x="790" d="M-2 -133h795v-103h-795v103z" />
<glyph unicode="`" horiz-adv-x="636" d="M147 1543.5q3 8.5 17 8.5h119q24 0 34 -18l170 -279q7 -12 2 -18t-16 -6h-84q-15 0 -27 12l-210 283q-8 9 -5 17.5z" />
<glyph unicode="a" horiz-adv-x="1054" d="M82 303v10q0 94 34 160t110 110q76 45 204 61q76 10 173 10q64 0 138 -5v70q0 139 -54.5 202.5t-170.5 63.5q-167 0 -223 -164q-12 -30 -41 -14l-92 45q-28 14 -17 39q54 122 146 185t241 63q186 0 289 -109t103 -307v-700q0 -23 -27 -23h-123q-27 0 -27 23v108 q-139 -151 -333 -151q-143 0 -236.5 90t-93.5 233zM264 315q0 -79 54 -130.5t141 -51.5q166 0 282 133v260q-45 2 -85 2q-202 0 -288 -38q-104 -45 -104 -164v-11z" />
<glyph unicode="b" horiz-adv-x="1161" d="M147 23v1490q0 23 25 23h133q27 0 27 -23v-571q47 76 137 136.5t205 60.5q180 0 279.5 -113t99.5 -324v-280q0 -105 -33 -190.5t-90.5 -139.5t-131.5 -83t-159 -29q-121 0 -199.5 47t-113.5 112v-116q0 -23 -23 -23h-131q-25 0 -25 23zM332 406q0 -119 75.5 -196 t198.5 -77q122 0 193 73.5t71 235.5v232q0 309 -245 309q-117 0 -205 -88.5t-88 -220.5v-268z" />
<glyph unicode="c" horiz-adv-x="1019" d="M109 414v293q0 207 123 319.5t313 112.5q156 0 260 -78.5t135 -216.5q6 -31 -20 -39l-109 -29q-32 -11 -39 19q-13 81 -70 135.5t-157 54.5q-115 0 -184.5 -73.5t-69.5 -221.5v-266q0 -146 67 -218.5t187 -72.5q184 0 237 164q12 35 47 16l86 -45q28 -13 21 -43 q-90 -245 -399 -245q-192 0 -310 111.5t-118 322.5z" />
<glyph unicode="d" horiz-adv-x="1163" d="M109 406v296q0 198 109 317.5t292 119.5q110 0 192 -39t132 -103v516q0 23 22 23h135q25 0 25 -23v-1490q0 -23 -25 -23h-131q-22 0 -22 23v118q-45 -66 -129 -113.5t-199 -47.5q-180 0 -290.5 112t-110.5 314zM291 428q0 -148 71.5 -221.5t200.5 -73.5q122 0 196.5 81 t74.5 198v303q0 122 -80 196t-199 74q-122 0 -193 -78t-71 -241v-238z" />
<glyph unicode="e" horiz-adv-x="1073" d="M109 412v297q0 197 120.5 313.5t313.5 116.5q206 0 321 -115t115 -342v-141q0 -49 -51 -49h-639v-80q0 -130 65 -204.5t197 -74.5q191 0 262 154q11 29 41 14l88 -43q29 -16 16 -47q-110 -231 -407 -231q-213 0 -327.5 116t-114.5 316zM289 629h512v80q0 128 -64.5 202 t-193.5 74q-118 0 -186 -74.5t-68 -201.5v-80z" />
<glyph unicode="f" horiz-adv-x="722" d="M74 956v99q0 24 20 24h119v113q0 167 82 255.5t231 88.5q156 0 256 -119q17 -20 -4 -41l-76 -71q-17 -17 -32 4q-27 39 -59.5 56t-82.5 17q-133 0 -133 -170v-133h293q23 0 23 -24v-99q0 -26 -25 -26h-291v-907q0 -23 -24 -23h-133q-25 0 -25 23v907h-119q-20 0 -20 26z " />
<glyph unicode="g" horiz-adv-x="1069" d="M57 -111q0 104 53.5 179t149.5 114q-100 51 -100 146q0 102 108 159q-166 92 -166 285v12q0 169 113 262t303 93q155 0 262 -64q56 35 125.5 57.5t126.5 22.5q23 0 23 -37v-80q0 -13 -7 -19t-14 -6.5t-24 -0.5q-54 0 -148 -4q72 -85 72 -209v-35q0 -154 -113.5 -243 t-308.5 -89q-80 0 -141 17q-56 -29 -56 -72q0 -61 117 -78l254 -37q183 -29 256.5 -109t73.5 -237q0 -154 -124 -255t-360 -101q-232 0 -353.5 85.5t-121.5 243.5zM231 -84q0 -213 304 -213q307 0 307 211q0 87 -42.5 131.5t-166.5 63.5l-189 28l-47 8q-81 -29 -123.5 -89 t-42.5 -140zM272 778q0 -106 65 -157.5t181 -51.5q246 0 246 209q0 109 -64 166t-182 57t-182 -57t-64 -166z" />
<glyph unicode="h" horiz-adv-x="1144" d="M147 23v1490q0 23 27 23h131q27 0 27 -23v-565q143 191 352 191q157 0 241.5 -97t84.5 -264v-755q0 -23 -27 -23h-131q-25 0 -25 23v708q0 130 -48.5 192t-153.5 62q-92 0 -171.5 -60t-121.5 -149v-753q0 -23 -27 -23h-131q-27 0 -27 23z" />
<glyph unicode="i" horiz-adv-x="475" d="M147 27v1060q0 31 29 31h125q29 0 29 -28v-1061q0 -29 -29 -29h-127q-27 0 -27 27zM147 1313v192q0 31 27 31h125q31 0 31 -31v-192q0 -16 -9 -24.5t-22 -8.5h-125q-12 0 -19.5 9t-7.5 24z" />
<glyph unicode="j" horiz-adv-x="493" d="M-14 -346q-21 24 6 43q89 64 131.5 150.5t42.5 236.5v1006q0 28 27 28h126q29 0 29 -31v-1001q0 -333 -235 -516q-19 -14 -39 2zM166 1311v194q0 31 27 31h124q31 0 31 -33v-190q0 -16 -9 -24.5t-22 -8.5h-124q-27 0 -27 31z" />
<glyph unicode="k" horiz-adv-x="1003" d="M147 27v1482q0 27 27 27h129q11 0 20 -7t9 -20v-878l416 469l3 3q17 14 33 15h150q14 0 18.5 -9t-4.5 -19l-356 -402l389 -657q8 -15 4 -23t-18 -8h-156q-25 0 -37 18l-317 547l-125 -135v-403q0 -13 -8 -20t-19 -7h-131q-27 0 -27 27z" />
<glyph unicode="l" horiz-adv-x="479" d="M147 27v1482q0 27 29 27h127q29 0 29 -29v-1480q0 -13 -9 -20t-20 -7h-127q-29 0 -29 27z" />
<glyph unicode="m" horiz-adv-x="1687" d="M147 23v1073q0 22 25 22h127q27 0 27 -22v-146q48 80 130.5 134.5t188.5 54.5q110 0 178 -57t97 -142q60 97 148 148t187 51q136 0 216.5 -91t80.5 -239v-786q0 -23 -24 -23h-133q-25 0 -25 23v737q0 223 -170 223q-87 0 -154.5 -57t-103.5 -148v-755q0 -23 -27 -23h-131 q-26 0 -26 23v743q0 217 -170 217q-91 0 -159 -59.5t-99 -143.5v-757q0 -23 -27 -23h-131q-25 0 -25 23z" />
<glyph unicode="n" horiz-adv-x="1142" d="M147 23v1073q0 22 25 22h127q27 0 27 -22v-150q65 85 157 139t205 54q158 0 239 -96.5t81 -256.5v-763q0 -23 -27 -23h-129q-27 0 -27 23v708q0 56 -8.5 98t-29 79.5t-61.5 57t-101 19.5q-94 0 -173 -60.5t-122 -148.5v-753q0 -23 -25 -23h-133q-25 0 -25 23z" />
<glyph unicode="o" horiz-adv-x="1128" d="M109 399v312q0 202 120 315t334 113q220 0 338.5 -112t118.5 -316v-303q0 -201 -120 -314.5t-337 -113.5q-216 0 -335 111t-119 308zM291 420q0 -148 71.5 -217.5t200.5 -69.5q130 0 202.5 71.5t72.5 219.5v270q0 149 -72 220t-203 71q-126 0 -199 -71.5t-73 -219.5v-274 z" />
<glyph unicode="p" horiz-adv-x="1157" d="M145 -403v1501q0 22 25 22h129q27 0 27 -22v-158q48 78 139 138.5t205 60.5q180 0 280.5 -113.5t100.5 -323.5v-280q0 -105 -33.5 -190.5t-91 -139.5t-132 -83t-159.5 -29q-117 0 -194.5 47t-112.5 112v-542q0 -23 -23 -23h-135q-25 0 -25 23zM328 399 q0 -117 75.5 -191.5t200.5 -74.5q121 0 191.5 73t70.5 236v232q0 309 -243 309q-117 0 -206 -88.5t-89 -220.5v-275z" />
<glyph unicode="q" horiz-adv-x="1163" d="M106 403v306q0 196 112.5 313t293.5 117q118 0 200.5 -47t125.5 -115v121q0 20 24 20h129q25 0 25 -20v-1501q0 -23 -25 -23h-135q-22 0 -22 23v538q-115 -155 -330 -155q-176 0 -287 114t-111 309zM289 424q0 -140 69.5 -215.5t190.5 -75.5q131 0 208 75t77 210v297 q0 113 -76.5 191.5t-198.5 78.5q-130 0 -200 -82t-70 -221v-258z" />
<glyph unicode="r" horiz-adv-x="704" d="M147 23v1073q0 22 25 22h127q27 0 27 -22v-201q48 104 142.5 174t205.5 69q20 0 25 -7t3 -23l-20 -127q-3 -22 -27 -25q-5 0 -15.5 0.5t-19 0.5t-16.5 -1q-99 -7 -174.5 -77.5t-99.5 -155.5v-700q0 -23 -25 -23h-135q-23 0 -23 23z" />
<glyph unicode="s" horiz-adv-x="907" d="M76 238q-4 20 0 28t20 13l103 38q28 11 37 -18q16 -76 73.5 -123t155.5 -47q92 0 148.5 45t56.5 117q0 52 -31.5 90.5t-81.5 63t-111 46t-122 48.5t-111 61.5t-81.5 93t-31.5 135.5q0 137 101.5 223.5t265.5 86.5q143 0 234 -69.5t122 -184.5q8 -28 -16 -35l-113 -29 q-12 -3 -18 0.5t-10 18.5q-24 73 -73.5 110t-135.5 37q-88 0 -138.5 -39.5t-50.5 -111.5q0 -47 31.5 -81.5t82 -57.5t111.5 -44.5t122 -49.5t111.5 -65t82 -99t31.5 -144q0 -135 -103.5 -225t-271.5 -90q-153 0 -254 66.5t-135 191.5z" />
<glyph unicode="t" horiz-adv-x="729" d="M31 956v99q0 24 22 24h142v258q0 23 24 23h131q25 0 25 -23v-258h217q22 0 22 -24v-99q0 -26 -22 -26h-215v-602q0 -101 39 -137.5t133 -36.5h67q13 0 20 -7.5t7 -17.5v-100q0 -15 -6 -22t-25 -7h-86q-63 0 -112 8.5t-91 30t-69.5 57t-43 91t-15.5 130.5v613h-142 q-22 0 -22 26z" />
<glyph unicode="u" horiz-adv-x="1144" d="M135 311v785q0 22 25 22h133q24 0 24 -20v-756q0 -102 47.5 -155.5t131.5 -53.5q87 0 171 45t148 129v789q0 22 25 22h133q24 0 24 -20v-1075q0 -23 -22 -23h-131q-25 0 -25 23v127q-166 -170 -370 -170q-149 0 -231.5 86.5t-82.5 244.5z" />
<glyph unicode="v" horiz-adv-x="950" d="M10 1092q-4 12 0.5 19t16.5 7h155q22 0 27 -20l164 -527q46 -150 108 -415h4q55 250 107 415l162 527q5 20 24 20h146q24 0 14 -26l-354 -1067q-8 -25 -31 -25h-152q-23 0 -32 25z" />
<glyph unicode="w" horiz-adv-x="1445" d="M35 1092q-7 26 18 26h140q23 0 28 -22l129 -525q54 -237 76 -405h4q20 149 84 405l129 525q5 22 29 22h129q21 0 26 -22l127 -527q65 -301 78 -401h4q20 147 82 405l127 523q5 22 25 22h127q23 0 16 -26l-287 -1067q-7 -25 -28 -25h-148q-22 0 -28 25l-117 469 q-64 272 -76 385h-4q-23 -172 -76 -385l-123 -469q-6 -25 -28 -25h-150q-25 0 -31 25z" />
<glyph unicode="x" horiz-adv-x="940" d="M40 1110q4 8 17 8h150q12 0 18 -3t13 -15l245 -404l236 404q10 18 29 18h137q15 0 18.5 -9t-4.5 -19l-326 -531l328 -532q6 -9 2 -18t-18 -9h-146q-21 0 -34 23l-238 405l-236 -408q-8 -12 -13 -16t-15 -4h-146q-11 0 -16 7.5t2 19.5l330 538l-328 525q-9 12 -5 20z" />
<glyph unicode="y" horiz-adv-x="935" d="M-2 1096q-9 22 16 22h160q18 0 25 -18l278 -875l279 873q6 20 24 20h148q22 0 16 -22l-399 -1123q-97 -275 -314 -405q-26 -16 -43 4l-71 90q-23 26 4 41q90 45 151.5 118t106.5 193z" />
<glyph unicode="z" horiz-adv-x="958" d="M57 92l568 873h-486q-22 0 -22 24v107q0 22 20 22h686q21 0 29 -20l20 -70l-565 -874h557q21 0 21 -23v-106q0 -25 -23 -25h-756q-19 0 -28 23z" />
<glyph unicode="{" horiz-adv-x="739" d="M61 582v102q0 22 25 25q106 10 151.5 60.5t45.5 156.5v321q0 73 11 128.5t37 100.5t73.5 69t115.5 24h101q22 0 22 -25v-102q0 -25 -22 -25h-66q-51 0 -77.5 -30.5t-26.5 -83.5v-420q0 -94 -60 -161.5t-155 -82.5v-4q94 -18 154.5 -83.5t60.5 -168.5v-406 q0 -120 108 -120h62q22 0 22 -25v-102q0 -25 -22 -25h-101q-123 0 -180 77t-57 210v381q0 83 -50 129.5t-143 54.5q-17 1 -23 7t-6 18z" />
<glyph unicode="|" horiz-adv-x="497" d="M162 -512v2124q0 26 26 26h119q29 0 29 -28v-2122q0 -13 -8 -20t-19 -7h-121q-26 0 -26 27z" />
<glyph unicode="}" horiz-adv-x="743" d="M100 -164q0 25 23 25h61q111 0 111 121v407q0 101 58 168.5t151 81.5v6q-94 14 -151.5 78.5t-57.5 165.5v416q0 52 -27.5 81t-77.5 29h-67q-23 0 -23 25v100q0 25 23 25h100q68 0 116 -23.5t74 -68t37 -99.5t11 -127v-315q0 -105 45.5 -155t150.5 -62q25 -3 25 -25v-100 q0 -22 -27 -25q-95 -9 -144.5 -56.5t-49.5 -129.5v-381q0 -133 -57.5 -210t-180.5 -77h-100q-23 0 -23 25v100z" />
<glyph unicode="~" horiz-adv-x="1085" d="M74 598q31 63 96 115.5t141 52.5q54 0 119.5 -18.5t116.5 -41t112 -41t107 -18.5q25 0 46.5 9.5t41 30t27 30t22.5 31.5q17 21 35 8l72 -64q12 -7 2 -28q-29 -63 -93.5 -114.5t-140.5 -51.5q-63 0 -131.5 18t-117.5 40t-108 40t-104 18q-11 0 -22 -2t-21 -7t-17.5 -9 t-16.5 -13t-14 -13t-13.5 -15t-11 -14t-11.5 -15l-8 -12q-20 -20 -35 -8l-71 63q-12 12 -2 29z" />
<glyph unicode="&#xa1;" horiz-adv-x="546" d="M184 -354l23 1024q0 20 22 20h88q25 0 25 -20l20 -1026q0 -21 -22 -21h-131q-25 0 -25 23zM188 936v174q0 13 8.5 22t20.5 9h113q30 0 30 -33v-170q0 -33 -30 -33h-113q-13 0 -21 8.5t-8 22.5z" />
<glyph unicode="&#xa2;" horiz-adv-x="1011" d="M113 420v285q0 175 90 285.5t241 135.5v156q0 27 27 27h121q18 0 26.5 -7.5t8.5 -27.5v-144q129 -18 211.5 -96.5t105.5 -191.5q7 -33 -20 -39l-113 -29q-32 -11 -39 19q-6 36 -20 67.5t-39 60t-67.5 45.5t-96.5 17q-114 0 -184 -74.5t-70 -232.5v-244q0 -147 66.5 -219 t185.5 -72q177 0 231 164q12 34 47 14l90 -47q29 -13 19 -43q-35 -93 -115.5 -154.5t-191.5 -80.5v-166q0 -14 -8.5 -21.5t-20.5 -7.5h-127q-27 0 -27 29v166q-155 22 -243 131t-88 295z" />
<glyph unicode="&#xa3;" horiz-adv-x="1163" d="M111 684v107q0 24 22 24h152q-3 33 -20 130t-17 155q0 197 121.5 307.5t310.5 110.5q155 0 255.5 -76t147.5 -207q7 -17 2 -33t-22 -22l-92 -39q-34 -12 -45 24q-28 100 -89.5 147.5t-164.5 47.5t-170.5 -65.5t-67.5 -188.5q0 -56 17.5 -154.5t21.5 -136.5h318 q24 0 24 -24v-107q0 -25 -24 -25h-312q6 -304 -108 -501h698q23 0 23 -25v-106q0 -27 -25 -27h-879q-11 9 -27 37.5t-16 40.5q0 5 4 12.5t14.5 23t14.5 21.5q64 107 92.5 229.5t28.5 233.5q0 38 -2 61h-154q-32 0 -32 25z" />
<glyph unicode="&#xa4;" horiz-adv-x="1304" d="M72 565v92q0 27 22 27h152v143h-152q-22 0 -22 27v92q0 27 22 27h152v67q0 214 134.5 345t358.5 131q201 0 328 -91t168 -233q11 -44 -25 -53l-104 -35q-30 -11 -41 20q-33 108 -113.5 170t-212.5 62q-154 0 -229.5 -85.5t-75.5 -234.5v-63h395q25 0 25 -27v-92 q0 -27 -25 -27h-395v-143h397q23 0 23 -27v-92q0 -24 -25 -24h-393v-82q0 -324 303 -324q263 0 326 230q11 37 49 22l96 -37q35 -10 17 -63q-56 -144 -177 -227t-311 -83q-232 0 -362.5 127.5t-130.5 360.5v76h-152q-22 0 -22 24z" />
<glyph unicode="&#xa5;" horiz-adv-x="1161" d="M34 1490.5q3 6.5 13 6.5h166q18 0 27 -18l344 -688l344 688q10 18 24 18h162q11 0 15 -8.5t-1 -15.5l-454 -855v-40h289q22 0 22 -27v-100q0 -25 -22 -25h-289v-403q0 -10 -7 -16.5t-16 -6.5h-145q-8 0 -14.5 6.5t-6.5 16.5v403h-286q-23 0 -23 25v102q0 25 23 25h286v40 l-448 855q-6 11 -3 17.5z" />
<glyph unicode="&#xa6;" horiz-adv-x="483" d="M156 412q0 10 7 16t15 6h127q9 0 16 -6t7 -16v-932q0 -10 -7 -16.5t-16 -6.5h-127q-8 0 -15 6.5t-7 16.5v932zM156 686v930q0 10 7 16t15 6h127q9 0 16 -6t7 -16v-930q0 -10 -7 -17t-16 -7h-127q-8 0 -15 6.5t-7 17.5z" />
<glyph unicode="&#xa7;" horiz-adv-x="1024" d="M135 88q-2 14 1 22.5t7 11.5t13 7l102 29q30 10 35 -21q11 -79 68 -130.5t151 -51.5q91 0 142 43.5t51 126.5q0 42 -17 77t-54 65.5t-80.5 55.5t-111.5 56q-142 66 -207 136.5t-65 184.5q0 90 56.5 163.5t152.5 99.5q-110 49 -172 119.5t-62 177.5q0 115 94.5 196.5 t262.5 81.5q141 0 231.5 -67.5t120.5 -172.5q8 -27 -14 -36l-113 -35q-26 -10 -31 16q-10 67 -60 111.5t-134 44.5q-87 0 -130.5 -38t-43.5 -99t51.5 -109.5t202.5 -114.5q157 -68 224.5 -144t67.5 -196q0 -93 -61.5 -166.5t-150.5 -99.5q235 -116 235 -305 q0 -139 -108 -226t-279 -87q-147 0 -249.5 73.5t-125.5 200.5zM338 700q0 -76 56 -130t134 -54q84 0 131.5 50t47.5 126q0 82 -56.5 133.5t-142.5 51.5q-81 0 -125.5 -51t-44.5 -126z" />
<glyph unicode="&#xa8;" horiz-adv-x="843" d="M154 1305v172q0 32 28 32h109q28 0 28 -32v-170q0 -33 -28 -33h-109q-28 0 -28 31zM524 1305v172q0 32 27 32h108q31 0 31 -32v-170q0 -33 -31 -33h-108q-27 0 -27 31z" />
<glyph unicode="&#xa9;" horiz-adv-x="1558" d="M47 731q0 152 58 287.5t156 231.5t233 152t284 56q215 0 383 -94t260 -259.5t92 -373.5q0 -148 -58.5 -283.5t-157.5 -233.5t-235 -156t-284 -58q-213 0 -378 88t-259 255t-94 388zM172 731q0 -273 169.5 -443.5t438.5 -170.5q165 0 305.5 83t222 224.5t81.5 306.5 q0 127 -45.5 239.5t-125 194t-193.5 129t-245 47.5q-128 0 -241.5 -48t-193.5 -130t-126.5 -194.5t-46.5 -237.5zM461 612v213q0 156 91 240t232 84q126 0 202.5 -60.5t96.5 -158.5q4 -26 -14 -29l-90 -22q-25 -8 -27 14q-24 135 -164 135q-182 0 -182 -223v-184 q0 -111 45 -162t135 -51q132 0 170 116q8 26 33 13l74 -35q22 -9 14 -35q-33 -84 -109 -132t-188 -48q-144 0 -231.5 83t-87.5 242z" />
<glyph unicode="&#xaa;" horiz-adv-x="813" d="M82 932v20q0 134 113.5 192t367.5 52v29q0 172 -162 172q-116 0 -168 -103q-7 -17 -26 -10l-74 33q-20 7 -10 26q33 77 102.5 126t177.5 49q151 0 231.5 -81.5t80.5 -224.5v-479q0 -16 -19 -16h-110q-19 0 -19 16v72q-113 -100 -243 -100q-98 0 -170 62t-72 165zM223 938 q0 -55 38 -86t101 -31q109 0 201 92v179q-194 3 -267 -30t-73 -114v-10z" />
<glyph unicode="&#xab;" horiz-adv-x="1105" d="M84 608l315 457q6 11 18.5 14t24.5 -4l88 -57q11 -7 13.5 -17.5t-4.5 -17.5l-263 -373l263 -372q15 -22 -9 -37l-88 -58q-12 -7 -24.5 -3.5t-18.5 14.5zM526 608l316 457q18 25 43 10l90 -57q22 -15 6 -35l-260 -373l260 -372q15 -22 -6 -37l-90 -58q-24 -15 -43 11z" />
<glyph unicode="&#xac;" horiz-adv-x="1126" d="M49 594v90q0 25 23 25h989v-574q0 -20 -27 -20h-84q-24 0 -24 20v432h-854q-23 0 -23 27z" />
<glyph unicode="&#xad;" horiz-adv-x="944" d="M133 565v97q0 26 23 26h653q22 0 22 -26v-97q0 -26 -24 -26h-649q-25 0 -25 26z" />
<glyph unicode="&#xae;" horiz-adv-x="1048" d="M90 1096q0 178 127.5 304t306.5 126q188 0 311 -121.5t123 -308.5q0 -177 -127 -299.5t-307 -122.5q-188 0 -311 118t-123 304zM180 1096q0 -151 95.5 -247.5t248.5 -96.5q145 0 244.5 101t99.5 243q0 155 -96.5 252.5t-247.5 97.5q-146 0 -245 -101.5t-99 -248.5z M375 889v436h166q72 0 110.5 -38.5t38.5 -92.5v-16q0 -44 -22 -79t-62 -50l86 -160q4 -8 -4 -8h-80q-7 0 -10 6l-74 151h-65v-149q0 -8 -6 -8h-72q-6 0 -6 8zM459 1108h63q48 0 66 16.5t18 53.5v10q0 67 -74 67h-73v-147z" />
<glyph unicode="&#xaf;" horiz-adv-x="937" d="M211 1370v92q0 27 22 27h474q20 0 20 -27v-92q0 -27 -22 -27h-472q-22 0 -22 27z" />
<glyph unicode="&#xb0;" horiz-adv-x="827" d="M82 1204q0 136 98 231t234 95q147 0 239 -89.5t92 -236.5q0 -133 -98 -228t-233 -95q-144 0 -238 89.5t-94 233.5zM221 1204q0 -79 55 -134.5t136 -55.5q79 0 135.5 54.5t56.5 135.5t-53.5 137t-138.5 56q-79 0 -135 -55.5t-56 -137.5z" />
<glyph unicode="&#xb1;" horiz-adv-x="1177" d="M63 29v96q0 11 7.5 19t23.5 8h410v28v377h-408q-26 0 -26 29v94q0 14 7.5 22.5t18.5 8.5h408v413q0 17 10.5 22t42.5 5h88q27 0 27 -27v-413h407q13 0 21 -8.5t8 -22.5v-94q0 -29 -29 -29h-407v-405h399q12 0 19.5 -4.5t10 -14.5t3 -14.5t0.5 -16.5v-73q0 -29 -33 -29 h-977q-31 0 -31 29z" />
<glyph unicode="&#xb2;" horiz-adv-x="665" d="M61 715v104q0 108 49.5 178.5t163.5 128.5q33 17 46 23.5t38.5 20.5t35 22t25 21t21 24t10.5 26t5 31q0 44 -30 72.5t-89 28.5q-118 0 -164 -101q-9 -21 -25 -16l-79 31q-24 7 -7 37q39 78 111 125t170 47q117 0 187.5 -59t70.5 -163q0 -48 -15.5 -85.5t-53 -70 t-79.5 -58t-114 -60.5q-82 -40 -107.5 -80t-25.5 -104h358q21 0 21 -25v-72q0 -26 -23 -26h-500z" />
<glyph unicode="&#xb3;" horiz-adv-x="661" d="M53 870q-13 30 6 37l74 29q23 12 33 -14q40 -97 158 -97q57 0 92 29t35 84v12q0 56 -38 88.5t-106 32.5h-59q-19 0 -19 23v69q0 25 21 25h72q54 0 91.5 26.5t37.5 73.5v6q0 47 -31 75t-88 28q-119 0 -162 -94q-8 -16 -13.5 -19.5t-19.5 0.5l-69 27q-22 6 -11 30 q32 76 104 126.5t175 50.5q127 0 192.5 -60.5t65.5 -150.5v-17q0 -64 -36.5 -108t-88.5 -52q54 -18 89.5 -65.5t35.5 -110.5v-20q0 -102 -71 -167t-193 -65q-108 0 -177 47.5t-100 120.5z" />
<glyph unicode="&#xb4;" horiz-adv-x="636" d="M148 1237q-4 6 2 18l167 279q13 18 37 18h117q16 0 19.5 -8.5t-5.5 -17.5l-211 -283q-12 -12 -26 -12h-86q-10 0 -14 6z" />
<glyph unicode="&#xb5;" horiz-adv-x="1144" d="M147 -418v1512q0 24 25 24h129q25 0 25 -22v-693q0 -107 66 -175t165 -68q56 0 108 27t84.5 63.5t52.5 68t23 46.5v731q0 22 25 22h133q25 0 25 -20v-1075q0 -23 -25 -23h-125q-22 0 -22 23v149q-99 -192 -281 -192q-81 0 -142 37t-85 94v-529q0 -22 -25 -22h-131 q-25 0 -25 22z" />
<glyph unicode="&#xb6;" horiz-adv-x="1169" d="M47 956q0 120 39 219.5t114 173.5t192.5 115t266.5 41h420q23 0 23 -20v-88q0 -25 -25 -25h-121v-1630q0 -29 -30 -29h-107q-24 0 -24 27v1632h-131v-878h-136q-220 0 -350.5 118t-130.5 344z" />
<glyph unicode="&#xb7;" horiz-adv-x="501" d="M166 522v217q0 31 29 31h110q13 0 22 -8.5t9 -24.5v-213q0 -32 -31 -32h-110q-29 0 -29 30z" />
<glyph unicode="&#xb8;" horiz-adv-x="868" d="M233 -322l31 50q9 15 23 6q71 -51 133 -51q46 0 69 19.5t23 51.5v8q0 41 -42 61t-120 13v205h119v-123q79 -1 124.5 -44.5t45.5 -106.5v-19q0 -65 -56.5 -114.5t-154.5 -49.5q-97 0 -188 64q-15 15 -7 30z" />
<glyph unicode="&#xb9;" horiz-adv-x="571" d="M61 1382q-3 15 11 19q143 33 168 49q17 10 47 53h98v-669h137q13 0 13 -13v-94q0 -12 -13 -12h-420q-10 0 -10 12v94q0 13 10 13h142v483l-156 -19q-18 -3 -18 11z" />
<glyph unicode="&#xba;" horiz-adv-x="811" d="M76 995v238q0 135 92 210t235 75q151 0 240.5 -73.5t89.5 -215.5v-234q0 -143 -89.5 -216.5t-240.5 -73.5q-152 0 -239.5 75t-87.5 215zM219 1008q0 -90 47.5 -136.5t136.5 -46.5q187 0 187 183v209q0 180 -187 180q-90 0 -137 -45.5t-47 -134.5v-209z" />
<glyph unicode="&#xbb;" horiz-adv-x="1103" d="M120 213q-2 11 5 18l260 373l-260 373q-7 7 -5 18t13 17l88 57q23 18 43 -10l316 -457l-316 -455q-21 -25 -43 -8l-88 56q-11 7 -13 18zM560 213q-2 11 5 18l262 373l-262 373q-7 7 -5 18t13 17l89 57q12 8 24.5 4.5t18.5 -14.5l315 -457l-315 -455q-7 -10 -18.5 -13 t-24.5 5l-89 56q-11 7 -13 18z" />
<glyph unicode="&#xbc;" horiz-adv-x="1536" d="M92 1341q-3 16 12 19q5 1 26.5 6t38.5 9t38.5 10t38.5 13t26 13q26 17 45 49h103v-667h129q12 0 12 -13v-90q0 -12 -12 -12h-412q-12 0 -12 12v90q0 13 12 13h139v483l-157 -16q-17 -3 -17 10zM338 29l776 1460q6 12 12 16t21 4h102q25 0 17 -20l-785 -1471 q-8 -18 -35 -18h-92q-30 0 -16 29zM842 307q-2 12 6 25l381 575q12 19 28 6l72 -47q9 -7 9.5 -17.5t-3.5 -14.5l-323 -488h190v139q0 17 19 17h100q18 0 18 -17v-139h88q19 0 19 -20v-78q0 -8 -5.5 -15.5t-13.5 -7.5h-88v-147q0 -21 -18 -21h-104q-19 0 -19 21v147h-326 q-7 0 -10 3.5t-6 13.5z" />
<glyph unicode="&#xbd;" horiz-adv-x="1634" d="M92 1341q-3 16 12 19q5 1 26.5 6t38.5 9t38.5 10t38.5 13t26 13q26 17 45 49h103v-667h129q12 0 12 -13v-90q0 -12 -12 -12h-412q-12 0 -12 12v90q0 13 12 13h139v483l-157 -16q-17 -3 -17 10zM338 29l776 1460q6 12 12 16t21 4h102q25 0 17 -20l-785 -1471 q-8 -18 -35 -18h-92q-30 0 -16 29zM1001 109v112q0 109 51 178.5t167 124.5q99 46 139.5 79t40.5 87q0 46 -30 72t-91 26q-115 0 -158 -100q-9 -21 -24 -16l-80 30q-24 7 -6 39q85 170 272 170q116 0 189 -59t73 -160q0 -93 -61 -152t-201 -124q-83 -38 -110 -78t-27 -107 h362q23 0 23 -24v-72q0 -26 -25 -26h-504z" />
<glyph unicode="&#xbe;" horiz-adv-x="1548" d="M86 809q-16 28 8 37l78 31q22 8 31 -13q21 -52 56.5 -77t94.5 -25q127 0 127 112v13q0 58 -34 90.5t-101 32.5h-65q-19 0 -19 22v68q0 26 21 26h71q55 0 91 25.5t36 75.5v6q0 46 -28 74t-88 28q-111 0 -158 -96q-11 -28 -33 -20l-70 28q-21 6 -12 33q33 74 105.5 124 t169.5 50q124 0 192 -60t68 -153v-18q0 -60 -37.5 -103t-87.5 -53q53 -16 89 -63t36 -111v-21q0 -104 -70 -168.5t-197 -64.5q-199 0 -274 170zM350 29l789 1460q6 13 11.5 16.5t20.5 3.5h103q24 0 16 -20l-796 -1471q-8 -18 -35 -18h-94q-33 0 -15 29zM854 307q-2 12 6 25 l379 575q11 19 31 6l71 -47q19 -14 7 -32l-324 -488h188v139q0 17 21 17h98q21 0 21 -17v-139h86q18 0 18 -20v-78q0 -23 -18 -23h-86v-147q0 -21 -21 -21h-102q-21 0 -21 21v147h-325q-12 0 -15 17z" />
<glyph unicode="&#xbf;" horiz-adv-x="897" d="M86 -84q0 58 19 112t49 96.5t66.5 83t73 80t66.5 79t49 87.5t19 99v57q0 33 29 33h106q13 0 21 -8.5t8 -22.5v-67q0 -80 -33.5 -153t-81.5 -127.5t-96 -106t-81.5 -110t-33.5 -118.5q0 -101 56 -160t167 -59q156 0 240 125q20 26 41 2l72 -78q12 -16 -8 -41 q-66 -75 -158.5 -121.5t-206.5 -46.5q-179 0 -281 104.5t-102 260.5zM428 885v170q0 32 29 32h106q29 0 29 -30v-172q0 -14 -8 -23.5t-21 -9.5h-106q-29 0 -29 33z" />
<glyph unicode="&#xc0;" horiz-adv-x="1165" d="M16 8.5q-4 8.5 0 20.5l461 1444q10 30 35 30h150q27 0 36 -30l451 -1446q4 -12 -0.5 -19.5t-13.5 -7.5h-152q-23 0 -29 25l-123 411h-507l-127 -411q-5 -25 -29 -25h-137q-11 0 -15 8.5zM288.5 1964.5q2.5 9.5 18.5 9.5h119q25 0 35 -20l170 -279q5 -11 0.5 -16.5 t-15.5 -5.5h-86q-18 0 -24 12l-213 281q-7 9 -4.5 18.5zM373 594h413l-202 684z" />
<glyph unicode="&#xc1;" horiz-adv-x="1165" d="M16 8.5q-4 8.5 0 20.5l461 1444q10 30 35 30h150q27 0 36 -30l451 -1446q4 -12 -0.5 -19.5t-13.5 -7.5h-152q-23 0 -29 25l-123 411h-507l-127 -411q-5 -25 -29 -25h-137q-11 0 -15 8.5zM373 594h413l-202 684zM535 1659q-4 6 2 18l170 279q10 18 34 18h119q14 0 17 -8.5 t-5 -17.5l-210 -283q-12 -12 -27 -12h-86q-10 0 -14 6z" />
<glyph unicode="&#xc2;" horiz-adv-x="1165" d="M16 8.5q-4 8.5 0 20.5l461 1444q10 30 35 30h150q27 0 36 -30l451 -1446q4 -12 -0.5 -19.5t-13.5 -7.5h-152q-23 0 -29 25l-123 411h-507l-127 -411q-5 -25 -29 -25h-137q-11 0 -15 8.5zM340 1675l166 252q8 12 14 15.5t21 3.5h92q20 0 33 -19l163 -254q6 -9 2.5 -14.5 t-14.5 -5.5h-92q-23 0 -33 18l-106 182l-111 -184q-10 -16 -29 -16h-94q-23 0 -12 22zM373 594h413l-202 684z" />
<glyph unicode="&#xc3;" horiz-adv-x="1165" d="M16 8.5q-4 8.5 0 20.5l461 1444q2 5 4 9.5t6 7.5t6 5.5t8 3.5t8 2t9.5 1.5t9 0.5h10h9.5h115q27 0 36 -30l451 -1446q4 -12 -0.5 -19.5t-13.5 -7.5h-152q-23 0 -29 25l-123 411h-507l-127 -411q-5 -25 -29 -25h-137q-11 0 -15 8.5zM283 1761q-8 8 0 23q24 43 69 82.5 t105 44.5q6 1 13 1t14.5 -0.5t11.5 -0.5q50 -6 116.5 -49t98.5 -43t55 17t32.5 36.5t19 30t20.5 0.5l59 -64q9 -9 2 -24q-30 -52 -78 -90.5t-108 -38.5q-49 0 -93 23.5t-79.5 47t-63.5 23.5q-63 0 -106 -78q-8 -12 -21 -2zM373 594h413l-202 684z" />
<glyph unicode="&#xc4;" horiz-adv-x="1165" d="M16 8.5q-4 8.5 0 20.5l461 1444q10 30 35 30h150q27 0 36 -30l451 -1446q4 -12 -0.5 -19.5t-13.5 -7.5h-152q-23 0 -29 25l-123 411h-507l-127 -411q-5 -25 -29 -25h-137q-11 0 -15 8.5zM319 1720v172q0 31 27 31h109q30 0 30 -31v-170q0 -32 -30 -32h-109q-27 0 -27 30z M373 594h413l-202 684zM688 1720v172q0 14 8 22.5t21 8.5h108q31 0 31 -31v-170q0 -32 -31 -32h-108q-29 0 -29 30z" />
<glyph unicode="&#xc5;" horiz-adv-x="1165" d="M16 8.5q-4 8.5 0 20.5l461 1444q10 30 35 30h150q27 0 36 -30l451 -1446q4 -12 -0.5 -19.5t-13.5 -7.5h-152q-23 0 -29 25l-123 411h-507l-127 -411q-5 -25 -29 -25h-137q-11 0 -15 8.5zM373 594h413l-202 684zM416 1790q0 75 52.5 125.5t127.5 50.5q77 0 128.5 -49 t51.5 -127q0 -73 -52.5 -123.5t-127.5 -50.5q-79 0 -129.5 50t-50.5 124zM512 1790q0 -36 23 -60t61 -24q35 0 59.5 24.5t24.5 59.5q0 38 -23 61t-61 23t-61 -24t-23 -60z" />
<glyph unicode="&#xc6;" horiz-adv-x="1703" d="M27.5 8.5q-4.5 8.5 1.5 20.5l692 1439q16 29 37 29h825q21 0 21 -27v-114q0 -25 -21 -25h-579v-485h526q22 0 22 -27v-110q0 -25 -22 -25h-526v-518h579q23 0 23 -25v-116q0 -25 -23 -25h-745q-25 0 -25 25v309h-444l-146 -309q-10 -25 -33 -25h-147q-11 0 -15.5 8.5z M444 494h369v772z" />
<glyph unicode="&#xc7;" horiz-adv-x="1198" d="M121 467v561q0 226 137.5 358t376.5 132q187 0 305 -86.5t166 -239.5q11 -40 -21 -51l-104 -37q-37 -13 -45 26q-33 105 -109.5 162.5t-193.5 57.5q-150 0 -236 -86t-86 -246v-537q0 -158 79.5 -247t240.5 -89q120 0 197.5 62t103.5 160q11 36 51 24l100 -39 q19 -6 22.5 -19.5t-5.5 -37.5q-35 -115 -145.5 -206t-266.5 -107v-88q79 -1 125.5 -45t46.5 -107v-21q0 -65 -56 -113t-155 -48q-98 0 -188 63q-16 16 -6 29l30 51q9 15 23 4q70 -49 133 -49q44 0 68 20t24 52v6q0 41 -42.5 62t-119.5 12v170q-450 26 -450 487z" />
<glyph unicode="&#xc8;" d="M162 0v1497h770q22 0 22 -27v-114q0 -25 -22 -25h-580v-485h529q22 0 22 -27v-110q0 -25 -22 -25h-529v-518h580q22 0 22 -25v-116q0 -25 -22 -25h-770zM278.5 1964.5q2.5 9.5 18.5 9.5h119q22 0 35 -20l170 -279q5 -11 0.5 -16.5t-15.5 -5.5h-86q-18 0 -24 12l-213 281 q-7 9 -4.5 18.5z" />
<glyph unicode="&#xc9;" d="M162 0v1497h770q22 0 22 -27v-114q0 -25 -22 -25h-580v-485h529q22 0 22 -27v-110q0 -25 -22 -25h-529v-518h580q22 0 22 -25v-116q0 -25 -22 -25h-770zM506 1658.5q-4 5.5 2 16.5l170 279q10 20 35 20h116q16 0 20 -9.5t-5 -18.5l-211 -281q-9 -12 -27 -12h-86 q-10 0 -14 5.5z" />
<glyph unicode="&#xca;" d="M162 0v1497h770q22 0 22 -27v-114q0 -25 -22 -25h-580v-485h529q22 0 22 -27v-110q0 -25 -22 -25h-529v-518h580q22 0 22 -25v-116q0 -25 -22 -25h-770zM324 1683l163 254q9 11 15.5 14t21.5 3h90q19 0 33 -17l166 -256q6 -9 2 -14.5t-16 -5.5h-90q-24 0 -33 18l-109 185 l-110 -187q-6 -16 -29 -16h-92q-27 0 -12 22z" />
<glyph unicode="&#xcb;" d="M162 0v1497h770q22 0 22 -27v-114q0 -25 -22 -25h-580v-485h529q22 0 22 -27v-110q0 -25 -22 -25h-529v-518h580q22 0 22 -25v-116q0 -25 -22 -25h-770zM287 1720v172q0 31 26 31h109q31 0 31 -31v-170q0 -32 -31 -32h-109q-26 0 -26 30zM655 1720v172q0 14 8 22.5 t21 8.5h109q30 0 30 -31v-170q0 -32 -30 -32h-109q-29 0 -29 30z" />
<glyph unicode="&#xcc;" horiz-adv-x="534" d="M-28 1965.5q4 8.5 18 8.5h119q24 0 34 -18l170 -279q12 -24 -14 -24h-86q-17 0 -25 12l-213 283q-7 9 -3 17.5zM172 23v1452q0 22 25 22h141q24 0 24 -22v-1452q0 -23 -24 -23h-141q-25 0 -25 23z" />
<glyph unicode="&#xcd;" horiz-adv-x="534" d="M172 23v1452q0 22 25 22h141q24 0 24 -22v-1452q0 -23 -24 -23h-141q-25 0 -25 23zM220.5 1659q-4.5 6 0.5 18l170 279q10 18 35 18h119q31 0 14 -26l-213 -283q-8 -12 -24 -12h-86q-11 0 -15.5 6z" />
<glyph unicode="&#xce;" horiz-adv-x="534" d="M25 1675l163 252q7 12 14.5 15.5t22.5 3.5h90q20 0 33 -19l166 -254q6 -9 2 -14.5t-16 -5.5h-90q-25 0 -35 18l-107 182l-110 -184q-10 -16 -29 -16h-92q-27 0 -12 22zM172 23v1452q0 22 25 22h141q24 0 24 -22v-1452q0 -23 -24 -23h-141q-25 0 -25 23z" />
<glyph unicode="&#xcf;" horiz-adv-x="534" d="M0 1720v172q0 31 29 31h106q31 0 31 -31v-170q0 -32 -31 -32h-106q-29 0 -29 30zM172 23v1452q0 22 25 22h141q24 0 24 -22v-1452q0 -23 -24 -23h-141q-25 0 -25 23zM369 1720v172q0 31 28 31h109q31 0 31 -31v-170q0 -32 -31 -32h-109q-28 0 -28 30z" />
<glyph unicode="&#xd0;" horiz-adv-x="1306" d="M23 717v100q0 25 22 25h117v655h506q238 0 366.5 -135t128.5 -354v-527q0 -213 -129 -347t-366 -134h-506v690h-115q-24 0 -24 27zM352 166h281q342 0 342 340v481q0 161 -82.5 252.5t-259.5 91.5h-281v-489h314q20 0 20 -25v-100q0 -27 -22 -27h-312v-524z" />
<glyph unicode="&#xd1;" horiz-adv-x="1394" d="M162 23v1447q0 14 5.5 20.5t22.5 6.5h209q20 0 31 -22l379 -738q172 -343 250 -538h8q-16 208 -16 563v715q0 8 6.5 14t15.5 6h137q9 0 16 -5.5t7 -14.5v-1452q0 -25 -27 -25h-198q-4 0 -8.5 2t-9 5.5t-8 7.5t-7.5 10.5t-7 11.5t-7 12.5t-6 12t-6 12t-5 10.5l-377 725 q-112 219 -231 489h-8q16 -203 16 -460v-815q0 -9 -6.5 -16t-15.5 -7h-138q-8 0 -15 6.5t-7 16.5zM426 1784q24 42 70 82t104 45h41q50 -6 116.5 -49t96.5 -43q26 0 47 11.5t30.5 27t19 29.5t14.5 19t16 -3l61 -64q10 -10 0 -24q-30 -53 -77.5 -91t-108.5 -38 q-48 0 -91.5 23.5t-78.5 47t-63 23.5q-64 0 -107 -78q-10 -10 -20 -2l-68 61q-10 7 -2 23z" />
<glyph unicode="&#xd2;" horiz-adv-x="1363" d="M141 461v477q0 136 28.5 239.5t91 181.5t168.5 118.5t253 40.5q253 0 397 -132.5t144 -355.5v-475q0 -139 -29 -243t-91.5 -180.5t-168 -115.5t-252.5 -39q-255 0 -398 129t-143 355zM332 479q0 -157 91.5 -245.5t258.5 -88.5t259.5 88.5t92.5 243.5v537 q0 157 -92.5 246.5t-259.5 89.5t-258.5 -88.5t-91.5 -245.5v-537zM398 1964.5q4 9.5 18 9.5h119q24 0 34 -20l170 -279q6 -11 1.5 -17.5t-15.5 -6.5h-86q-17 0 -25 12l-213 283q-7 9 -3 18.5z" />
<glyph unicode="&#xd3;" horiz-adv-x="1363" d="M141 461v477q0 136 28.5 239.5t91 181.5t168.5 118.5t253 40.5q253 0 397 -132.5t144 -355.5v-475q0 -139 -29 -243t-91.5 -180.5t-168 -115.5t-252.5 -39q-255 0 -398 129t-143 355zM332 479q0 -157 91.5 -245.5t258.5 -88.5t259.5 88.5t92.5 243.5v537 q0 157 -92.5 246.5t-259.5 89.5t-258.5 -88.5t-91.5 -245.5v-537zM621 1677l170 279q10 18 34 18h119q31 0 14 -26l-213 -283q-8 -12 -24 -12h-86q-26 0 -14 24z" />
<glyph unicode="&#xd4;" horiz-adv-x="1363" d="M141 461v477q0 136 28.5 239.5t91 181.5t168.5 118.5t253 40.5q253 0 397 -132.5t144 -355.5v-475q0 -139 -29 -243t-91.5 -180.5t-168 -115.5t-252.5 -39q-255 0 -398 129t-143 355zM332 479q0 -157 91.5 -245.5t258.5 -88.5t259.5 88.5t92.5 243.5v537 q0 157 -92.5 246.5t-259.5 89.5t-258.5 -88.5t-91.5 -245.5v-537zM444 1675l166 252q8 12 14 15.5t21 3.5h92q20 0 33 -19l164 -254q6 -9 2.5 -14.5t-14.5 -5.5h-91q-24 0 -34 18l-107 182l-110 -184q-10 -16 -29 -16h-94q-24 0 -13 22z" />
<glyph unicode="&#xd5;" horiz-adv-x="1363" d="M141 461v477q0 136 28.5 239.5t91 181.5t168.5 118.5t253 40.5q253 0 397 -132.5t144 -355.5v-475q0 -139 -29 -243t-91.5 -180.5t-168 -115.5t-252.5 -39q-255 0 -398 129t-143 355zM332 479q0 -157 91.5 -245.5t258.5 -88.5t259.5 88.5t92.5 243.5v537 q0 157 -92.5 246.5t-259.5 89.5t-258.5 -88.5t-91.5 -245.5v-537zM379 1784q23 43 69 83t105 44q22 3 41 0q41 -4 81 -27t73 -43t59 -20t47 11.5t30.5 26.5t19 29t14.5 19t16 -4l61 -62q9 -11 0 -24q-30 -53 -77.5 -91t-108.5 -38q-38 0 -74 14.5t-59.5 31.5t-51 31.5 t-51.5 14.5q-62 0 -104 -76q-9 -13 -20 -2l-68 61q-11 8 -2 21z" />
<glyph unicode="&#xd6;" horiz-adv-x="1363" d="M141 461v477q0 136 28.5 239.5t91 181.5t168.5 118.5t253 40.5q253 0 397 -132.5t144 -355.5v-475q0 -139 -29 -243t-91.5 -180.5t-168 -115.5t-252.5 -39q-255 0 -398 129t-143 355zM332 479q0 -157 91.5 -245.5t258.5 -88.5t259.5 88.5t92.5 243.5v537 q0 157 -92.5 246.5t-259.5 89.5t-258.5 -88.5t-91.5 -245.5v-537zM418 1720v172q0 31 28 31h109q31 0 31 -31v-170q0 -32 -31 -32h-109q-28 0 -28 30zM788 1720v172q0 31 29 31h109q28 0 28 -31v-170q0 -32 -28 -32h-109q-29 0 -29 30z" />
<glyph unicode="&#xd7;" horiz-adv-x="1101" d="M80 227q-20 19 0 39l366 365l-360 362q-18 18 -2 37l70 70q19 16 36 2l363 -365l362 365q15 15 35 -2l68 -68q20 -20 2 -39l-363 -360l365 -363q19 -19 0 -41l-66 -65q-20 -20 -41 0l-362 362l-371 -368q-6 -8 -17 -8t-20 10z" />
<glyph unicode="&#xd8;" horiz-adv-x="1363" d="M141 461v569q0 224 143.5 356t397.5 132q191 0 324 -82l63 112q8 13 14.5 17t22.5 4h100q13 0 16.5 -6.5t-1.5 -14.5l-111 -196q113 -125 113 -322v-567q0 -227 -143.5 -356.5t-397.5 -129.5q-185 0 -311 72l-68 -119q-12 -18 -35 -18h-98q-32 0 -14 29l106 186 q-121 124 -121 334zM332 479q0 -102 35 -168l551 969q-92 70 -236 70q-167 0 -258.5 -88.5t-91.5 -245.5v-537zM459 205q85 -60 223 -60q167 0 259.5 88.5t92.5 243.5v537q0 76 -33 147z" />
<glyph unicode="&#xd9;" horiz-adv-x="1320" d="M145 420v1055q0 9 7 15.5t16 6.5h145q9 0 16 -6t7 -16v-1035q0 -143 80.5 -219t240.5 -76q163 0 247.5 76.5t84.5 218.5v1035q0 9 6.5 15.5t14.5 6.5h141q9 0 16 -6t7 -16v-1055q0 -196 -135 -319.5t-382 -123.5q-252 0 -382 122t-130 321zM384.5 1964.5 q2.5 9.5 18.5 9.5h117q24 0 37 -20l168 -279q7 -11 2.5 -17.5t-14.5 -6.5h-86q-15 0 -27 12l-211 283q-7 9 -4.5 18.5z" />
<glyph unicode="&#xda;" horiz-adv-x="1320" d="M145 420v1055q0 9 7 15.5t16 6.5h145q9 0 16 -6t7 -16v-1035q0 -143 80.5 -219t240.5 -76q163 0 247.5 76.5t84.5 218.5v1035q0 9 6.5 15.5t14.5 6.5h141q9 0 16 -6t7 -16v-1055q0 -196 -135 -319.5t-382 -123.5q-252 0 -382 122t-130 321zM602 1657.5q-5 6.5 2 17.5 l170 279q10 20 35 20h119q14 0 17 -9.5t-5 -18.5l-211 -283q-12 -12 -27 -12h-84q-11 0 -16 6.5z" />
<glyph unicode="&#xdb;" horiz-adv-x="1320" d="M145 420v1055q0 9 7 15.5t16 6.5h145q9 0 16 -6t7 -16v-1035q0 -143 80.5 -219t240.5 -76q163 0 247.5 76.5t84.5 218.5v1035q0 9 6.5 15.5t14.5 6.5h141q9 0 16 -6t7 -16v-1055q0 -196 -135 -319.5t-382 -123.5q-252 0 -382 122t-130 321zM422 1683l166 254q8 11 14 14 t21 3h92q19 0 33 -17l163 -256q6 -9 2.5 -14.5t-14.5 -5.5h-92q-21 0 -33 18l-106 185l-111 -187q-10 -16 -29 -16h-94q-23 0 -12 22z" />
<glyph unicode="&#xdc;" horiz-adv-x="1320" d="M145 420v1055q0 9 7 15.5t16 6.5h145q9 0 16 -6t7 -16v-1035q0 -143 80.5 -219t240.5 -76q163 0 247.5 76.5t84.5 218.5v1035q0 9 6.5 15.5t14.5 6.5h141q9 0 16 -6t7 -16v-1055q0 -196 -135 -319.5t-382 -123.5q-252 0 -382 122t-130 321zM399 1720v172q0 14 8 22.5 t21 8.5h109q30 0 30 -31v-170q0 -32 -30 -32h-109q-29 0 -29 30zM770 1720v172q0 31 29 31h108q29 0 29 -31v-170q0 -32 -29 -32h-108q-29 0 -29 30z" />
<glyph unicode="&#xdd;" horiz-adv-x="1120" d="M-3 1490.5q3 6.5 13 6.5h166q18 0 27 -18l360 -693l357 693q10 18 26 18h162q11 0 15 -8.5t-1 -15.5l-467 -861v-589q0 -10 -6.5 -16.5t-15.5 -6.5h-146q-8 0 -15 6.5t-7 16.5v587l-465 863q-6 11 -3 17.5zM520 1657.5q-5 6.5 2 17.5l168 279q12 20 37 20h117 q16 0 19.5 -9.5t-5.5 -18.5l-211 -283q-12 -12 -26 -12h-86q-10 0 -15 6.5z" />
<glyph unicode="&#xde;" horiz-adv-x="1150" d="M162 25v1450q0 22 24 22h140q24 0 24 -22v-230h234q237 0 362 -112t125 -336v-86q0 -213 -128.5 -325t-342.5 -112h-248v-251q0 -23 -24 -23h-142q-24 0 -24 25zM352 438h230q303 0 303 279v69q0 155 -82.5 224t-239.5 69h-211v-641z" />
<glyph unicode="&#xdf;" horiz-adv-x="1200" d="M145 23v1075q0 209 105 320.5t321 111.5q108 0 191 -34.5t129.5 -91t69 -118.5t22.5 -127v-33q0 -209 -152 -278q74 -20 136 -65.5t105.5 -129t43.5 -190.5v-72q0 -65 -11 -122.5t-39 -111.5t-71 -92.5t-110.5 -61.5t-153.5 -23q-102 0 -181 38t-126 105q-19 27 4 47 l78 68q23 23 45 -9q67 -96 178 -96q205 0 205 262v62q0 154 -87 229.5t-220 75.5h-80q-25 0 -25 22v109q0 27 25 27h63q191 0 191 223q0 104 -59 165.5t-175 61.5q-126 0 -182.5 -68.5t-56.5 -216.5v-1062q0 -23 -25 -23h-133q-25 0 -25 23z" />
<glyph unicode="&#xe0;" d="M76 303v10q0 126 61 203t208 112t390 21v70q0 139 -54.5 202.5t-170.5 63.5q-170 0 -223 -164q-12 -30 -41 -14l-92 45q-28 14 -17 39q54 122 146 185t241 63q186 0 288.5 -109t102.5 -307v-700q0 -23 -26 -23h-123q-27 0 -27 23v108q-139 -151 -333 -151 q-143 0 -236.5 90t-93.5 233zM230 1565q4 10 18 10h119q22 0 34 -21l170 -278q7 -10 2 -17.5t-16 -7.5h-86q-16 0 -25 13l-213 282q-7 9 -3 19zM258 315q0 -79 54 -130.5t141 -51.5q166 0 282 133v260q-268 9 -372.5 -36t-104.5 -164v-11z" />
<glyph unicode="&#xe1;" d="M76 303v10q0 126 61 203t208 112t390 21v70q0 139 -54.5 202.5t-170.5 63.5q-170 0 -223 -164q-12 -30 -41 -14l-92 45q-28 14 -17 39q54 122 146 185t241 63q186 0 288.5 -109t102.5 -307v-700q0 -23 -26 -23h-123q-27 0 -27 23v108q-139 -151 -333 -151 q-143 0 -236.5 90t-93.5 233zM258 315q0 -79 54 -130.5t141 -51.5q166 0 282 133v260q-268 9 -372.5 -36t-104.5 -164v-11zM469.5 1258.5q-4.5 7.5 1.5 17.5l170 278q12 21 35 21h119q16 0 18.5 -10t-4.5 -19l-213 -282q-9 -13 -25 -13h-86q-11 0 -15.5 7.5z" />
<glyph unicode="&#xe2;" d="M76 303v10q0 126 61 203t208 112t390 21v70q0 139 -54.5 202.5t-170.5 63.5q-170 0 -223 -164q-12 -30 -41 -14l-92 45q-28 14 -17 39q54 122 146 185t241 63q186 0 288.5 -109t102.5 -307v-700q0 -23 -26 -23h-123q-27 0 -27 23v108q-139 -151 -333 -151 q-143 0 -236.5 90t-93.5 233zM258 315q0 -79 54 -130.5t141 -51.5q166 0 282 133v260q-268 9 -372.5 -36t-104.5 -164v-11zM285 1286l166 254q8 11 13.5 13.5t20.5 2.5h93q19 0 32 -16l164 -256q6 -9 2.5 -14.5t-14.5 -5.5h-92q-21 0 -33 18l-107 184l-110 -186 q-10 -16 -29 -16h-94q-27 0 -12 22z" />
<glyph unicode="&#xe3;" d="M76 303v10q0 126 61 203t208 112t390 21v70q0 139 -54.5 202.5t-170.5 63.5q-170 0 -223 -164q-12 -30 -41 -14l-92 45q-28 14 -17 39q54 122 146 185t241 63q186 0 288.5 -109t102.5 -307v-700q0 -23 -26 -23h-123q-27 0 -27 23v108q-139 -151 -333 -151 q-143 0 -236.5 90t-93.5 233zM213 1384q24 42 70 82t104 45q6 1 13.5 1t15.5 -0.5t12 -0.5q41 -4 81 -27.5t73 -44t59 -20.5t47 12t30.5 27t19 29.5t14.5 19.5t16 -4l61 -61q11 -14 0 -25q-31 -53 -78 -92t-108 -39q-48 0 -91.5 23.5t-78.5 47t-63 23.5q-65 0 -107 -75 q-7 -15 -20 -2l-68 61q-7 6 -2 20zM258 315q0 -79 54 -130.5t141 -51.5q166 0 282 133v260q-268 9 -372.5 -36t-104.5 -164v-11z" />
<glyph unicode="&#xe4;" d="M76 303v10q0 126 61 203t208 112t390 21v70q0 139 -54.5 202.5t-170.5 63.5q-170 0 -223 -164q-12 -30 -41 -14l-92 45q-28 14 -17 39q54 122 146 185t241 63q186 0 288.5 -109t102.5 -307v-700q0 -23 -26 -23h-123q-27 0 -27 23v108q-139 -151 -333 -151 q-143 0 -236.5 90t-93.5 233zM248 1315v172q0 14 7.5 23.5t20.5 9.5h109q13 0 22 -8.5t9 -24.5v-170q0 -16 -9 -24.5t-22 -8.5h-109q-28 0 -28 31zM258 315q0 -79 54 -130.5t141 -51.5q166 0 282 133v260q-268 9 -372.5 -36t-104.5 -164v-11zM618 1315v172q0 33 29 33h109 q28 0 28 -33v-170q0 -33 -28 -33h-109q-29 0 -29 31z" />
<glyph unicode="&#xe5;" d="M76 303v10q0 126 61 203t208 112t390 21v70q0 139 -54.5 202.5t-170.5 63.5q-170 0 -223 -164q-12 -30 -41 -14l-92 45q-28 14 -17 39q54 122 146 185t241 63q186 0 288.5 -109t102.5 -307v-700q0 -23 -26 -23h-123q-27 0 -27 23v108q-139 -151 -333 -151 q-143 0 -236.5 90t-93.5 233zM258 315q0 -79 54 -130.5t141 -51.5q166 0 282 133v260q-268 9 -372.5 -36t-104.5 -164v-11zM332 1421q0 75 51.5 125.5t126.5 50.5q77 0 128.5 -49t51.5 -127q0 -73 -52.5 -123.5t-127.5 -50.5q-77 0 -127.5 50t-50.5 124zM426 1421 q0 -36 23 -60t61 -24q35 0 60.5 24.5t25.5 59.5q0 38 -24 61t-62 23q-36 0 -60 -24t-24 -60z" />
<glyph unicode="&#xe6;" horiz-adv-x="1693" d="M74 303v10q0 127 61.5 202.5t207 109.5t390.5 24v88q0 116 -59.5 182t-173.5 66q-166 0 -230 -158q-12 -27 -41 -12l-90 47q-24 12 -16 39q109 238 381 238q206 0 327 -152q117 152 338 152q147 0 247 -62t145 -166.5t45 -246.5v-125q0 -23 -14 -35t-38 -12h-639v-74 q0 -285 265 -285q189 0 258 154q12 30 43 14l90 -45q31 -15 14 -47q-49 -105 -154 -167t-251 -62q-261 0 -371 174q-185 -174 -387 -174q-154 0 -251 89.5t-97 233.5zM256 315q0 -79 54 -130.5t141 -51.5q86 0 166 40.5t135 105.5q-19 61 -19 174v73q-268 9 -372.5 -36 t-104.5 -164v-11zM915 629h515v84q0 123 -70.5 198.5t-190.5 75.5q-121 0 -187.5 -75.5t-66.5 -211.5v-71z" />
<glyph unicode="&#xe7;" horiz-adv-x="1019" d="M109 414v293q0 207 123 319.5t313 112.5q156 0 260 -78.5t135 -216.5q6 -31 -20 -39l-109 -29q-32 -11 -39 19q-13 81 -70 135.5t-157 54.5q-115 0 -184.5 -73.5t-69.5 -221.5v-266q0 -146 67 -218.5t187 -72.5q184 0 237 164q12 35 47 16l86 -45q28 -13 21 -43 q-83 -223 -348 -243v-80q79 -1 125.5 -45t46.5 -107v-18q0 -65 -56.5 -114.5t-154.5 -49.5q-99 0 -189 63q-16 16 -6 31l31 49q8 13 23 6q65 -51 133 -51q44 0 68 20t24 52v8q0 41 -42.5 61t-119.5 13v164q-166 18 -264 128t-98 302z" />
<glyph unicode="&#xe8;" horiz-adv-x="1073" d="M109 412v297q0 197 120.5 313.5t313.5 116.5q206 0 321 -115t115 -342v-141q0 -49 -51 -49h-639v-80q0 -130 65 -204.5t197 -74.5q191 0 262 154q11 29 41 14l88 -43q29 -16 16 -47q-110 -231 -407 -231q-213 0 -327.5 116t-114.5 316zM241.5 1565q2.5 10 18.5 10h119 q23 0 35 -21l170 -278q6 -10 1 -17.5t-16 -7.5h-86q-15 0 -24 13l-213 282q-7 9 -4.5 19zM289 629h512v80q0 128 -64.5 202t-193.5 74q-118 0 -186 -74.5t-68 -201.5v-80z" />
<glyph unicode="&#xe9;" horiz-adv-x="1073" d="M109 412v297q0 197 120.5 313.5t313.5 116.5q206 0 321 -115t115 -342v-141q0 -49 -51 -49h-639v-80q0 -130 65 -204.5t197 -74.5q191 0 262 154q11 29 41 14l88 -43q29 -16 16 -47q-110 -231 -407 -231q-213 0 -327.5 116t-114.5 316zM289 629h512v80q0 128 -64.5 202 t-193.5 74q-118 0 -186 -74.5t-68 -201.5v-80zM490.5 1258.5q-4.5 7.5 1.5 17.5l170 278q15 21 36 21h117q16 0 18.5 -10t-4.5 -19l-213 -282q-9 -13 -24 -13h-86q-11 0 -15.5 7.5z" />
<glyph unicode="&#xea;" horiz-adv-x="1073" d="M109 412v297q0 197 120.5 313.5t313.5 116.5q206 0 321 -115t115 -342v-141q0 -49 -51 -49h-639v-80q0 -130 65 -204.5t197 -74.5q191 0 262 154q11 29 41 14l88 -43q29 -16 16 -47q-110 -231 -407 -231q-213 0 -327.5 116t-114.5 316zM289 629h512v80q0 128 -64.5 202 t-193.5 74q-118 0 -186 -74.5t-68 -201.5v-80zM315 1284l164 252q7 12 14 15t23 3h90q21 0 33 -18l166 -254q6 -9 2 -14.5t-16 -5.5h-91q-24 0 -34 18l-107 182l-110 -184q-10 -16 -29 -16h-92q-28 0 -13 22z" />
<glyph unicode="&#xeb;" horiz-adv-x="1073" d="M113 412v297q0 197 121 313.5t313 116.5q206 0 321 -115t115 -342v-141q0 -49 -51 -49h-639v-80q0 -130 66 -204.5t198 -74.5q189 0 260 154q11 29 41 14l88 -43q32 -18 17 -47q-52 -112 -154.5 -171.5t-251.5 -59.5q-214 0 -329 116t-115 316zM287 1321v172q0 31 26 31 h109q13 0 22 -8.5t9 -24.5v-170q0 -16 -9 -24.5t-22 -8.5h-109q-26 0 -26 33zM293 629h514v80q0 128 -65.5 202t-194.5 74q-118 0 -186 -74.5t-68 -201.5v-80zM655 1321v172q0 14 8 22.5t21 8.5h109q30 0 30 -33v-170q0 -33 -30 -33h-109q-29 0 -29 33z" />
<glyph unicode="&#xec;" horiz-adv-x="475" d="M-52.5 1565q3.5 10 17.5 10h119q23 0 35 -21l170 -278q6 -10 1 -17.5t-16 -7.5h-86q-15 0 -24 13l-213 282q-7 9 -3.5 19zM147 27v1060q0 31 29 31h125q29 0 29 -28v-1061q0 -29 -29 -29h-127q-27 0 -27 27z" />
<glyph unicode="&#xed;" horiz-adv-x="475" d="M147 27v1060q0 31 29 31h125q29 0 29 -28v-1061q0 -29 -29 -29h-127q-27 0 -27 27zM184 1258.5q-5 7.5 2 17.5l170 278q12 21 35 21h119q14 0 17 -10t-5 -19l-211 -282q-13 -13 -26 -13h-86q-10 0 -15 7.5z" />
<glyph unicode="&#xee;" horiz-adv-x="475" d="M-6 1286l166 254q11 16 35 16h92q19 0 32 -16l164 -256q6 -9 2.5 -14.5t-14.5 -5.5h-92q-21 0 -33 18l-106 184l-111 -186q-10 -16 -29 -16h-94q-23 0 -12 22zM147 27v1060q0 31 29 31h125q29 0 29 -28v-1061q0 -29 -29 -29h-127q-27 0 -27 27z" />
<glyph unicode="&#xef;" horiz-adv-x="552" d="M8 1315v172q0 14 8 22.5t21 8.5h108q13 0 22 -8.5t9 -24.5v-170q0 -31 -31 -31h-108q-29 0 -29 31zM184 27v1060q0 31 29 31h127q27 0 27 -28v-1061q0 -29 -29 -29h-125q-29 0 -29 27zM379 1315v172q0 31 29 31h106q31 0 31 -33v-170q0 -31 -31 -31h-106q-29 0 -29 31z " />
<glyph unicode="&#xf0;" horiz-adv-x="1191" d="M113 412v217q0 197 123 315.5t339 118.5q158 0 289 -105q-44 151 -186 293l-80 -86q-19 -16 -33 2l-71 64q-16 20 0 33l77 84q-74 63 -100 77q-33 19 -10 48l78 94q23 23 49 2q70 -62 100 -92l86 92q18 17 35 0l72 -68q16 -16 2 -33l-88 -92q141 -151 204.5 -322.5 t63.5 -422.5v-182q-1 -213 -135.5 -343.5t-345.5 -130.5q-228 0 -348.5 118t-120.5 319zM295 418q0 -79 24.5 -137.5t67 -90.5t91 -46.5t104.5 -14.5q58 0 110 17.5t95 52.5t68.5 94t25.5 135v190q0 135 -86 213t-211 78t-207 -76t-82 -221v-194z" />
<glyph unicode="&#xf1;" horiz-adv-x="1142" d="M147 23v1073q0 22 25 22h127q27 0 27 -22v-150q65 85 157 139t205 54q158 0 239 -96.5t81 -256.5v-763q0 -23 -27 -23h-129q-27 0 -27 23v708q0 56 -8.5 98t-29 79.5t-61.5 57t-101 19.5q-94 0 -173 -60.5t-122 -148.5v-753q0 -6 -2 -10t-6 -6.5t-7.5 -4t-10.5 -2 t-10.5 -0.5h-11.5h-10h-100q-25 0 -25 23zM287 1364q-8 8 0 20q23 44 68.5 84t105.5 45q14 2 41 -2q40 -4 79.5 -27t73 -43t60.5 -20q26 0 46.5 11.5t30 26.5t19 29t14.5 19t17 -4l61 -61q10 -10 0 -25q-30 -52 -78 -90.5t-108 -38.5q-49 0 -93 23.5t-79.5 47t-63.5 23.5 q-63 0 -106 -77q-7 -13 -21 -2z" />
<glyph unicode="&#xf2;" horiz-adv-x="1138" d="M113 399v312q0 202 120.5 315t335.5 113q219 0 338 -112.5t119 -315.5v-303q0 -200 -121 -314t-338 -114q-216 0 -335 111t-119 308zM295 420q0 -148 71.5 -217.5t200.5 -69.5q130 0 202.5 71.5t72.5 219.5v270q0 291 -275 291q-126 0 -199 -71.5t-73 -219.5v-274z M296 1563.5q3 9.5 17 9.5h119q24 0 35 -19l170 -280q7 -10 2 -16.5t-16 -6.5h-84q-17 0 -27 13l-211 282q-8 8 -5 17.5z" />
<glyph unicode="&#xf3;" horiz-adv-x="1138" d="M113 399v312q0 202 120.5 315t335.5 113q219 0 338 -112.5t119 -315.5v-303q0 -200 -121 -314t-338 -114q-216 0 -335 111t-119 308zM295 420q0 -148 71.5 -217.5t200.5 -69.5q130 0 202.5 71.5t72.5 219.5v270q0 291 -275 291q-126 0 -199 -71.5t-73 -219.5v-274z M518.5 1257.5q-5.5 6.5 1.5 16.5l170 280q11 19 66 19h88q14 0 17.5 -9.5t-3.5 -17.5l-203 -268q-24 -27 -55 -27h-65q-11 0 -16.5 6.5z" />
<glyph unicode="&#xf4;" horiz-adv-x="1138" d="M113 399v312q0 202 120.5 315t335.5 113q219 0 338 -112.5t119 -315.5v-303q0 -200 -121 -314t-338 -114q-216 0 -335 111t-119 308zM295 420q0 -148 71.5 -217.5t200.5 -69.5q130 0 202.5 71.5t72.5 219.5v270q0 291 -275 291q-126 0 -199 -71.5t-73 -219.5v-274z M326 1286l166 254q8 11 13.5 13.5t20.5 2.5h92q20 0 33 -16l166 -256q6 -9 2 -14.5t-16 -5.5h-90q-23 0 -35 18l-107 184l-110 -186q-10 -16 -29 -16h-94q-23 0 -12 22z" />
<glyph unicode="&#xf5;" horiz-adv-x="1138" d="M113 399v312q0 202 120.5 315t335.5 113q219 0 338 -112.5t119 -315.5v-303q0 -200 -121 -314t-338 -114q-216 0 -335 111t-119 308zM272 1364q-8 8 0 20q23 44 68.5 84t105.5 45q15 2 39 -2q40 -4 80.5 -27t74 -43t60.5 -20q26 0 46.5 11.5t30 26.5t19 29t14.5 19t17 -4 l60 -61q11 -11 2 -25q-30 -52 -78.5 -90.5t-108.5 -38.5q-39 0 -75.5 14.5t-59 32.5t-50 32.5t-50.5 14.5q-64 0 -107 -77q-7 -15 -20 -2zM295 420q0 -148 71.5 -217.5t200.5 -69.5q130 0 202.5 71.5t72.5 219.5v270q0 291 -275 291q-126 0 -199 -71.5t-73 -219.5v-274z" />
<glyph unicode="&#xf6;" horiz-adv-x="1138" d="M113 399v312q0 202 120.5 315t335.5 113q219 0 338 -112.5t119 -315.5v-303q0 -200 -121 -314t-338 -114q-216 0 -335 111t-119 308zM295 420q0 -148 71.5 -217.5t200.5 -69.5q130 0 202.5 71.5t72.5 219.5v270q0 291 -275 291q-126 0 -199 -71.5t-73 -219.5v-274z M311 1315v174q0 31 27 31h108q13 0 22 -8.5t9 -24.5v-170q0 -16 -9 -24.5t-22 -8.5h-108q-12 0 -19.5 8.5t-7.5 22.5zM680 1315v174q0 14 8 22.5t21 8.5h108q13 0 22 -8.5t9 -24.5v-170q0 -16 -9 -24.5t-22 -8.5h-108q-13 0 -21 8.5t-8 22.5z" />
<glyph unicode="&#xf7;" horiz-adv-x="1185" d="M70 584v102q0 25 20 25h1006q22 0 22 -27v-100q0 -27 -22 -27h-1006q-20 0 -20 27zM512 150v217q0 30 29 30h110q31 0 31 -32v-213q0 -16 -9 -24.5t-22 -8.5h-110q-13 0 -21 8.5t-8 22.5zM512 911v217q0 31 29 31h110q13 0 22 -8.5t9 -24.5v-213q0 -32 -31 -32h-110 q-29 0 -29 30z" />
<glyph unicode="&#xf8;" horiz-adv-x="1140" d="M115 399v312q0 203 119 315.5t337 112.5q140 0 236 -47l47 79q10 21 35 21l88 -2q24 0 16 -21l-84 -145q117 -114 117 -313v-303q0 -200 -120.5 -314t-336.5 -114q-134 0 -227 40l-53 -96q-12 -18 -35 -18h-88q-31 0 -14 28l84 152q-121 109 -121 313zM297 420 q0 -101 39 -162l389 690q-61 37 -154 37q-129 0 -201.5 -71.5t-72.5 -219.5v-274zM422 162q69 -29 147 -29q129 0 202 71.5t73 219.5v270q0 95 -35 154z" />
<glyph unicode="&#xf9;" horiz-adv-x="1144" d="M135 311v785q0 22 25 22h133q24 0 24 -20v-756q0 -102 47.5 -155.5t131.5 -53.5q87 0 171 45t148 129v789q0 22 25 22h133q24 0 24 -20v-1075q0 -23 -22 -23h-131q-25 0 -25 23v127q-166 -170 -370 -170q-149 0 -231.5 86.5t-82.5 244.5zM283.5 1565q3.5 10 19.5 10h117 q22 0 37 -21l168 -278q7 -10 2 -17.5t-15 -7.5h-86q-13 0 -26 13l-211 282q-9 9 -5.5 19z" />
<glyph unicode="&#xfa;" horiz-adv-x="1144" d="M135 311v785q0 22 25 22h133q24 0 24 -20v-756q0 -102 47.5 -155.5t131.5 -53.5q87 0 171 45t148 129v789q0 22 25 22h133q24 0 24 -20v-1075q0 -23 -22 -23h-131q-25 0 -25 23v127q-166 -170 -370 -170q-149 0 -231.5 86.5t-82.5 244.5zM509.5 1258.5q-4.5 7.5 2.5 17.5 l170 278q12 21 35 21h119q14 0 17 -10t-5 -19l-211 -282q-13 -13 -27 -13h-86q-10 0 -14.5 7.5z" />
<glyph unicode="&#xfb;" horiz-adv-x="1144" d="M135 311v785q0 22 25 22h133q24 0 24 -20v-756q0 -102 47.5 -155.5t131.5 -53.5q87 0 171 45t148 129v789q0 22 25 22h133q24 0 24 -20v-1075q0 -23 -22 -23h-131q-25 0 -25 23v127q-166 -170 -370 -170q-149 0 -231.5 86.5t-82.5 244.5zM330 1286l166 254 q8 11 13.5 13.5t20.5 2.5h93q19 0 32 -16l164 -256q6 -9 2.5 -14.5t-14.5 -5.5h-92q-21 0 -33 18l-107 184l-110 -186q-10 -16 -29 -16h-94q-23 0 -12 22z" />
<glyph unicode="&#xfc;" horiz-adv-x="1144" d="M135 311v785q0 22 25 22h133q24 0 24 -20v-756q0 -102 47.5 -155.5t131.5 -53.5q87 0 171 45t148 129v789q0 22 25 22h133q24 0 24 -20v-1075q0 -23 -22 -23h-131q-25 0 -25 23v127q-166 -170 -370 -170q-149 0 -231.5 86.5t-82.5 244.5zM303 1315v174q0 14 8 22.5 t21 8.5h108q29 0 29 -33v-170q0 -33 -29 -33h-108q-13 0 -21 8.5t-8 22.5zM674 1315v174q0 31 26 31h109q31 0 31 -33v-170q0 -33 -31 -33h-109q-12 0 -19 8.5t-7 22.5z" />
<glyph unicode="&#xfd;" horiz-adv-x="935" d="M-2 1096q-9 22 16 22h160q18 0 25 -18l278 -875l279 873q6 20 24 20h148q22 0 16 -22l-399 -1123q-97 -275 -314 -405q-26 -16 -43 4l-71 90q-23 26 4 41q90 45 151.5 118t106.5 193zM414.5 1257.5q-4.5 6.5 1.5 16.5l170 280q11 19 35 19h118q16 0 19 -9.5t-4 -17.5 l-213 -282q-7 -13 -25 -13h-86q-11 0 -15.5 6.5z" />
<glyph unicode="&#xfe;" horiz-adv-x="1161" d="M147 -399v1912q0 23 25 23h129q25 0 25 -23v-575q21 33 51 65t73.5 64t102 52t121.5 20q188 0 283.5 -116t95.5 -308v-299q0 -204 -112.5 -320t-278.5 -116q-222 0 -330 155v-534q0 -23 -25 -23h-135q-25 0 -25 23zM332 406q0 -120 74 -196.5t202 -76.5q122 0 192 73 t70 226v254q0 297 -239 297q-123 0 -211 -93.5t-88 -236.5v-247z" />
<glyph unicode="&#xff;" horiz-adv-x="935" d="M-2 1096q-9 22 16 22h160q18 0 25 -18l278 -875l279 873q6 20 24 20h148q22 0 16 -22l-399 -1123q-97 -275 -314 -405q-26 -16 -43 4l-71 90q-23 26 4 41q90 45 151.5 118t106.5 193zM223 1319v172q0 31 29 31h108q29 0 29 -33v-170q0 -31 -29 -31h-108q-29 0 -29 31z M594 1319v172q0 31 27 31h108q31 0 31 -33v-170q0 -31 -31 -31h-108q-27 0 -27 31z" />
<glyph unicode="&#x152;" horiz-adv-x="1923" d="M141 461v569q0 224 143.5 356t397.5 132q114 0 205 -40t147 -108v127h768q23 0 23 -27v-114q0 -25 -23 -25h-579v-485h528q23 0 23 -27v-110q0 -25 -23 -25h-528v-518h579q23 0 23 -25v-116q0 -25 -21 -25h-770v135q-113 -158 -352 -158q-255 0 -398 129t-143 355z M332 479q0 -157 91.5 -245.5t258.5 -88.5t259.5 88.5t92.5 243.5v547q-5 153 -96.5 239.5t-255.5 86.5q-167 0 -258.5 -88.5t-91.5 -245.5v-537z" />
<glyph unicode="&#x153;" horiz-adv-x="1812" d="M113 395v316q0 193 126 310.5t332 117.5q240 0 373 -162q59 76 146.5 119t193.5 43q217 0 326.5 -128t109.5 -376v-100q0 -43 -45 -43h-643v-101q3 -119 69.5 -188.5t192.5 -69.5q197 0 258 154q11 30 43 14l95 -45q31 -14 14 -47q-48 -107 -154 -168t-256 -61 q-238 0 -352 155q-56 -76 -152 -115.5t-219 -39.5q-217 0 -337.5 109.5t-120.5 305.5zM295 412q0 -145 73.5 -212t202.5 -67q279 0 279 289v278q-6 141 -72 213t-205 72q-134 0 -206 -72.5t-72 -216.5v-284zM1032 629h512v80q0 125 -70 201.5t-190 76.5q-115 0 -183.5 -73 t-68.5 -197v-88z" />
<glyph unicode="&#x178;" horiz-adv-x="1120" d="M-3 1490.5q3 6.5 13 6.5h166q18 0 27 -18l360 -693l357 693q10 18 26 18h162q11 0 15 -8.5t-1 -15.5l-467 -861v-589q0 -10 -6.5 -16.5t-15.5 -6.5h-146q-8 0 -15 6.5t-7 16.5v587l-465 863q-6 11 -3 17.5zM303 1720v172q0 14 8 22.5t21 8.5h108q31 0 31 -31v-170 q0 -32 -31 -32h-108q-29 0 -29 30zM674 1720v172q0 31 28 31h109q29 0 29 -31v-170q0 -32 -29 -32h-109q-28 0 -28 30z" />
<glyph unicode="&#x2c6;" horiz-adv-x="788" d="M150 1286l165 252q7 12 13.5 15t21.5 3h92q21 0 33 -18l164 -254q6 -9 2.5 -15.5t-14.5 -6.5h-90q-23 0 -35 18l-107 184l-110 -184q-11 -18 -29 -18h-94q-24 0 -12 24z" />
<glyph unicode="&#x2dc;" horiz-adv-x="927" d="M154 1382q24 42 70 82t104 45h41q50 -6 116.5 -49t96.5 -43q26 0 47 11.5t30.5 27t19 29.5t14.5 19t16 -3l61 -63q11 -11 0 -25q-30 -53 -77.5 -91t-108.5 -38q-38 0 -74 14.5t-59 32.5t-50.5 32.5t-50.5 14.5q-63 0 -106 -78q-8 -12 -21 -2l-67 62q-9 7 -2 22z" />
<glyph unicode="&#x2000;" horiz-adv-x="987" />
<glyph unicode="&#x2001;" horiz-adv-x="1974" />
<glyph unicode="&#x2002;" horiz-adv-x="987" />
<glyph unicode="&#x2003;" horiz-adv-x="1974" />
<glyph unicode="&#x2004;" horiz-adv-x="658" />
<glyph unicode="&#x2005;" horiz-adv-x="493" />
<glyph unicode="&#x2006;" horiz-adv-x="329" />
<glyph unicode="&#x2007;" horiz-adv-x="329" />
<glyph unicode="&#x2008;" horiz-adv-x="246" />
<glyph unicode="&#x2009;" horiz-adv-x="394" />
<glyph unicode="&#x200a;" horiz-adv-x="109" />
<glyph unicode="&#x2010;" horiz-adv-x="935" d="M119 565v99q0 24 22 24h654q22 0 22 -24v-99q0 -24 -24 -24h-652q-22 0 -22 24z" />
<glyph unicode="&#x2011;" horiz-adv-x="935" d="M119 565v99q0 24 22 24h654q22 0 22 -24v-99q0 -24 -24 -24h-652q-22 0 -22 24z" />
<glyph unicode="&#x2012;" horiz-adv-x="935" d="M119 565v99q0 24 22 24h654q22 0 22 -24v-99q0 -24 -24 -24h-652q-22 0 -22 24z" />
<glyph unicode="&#x2013;" horiz-adv-x="1097" d="M119 557v94q0 25 22 25h820q20 0 20 -25v-94q0 -25 -23 -25h-817q-22 0 -22 25z" />
<glyph unicode="&#x2014;" horiz-adv-x="2123" d="M119 557v94q0 25 22 25h1844q20 0 20 -25v-94q0 -25 -23 -25h-1841q-22 0 -22 25z" />
<glyph unicode="&#x2018;" horiz-adv-x="468" d="M125 1059q0 180 57 294.5t160 186.5q19 11 35 -2l39 -41q18 -22 -2 -39q-73 -70 -91 -141t-18 -258q0 -23 -26 -23h-127q-27 0 -27 23z" />
<glyph unicode="&#x2019;" horiz-adv-x="487" d="M72 1049q-18 21 2 38q72 69 90 140.5t18 259.5q0 22 25 22h129q26 0 26 -22q0 -180 -57 -294.5t-160 -186.5q-18 -11 -34 2z" />
<glyph unicode="&#x201a;" horiz-adv-x="417" d="M30.5 -184.5q0.5 11.5 10.5 20.5q70 68 89.5 149t19.5 269q0 25 24 25h129q25 0 25 -25q0 -350 -217 -500q-18 -13 -33 2l-39 41q-9 7 -8.5 18.5z" />
<glyph unicode="&#x201c;" horiz-adv-x="831" d="M125 1065q0 179 57 293t160 186q19 11 35 -2l39 -41q8 -8 8 -19t-10 -20q-72 -68 -90.5 -139.5t-18.5 -257.5q0 -23 -26 -23h-127q-27 0 -27 23zM489 1065q0 179 57 293t161 186q17 13 32 -2l39 -41q9 -7 9 -18.5t-9 -20.5q-73 -68 -91.5 -140t-18.5 -257q0 -23 -25 -23 h-129q-25 0 -25 23z" />
<glyph unicode="&#x201d;" horiz-adv-x="843" d="M56.5 1072q-0.5 11 9.5 20q72 68 90 139t18 258q0 22 27 22h127q26 0 26 -22q0 -179 -57 -293t-160 -186q-17 -13 -35 2l-36 41q-9 8 -9.5 19zM419.5 1071.5q0.5 11.5 10.5 20.5q72 69 90.5 141t18.5 256q0 22 24 22h129q25 0 25 -22q0 -179 -56.5 -293t-158.5 -186 q-21 -12 -35 2l-39 41q-9 7 -8.5 18.5z" />
<glyph unicode="&#x201e;" horiz-adv-x="782" d="M39 -225q-20 20 2 39q72 70 90.5 142t18.5 257q0 23 24 23h129q25 0 25 -23q0 -181 -56.5 -295t-160.5 -186q-18 -13 -33 2zM406 -186q72 70 90 140.5t18 258.5q0 23 27 23h127q26 0 26 -23q0 -180 -57 -294.5t-160 -186.5q-17 -13 -35 2l-36 41q-21 21 0 39z" />
<glyph unicode="&#x2022;" horiz-adv-x="802" d="M131 651q0 113 79 193t191 80q117 0 194 -78t77 -195q0 -111 -79.5 -190.5t-191.5 -79.5q-117 0 -193.5 77t-76.5 193z" />
<glyph unicode="&#x2026;" horiz-adv-x="1333" d="M123 31v215q0 33 29 33h110q13 0 22 -8.5t9 -24.5v-213q0 -16 -9 -24.5t-22 -8.5h-110q-29 0 -29 31zM811 31v215q0 14 8 23.5t21 9.5h110q31 0 31 -33v-213q0 -33 -31 -33h-110q-12 0 -20.5 8t-8.5 23zM815 31v215q0 33 27 33h110q31 0 31 -33v-213q0 -33 -31 -33h-110 q-27 0 -27 31z" />
<glyph unicode="&#x202f;" horiz-adv-x="394" />
<glyph unicode="&#x2039;" horiz-adv-x="663" d="M100 602l318 457q6 11 17.5 14.5t23.5 -4.5l90 -57q10 -6 11.5 -17t-5.5 -18l-260 -373l260 -373q16 -20 -6 -36l-90 -56q-13 -8 -23.5 -5t-17.5 13z" />
<glyph unicode="&#x203a;" horiz-adv-x="663" d="M120 213q-2 11 5 18l260 373l-260 373q-7 7 -5 18t13 17l88 57q23 18 43 -10l316 -457l-316 -455q-21 -25 -43 -8l-88 56q-11 7 -13 18z" />
<glyph unicode="&#x205f;" horiz-adv-x="493" />
<glyph unicode="&#x20ac;" horiz-adv-x="1304" d="M72 565v92q0 27 22 27h152v143h-152q-22 0 -22 27v92q0 27 22 27h152v67q0 214 134.5 345t358.5 131q201 0 328 -91t168 -233q11 -44 -25 -53l-104 -35q-30 -11 -41 20q-33 108 -113.5 170t-212.5 62q-154 0 -229.5 -85.5t-75.5 -234.5v-63h395q25 0 25 -27v-92 q0 -27 -25 -27h-395v-143h397q23 0 23 -27v-92q0 -24 -25 -24h-393v-82q0 -324 303 -324q263 0 326 230q11 37 49 22l96 -37q35 -10 17 -63q-56 -144 -177 -227t-311 -83q-232 0 -362.5 127.5t-130.5 360.5v76h-152q-22 0 -22 24z" />
<glyph unicode="&#x2122;" horiz-adv-x="1099" d="M31 1436v47q0 14 10 14h414q7 0 8.5 -2.5t1.5 -11.5v-47q0 -19 -10 -19h-158v-493q0 -13 -14 -13h-74q-10 0 -10 13v493h-158q-10 0 -10 19zM528 922v565q0 10 11 10h108q9 0 12 -8l84 -275q41 -144 45 -163q5 22 50 163l80 275q3 8 14 8h104q13 0 13 -10v-565 q0 -11 -9 -11h-79q-9 0 -9 11v311q0 85 2 100l-127 -411q-5 -11 -12 -11h-53q-8 0 -12 11l-129 413q2 -29 2 -90v-323q0 -4 -4 -7.5t-7 -3.5h-75q-9 0 -9 11z" />
<glyph unicode="&#x25fc;" horiz-adv-x="1116" d="M0 0v1116h1116v-1116h-1116z" />
</font>
</defs>
</svg>
