<?xml version="1.0" standalone="no"?>
<!DOCTYPE svg PUBLIC "-//W3C//DTD SVG 1.1//EN" "http://www.w3.org/Graphics/SVG/1.1/DTD/svg11.dtd" >
<svg xmlns="http://www.w3.org/2000/svg" xmlns:xlink="http://www.w3.org/1999/xlink" version="1.1">
<metadata></metadata>
<defs>
<font id="frank_regularbold_italic" horiz-adv-x="1357" >
<font-face units-per-em="2048" ascent="1536" descent="-512" />
<missing-glyph horiz-adv-x="301" />
<glyph unicode="&#xfb01;" horiz-adv-x="1234" d="M96 870l29 177q4 22 16 22h138l20 94q37 164 154 260.5t315 96.5q145 0 239 -47t144 -109q33 -43 0 -68l-131 -96q-13 -12 -24.5 -12t-19.5 6t-20 20q-71 84 -180 84q-79 0 -134.5 -39.5t-68.5 -111.5l-14 -78h586q39 0 33 -43l-154 -997q-5 -29 -35 -29h-223 q-29 0 -23 29l125 819h-340l-129 -819q-3 -12 -11.5 -20.5t-18.5 -8.5h-228q-10 0 -17.5 8t-4.5 21l127 819h-135q-19 0 -15 22z" />
<glyph unicode="&#xfb02;" horiz-adv-x="1236" d="M92 874l31 166q2 10 10 19.5t19 9.5h127l16 82q33 170 173 269.5t327 99.5q129 0 238 -40.5t175 -86.5q27 -18 21 -58l-205 -1308q-6 -27 -31 -27h-231q-25 0 -19 27l191 1216q-77 72 -172 72q-45 0 -81 -16.5t-57.5 -43.5t-33.5 -55t-17 -59l-14 -72h154q20 0 16 -22 l-33 -177q-4 -22 -22 -22h-150l-127 -830q-2 -18 -24 -18h-236q-11 0 -16 3.5t-4 14.5l125 830h-127q-11 0 -18 8t-5 18z" />
<glyph horiz-adv-x="0" />
<glyph horiz-adv-x="682" />
<glyph unicode=" "  horiz-adv-x="301" />
<glyph unicode="&#x09;" horiz-adv-x="301" />
<glyph unicode="&#xa0;" horiz-adv-x="301" />
<glyph unicode="!" horiz-adv-x="608" d="M94 37l31 194q3 19 10.5 27t26.5 8h186q33 0 27 -37l-29 -192q-3 -37 -39 -37h-184q-35 0 -29 37zM193 469l122 1016q3 24 29 24h213q26 0 23 -24l-201 -1016q-6 -23 -31 -23h-133q-25 0 -22 23z" />
<glyph unicode="&#x22;" horiz-adv-x="755" d="M121 926l49 542q3 29 33 29h194q28 0 21 -29l-119 -542q-3 -21 -35 -21h-114q-18 0 -23.5 4t-5.5 17zM541 926l49 542q3 29 31 29h196q28 0 21 -29l-121 -542q-3 -21 -33 -21h-119q-15 0 -19.5 4t-4.5 17z" />
<glyph unicode="#" d="M51 465l29 141q3 19 12 26t33 7h184l53 244h-178q-18 0 -26.5 6t-5.5 26l28 144q5 31 37 31h195l90 397q6 22 37 22h182q24 0 20 -22l-92 -397h219l86 397q6 22 35 22h185q22 0 18 -20l-86 -399h170q36 0 31 -31l-29 -144q-5 -32 -37 -32h-186l-54 -244h175q37 0 30 -35 l-28 -139q-5 -33 -41 -33h-181l-94 -407q-6 -25 -37 -25h-176q-27 0 -20 25l92 407h-217l-94 -409q-6 -23 -35 -23h-182q-25 0 -21 23l92 409h-180q-18 0 -27 6.5t-6 26.5zM545 639h221l53 244h-221z" />
<glyph unicode="$" horiz-adv-x="1134" d="M27 336q-19 48 16 61l180 68q22 8 34 3t19 -28q23 -69 91 -125.5t172 -56.5q92 0 143 45.5t51 120.5q0 71 -59 121t-209 131q-139 75 -213 164.5t-74 220.5q0 137 98 246t277 141l25 162q6 26 34 26h222q19 0 27 -7t5 -21l-28 -170q116 -34 193.5 -111t109.5 -178 q13 -40 -29 -51l-166 -54q-36 -11 -53 25q-63 137 -236 137q-88 0 -135 -37t-47 -92q0 -20 5.5 -37t19.5 -34t27 -29.5t40.5 -30t46 -29t57.5 -33.5t62 -36q78 -47 127.5 -83.5t93.5 -86t64 -108.5t20 -134q0 -179 -111 -287.5t-309 -132.5l-22 -143q-6 -29 -35 -29h-231 q-26 0 -23 29l21 160q-208 62 -301 303z" />
<glyph unicode="%" horiz-adv-x="1568" d="M94 1014l39 260q18 119 112 182.5t234 63.5q125 0 203.5 -64.5t60.5 -181.5l-38 -260q-18 -121 -113.5 -185.5t-233.5 -64.5q-82 0 -144.5 26.5t-97 84.5t-22.5 139zM156.5 9.5q-4.5 9.5 3.5 21.5l1003 1439q11 16 19.5 20.5t31.5 4.5h168q12 0 17.5 -8t-0.5 -17 l-1008 -1445q-9 -14 -16.5 -19.5t-26.5 -5.5h-172q-15 0 -19.5 9.5zM303 1016q-6 -37 15.5 -59.5t66.5 -22.5q100 0 113 82l39 254q6 36 -17.5 58t-70.5 22q-45 0 -74 -23t-35 -61zM823 223l41 254q20 121 114 186.5t230 65.5q128 0 207 -66.5t60 -185.5l-41 -254 q-18 -121 -112 -184.5t-232 -63.5q-127 0 -206.5 64.5t-60.5 183.5zM1030 225q-5 -39 16 -60.5t70 -21.5q47 0 76 21.5t35 60.5l37 252q6 37 -14.5 60.5t-67.5 23.5t-76 -23.5t-35 -60.5z" />
<glyph unicode="&#x26;" horiz-adv-x="1411" d="M39 383q0 82 32 163.5t84 146.5t112.5 115.5t123.5 82.5q-50 69 -76 134.5t-26 158.5q0 62 24 121t70 107.5t121 78t168 29.5q89 0 158.5 -30t111 -80.5t65 -105.5t29.5 -114q1 -18 -8.5 -32.5t-21.5 -14.5l-168 -27q-32 -4 -37 33q-22 141 -137 141q-42 0 -76.5 -28.5 t-34.5 -69.5q0 -50 41 -122.5t93.5 -136.5t134.5 -164.5t132 -170.5q49 -68 68 -100q25 68 39 174l4 80q0 28 25 28h192q31 0 31 -30q0 -70 -19 -170q-27 -164 -139 -308q59 -132 59 -280q0 -153 -78 -281.5t-190 -195.5q-22 -12 -36 -8t-31 26l-82 88q-34 40 4 70 q83 63 126.5 133.5t43.5 161.5q0 54 -15 106q-188 -117 -401 -117q-233 0 -374.5 115.5t-141.5 292.5zM326 426q0 -92 68.5 -155.5t193.5 -63.5q146 0 266 82q-59 83 -102 139l-228 307q-198 -119 -198 -309z" />
<glyph unicode="'" horiz-adv-x="337" d="M121 926l49 542q3 29 33 29h194q28 0 21 -29l-119 -542q-3 -21 -35 -21h-114q-18 0 -23.5 4t-5.5 17z" />
<glyph unicode="(" horiz-adv-x="741" d="M100 416q0 185 50.5 389t155.5 401t245 320q14 13 30.5 15.5t30.5 -7.5l142 -123q12 -12 9.5 -23t-11.5 -18q-173 -154 -270 -418.5t-97 -523.5q0 -157 30 -291.5t72 -216.5q4 -8 5 -14.5t-4.5 -13.5t-7.5 -9.5t-13 -11.5l-141 -84q-31 -20 -45 -17.5t-27 21.5 q-61 103 -107.5 262t-46.5 363z" />
<glyph unicode=")" horiz-adv-x="761" d="M39 -100q-22 22 2 41q174 155 274.5 420t100.5 520q0 156 -33 289.5t-78 220.5q-3 7 -3.5 13t0 9.5t6 9t8 7t10.5 8.5l133 88q31 20 44.5 17.5t26.5 -21.5q162 -276 162 -627q0 -185 -50.5 -389t-155.5 -401t-244 -320q-35 -35 -62 -10z" />
<glyph unicode="*" horiz-adv-x="772" d="M100 1174l68 145q15 29 41 16l201 -108l16 254q2 16 8 22t23 6h164q13 0 18 -8.5t2 -19.5l-63 -250l227 100q13 6 23.5 2t11.5 -16l24 -148q5 -35 -22 -41l-242 -55l139 -186q19 -25 -12 -43l-125 -90q-39 -24 -53 6l-98 219l-162 -217q-27 -31 -53 -8l-101 96 q-12 9 -10 21.5t14 21.5l193 180l-223 60q-27 6 -9 41z" />
<glyph unicode="+" horiz-adv-x="1198" d="M80 555v145q0 18 12.5 28.5t28.5 10.5h350v365q0 35 39 35h178q37 0 37 -35v-365h352q18 0 29.5 -10.5t11.5 -28.5v-145q0 -45 -41 -45h-352v-373q0 -37 -37 -37h-178q-39 0 -39 37v373h-350q-41 0 -41 45z" />
<glyph unicode="," horiz-adv-x="563" d="M-73 -203q0 9 16 21q95 67 134 158.5t70 291.5q7 33 41 33h201q38 0 31 -33q-18 -113 -61.5 -213.5t-100.5 -171.5t-119 -119.5t-125 -72.5q-24 -5 -34 12l-41 70q-12 15 -12 24z" />
<glyph unicode="-" horiz-adv-x="907" d="M51 535l29 159q4 29 29 29h722q28 0 25 -29l-29 -159q-3 -31 -32 -31h-715q-36 0 -29 31z" />
<glyph unicode="." horiz-adv-x="458" d="M10 37l37 227q5 37 39 37h199q34 0 28 -37l-37 -227q-1 -17 -12 -27t-26 -10h-199q-17 0 -24.5 10.5t-4.5 26.5z" />
<glyph unicode="/" horiz-adv-x="913" d="M-20 9.5q-1 9.5 9 24.5q2 3 3 5l762 1431q8 15 17 20t32 5h192q12 0 17 -8t0 -17l-774 -1447q-12 -23 -43 -23h-193q-21 0 -22 9.5z" />
<glyph unicode="0" horiz-adv-x="1275" d="M80 418q0 56 8 108l72 463q19 122 62 215t115.5 162.5t182.5 106t254 36.5q230 0 346.5 -115.5t116.5 -310.5q0 -47 -10 -112l-74 -473q-19 -122 -62 -215.5t-116 -163.5t-183.5 -107t-256.5 -37q-226 0 -340.5 122.5t-114.5 320.5zM369 424q0 -93 48 -143t158 -50 q133 0 202.5 76.5t92.5 224.5l64 420q6 47 6 95q0 94 -51.5 150t-153.5 56q-129 0 -199 -76.5t-94 -224.5l-63 -417q-10 -62 -10 -111z" />
<glyph unicode="1" horiz-adv-x="1032" d="M51 29l33 200q2 10 10 18.5t19 8.5h237l137 864l-260 -12q-17 -1 -23.5 4.5t-4.5 20.5l8 151q0 24 22 29q8 2 52 11.5t76 17.5t74.5 19t75.5 23t52 23q24 13 46.5 37t29.5 41h199l-197 -1229h227q26 0 23 -29l-29 -198q-2 -11 -10 -20t-19 -9h-753q-12 0 -20 8.5t-5 20.5 z" />
<glyph unicode="2" horiz-adv-x="1292" d="M39 0l22 141q15 99 34 164.5t55 131t96.5 120t150.5 112t224 124.5l40 20q49 24 72 36t61 33.5t56 35.5t42.5 35.5t35 41t18.5 44.5t8 53q0 71 -44.5 116t-137.5 45q-108 0 -172.5 -45t-114.5 -137q-14 -25 -27 -31.5t-36 2.5l-154 66q-19 8 -23 19.5t5 33.5 q75 176 222 262t339 86q105 0 189 -32t136 -87t79.5 -125.5t27.5 -150.5q0 -67 -14.5 -123t-48 -104t-73 -86.5t-103.5 -79t-124.5 -73t-150.5 -75.5q-112 -53 -182 -94t-103 -74.5t-43.5 -55t-15.5 -54.5l-6 -37h696q13 0 19 -9t4 -22l-29 -198q-7 -29 -35 -29h-995z" />
<glyph unicode="3" horiz-adv-x="1247" d="M43 332q-5 21 1.5 31.5t27.5 17.5l170 63q52 22 65 -28q10 -39 26.5 -69t45 -58t75 -43t109.5 -15q112 0 172 46.5t70 117.5l8 58q7 48 -8.5 90.5t-65.5 73t-127 30.5h-108q-24 0 -21 23l31 192q4 25 23 25h114q103 0 168.5 43t75.5 123l4 30q8 74 -41.5 122t-142.5 48 q-190 0 -266 -139q-19 -32 -54 -22l-172 65q-31 10 -12 47q150 305 543 305q136 0 242 -58t156.5 -158t29.5 -218l-8 -45q-18 -101 -96 -173.5t-171 -88.5q88 -31 145.5 -120.5t45.5 -198.5l-6 -56q-23 -201 -172.5 -309.5t-389.5 -108.5q-82 0 -155 20.5t-127.5 55.5 t-97.5 81t-69 96.5t-38 103.5z" />
<glyph unicode="4" horiz-adv-x="1241" d="M61 498q0 26 15 43l833 966q26 32 52 6l147 -127q22 -19 -2 -47l-670 -772h256l43 217q1 12 11 19.5t20 7.5h229q11 0 17.5 -7.5t5.5 -19.5l-37 -217h135q24 0 21 -28l-31 -199q-1 -12 -11 -20.5t-22 -8.5h-131l-45 -280q-7 -29 -31 -29h-235q-12 0 -19 8t-6 21l47 280 h-559q-19 0 -22 23z" />
<glyph unicode="5" horiz-adv-x="1243" d="M53 322q-6 26 1 39t32 22l172 63q49 16 59 -26q51 -189 256 -189q109 0 174.5 68.5t86.5 189.5l4 27q13 103 -37.5 174.5t-159.5 71.5q-133 0 -248 -121q-25 -25 -47 -12l-147 82q-1 1 -4 2.5t-3.5 2.5t-3 2.5t-3 3t-1.5 3.5t-1.5 5t-0.5 6.5t0.5 8t1.5 9.5l168 731h807 q13 0 19 -9t4 -20l-31 -196q-1 -14 -9.5 -22.5t-19.5 -8.5h-569l-80 -340l2 -2q47 44 132 74t173 30q93 0 167 -40.5t116 -107t59.5 -150t5.5 -171.5l-10 -69q-35 -234 -183.5 -356t-379.5 -122q-89 0 -167.5 22.5t-133.5 58t-97.5 82t-67 92.5t-36.5 92z" />
<glyph unicode="6" horiz-adv-x="1273" d="M88 510l76 485q18 119 60 210t114.5 161t183.5 106.5t258 36.5q87 0 159 -21.5t117 -53t78.5 -74.5t50 -78.5t25.5 -71.5q9 -42 -30 -51l-185 -55q-17 -6 -27.5 -2.5t-17.5 22.5q-26 62 -71 95.5t-138 33.5q-129 0 -204 -78t-97 -221l-12 -90q43 50 133.5 91.5 t194.5 41.5q96 0 176 -32.5t135 -92t78.5 -151.5t7.5 -203l-8 -53q-33 -229 -182.5 -359.5t-411.5 -130.5q-165 0 -279.5 70t-161 190.5t-22.5 274.5zM373 467q-16 -105 36 -170.5t181 -65.5q108 0 179.5 65.5t88.5 178.5l4 25q18 124 -29.5 193t-162.5 69t-194.5 -71 t-98.5 -191z" />
<glyph unicode="7" horiz-adv-x="1044" d="M123 29q24 149 91.5 316.5t162.5 326t192.5 294.5t204.5 263h-577q-28 0 -25 28l31 199q4 29 30 29h889q13 0 20 -8.5t5 -20.5l-23 -135q-5 -25 -24 -49q-116 -138 -222.5 -285.5t-205.5 -312t-167.5 -333t-90.5 -312.5q-3 -13 -12 -21t-19 -8h-238q-10 0 -17.5 7.5 t-4.5 21.5z" />
<glyph unicode="8" horiz-adv-x="1312" d="M68 432l6 33q25 129 111.5 215.5t197.5 114.5q-86 27 -130 112.5t-30 177.5l6 33q29 182 174 286.5t398 104.5q121 0 214.5 -34t146.5 -89.5t75.5 -124t11.5 -141.5l-6 -37q-12 -105 -80 -182t-166 -106q100 -32 158.5 -125.5t40.5 -216.5l-6 -37q-30 -209 -192 -325 t-437 -116q-133 0 -236.5 37t-164 100t-85 145.5t-7.5 174.5zM360 444q-21 -100 37.5 -157.5t202.5 -57.5t214.5 50t92.5 157l2 8q22 107 -37 165.5t-202 58.5t-214 -52t-94 -159zM498 1083q-13 -86 39 -138t168 -52q119 0 187 48t77 140l2 25q8 70 -43 119t-166 49 q-121 0 -184 -44.5t-76 -119.5z" />
<glyph unicode="9" horiz-adv-x="1280" d="M72 296q3 10 22 19l180 84q26 13 43 -20q32 -66 97 -108t161 -42q243 0 291 267l17 100q-49 -55 -136 -88t-178 -33q-108 0 -194.5 39t-139 105.5t-74.5 155t-7 186.5l8 61q17 104 61 190.5t117.5 154t185 105t250.5 37.5q241 0 367.5 -138t87.5 -384l-84 -518 q-16 -102 -54.5 -184t-93 -139.5t-125 -96t-150.5 -56.5t-171 -18q-177 0 -298.5 83t-176.5 208q-9 20 -6 30zM442 967q-18 -126 34.5 -195.5t172.5 -69.5q121 0 195 70.5t92 194.5l6 43q15 117 -38 180t-167 63q-250 0 -288 -245z" />
<glyph unicode=":" horiz-adv-x="514" d="M43 37l35 227q5 37 39 37h198q35 0 29 -37l-37 -227q-1 -17 -12.5 -27t-26.5 -10h-198q-16 0 -23 10.5t-4 26.5zM170 846l35 227q5 37 39 37h198q35 0 29 -37l-37 -227q-1 -17 -12.5 -27t-26.5 -10h-198q-16 0 -23 10.5t-4 26.5z" />
<glyph unicode=";" horiz-adv-x="563" d="M-84 -227q-19 29 4 45q97 67 136.5 159t70.5 291q7 33 41 33h201q22 0 27.5 -8t2.5 -25q-36 -221 -153 -373.5t-252 -203.5q-24 -5 -35 12zM219 846l35 227q5 37 39 37h199q34 0 28 -37l-37 -227q-1 -17 -12.5 -27t-26.5 -10h-198q-16 0 -23 10.5t-4 26.5z" />
<glyph unicode="&#x3c;" horiz-adv-x="1091" d="M100 545v160q0 33 35 43l780 258q15 5 25 -2.5t10 -28.5v-174q0 -31 -28 -39l-519 -137l521 -138q26 -9 26 -38v-175q0 -24 -13 -29t-48 7l-754 248q-12 2 -23.5 15t-11.5 30z" />
<glyph unicode="=" horiz-adv-x="1069" d="M100 373v170q0 11 6.5 19.5t18.5 8.5h815q29 0 29 -28v-170q0 -31 -33 -31h-807q-29 0 -29 31zM100 711v172q0 11 6.5 19.5t18.5 8.5h815q29 0 29 -28v-172q0 -29 -33 -29h-807q-29 0 -29 29z" />
<glyph unicode="&#x3e;" horiz-adv-x="1091" d="M141 274v175q0 28 29 38l520 138l-520 137q-29 10 -29 39v174q0 21 11.5 28.5t27.5 2.5l776 -258q35 -9 35 -43v-160q0 -17 -11.5 -30t-23.5 -15l-751 -248q-35 -12 -49.5 -6.5t-14.5 28.5z" />
<glyph unicode="?" horiz-adv-x="962" d="M158 1276q-14 19 18 55q80 85 189 137t233 52q81 0 149.5 -28t112.5 -73t68 -99.5t24 -109.5q0 -44 -4 -67q-10 -58 -35.5 -111t-59.5 -93.5t-73.5 -79t-78.5 -75t-72 -73.5t-57.5 -82.5t-32.5 -93.5l-11 -64q-1 -17 -13 -27t-26 -10h-172q-30 0 -26 37l12 80 q14 83 55 156t91 124t99.5 96.5t86.5 94.5t45 98q2 12 2 35q-2 59 -39.5 94t-110.5 35q-120 0 -227 -125q-25 -36 -53 0zM223 37l31 192q3 15 14 26t25 11h170q15 0 23.5 -10t5.5 -27l-31 -192q-1 -17 -12.5 -27t-26.5 -10h-170q-14 0 -23 10t-6 27z" />
<glyph unicode="@" horiz-adv-x="1634" d="M61 360.5q0 46.5 7 92.5l47 295q13 86 47 168.5t101.5 167t159.5 147.5t232 103t308 40q144 0 259 -35t185.5 -92.5t114 -132.5t56 -153t-0.5 -156l-49 -313q-25 -158 -104.5 -243t-237.5 -85q-95 0 -153 46.5t-68 111.5q-31 -65 -109.5 -114.5t-196.5 -49.5 q-106 0 -171.5 67t-65.5 164q0 66 6 113l35 229q23 148 134 235t271 87q106 0 213 -39.5t142 -81.5l-78 -504q-8 -53 11.5 -72.5t62.5 -19.5q40 0 73 32t43 95l49 313q7 44 7.5 84t-8.5 82t-29 77t-55.5 66.5t-84.5 53.5t-120.5 34.5t-159.5 12.5q-124 0 -225.5 -28.5 t-168.5 -75t-115.5 -110.5t-73.5 -129t-36 -138l-32 -220q-74 -475 430 -475q142 0 258.5 24t165.5 48q28 12 34 -12l27 -117q6 -30 -24 -43q-227 -88 -492 -88q-87 0 -162.5 13t-134 36t-107.5 55.5t-84 70.5t-61 82.5t-41.5 90.5t-23 95t-7.5 95.5zM639 438 q0 -43 26.5 -75.5t86.5 -32.5q73 0 124.5 56t73.5 153l41 292q-46 35 -139 35q-78 0 -122 -42.5t-60 -153.5l-21 -131q-10 -62 -10 -101z" />
<glyph unicode="A" horiz-adv-x="1220" d="M-77.5 10.5q-4.5 10.5 1.5 22.5l672 1431q20 41 49 41h250q21 0 30.5 -10t12.5 -31l213 -1431q3 -16 -5 -24.5t-20 -8.5h-233q-30 0 -33 33l-43 336h-452l-150 -336q-9 -20 -19 -26.5t-28 -6.5h-229q-12 0 -16.5 10.5zM475 616h313l-63 605z" />
<glyph unicode="B" horiz-adv-x="1232" d="M63 0l230 1485h536q105 0 188.5 -34.5t131.5 -91.5t68 -129q12 -45 13 -92q0 -28 -5 -57l-6 -39q-19 -118 -92.5 -183.5t-178.5 -78.5q96 -22 163 -112q59 -80 59 -183q0 -14 -1 -28l-4 -47q-24 -187 -164 -298.5t-387 -111.5h-551zM391 256h189q142 0 212 38t87 130 l6 35q3 21 3 40q0 64 -39 102q-51 50 -169 50h-225zM489 881h191q120 0 182 42t74 128l4 28q2 13 2 26q0 52 -34 84q-42 40 -122 40h-239z" />
<glyph unicode="C" horiz-adv-x="1212" d="M92 432q0 61 8 111l72 452q38 244 187 379t409 135q191 0 318.5 -110t138.5 -266q2 -27 -6.5 -41t-30.5 -17l-172 -33q-26 -5 -37 2.5t-14 32.5q-11 74 -66.5 125t-144.5 51q-254 0 -303 -305l-62 -385q-10 -63 -10 -112q0 -96 55.5 -157t161.5 -61q203 0 268 185 q13 31 41 31q11 0 25 -5l174 -61q24 -9 28 -28t-10 -54q-56 -144 -200.5 -235t-343.5 -91q-103 0 -187 27t-138.5 71.5t-91.5 105t-53 123.5t-16 130z" />
<glyph unicode="D" horiz-adv-x="1335" d="M63 0l230 1485h508q221 0 352 -125t131 -316q0 -58 -8 -102l-74 -477q-34 -214 -188 -339.5t-424 -125.5h-527zM391 256h215q145 0 221.5 70t98.5 211l61 391q8 54 8 90q0 103 -54 157t-183 54h-213z" />
<glyph unicode="E" horiz-adv-x="1081" d="M63 0l230 1485h821q13 0 19 -10t4 -23l-33 -192q-2 -11 -10.5 -21t-18.5 -10h-530l-58 -350h486q20 0 20 -31l-28 -193q-2 -10 -11 -18t-20 -8h-483l-60 -373h531q30 0 24 -33l-31 -194q-7 -29 -30 -29h-822z" />
<glyph unicode="F" horiz-adv-x="1026" d="M66 29l225 1456h794q13 0 20.5 -8t4.5 -21l-33 -194q0 -12 -7 -22.5t-21 -10.5h-506l-64 -391h465q12 0 18 -9t3 -22l-27 -189q-2 -12 -10.5 -20t-20.5 -8h-463l-90 -561q-3 -13 -12 -21t-18 -8h-236q-11 0 -18 7.5t-4 21.5z" />
<glyph unicode="G" horiz-adv-x="1312" d="M92 424q0 61 6 104l70 443q41 264 189 402t427 138q107 0 197 -32t149 -86t94 -122.5t40 -144.5v-6q0 -39 -35 -45l-182 -35q-20 -3 -30 5.5t-13 33.5q-10 73 -70 123.5t-174 50.5q-139 0 -211.5 -79t-97.5 -230l-64 -393q-8 -50 -8 -86q0 -115 56.5 -172t176.5 -57 q134 0 220.5 64t107.5 202l12 90h-237q-14 0 -20.5 8t-4.5 18l33 181q2 10 11 18t22 8h463q37 0 34 -37l-45 -299q-33 -245 -191.5 -379.5t-447.5 -134.5q-121 0 -215 38t-149.5 102.5t-84 143t-28.5 165.5z" />
<glyph unicode="H" horiz-adv-x="1439" d="M66 29l221 1429q3 12 12 19.5t18 7.5h236q12 0 19 -7.5t6 -19.5l-95 -588h564l92 588q3 12 12 19.5t18 7.5h232q15 0 22 -7.5t4 -19.5l-221 -1429q-5 -29 -30 -29h-234q-30 0 -24 29l92 583h-564l-92 -583q-3 -13 -12 -21t-18 -8h-238q-10 0 -16.5 7.5t-3.5 21.5z" />
<glyph unicode="I" horiz-adv-x="589" d="M66 29l223 1427q3 13 12 21t18 8h236q12 0 18.5 -8.5t4.5 -20.5l-222 -1427q-7 -29 -32 -29h-236q-10 0 -17.5 8t-4.5 21z" />
<glyph unicode="J" horiz-adv-x="974" d="M-39 152q-11 14 -11 28q0 16 15 31l125 121q12 12 27.5 9.5t27.5 -17.5q76 -93 187 -93q74 0 119 43t57 119l166 1063q1 13 11 21t20 8h235q26 0 23 -31l-166 -1061q-33 -210 -150.5 -314t-310.5 -104q-127 0 -223 50.5t-152 126.5z" />
<glyph unicode="K" horiz-adv-x="1265" d="M66 29l221 1425q5 31 32 31h236q10 0 17 -8t6 -21l-95 -590l566 600q9 9 12 11.5t9.5 5t16.5 2.5h273q16 0 18 -14t-8 -23l-520 -571l303 -848q4 -12 -2.5 -20.5t-17.5 -8.5h-263q-27 0 -34 20l-213 660l-197 -205l-72 -446q-3 -13 -12 -21t-18 -8h-238q-10 0 -16.5 8 t-3.5 21z" />
<glyph unicode="L" horiz-adv-x="1042" d="M63 0l226 1458q3 12 12 19.5t18 7.5h238q10 0 17 -8t6 -19l-189 -1202h580q27 0 20 -35l-28 -192q-2 -11 -10.5 -20t-20.5 -9h-869z" />
<glyph unicode="M" horiz-adv-x="1703" d="M66 29l227 1425q2 12 10.5 21.5t22.5 9.5h352q21 0 27 -23l92 -858q9 -138 9 -234q0 -72 -5 -122q54 239 149 469l322 745q5 10 17 16t31 7.5t35 1.5t39.5 -1t32.5 -1h242q13 0 19 -8t4 -19l-222 -1429q-3 -13 -11 -21t-17 -8h-211q-11 0 -18.5 8t-4.5 21l140 893 q22 156 57 266h-4l-481 -1163q-12 -25 -31 -25h-246q-23 0 -27 23l-127 1165q-3 3 -7.5 -47.5t-9 -120.5t-7.5 -94q-16 -100 -44.5 -282t-52 -331.5t-44.5 -283.5q-3 -13 -13 -21t-20 -8h-205q-11 0 -17 8.5t-3 20.5z" />
<glyph unicode="N" horiz-adv-x="1445" d="M66 29l221 1421q4 35 35 35h333q22 0 31 -27l203 -710q72 -256 108 -439h7q14 244 47 453l108 696q3 27 29 27h225q25 0 21 -27l-224 -1429q-7 -29 -30 -29h-314q-25 0 -35 29l-217 708q-60 191 -114 437h-6q-11 -233 -39 -402l-115 -743q-6 -29 -29 -29h-225 q-10 0 -16.5 8t-3.5 21z" />
<glyph unicode="O" d="M92 451q0 50 8 96l70 454q38 255 190 381.5t461 126.5q120 0 214.5 -39t153 -106t88.5 -150t30 -176q0 -32 -7 -86l-73 -481q-38 -254 -195.5 -375t-453.5 -121q-97 0 -178.5 26.5t-137.5 72t-95 107t-57 129.5t-18 141zM377 463q0 -106 59.5 -169t184.5 -63 q153 0 228.5 76t102.5 240l62 387q8 46 8 88q0 46 -12 85t-38.5 73t-75 53.5t-114.5 19.5q-86 0 -147.5 -22.5t-98.5 -67.5t-57.5 -98t-32.5 -127l-61 -383q-8 -46 -8 -92z" />
<glyph unicode="P" horiz-adv-x="1187" d="M66 29l225 1456h493q106 0 190 -34t133.5 -90.5t75 -123.5t25.5 -139q0 -57 -10 -115l-10 -57q-38 -211 -178 -326t-389 -115h-195l-72 -456q-4 -29 -32 -29h-230q-30 0 -26 29zM465 735h164q135 0 199 47.5t79 153.5l6 41q11 63 11 94q0 67 -46 112.5t-133 45.5h-204z " />
<glyph unicode="Q" d="M92 451q0 50 8 96l70 454q38 255 190 381.5t461 126.5q120 0 214.5 -39t153 -106t88.5 -150t30 -176q0 -32 -7 -86l-73 -481q-46 -302 -264 -418l145 -311q5 -10 -1 -19.5t-22 -9.5h-182q-24 0 -33 21l-118 252q-97 -11 -174 -11q-97 0 -178.5 26.5t-137.5 72t-95 107 t-57 129.5t-18 141zM377 463q0 -106 59.5 -169t184.5 -63h16l-105 220q-5 10 1 21t20 11h188q12 0 17.5 -4t11.5 -16l74 -160q80 72 108 244l62 387q8 46 8 88q0 46 -12 85t-38.5 73t-75 53.5t-114.5 19.5q-86 0 -147.5 -22.5t-98.5 -67.5t-57.5 -98t-32.5 -127l-61 -383 q-8 -46 -8 -92z" />
<glyph unicode="R" horiz-adv-x="1224" d="M66 29l227 1456h510q103 0 185.5 -29t133 -79t77 -113.5t26.5 -135.5q0 -56 -6 -106l-15 -92q-20 -125 -96 -225t-209 -148l195 -528q4 -11 -3.5 -20t-17.5 -9h-252q-26 0 -33 20l-167 506h-189l-78 -497q-3 -29 -30 -29h-238q-24 0 -20 29zM471 776h219q116 0 167 39 t65 125l12 72q6 30 6 67q0 66 -45 108t-131 42h-221z" />
<glyph unicode="S" horiz-adv-x="1112" d="M12 313q-10 37 19 49l184 68q20 8 32 2t19 -29q23 -69 90 -124.5t172 -55.5q92 0 151.5 49t59.5 123q0 42 -36.5 86.5t-75 73.5t-145.5 102q-23 16 -36 25q-142 98 -215 197.5t-73 210.5q0 86 30 160t89 132.5t156.5 92.5t223.5 34q178 0 300.5 -90t160.5 -219 q2 -8 2 -15q0 -29 -30 -38l-162 -51q-18 -7 -33 -0.5t-27 34.5q-32 63 -91 96.5t-134 33.5q-88 0 -140 -37t-52 -103q0 -25 9.5 -48t21 -39.5t41.5 -41.5t50 -39.5t69.5 -48.5t78.5 -55q82 -57 134 -100t99 -97.5t68.5 -115t21.5 -132.5q0 -199 -145 -313.5t-393 -114.5 q-202 0 -325.5 93.5t-168.5 244.5z" />
<glyph unicode="T" horiz-adv-x="1189" d="M125 1260l33 196q2 12 9.5 20.5t18.5 8.5h1067q27 0 23 -29l-33 -196q-2 -11 -10.5 -21t-20.5 -10h-387l-186 -1200q-3 -17 -9.5 -23t-23.5 -6h-235q-12 0 -17.5 8t-3.5 21l187 1200h-387q-13 0 -20 9t-5 22z" />
<glyph unicode="U" horiz-adv-x="1386" d="M109 412q0 61 6 102l151 944q3 27 29 27h233q27 0 23 -27l-145 -917q-7 -51 -7 -80q0 -109 58.5 -169.5t195.5 -60.5q129 0 204.5 78t96.5 211l146 938q3 27 28 27h226q23 0 20 -27l-155 -995q-36 -232 -190 -360t-421 -128q-118 0 -214.5 36t-157.5 97t-94 139t-33 165z " />
<glyph unicode="V" horiz-adv-x="1236" d="M133 1454q-3 31 23 31h245q14 0 19.5 -5t7.5 -18l90 -674q37 -286 37 -544h4q77 262 203 544l293 674q10 23 32 23h240q12 0 19 -12t2 -23l-654 -1421q-13 -29 -41 -29h-264q-28 0 -31 29z" />
<glyph unicode="W" horiz-adv-x="1861" d="M164 1458q0 12 6.5 19.5t15.5 7.5h232q26 0 28 -25l29 -581q13 -225 13 -414q0 -117 -5 -221h4q69 287 203 633l221 583q9 25 35 25h223q26 0 29 -25l51 -579q30 -333 30 -570q0 -35 -1 -67h4q107 393 199 639l211 579q9 23 30 23h220q12 0 17 -8t1 -21l-543 -1427 q-3 -10 -14.5 -19.5t-22.5 -9.5h-276q-13 0 -22 8.5t-9 20.5l-51 678q-10 143 -14 370h-4q-46 -153 -127 -370l-250 -678q-3 -10 -15 -19.5t-26 -9.5h-271q-13 0 -21.5 8.5t-8.5 20.5z" />
<glyph unicode="X" horiz-adv-x="1191" d="M-133.5 14q-5.5 14 4.5 25l578 711l-318 704q-6 14 0.5 22.5t18.5 8.5h245q23 0 33 -21l221 -499l367 501q14 19 33 19h266q11 0 14 -10.5t-4 -18.5l-547 -719l340 -708q5 -10 -1 -19.5t-19 -9.5h-250q-20 0 -28 5.5t-13 17.5l-227 507l-390 -503q-22 -27 -47 -27h-254 q-17 0 -22.5 14z" />
<glyph unicode="Y" horiz-adv-x="1136" d="M83.5 1474.5q4.5 10.5 14.5 10.5h246q25 0 35 -29l215 -614l401 624q11 19 29 19h260q12 0 16 -11t-2 -20l-598 -872l-88 -553q-6 -29 -32 -29h-234q-28 0 -22 29l84 553l-324 872q-5 10 -0.5 20.5z" />
<glyph unicode="Z" horiz-adv-x="1083" d="M-61 178l815 1051h-533q-25 0 -22 24l32 203q2 11 10.5 20t22.5 9h821q13 0 19.5 -5.5t7.5 -21.5l33 -147l-823 -1055h659q28 0 23 -31l-33 -198q-2 -10 -11 -18.5t-20 -8.5h-940q-24 0 -27 20z" />
<glyph unicode="[" horiz-adv-x="833" d="M100 -299l291 1843h520q27 0 23 -26l-27 -183q-2 -10 -11 -17t-22 -7h-245l-215 -1374h245q14 0 20.5 -9.5t4.5 -19.5l-31 -182q-2 -10 -10.5 -17.5t-19.5 -7.5h-523z" />
<glyph unicode="\" horiz-adv-x="1015" d="M2 1470q-5 9 0.5 17t17.5 8h193q23 0 32 -5t17 -20l762 -1431q6 -12 8 -16.5t3 -11t-4.5 -9t-16.5 -2.5h-193q-31 0 -43 23z" />
<glyph unicode="]" horiz-adv-x="815" d="M-61 -274l30 182q5 29 31 29h248l215 1374h-248q-13 0 -20 7t-5 17l31 183q2 9 10.5 17.5t22.5 8.5h520l-291 -1843h-518q-13 0 -20.5 7.5t-5.5 17.5z" />
<glyph unicode="^" horiz-adv-x="1026" d="M74.5 649.5q-6.5 12.5 5.5 34.5l412 768q15 35 43 35h213q36 0 43 -37l161 -774q2 -16 -6 -27.5t-26 -11.5h-189q-33 0 -33 29l-94 548l-266 -548q-12 -29 -41 -29h-197q-19 0 -25.5 12.5z" />
<glyph unicode="_" horiz-adv-x="690" d="M-104 -256l20 125h776l-16 -125h-780z" />
<glyph unicode="`" horiz-adv-x="665" d="M207 1535q5 11 24 11h177q29 0 36 -18l115 -279q7 -13 -0.5 -21.5t-21.5 -8.5h-131q-19 0 -25 12l-170 282q-9 11 -4 22z" />
<glyph unicode="a" horiz-adv-x="1202" d="M68 295q0 91 8 143l43 269q32 205 159.5 314t374.5 109q129 0 264.5 -44.5t233.5 -100.5l-150 -948q-6 -37 -43 -37h-188q-36 0 -36 40q0 6 1 13l21 146q-19 -34 -48.5 -68t-76 -71.5t-114.5 -61t-144 -23.5q-77 0 -138 30t-96 78.5t-53 102.5t-18 109zM350 348 q0 -66 37 -104.5t105 -38.5q78 0 156.5 56t129.5 157l76 452q-108 36 -168 41q-21 2 -43 2q-105 0 -168.5 -60.5t-85.5 -205.5l-31 -198q-8 -50 -8 -101z" />
<glyph unicode="b" horiz-adv-x="1204" d="M90 328q0 84 8 123l162 1044q1 11 11 18t20 7h227q11 0 18.5 -7t6.5 -18l-88 -549q134 184 346 184q101 0 178.5 -48t116.5 -123t39 -162q0 -47 -9 -109l-45 -291q-33 -219 -169.5 -320.5t-389.5 -101.5q-193 0 -312.5 103.5t-119.5 249.5zM371 356q0 -73 48.5 -112 t141.5 -39q50 0 87.5 9.5t71 34t55 70.5t32.5 115l35 221q8 62 8 88q0 74 -45 116t-135 42q-97 0 -170 -73t-90 -183l-31 -194q-8 -54 -8 -95z" />
<glyph unicode="c" horiz-adv-x="1067" d="M68 328q0 50 10 112l43 275q30 194 161.5 304.5t356.5 110.5q175 0 290 -94t126 -225v-7q0 -43 -35 -48l-176 -27q-23 -3 -33.5 4.5t-13.5 34.5q-6 59 -50 96t-116 37q-84 0 -150 -53.5t-86 -181.5l-37 -238q-6 -35 -6 -61q0 -76 46.5 -119t119.5 -43q82 0 134 38.5 t75 96.5q14 32 41 32q11 0 25 -5l151 -62q26 -10 26 -33q0 -14 -9 -32q-120 -265 -484 -265q-109 0 -201 41.5t-150 123t-58 188.5z" />
<glyph unicode="d" horiz-adv-x="1228" d="M70 293q0 91 8 143l43 271q32 203 156 313t323 110q143 0 299 -57l68 422q1 11 10.5 18t19.5 7h226q10 0 17.5 -6.5t6.5 -18.5l-229 -1458q-2 -16 -12.5 -26.5t-28.5 -10.5h-197q-18 0 -25.5 13t-4.5 32l22 154q-21 -31 -44.5 -59t-60 -59.5t-77.5 -53.5t-96 -37 t-115 -15q-136 0 -222.5 95t-86.5 223zM352 342q0 -59 40.5 -98t111.5 -39q73 0 162.5 64t128.5 149l73 452q-105 43 -223 43q-110 0 -171.5 -65.5t-84.5 -214.5l-29 -184q-8 -47 -8 -107z" />
<glyph unicode="e" horiz-adv-x="1112" d="M70 332q0 55 12 125l37 243q32 199 164 314.5t360 115.5q94 0 173.5 -29.5t130.5 -78.5t79.5 -110.5t28.5 -125.5q0 -76 -33 -278q-6 -43 -61 -43h-596q-13 -68 -13 -105q0 -66 44.5 -110.5t119.5 -44.5q154 0 211 139q12 28 38 28q12 0 26 -5l151 -62q24 -8 24 -30.5 t-14 -47.5q-123 -252 -471 -252q-99 0 -179 29.5t-129.5 80t-76 114t-26.5 133.5zM393 651h371q12 81 12 109q0 70 -37 111.5t-108 41.5q-98 0 -159.5 -59.5t-72.5 -151.5z" />
<glyph unicode="f" horiz-adv-x="800" d="M102 877l27 163q3 29 29 29h143l8 64q29 195 125 291t264 96q82 0 157.5 -22.5t123.5 -57.5q18 -13 22 -31t-10 -39l-82 -110q-17 -19 -36 -19q-16 0 -33 12q-49 37 -119 37q-107 0 -125 -116l-14 -105h260q25 0 22 -29l-24 -161q-6 -31 -35 -31h-260l-129 -819 q-3 -29 -39 -29h-217q-28 0 -25 29l129 819h-139q-12 0 -18.5 9t-4.5 20z" />
<glyph unicode="g" horiz-adv-x="1226" d="M4 -198q2 16 16 26l117 102q13 10 25 10q19 0 37 -24q121 -152 295 -152q120 0 180 71.5t80 213.5l22 174q-21 -32 -37.5 -54.5t-51.5 -57.5t-72 -56.5t-95.5 -38t-124.5 -16.5q-99 0 -172.5 45.5t-108 115.5t-34.5 152q0 79 10 144l39 252q15 101 51.5 176t100.5 131.5 t162 85t229 28.5q251 0 481 -133l-137 -981q-74 -475 -555 -475q-265 0 -445 226q-14 19 -12 35zM365 369q0 -55 36.5 -97.5t100.5 -42.5q185 0 299 211l69 428q-110 45 -208 45q-118 0 -179.5 -64.5t-83.5 -203.5l-26 -172q-8 -49 -8 -104z" />
<glyph unicode="h" horiz-adv-x="1210" d="M63 29l228 1464q2 12 11 19.5t22 7.5h225q27 0 24 -27l-94 -551q163 188 359 188q86 0 153 -47.5t99 -114t32 -134.5q0 -66 -12 -152l-104 -653q-6 -29 -33 -29h-221q-30 0 -27 29l98 610q13 89 13 131q0 131 -134 131q-78 0 -147.5 -56t-103.5 -134l-107 -682 q-1 -13 -11 -21t-22 -8h-223q-13 0 -20.5 8t-4.5 21z" />
<glyph unicode="i" horiz-adv-x="561" d="M66 29l161 1046q3 16 14.5 25.5t24.5 9.5h217q12 0 20 -11t5 -24l-162 -1046q-5 -29 -37 -29h-217q-32 0 -26 29zM262 1290l29 195q8 35 39 35h215q34 0 28 -35l-30 -195q-3 -17 -14.5 -28t-26.5 -11h-215q-13 0 -20.5 10.5t-4.5 28.5z" />
<glyph unicode="j" horiz-adv-x="563" d="M-139 -289q-6 6 -6 15q0 17 24 41q173 132 201 339l151 969q3 15 13.5 25t21.5 10h219q13 0 21.5 -10.5t5.5 -24.5l-150 -966q-14 -94 -50.5 -180t-86.5 -153t-97 -114.5t-99 -87.5q-21 -16 -43 2zM264 1288l31 197q8 35 39 35h215q31 0 26 -37l-28 -197 q-3 -16 -15 -25.5t-26 -9.5h-215q-14 0 -21.5 11t-5.5 26z" />
<glyph unicode="k" horiz-adv-x="1132" d="M63 29l228 1466q3 25 33 25h225q11 0 18 -7t6 -18l-129 -817l426 414q18 18 43 18h238q17 0 20 -11t-8 -22l-397 -395l254 -649q6 -13 -0.5 -23t-20.5 -10h-239q-29 0 -35 18l-178 496l-146 -127l-57 -358q-3 -13 -11.5 -21t-19.5 -8h-227q-12 0 -19 8t-4 21z" />
<glyph unicode="l" horiz-adv-x="559" d="M66 29l227 1466q6 25 35 25h221q31 0 26 -27l-229 -1464q-6 -29 -33 -29h-223q-27 0 -24 29z" />
<glyph unicode="m" horiz-adv-x="1763" d="M59 29l164 1052q4 29 35 29h213q12 0 20 -7.5t5 -21.5l-21 -129q28 32 46 51t51 46.5t62.5 42.5t72 26.5t88.5 11.5q55 0 101 -20t77 -53t50.5 -70t29.5 -78q79 114 168 167.5t198 53.5q65 0 117.5 -26t83.5 -68.5t47 -90.5t16 -97q0 -57 -12 -135l-108 -684 q-1 -13 -11 -21t-22 -8h-219q-30 0 -27 29l100 630q13 85 13 123q0 119 -113 119q-71 0 -136 -61.5t-89 -126.5l-107 -684q-6 -29 -34 -29h-222q-30 0 -24 31l98 624q12 78 12 123q0 123 -116 123q-67 0 -131 -62.5t-86 -123.5l-109 -686q-1 -13 -11 -21t-24 -8h-221 q-13 0 -20.5 8t-4.5 21z" />
<glyph unicode="n" horiz-adv-x="1204" d="M59 29l164 1052q2 12 11 20.5t22 8.5h217q26 0 23 -29l-21 -145q157 194 348 194q93 0 161.5 -48.5t100 -117.5t31.5 -145q0 -66 -10 -135l-105 -655q-6 -29 -32 -29h-221q-14 0 -22 8t-5 21l98 610q12 78 12 135t-32 92t-101 35q-75 0 -146.5 -54.5t-102.5 -131.5 l-109 -686q-6 -29 -33 -29h-223q-13 0 -20.5 8t-4.5 21z" />
<glyph unicode="o" horiz-adv-x="1165" d="M68 313q0 62 8 117l43 268q35 218 164.5 325t392.5 107q191 0 307.5 -99.5t116.5 -246.5q0 -54 -10 -112l-41 -262q-34 -222 -166.5 -328.5t-390.5 -106.5q-190 0 -307 100t-117 238zM352 354q1 -72 49.5 -110.5t124.5 -38.5q95 0 160.5 53t83.5 166l35 221q8 52 8 100 q0 69 -45.5 112.5t-128.5 43.5q-97 0 -161 -57t-81 -162l-37 -231q-8 -40 -8 -97z" />
<glyph unicode="p" horiz-adv-x="1224" d="M4 -391l217 1384q136 67 256.5 102t272.5 35q201 0 304 -95t103 -244q0 -57 -10 -115l-47 -301q-16 -103 -59.5 -182t-104 -125.5t-127.5 -69.5t-139 -23q-58 0 -111 19t-89.5 48.5t-61.5 59.5t-39 58l-86 -553q-3 -33 -35 -33h-219q-12 0 -19.5 10.5t-5.5 24.5zM416 430 v-6q0 -86 57 -152q59 -67 145 -67q85 0 137 50t70 159l41 262q6 35 6 74q0 74 -47.5 112.5t-124.5 38.5q-98 0 -217 -41z" />
<glyph unicode="q" horiz-adv-x="1222" d="M70 287q0 95 8 147l43 273q32 202 160 312.5t360 110.5q144 0 287 -42t235 -97l-211 -1378q-6 -39 -45 -39h-194q-36 0 -36 40q0 6 1 13l88 563q-138 -215 -393 -215q-137 0 -220 92t-83 220zM352 334q0 -53 33.5 -91t99.5 -38q89 0 172.5 55t137.5 156l73 456 q-135 43 -223 43q-113 0 -173.5 -67t-82.5 -217l-29 -185q-8 -53 -8 -112z" />
<glyph unicode="r" horiz-adv-x="800" d="M59 29l164 1052q1 13 11 21t22 8h215q29 0 25 -31l-27 -182q57 97 147 165t199 68q39 0 39 -26q0 -8 -4 -19l-59 -215q-9 -32 -24 -39.5t-58 -7.5q-63 0 -141 -22.5t-115 -69.5l-113 -702q-1 -13 -11 -21t-20 -8h-229q-10 0 -17 8t-4 21z" />
<glyph unicode="s" horiz-adv-x="929" d="M18 288q7 19 25 25l135 47q13 5 23 5q24 0 35 -29q23 -57 78 -96t139 -39q68 0 106.5 30t38.5 76q0 48 -37.5 75.5t-151.5 79.5q-9 4 -14 6t-13 6t-15 7q-248 110 -248 314q0 149 111 242t286 93q152 0 252 -70t133 -165q8 -19 -1 -33t-23 -18l-144 -51q-38 -13 -49 20 q-18 46 -61.5 74t-104.5 28q-66 0 -98.5 -29.5t-32.5 -72.5q0 -48 46 -82t177 -94q123 -54 188.5 -128t65.5 -187q0 -140 -114 -243.5t-297 -103.5q-73 0 -136.5 15.5t-109.5 41t-84 61t-62 72t-41 77.5q-9 27 -2 46z" />
<glyph unicode="t" horiz-adv-x="813" d="M102 870l29 172q2 10 11 18.5t20 8.5h123l39 248q3 12 13 20.5t21 8.5h220q9 0 15 -8.5t3 -20.5l-37 -248h225q11 0 17 -8.5t4 -18.5l-27 -172q-6 -28 -33 -28h-213l-71 -453q-6 -24 -6 -57q0 -49 22 -71.5t78 -22.5h113q27 0 24 -31l-28 -178q-4 -29 -37 -29h-183 q-129 0 -204.5 74t-75.5 186q0 41 8 88l80 494h-125q-12 0 -19.5 8.5t-5.5 19.5z" />
<glyph unicode="u" horiz-adv-x="1210" d="M90 274q0 76 16 170l101 637q2 12 11 20.5t22 8.5h225q11 0 17 -7.5t5 -19.5l-96 -614q-1 -10 -6 -39.5t-7.5 -51t-2.5 -44.5q0 -58 34.5 -93.5t98.5 -35.5q78 0 156.5 68.5t105.5 144.5l104 663q2 12 10.5 20.5t20.5 8.5h228q11 0 18 -7.5t6 -19.5l-166 -1054 q-3 -12 -11 -20.5t-17 -8.5h-220q-11 0 -17 8.5t-5 20.5l24 170q-20 -35 -52.5 -71.5t-78 -72t-106 -58t-123.5 -22.5q-134 0 -214.5 84.5t-80.5 214.5z" />
<glyph unicode="v" horiz-adv-x="997" d="M76 1079q-4 31 22 31h240q28 0 31 -31l61 -436q27 -192 27 -342q0 -36 -2 -70h4q74 261 139 406l195 442q15 31 43 31h237q13 0 16.5 -9.5t-2.5 -21.5l-507 -1050q-13 -29 -43 -29h-230q-33 0 -37 29z" />
<glyph unicode="w" horiz-adv-x="1472" d="M82 1079q-4 31 27 31h235q31 0 31 -29l26 -460q6 -100 6 -197.5t-6 -192.5h9q45 199 112 387l160 465q10 27 35 27h231q29 0 29 -27l22 -458q7 -164 7 -281q0 -64 -2 -113h8q49 229 106 390l158 460q10 29 37 29h219q28 0 16 -33l-409 -1048q-12 -29 -39 -29h-266 q-25 0 -29 29l-23 307q-12 171 -12 290q0 66 4 115h-4q-36 -200 -111 -399l-118 -313q-11 -29 -41 -29h-269q-25 0 -28 29z" />
<glyph unicode="x" horiz-adv-x="1015" d="M-75.5 13.5q-6.5 13.5 1.5 25.5l422 534l-233 500q-6 14 0.5 25.5t19.5 11.5h230q29 0 41 -31l129 -336l247 344q16 23 39 23h240q21 0 25 -13t-9 -26l-413 -532l233 -508q5 -10 -1.5 -20.5t-23.5 -10.5h-229q-28 0 -41 31l-129 323l-240 -323q-23 -31 -51 -31h-241 q-10 0 -16.5 13.5z" />
<glyph unicode="y" horiz-adv-x="1015" d="M-10 -274q-7 14 -7 25q0 22 25 32q101 49 162 97t117 140l-197 1063q-2 9 3.5 18t17.5 9h251q18 0 21 -23l113 -759l303 751q13 31 41 31h223q13 0 19.5 -11t0.5 -22l-481 -1034q-84 -175 -209 -302t-256 -185q-23 -12 -38 -12t-21 12z" />
<glyph unicode="z" horiz-adv-x="935" d="M-31 137l584 744h-395q-12 0 -19.5 7.5t-5.5 18.5l25 176q2 10 9.5 18.5t18.5 8.5h715q28 0 31 -29l14 -110l-571 -742h444q12 0 18.5 -7.5t4.5 -16.5l-27 -176q-6 -29 -33 -29h-759q-25 0 -31 29z" />
<glyph unicode="{" horiz-adv-x="776" d="M92 549l25 151q5 27 37 27q97 1 138 49.5t60 173.5l49 322q21 128 107.5 204t216.5 76h117q30 0 26 -26l-30 -180q-2 -11 -11.5 -19t-21.5 -8h-62q-92 0 -108 -96l-53 -363q-14 -100 -79.5 -163t-158.5 -81v-4q80 -14 127.5 -79t32.5 -154l-51 -330q-9 -65 8.5 -93 t73.5 -28h53q12 0 18 -7.5t4 -16.5l-24 -183q-1 -12 -12 -20t-23 -8h-117q-130 0 -192 85.5t-41 215.5l57 358q24 146 -137 158q-15 2 -23.5 13t-5.5 26z" />
<glyph unicode="|" horiz-adv-x="636" d="M20 -506l330 2103q6 27 37 27h203q29 0 24 -29l-327 -2101q-6 -26 -33 -26h-205q-29 0 -29 26z" />
<glyph unicode="}" horiz-adv-x="755" d="M-61 -264l28 174q5 27 33 27h51q56 0 84 28t37 92l51 330q13 91 77 159.5t144 82.5v6q-77 12 -117.5 77t-27.5 158l55 351q16 94 -75 94h-62q-12 0 -19 7.5t-5 18.5l26 177q2 9 10.5 16.5t22.5 7.5h117q131 0 193 -75t44 -203l-49 -306q-21 -126 2.5 -171t124.5 -52 q10 -1 16 -3t11 -8t4 -15l-29 -162q-1 -16 -9.5 -21.5t-27.5 -7.5q-166 -16 -186 -158l-57 -368q-21 -128 -106.5 -205.5t-215.5 -77.5h-119q-12 0 -20 8t-6 19z" />
<glyph unicode="~" horiz-adv-x="1064" d="M45 629q16 28 37 53t56 54.5t85.5 47t108.5 17.5q66 0 142 -26.5t143.5 -52.5t113.5 -26q50 0 79.5 14.5t59.5 51.5q22 27 39 10l111 -88q12 -12 0 -35q-33 -72 -105.5 -124t-185.5 -52q-60 0 -121.5 16.5t-103 36t-89.5 36t-85 16.5q-46 0 -73.5 -18t-57.5 -58 q-19 -29 -35 -8l-115 100q-12 12 -4 35z" />
<glyph unicode="&#xa1;" horiz-adv-x="708" d="M80 -354l201 1016q5 22 30 22h133q13 0 18.5 -5t4.5 -17l-121 -1016q-4 -25 -31 -25h-213q-26 0 -22 25zM285 901l28 193q3 36 39 36h185q34 0 28 -36l-30 -195q-3 -19 -10.5 -27t-26.5 -8h-187q-32 0 -26 37z" />
<glyph unicode="&#xa2;" horiz-adv-x="1060" d="M80 440l41 246q27 175 125.5 282.5t255.5 143.5l26 168q6 27 33 27h209q24 0 32.5 -8.5t4.5 -32.5l-23 -156q106 -33 171 -118t73 -193q3 -49 -35 -54l-174 -24q-23 -3 -34.5 5.5t-12.5 35.5q-5 65 -38 101t-111 36q-187 0 -228 -252l-35 -219q-17 -113 19.5 -165 t128.5 -52q81 0 132 40t75 93q13 24 26 31.5t37 -0.5l146 -70q19 -7 20 -29t-12 -43q-100 -194 -324 -239l-28 -178q-6 -29 -31 -29h-223q-14 0 -22 8t-5 21l31 182q-144 39 -211.5 155t-38.5 287z" />
<glyph unicode="&#xa3;" horiz-adv-x="1273" d="M63 106q0 16 68 91q70 85 111 169t59 197q0 14 6 35h-166q-32 0 -26 31l30 180q0 10 8.5 19.5t22.5 9.5h152q1 31 -0.5 81t-1.5 62q0 238 149.5 383t390.5 145q150 0 259 -86t139 -233q10 -55 -39 -66l-154 -39q-45 -12 -55 35q-18 72 -58.5 102.5t-123.5 30.5 q-216 0 -216 -247q0 -18 2 -77.5t1 -90.5h294q23 0 23 -29l-31 -180q-6 -31 -33 -31h-282q-37 -224 -129 -342h602q25 0 20 -31l-32 -194q-6 -31 -35 -31h-916q-12 6 -28 50t-11 56z" />
<glyph unicode="&#xa4;" horiz-adv-x="1402" d="M74 502l20 151q7 29 33 29h149l15 104h-144q-29 0 -26 31l24 156q6 31 35 31h148v12q34 215 201.5 353t406.5 138q84 0 158 -20.5t128 -54.5t95.5 -80t65.5 -96t34 -103q9 -49 -35 -61l-194 -56q-17 -4 -27 3.5t-12 23.5q-11 101 -69.5 154t-180.5 53q-118 0 -190.5 -67 t-90.5 -177l-2 -22h332q34 0 27 -31l-27 -156q-3 -31 -35 -31h-331l-17 -104h336q26 0 21 -29l-23 -151q-6 -33 -33 -33h-331l-9 -45q-4 -32 -4 -45q0 -81 53.5 -126.5t157.5 -45.5q227 0 311 207q19 46 58 32l155 -57q23 -11 29.5 -34.5t-6.5 -51.5q-85 -172 -224 -250 t-360 -78q-224 0 -343.5 105.5t-119.5 294.5q0 33 7 84l2 10h-144q-30 0 -24 33z" />
<glyph unicode="&#xa5;" horiz-adv-x="1136" d="M83.5 1474.5q4.5 10.5 14.5 10.5h246q25 0 35 -29l215 -614l401 624q11 19 29 19h260q12 0 16 -11t-2 -20l-598 -872l-4 -21h295q11 0 17 -10.5t6 -22.5l-29 -166q-2 -11 -11 -20.5t-20 -9.5h-295l-47 -303q-6 -29 -32 -29h-234q-28 0 -22 29l45 303h-222q-11 0 -17.5 9 t-6.5 21l29 168q2 11 10.5 21t19.5 10h221l5 21l-324 872q-5 10 -0.5 20.5z" />
<glyph unicode="&#xa6;" horiz-adv-x="614" d="M10 -508l144 909q1 13 10.5 21t17.5 8h203q9 0 15.5 -8.5t5.5 -20.5l-142 -909q-3 -12 -11 -20.5t-17 -8.5h-203q-9 0 -17.5 8t-5.5 21zM197 686l143 909q3 14 12.5 21.5t18.5 7.5h202q8 0 14 -9t5 -20l-141 -909q-1 -12 -10.5 -20.5t-18.5 -8.5h-203q-9 0 -17 7.5 t-5 21.5z" />
<glyph unicode="&#xa7;" horiz-adv-x="1099" d="M83 122.5q0 7.5 2 11.5t6.5 7.5t7.5 4.5t9.5 3t8.5 3l176 45q32 10 39 -25q28 -141 166 -141q63 0 96 39t33 100q0 54 -52 99t-159 96q-119 58 -179.5 120.5t-60.5 157.5t58.5 172.5t148.5 112.5q-141 93 -141 235q0 50 14.5 99t47 96t80 82t118.5 56.5t157 21.5 q146 0 242 -75t115 -177q5 -27 -19 -37l-182 -58q-17 -5 -22.5 -1t-10.5 22q-28 117 -135 117q-62 0 -91.5 -26t-29.5 -66q0 -47 45 -82.5t185 -102.5q127 -60 186 -123.5t59 -154.5q0 -104 -57 -185.5t-160 -124.5q66 -46 107 -103.5t41 -141.5q0 -164 -123.5 -272.5 t-325.5 -108.5q-157 0 -259 75t-138 213q-3 9 -3 16.5zM440 674q0 -49 43.5 -85t100.5 -36q64 0 107.5 41.5t43.5 105.5q0 57 -42.5 85t-108.5 28q-59 0 -101.5 -40.5t-42.5 -98.5z" />
<glyph unicode="&#xa8;" horiz-adv-x="1007" d="M164 1288l29 185q8 38 38 38h170q15 0 23.5 -10.5t5.5 -27.5l-29 -185q-3 -17 -14 -27t-25 -10h-172q-14 0 -21.5 10t-4.5 27zM578 1288l28 185q8 38 39 38h170q15 0 23.5 -10.5t5.5 -27.5l-29 -185q-3 -17 -14.5 -27t-26.5 -10h-170q-14 0 -21.5 10t-4.5 27z" />
<glyph unicode="&#xa9;" horiz-adv-x="1646" d="M90 586q0 180 66.5 339t179.5 271.5t268.5 178t327.5 65.5q292 0 458 -162t166 -424q0 -162 -64.5 -317t-175 -273.5t-270.5 -191t-339 -72.5q-282 0 -449.5 158.5t-167.5 427.5zM270 621q0 -203 122.5 -331t342.5 -128q123 0 241.5 55.5t206.5 146t141.5 212t53.5 247.5 q0 199 -125.5 327t-343.5 128q-138 0 -258.5 -54t-203 -144.5t-130 -210t-47.5 -248.5zM477 616l29 199q23 158 126 241t261 83q66 0 119 -23.5t84.5 -61.5t49 -79t19.5 -82q0 -24 -24 -29l-133 -30q-33 -8 -33 26q-2 46 -26 78.5t-79 32.5q-139 0 -165 -185l-25 -170 q-10 -81 17 -118t94 -37q106 0 141 106q3 14 13 19.5t24 -0.5l118 -60q27 -10 13 -41q-40 -89 -131 -140.5t-211 -51.5q-147 0 -225 88t-56 235z" />
<glyph unicode="&#xaa;" horiz-adv-x="872" d="M100 891q0 49 13 129l30 184q23 146 118 225.5t228 79.5q106 0 196.5 -29.5t186.5 -80.5l-102 -674q-8 -31 -39 -31h-153q-31 0 -25 39l18 103q-39 -61 -104.5 -111.5t-147.5 -50.5q-102 0 -160.5 63t-58.5 154zM303 924q0 -31 24 -54.5t62 -23.5q56 0 127.5 71t85.5 156 l37 240q-89 28 -133 28q-154 0 -176 -180l-17 -127q-10 -87 -10 -110z" />
<glyph unicode="&#xab;" horiz-adv-x="1134" d="M80 647l348 389q10 14 26 18.5t31 -5.5l113 -109q26 -17 2 -45l-258 -274l172 -322q9 -10 5.5 -23.5t-21.5 -21.5l-123 -72q-21 -9 -35 -4.5t-21 17.5zM563 647l348 389q10 13 26.5 18.5t29.5 -5.5l114 -109q26 -17 2 -45l-258 -274l172 -322q16 -28 -16 -45l-125 -72 q-19 -9 -32.5 -4.5t-20.5 17.5z" />
<glyph unicode="&#xac;" horiz-adv-x="1255" d="M70 573v146q0 11 8.5 21t19.5 10h1055v-504q0 -11 -9.5 -18t-21.5 -7h-135q-11 0 -20 7.5t-9 19.5v297h-860q-12 0 -20 8.5t-8 19.5z" />
<glyph unicode="&#xad;" horiz-adv-x="968" d="M82 535l29 161q4 27 28 27h723q28 0 25 -27l-29 -161q-3 -31 -33 -31h-714q-36 0 -29 31z" />
<glyph unicode="&#xae;" horiz-adv-x="927" d="M80 1038q0 93 33 177.5t94 150t155 104.5t209 39q162 0 260.5 -103t98.5 -263q0 -95 -32 -179.5t-92.5 -150t-155.5 -103.5t-212 -38q-86 0 -156 31.5t-113 83.5t-66 116.5t-23 134.5zM186 1038q0 -117 67 -194.5t200 -77.5q176 0 273 106.5t97 270.5q0 120 -67 196 t-199 76q-175 0 -273 -106.5t-98 -270.5zM324 887l63 420h150q73 0 111 -32t38 -89q0 -54 -29 -95.5t-77 -60.5l57 -143q0 -8 -6 -8h-94q-9 0 -9 6l-45 141h-43l-22 -139q-4 -8 -6 -8h-82q-3 0 -5 2.5t-1 5.5zM451 1096h47q43 0 68.5 22.5t25.5 63.5q0 51 -66 51h-53z" />
<glyph unicode="&#xaf;" horiz-adv-x="847" d="M182 1346l25 151q2 11 10.5 19t20.5 8h507q11 0 17 -9t4 -20l-23 -149q-2 -11 -12 -21t-22 -10h-504q-11 0 -17 9.5t-6 21.5z" />
<glyph unicode="&#xb0;" horiz-adv-x="784" d="M100 1128q0 171 114.5 281.5t279.5 110.5q128 0 209 -79t81 -194q0 -176 -113.5 -283.5t-281.5 -107.5q-127 0 -208 82.5t-81 189.5zM283 1165q0 -56 36 -94.5t97 -38.5q70 0 126 54.5t56 130.5q0 56 -35 92.5t-96 36.5q-70 0 -127 -54.5t-57 -126.5z" />
<glyph unicode="&#xb1;" horiz-adv-x="1198" d="M80 555v145q0 18 12.5 28.5t28.5 10.5h350v365q0 35 39 35h178q37 0 37 -35v-365h352q16 0 28.5 -10.5t12.5 -28.5v-145q0 -45 -41 -45h-352v-281h352q12 0 20.5 -5t13 -11.5t6.5 -17.5t2 -18t-0.5 -19.5t-0.5 -14.5v-104q0 -16 -12 -27.5t-31 -11.5h-952 q-16 0 -27.5 11.5t-11.5 23.5v162q0 10 11.5 21t27.5 11h348v60v221h-350q-41 0 -41 45z" />
<glyph unicode="&#xb2;" horiz-adv-x="819" d="M82 702l20 129q17 102 79.5 169.5t176.5 121.5q127 59 159 84q44 34 44 78q0 68 -94 68q-88 0 -137 -80q-19 -37 -43 -25l-82 53q-37 16 -6 52q64 86 136 121.5t161 35.5q127 0 194.5 -60t67.5 -149q0 -54 -17.5 -95.5t-59 -76.5t-89.5 -61.5t-129 -62.5 q-90 -38 -123 -64.5t-39 -69.5h344q24 0 21 -28l-17 -103q-3 -20 -10.5 -28.5t-24.5 -8.5h-532z" />
<glyph unicode="&#xb3;" horiz-adv-x="761" d="M63 866q-7 32 21 47l98 41q30 10 39 -16q17 -42 46 -61t77 -19q50 0 80.5 30.5t30.5 78.5q0 35 -24.5 55t-61.5 20h-84q-13 0 -16 7t-1 22l15 86q5 31 28 31h68q62 0 91.5 25t29.5 65q-2 33 -22.5 52.5t-71.5 19.5q-40 0 -78 -16t-60 -46q-23 -33 -47 -12l-65 53 q-26 22 -6 47q47 60 118.5 96.5t159.5 36.5q134 0 203 -57t69 -149q0 -69 -43 -121t-100 -66q38 -15 66 -58t28 -100q0 -112 -91.5 -189t-225.5 -77q-116 0 -182 49t-89 125z" />
<glyph unicode="&#xb4;" horiz-adv-x="669" d="M163.5 1227.5q-4.5 8.5 4.5 21.5l205 279q6 9 14 13.5t11.5 4.5h15.5h174q19 0 21.5 -11t-9.5 -22l-260 -282q-9 -12 -27 -12h-131q-14 0 -18.5 8.5z" />
<glyph unicode="&#xb5;" horiz-adv-x="1241" d="M4 -414l236 1495q4 29 32 29h215q11 0 17.5 -8.5t5.5 -20.5l-102 -630q-11 -84 26.5 -140.5t126.5 -56.5q85 0 158 48t82 110l104 669q1 12 11 20.5t22 8.5h225q11 0 19.5 -8t7.5 -19l-166 -1054q-3 -12 -12.5 -20.5t-20.5 -8.5h-207q-9 0 -15 8.5t-5 20.5l18 112 q-123 -159 -266 -159q-71 0 -111.5 32.5t-50.5 67.5l-78 -496q-1 -12 -10 -20t-20 -8h-219q-11 0 -17.5 8t-5.5 20z" />
<glyph unicode="&#xb6;" horiz-adv-x="1347" d="M121 827q0 100 29 195t88 179t141 147.5t196.5 100t247.5 36.5h520q12 0 18.5 -7t6.5 -16l-27 -162q-3 -24 -28 -24h-113l-242 -1532q-6 -29 -38 -29h-175q-29 0 -26 27l244 1534h-125l-133 -844h-175q-194 0 -301.5 96.5t-107.5 298.5z" />
<glyph unicode="&#xb7;" horiz-adv-x="567" d="M143 518l37 227q2 15 11.5 26t25.5 11h174q36 0 33 -37l-39 -227q-3 -15 -13.5 -25t-25.5 -10h-176q-13 0 -21.5 10.5t-5.5 24.5z" />
<glyph unicode="&#xb8;" horiz-adv-x="571" d="M-1 -337q-3 9 5 18l51 77q5 10 14 12.5t13 -1.5q94 -52 147 -52q66 0 74 41l2 11q4 20 -9.5 35t-48 22t-91.5 -2l30 207h174l-16 -94q79 0 116 -48.5t27 -117.5l-2 -15q-10 -70 -81.5 -124t-176.5 -54q-74 0 -129 20.5t-86 47.5q-7 5 -8.5 6.5t-4.5 10.5z" />
<glyph unicode="&#xb9;" horiz-adv-x="581" d="M70 715l22 131q5 14 14 14h130l63 397l-145 -12q-21 -3 -21 17l4 100q0 17 15 20q147 38 184 58q6 3 14 12t14.5 17t14 18t8.5 12h148l-103 -639h117q7 0 10.5 -4.5t1.5 -9.5l-18 -133q0 -3 -5 -7t-12 -4h-446q-10 0 -10 13z" />
<glyph unicode="&#xba;" horiz-adv-x="860" d="M106 924q0 29 9 59l32 225q51 301 398 301q136 0 222.5 -64.5t86.5 -174.5q0 -30 -6 -70l-33 -217q-25 -157 -133.5 -232t-265.5 -75q-142 0 -226 73t-84 175zM309 963q0 -49 32.5 -84t98.5 -35q159 0 183 149l30 199q2 12 2 35q0 114 -133 114q-79 0 -124.5 -41.5 t-55.5 -107.5l-29 -180q-4 -20 -4 -49z" />
<glyph unicode="&#xbb;" horiz-adv-x="1177" d="M84 336l252 278l-168 308q-16 28 16 45l138 84q20 10 34 5.5t21 -18.5l227 -448l-354 -393q-10 -13 -26 -18.5t-29 5.5l-109 105q-28 17 -2 47zM575 336l252 278l-168 308q-16 28 17 45l137 84q20 10 34 5.5t21 -18.5l228 -448l-355 -393q-10 -13 -26 -18.5t-29 5.5 l-108 105q-29 17 -3 47z" />
<glyph unicode="&#xbc;" horiz-adv-x="1466" d="M74 711l20 133q0 5 4 9.5t8 4.5h125l62 381l-150 -12q-10 -1 -14 2.5t-2 11.5q0 6 -0.5 26t-0.5 32.5t1.5 28t6 24t11.5 10.5q29 10 78 24.5t67 21t43 22.5t44 40h143l-96 -612h117q12 0 12 -14q-3 -24 -6 -45l-15 -88q-6 -13 -16 -13h-432q-6 0 -9.5 4.5t-0.5 8.5z M180 39l998 1431q9 11 12.5 15t12.5 7t24 3h137q33 0 16 -25l-1020 -1447q-14 -23 -45 -23h-127q-39 0 -8 39zM726 261.5q0 10.5 0.5 28.5t0.5 23q0 14 8 25l459 567q12 16 27 8q4 -3 11 -7.5t13 -8.5l12 -8l70 -51q9 -6 8 -15t-8 -18l-364 -445h127l20 105q1 8 7.5 12 t17.5 5t21 1t23.5 -1t20.5 -1h68q8 0 13.5 -5t4.5 -11l-16 -105h84q16 0 12 -18q-1 -7 -6 -37l-12 -74q-2 -8 -8.5 -15t-12.5 -7h-84l-22 -152q-3 -18 -21 -18h-147q-20 0 -17 18l23 152h-314q-7 0 -11.5 7t-6 21t-1.5 24.5z" />
<glyph unicode="&#xbd;" horiz-adv-x="1574" d="M74 711l20 133q0 5 4 9.5t8 4.5h125l62 381l-150 -12q-10 -1 -14 2.5t-2 11.5q0 6 -0.5 26t-0.5 32.5t1.5 28t6 24t11.5 10.5q29 10 78 24.5t67 21t43 22.5t44 40h143l-96 -612h117q12 0 12 -14q-3 -24 -6 -45l-15 -88q-6 -13 -16 -13h-432q-6 0 -9.5 4.5t-0.5 8.5z M180 39l998 1431q9 11 12.5 15t12.5 7t24 3h137q33 0 16 -25l-1020 -1447q-14 -23 -45 -23h-127q-39 0 -8 39zM838 106l20 130q17 101 79 169t177 123q127 57 160 83q42 35 43 79q0 66 -94 66q-89 0 -138 -80q-21 -36 -43 -25l-81 54q-37 16 -7 53q64 85 136 120t161 35 q127 0 194.5 -59.5t67.5 -148.5q0 -102 -67 -163t-227 -132q-90 -40 -123 -66.5t-39 -69.5h344q23 0 20 -26l-16 -105q-3 -20 -10.5 -28.5t-24.5 -8.5h-532z" />
<glyph unicode="&#xbe;" horiz-adv-x="1517" d="M51 805q-7 32 23 47l98 41q28 11 37 -16q32 -80 123 -80q52 0 82 30t30 78q0 35 -25.5 55.5t-62.5 20.5h-84q-12 0 -15 6.5t-1 22.5l14 86q7 30 31 30h68q62 0 91 25.5t29 65.5q-4 71 -94 71q-42 0 -79 -15.5t-58 -45.5q-26 -33 -49 -10l-66 51q-25 21 -6 49 q47 59 120 95t161 36q134 0 202 -57t68 -150q0 -69 -42.5 -120.5t-100.5 -65.5q38 -15 66 -58t28 -100q0 -113 -91 -189.5t-226 -76.5q-115 0 -180.5 48.5t-90.5 125.5zM193 39l1030 1431q9 11 12.5 15t12.5 7t24 3h139q31 0 14 -25l-1050 -1447q-14 -23 -45 -23h-127 q-41 0 -10 39zM795 313q0 14 8 25l459 567q11 15 26 8l107 -75q18 -10 -2 -35l-361 -443h123l21 105q3 16 20 16h139q8 0 14 -5t5 -11l-17 -105h84q17 0 13 -18l-19 -121q-2 -8 -7.5 -15t-12.5 -7h-84l-23 -142q-3 -18 -20 -18h-148q-19 0 -16 18l22 142h-313q-13 0 -16 16z " />
<glyph unicode="&#xbf;" horiz-adv-x="878" d="M-45 -131q0 45 4 68q10 58 36 111t60.5 93.5t74 79t78.5 75t72.5 73.5t58 82t32.5 94l10 63q1 17 13 27t26 10h170q32 0 28 -37l-12 -80q-14 -83 -55.5 -156t-91.5 -124t-99 -96.5t-86 -94.5t-45 -98q-2 -12 -2 -35q2 -59 39.5 -94t110.5 -35q117 0 227 125q25 36 53 0 l93 -117q15 -19 -17 -55q-80 -85 -189 -136.5t-233 -51.5q-81 0 -150 28t-113 72.5t-68.5 99t-24.5 109.5zM416 850l33 192q1 17 12 27t26 10h168q14 0 24 -10.5t7 -26.5l-33 -192q-3 -15 -13 -26t-24 -11h-170q-36 0 -30 37z" />
<glyph unicode="&#xc0;" horiz-adv-x="1220" d="M-77.5 10.5q-4.5 10.5 1.5 22.5l672 1431q20 41 49 41h250q21 0 30.5 -10t12.5 -31l213 -1431q3 -16 -5 -24.5t-20 -8.5h-233q-30 0 -33 33l-43 336h-452l-150 -336q-9 -20 -19 -26.5t-28 -6.5h-229q-12 0 -16.5 10.5zM475 616h313l-63 605zM522.5 1965q5.5 11 24.5 11 h174q27 0 35 -10l4 -8l114 -279q6 -13 -1 -21.5t-21 -8.5h-131q-19 0 -25 12l-170 283q-9 10 -3.5 21z" />
<glyph unicode="&#xc1;" horiz-adv-x="1220" d="M-77.5 10.5q-4.5 10.5 1.5 22.5l672 1431q20 41 49 41h250q21 0 30.5 -10t12.5 -31l213 -1431q3 -16 -5 -24.5t-20 -8.5h-233q-30 0 -33 33l-43 336h-452l-150 -336q-9 -20 -19 -26.5t-28 -6.5h-229q-12 0 -16.5 10.5zM475 616h313l-63 605zM686.5 1659.5 q-4.5 8.5 3.5 21.5l205 279q6 9 14 13.5t11.5 4.5h15.5h174q19 0 21.5 -11t-9.5 -21l-260 -283q-9 -12 -26 -12h-131q-14 0 -18.5 8.5z" />
<glyph unicode="&#xc2;" horiz-adv-x="1220" d="M-77.5 10.5q-4.5 10.5 1.5 22.5l672 1431q20 41 49 41h250q21 0 30.5 -10t12.5 -31l213 -1431q3 -16 -5 -24.5t-20 -8.5h-233q-30 0 -33 33l-43 336h-452l-150 -336q-9 -20 -19 -26.5t-28 -6.5h-229q-12 0 -16.5 10.5zM475 616h313l-63 605zM510 1675l207 262l6 6l5 5 t4.5 4t4.5 3.5t4 2.5t5 2t6 1t7.5 1h8.5h121q9 0 15 -1t10.5 -6t6 -7t7.5 -11l129 -262q5 -9 -1 -16.5t-18 -7.5h-137q-14 0 -20 5.5t-11 18.5l-59 160l-111 -164q-14 -20 -30 -20h-148q-28 0 -12 24z" />
<glyph unicode="&#xc3;" horiz-adv-x="1220" d="M-77.5 10.5q-4.5 10.5 1.5 22.5l672 1431q8 17 19.5 27t27 13t27.5 3.5t31.5 -1t27.5 -1.5h166q21 0 30.5 -10t12.5 -31l213 -1431q3 -16 -5 -24.5t-20 -8.5h-233q-30 0 -33 33l-43 336h-452l-150 -336q-9 -20 -19 -26.5t-28 -6.5h-229q-12 0 -16.5 10.5zM457 1763 q-13 16 27.5 57t106.5 76t116 35q46 0 86.5 -20t70.5 -40t51 -20t41 10t33 22.5t26 24t20 14.5t16 -5l77 -100q12 -17 -6 -39q-44 -49 -105 -85t-120 -36q-42 0 -76.5 13t-53.5 29t-42.5 29t-44.5 13q-55 0 -109 -72q-5 -8 -12.5 -8.5t-15.5 8.5zM475 616h313l-63 605z" />
<glyph unicode="&#xc4;" horiz-adv-x="1220" d="M-77.5 10.5q-4.5 10.5 1.5 22.5l672 1431q20 41 49 41h250q21 0 30.5 -10t12.5 -31l213 -1431q3 -16 -5 -24.5t-20 -8.5h-233q-30 0 -33 33l-43 336h-452l-150 -336q-9 -20 -19 -26.5t-28 -6.5h-229q-12 0 -16.5 10.5zM471 1686l29 184q8 37 39 37h170q15 0 23 -10t5 -27 l-28 -187q-3 -17 -14 -26.5t-25 -9.5h-172q-14 0 -22 10.5t-5 28.5zM475 616h313l-63 605zM885 1686l28 184q8 37 39 37h170q15 0 23.5 -10t5.5 -27l-29 -187q-3 -17 -14.5 -26.5t-26.5 -9.5h-170q-14 0 -21.5 10.5t-4.5 28.5z" />
<glyph unicode="&#xc5;" horiz-adv-x="1220" d="M-77.5 10.5q-4.5 10.5 1.5 22.5l672 1431q20 41 49 41h250q21 0 30.5 -10t12.5 -31l213 -1431q3 -16 -5 -24.5t-20 -8.5h-233q-30 0 -33 33l-43 336h-452l-150 -336q-9 -20 -19 -26.5t-28 -6.5h-229q-12 0 -16.5 10.5zM475 616h313l-63 605zM608 1755q15 88 83.5 144.5 t156.5 56.5q90 0 139.5 -56t36.5 -145q-12 -84 -81 -140t-159 -56q-86 0 -137 56t-39 140zM737 1755q-4 -34 15 -55t53 -21q36 0 63 21.5t31 54.5q4 36 -16 58t-56 22q-33 0 -58.5 -22t-31.5 -58z" />
<glyph unicode="&#xc6;" horiz-adv-x="1744" d="M-69 11.5q-6 11.5 1 23.5l887 1409q26 41 49 41h910q13 0 18.5 -10t3.5 -23l-28 -195q-2 -12 -10.5 -21t-20.5 -9h-533l-53 -348h483q23 0 23 -31l-33 -193q-2 -10 -11 -18t-20 -8h-483l-57 -371h530q17 0 22 -10.5t3 -22.5l-33 -196q-7 -29 -29 -29h-786 q-13 0 -23.5 9.5t-7.5 23.5l39 270h-373l-163 -270q-12 -19 -21.5 -26t-26.5 -7h-239q-12 0 -18 11.5zM551 545h262l90 571z" />
<glyph unicode="&#xc7;" horiz-adv-x="1212" d="M92 432q0 61 8 111l72 452q38 244 187 379t409 135q191 0 318.5 -110t138.5 -266q2 -27 -6.5 -41t-30.5 -17l-172 -33q-26 -5 -37 2.5t-14 32.5q-11 74 -66.5 125t-144.5 51q-254 0 -303 -305l-62 -385q-10 -63 -10 -112q0 -96 55.5 -157t161.5 -61q203 0 268 185 q19 44 66 26l174 -61q24 -9 28 -28t-10 -54q-49 -125 -166.5 -211.5t-281.5 -107.5l-10 -66q79 0 116 -48.5t27 -117.5l-2 -14q-10 -70 -81.5 -124t-176.5 -54q-74 0 -129.5 20t-85.5 47q-7 5 -8.5 6.5t-4.5 10.5t5 18l51 78q11 22 26 12q96 -53 148 -53q66 0 74 41l2 10 q4 20 -10 35t-48.5 22.5t-91.5 -0.5l25 175q-86 9 -156 40t-116 75.5t-77.5 101.5t-45 115.5t-13.5 119.5z" />
<glyph unicode="&#xc8;" horiz-adv-x="1081" d="M63 0l230 1485h821q13 0 19 -10t4 -23l-33 -192q-2 -11 -10.5 -21t-18.5 -10h-530l-58 -350h486q20 0 20 -31l-28 -193q-2 -10 -11 -18t-20 -8h-483l-60 -373h531q30 0 24 -33l-31 -194q-7 -29 -30 -29h-822zM441 1966q6 12 26 12h174q29 0 37 -18l117 -281 q6 -13 -1.5 -21.5t-21.5 -8.5h-131q-19 0 -25 12l-172 283q-9 10 -3 22z" />
<glyph unicode="&#xc9;" horiz-adv-x="1081" d="M63 0l230 1485h821q13 0 19 -10t4 -23l-33 -192q-2 -11 -10.5 -21t-18.5 -10h-530l-58 -350h486q20 0 20 -31l-28 -193q-2 -10 -11 -18t-20 -8h-483l-60 -373h531q30 0 24 -33l-31 -194q-7 -29 -30 -29h-822zM657.5 1657.5q-4.5 8.5 4.5 21.5l202 279q11 18 43 18h174 q19 0 22 -11t-9 -21l-260 -283q-9 -12 -27 -12h-131q-14 0 -18.5 8.5z" />
<glyph unicode="&#xca;" horiz-adv-x="1081" d="M63 0l230 1485h821q13 0 19 -10t4 -23l-33 -192q-2 -11 -10.5 -21t-18.5 -10h-530l-58 -350h486q20 0 20 -31l-28 -193q-2 -10 -11 -18t-20 -8h-483l-60 -373h531q30 0 24 -33l-31 -194q-7 -29 -30 -29h-822zM459 1673l209 260q15 19 21.5 23t27.5 4h121q19 0 25.5 -5.5 t13.5 -21.5l129 -260q5 -9 -1 -16.5t-18 -7.5h-137q-14 0 -20 5.5t-11 18.5l-57 160l-111 -164q-14 -20 -30 -20h-148q-30 0 -14 24z" />
<glyph unicode="&#xcb;" horiz-adv-x="1081" d="M63 0l230 1485h821q13 0 19 -10t4 -23l-33 -192q-2 -11 -10.5 -21t-18.5 -10h-530l-58 -350h486q20 0 20 -31l-28 -193q-2 -10 -11 -18t-20 -8h-483l-60 -373h531q30 0 24 -33l-31 -194q-7 -29 -30 -29h-822zM403 1704l29 186q8 37 39 37h170q15 0 23.5 -10t5.5 -27 l-29 -186q-3 -17 -15 -27t-26 -10h-170q-14 0 -22 10t-5 27zM817 1704l29 186q8 37 39 37h170q15 0 23 -10t5 -27l-28 -186q-3 -17 -15.5 -27t-27.5 -10h-168q-14 0 -22 10t-5 27z" />
<glyph unicode="&#xcc;" horiz-adv-x="589" d="M66 29l223 1427q3 13 12 21t18 8h236q12 0 18.5 -8.5t4.5 -20.5l-222 -1427q-7 -29 -32 -29h-236q-10 0 -17.5 8t-4.5 21zM182.5 1967q5.5 11 24.5 11h174q27 0 35 -10l4 -8l115 -279q6 -13 -1.5 -21.5t-21.5 -8.5h-131q-19 0 -25 12l-170 283q-9 10 -3.5 21z" />
<glyph unicode="&#xcd;" horiz-adv-x="589" d="M66 29l223 1427q3 13 12 21t18 8h236q12 0 18.5 -8.5t4.5 -20.5l-222 -1427q-7 -29 -32 -29h-236q-10 0 -17.5 8t-4.5 21zM391.5 1657.5q-4.5 8.5 3.5 21.5l205 281q12 18 41 18h174q20 0 23 -12t-9 -22l-262 -283q-9 -12 -26 -12h-131q-14 0 -18.5 8.5z" />
<glyph unicode="&#xce;" horiz-adv-x="589" d="M66 29l223 1427q3 13 12 21t18 8h236q12 0 18.5 -8.5t4.5 -20.5l-222 -1427q-7 -29 -32 -29h-236q-10 0 -17.5 8t-4.5 21zM199 1673l207 262l7.5 7.5l6 6t5 4.5t5.5 3.5t6.5 2t9 1.5h11.5h121q12 0 19 -3.5t9.5 -7t7.5 -14.5l131 -262q5 -9 -0.5 -16.5t-17.5 -7.5h-137 q-14 0 -20 5.5t-11 18.5l-59 162l-111 -166q-14 -20 -31 -20h-147q-28 0 -12 24z" />
<glyph unicode="&#xcf;" horiz-adv-x="589" d="M66 29l223 1427q3 13 12 21t18 8h236q12 0 18.5 -8.5t4.5 -20.5l-222 -1427q-7 -29 -32 -29h-236q-10 0 -17.5 8t-4.5 21zM150 1704l28 186q8 37 39 37h170q15 0 23.5 -10t5.5 -27l-29 -186q-3 -17 -15 -27t-26 -10h-170q-14 0 -21.5 10t-4.5 27zM563 1704l29 186 q8 37 39 37h170q15 0 23 -10t5 -27l-28 -186q-6 -37 -43 -37h-168q-14 0 -22 10t-5 27z" />
<glyph unicode="&#xd0;" horiz-adv-x="1333" d="M29 674l26 170q5 28 31 28h111l94 613h510q219 0 350 -125t131 -316q0 -58 -8 -102l-72 -477q-34 -214 -188 -339.5t-424 -125.5h-529l99 643h-105q-29 0 -26 31zM389 256h217q143 0 219.5 70t98.5 211l61 391q8 54 8 90q0 103 -54 157t-183 54h-213l-58 -357h254 q14 0 20.5 -9t4.5 -19l-29 -170q-3 -31 -35 -31h-251z" />
<glyph unicode="&#xd1;" horiz-adv-x="1445" d="M66 29l221 1421q4 35 35 35h333q22 0 31 -27q25 -87 85 -291.5t94 -322t73.5 -273t58.5 -262.5h7q16 263 45 441l110 708q3 27 29 27h225q25 0 21 -27l-224 -1429q-7 -29 -30 -29h-314q-25 0 -35 29l-221 719q-56 171 -110 426h-6q-12 -255 -37 -396l-117 -749 q-6 -29 -29 -29h-225q-10 0 -16.5 8t-3.5 21zM602 1774q-12 16 29 57t107 76t116 35q46 0 86.5 -20t71 -40t51.5 -20t41 10t32.5 22.5t26 24t20 15t15.5 -4.5l78 -102q14 -19 -8 -37q-42 -49 -103 -85t-121 -36q-53 0 -93.5 20.5t-69.5 41t-54 20.5q-53 0 -108 -70 q-5 -9 -13 -9.5t-16 9.5z" />
<glyph unicode="&#xd2;" d="M92 451q0 50 8 96l70 454q38 255 190 381.5t461 126.5q120 0 214.5 -39t153 -106t88.5 -150t30 -176q0 -32 -7 -86l-73 -481q-38 -254 -195.5 -375t-453.5 -121q-97 0 -178.5 26.5t-137.5 72t-95 107t-57 129.5t-18 141zM377 463q0 -106 59.5 -169t184.5 -63 q153 0 228.5 76t102.5 240l62 387q8 46 8 88q0 46 -12 85t-38.5 73t-75 53.5t-114.5 19.5q-86 0 -147.5 -22.5t-98.5 -67.5t-57.5 -98t-32.5 -127l-61 -383q-8 -46 -8 -92zM566.5 1967q5.5 11 25.5 11h174h4h4.5h4t4 -0.5t4 -1t4 -1.5t3.5 -2.5t3.5 -3t3 -4t2.5 -5.5 l117 -279q6 -13 -1.5 -21.5t-21.5 -8.5h-131q-19 0 -25 12l-170 283q-10 10 -4.5 21z" />
<glyph unicode="&#xd3;" d="M92 451q0 50 8 96l70 454q38 255 190 381.5t461 126.5q120 0 214.5 -39t153 -106t88.5 -150t30 -176q0 -32 -7 -86l-73 -481q-38 -254 -195.5 -375t-453.5 -121q-97 0 -178.5 26.5t-137.5 72t-95 107t-57 129.5t-18 141zM377 463q0 -106 59.5 -169t184.5 -63 q153 0 228.5 76t102.5 240l62 387q8 46 8 88q0 46 -12 85t-38.5 73t-75 53.5t-114.5 19.5q-86 0 -147.5 -22.5t-98.5 -67.5t-57.5 -98t-32.5 -127l-61 -383q-8 -46 -8 -92zM741.5 1657.5q-4.5 8.5 3.5 21.5l205 279q6 9 14 13.5t11.5 4.5h15.5h174q19 0 22 -11t-9 -21 l-260 -283q-9 -12 -27 -12h-131q-14 0 -18.5 8.5z" />
<glyph unicode="&#xd4;" d="M92 451q0 50 8 96l70 454q38 255 190 381.5t461 126.5q120 0 214.5 -39t153 -106t88.5 -150t30 -176q0 -32 -7 -86l-73 -481q-38 -254 -195.5 -375t-453.5 -121q-97 0 -178.5 26.5t-137.5 72t-95 107t-57 129.5t-18 141zM377 463q0 -106 59.5 -169t184.5 -63 q153 0 228.5 76t102.5 240l62 387q8 46 8 88q0 46 -12 85t-38.5 73t-75 53.5t-114.5 19.5q-86 0 -147.5 -22.5t-98.5 -67.5t-57.5 -98t-32.5 -127l-61 -383q-8 -46 -8 -92zM553 1673l209 260q15 19 21.5 23t27.5 4h121q19 0 25.5 -5.5t13.5 -21.5l129 -260q5 -9 -1 -16.5 t-18 -7.5h-137q-14 0 -20 5.5t-11 18.5l-57 160l-111 -164q-14 -20 -30 -20h-148q-30 0 -14 24z" />
<glyph unicode="&#xd5;" d="M92 449q0 27 2 47l76 505q19 126 62.5 217.5t120.5 158t193.5 99.5t274.5 33q120 0 214.5 -39t153 -106t88.5 -150t30 -176q0 -32 -7 -86l-73 -481q-38 -254 -195.5 -375t-453.5 -121q-189 0 -307.5 92t-159.5 236q-19 74 -19 146zM377 463q0 -106 59.5 -169t184.5 -63 q153 0 228.5 76t102.5 240l64 393l4 39q2 14 2 43q0 46 -12 85t-38.5 73t-75 53.5t-114.5 19.5q-86 0 -147.5 -22.5t-98.5 -67.5t-57.5 -98t-32.5 -127l-67 -434q-2 -16 -2 -41zM481 1763q-12 16 29 57t107 76t116 35q46 0 86.5 -20t71 -40t51.5 -20t41 10t32.5 22.5t26 24 t20 14.5t15.5 -5l78 -100q13 -18 -8 -39q-42 -49 -102.5 -85t-120.5 -36q-53 0 -93.5 21t-69.5 42t-54 21q-55 0 -109 -72q-5 -8 -13 -8.5t-16 8.5z" />
<glyph unicode="&#xd6;" d="M92 451q0 50 8 96l70 454q38 255 190 381.5t461 126.5q120 0 214.5 -39t153 -106t88.5 -150t30 -176q0 -32 -7 -86l-73 -481q-38 -254 -195.5 -375t-453.5 -121q-97 0 -178.5 26.5t-137.5 72t-95 107t-57 129.5t-18 141zM377 463q0 -106 59.5 -169t184.5 -63 q153 0 228.5 76t102.5 240l62 387q8 46 8 88q0 46 -12 85t-38.5 73t-75 53.5t-114.5 19.5q-86 0 -147.5 -22.5t-98.5 -67.5t-57.5 -98t-32.5 -127l-61 -383q-8 -46 -8 -92zM485 1686l29 184q8 37 39 37h170q15 0 23.5 -10t5.5 -27l-29 -187q-3 -17 -15 -26.5t-26 -9.5h-170 q-14 0 -22 10.5t-5 28.5zM899 1686l29 184q8 37 39 37h170q15 0 23 -10t5 -27l-28 -187q-6 -36 -43 -36h-168q-14 0 -22 10.5t-5 28.5z" />
<glyph unicode="&#xd7;" horiz-adv-x="1126" d="M86 307l322 320l-314 315q-30 30 -4 53l105 109q12 10 26 11t23 -7l319 -324l324 324q9 7 21 7t22 -11l104 -105q32 -25 4 -53l-317 -317l323 -324q24 -25 -4 -53l-100 -98q-26 -32 -51 -7l-326 326l-327 -328q-25 -21 -48 5l-100 104q-33 29 -2 53z" />
<glyph unicode="&#xd8;" d="M10 -49l160 223q-78 118 -78 277q0 50 8 96l70 454q38 255 190 381.5t461 126.5q152 0 266 -65l62 84q13 16 20 20t29 4h133q33 0 17 -24l-138 -191q97 -123 97 -299q0 -32 -7 -86l-73 -481q-38 -254 -195.5 -375t-453.5 -121q-173 0 -289 80l-84 -118l-3 -3 q-16 -19 -32 -21q-5 -1 -12 -1h-140q-35 0 -8 39zM375 457l549 762q-60 34 -142 34q-86 0 -147.5 -22.5t-98.5 -67.5t-57.5 -98t-32.5 -127l-61 -383q-8 -46 -8 -92q0 -4 -2 -6zM453 281q60 -50 168 -50q153 0 228.5 76t102.5 240l62 387q8 46 8 88q0 31 -2 49z" />
<glyph unicode="&#xd9;" horiz-adv-x="1386" d="M109 412q0 61 6 102l151 944q3 27 29 27h233q27 0 23 -27l-145 -917q-7 -51 -7 -80q0 -109 58.5 -169.5t195.5 -60.5q129 0 204.5 78t96.5 211l146 938q3 27 28 27h226q23 0 20 -27l-155 -995q-36 -232 -190 -360t-421 -128q-118 0 -214.5 36t-157.5 97t-94 139t-33 165z M561.5 1967q5.5 11 24.5 11h176h4h4.5h4t4 -0.5t4 -1t4 -1.5t3.5 -2.5t3.5 -3t3 -4t2.5 -5.5l116 -279q6 -13 -1.5 -21.5t-22.5 -8.5h-131q-19 0 -25 12l-170 283q-9 10 -3.5 21z" />
<glyph unicode="&#xda;" horiz-adv-x="1386" d="M109 412q0 61 6 102l151 944q3 27 29 27h233q27 0 23 -27l-145 -917q-7 -51 -7 -80q0 -109 58.5 -169.5t195.5 -60.5q129 0 204.5 78t96.5 211l146 938q3 27 28 27h226q23 0 20 -27l-155 -995q-36 -232 -190 -360t-421 -128q-118 0 -214.5 36t-157.5 97t-94 139t-33 165z M747.5 1657.5q-4.5 8.5 4.5 21.5l204 279q6 9 14 13.5t11.5 4.5h15.5h174q19 0 22 -11t-9 -21l-260 -283q-9 -12 -27 -12h-131q-14 0 -18.5 8.5z" />
<glyph unicode="&#xdb;" horiz-adv-x="1386" d="M109 412q0 61 6 102l151 944q3 27 29 27h233q27 0 23 -27l-145 -917q-7 -51 -7 -80q0 -109 58.5 -169.5t195.5 -60.5q129 0 204.5 78t96.5 211l146 938q3 27 28 27h226q23 0 20 -27l-155 -995q-36 -232 -190 -360t-421 -128q-118 0 -214.5 36t-157.5 97t-94 139t-33 165z M582 1673l209 260q15 19 21.5 23t27.5 4h121q13 0 20.5 -3.5t10 -7.5t7.5 -16l129 -260q5 -9 -0.5 -16.5t-17.5 -7.5h-137q-14 0 -20 5.5t-11 18.5l-57 160l-111 -164q-14 -20 -31 -20h-147q-30 0 -14 24z" />
<glyph unicode="&#xdc;" horiz-adv-x="1363" d="M109 412q0 61 6 102l151 944q3 27 29 27h233q27 0 23 -27l-145 -917q-7 -51 -7 -80q0 -109 58.5 -169.5t195.5 -60.5q129 0 204.5 78t96.5 211l146 938q3 27 28 27h226q23 0 20 -27l-155 -995q-36 -232 -190 -360t-421 -128q-118 0 -214.5 36t-157.5 97t-94 139t-33 165z M535 1686l28 184q3 15 14 26t27 11h168q15 0 23.5 -10t5.5 -27l-29 -187q-3 -17 -14 -26.5t-25 -9.5h-170q-15 0 -23 10.5t-5 28.5zM948 1686l29 184q3 15 14 26t27 11h168q15 0 23 -10t5 -27l-28 -187q-3 -17 -14.5 -26.5t-26.5 -9.5h-168q-15 0 -23.5 10.5t-5.5 28.5z" />
<glyph unicode="&#xdd;" horiz-adv-x="1136" d="M83.5 1474.5q4.5 10.5 14.5 10.5h246q25 0 35 -29l215 -614l401 624q11 19 29 19h260q12 0 16 -11t-2 -20l-598 -872l-88 -553q-6 -29 -32 -29h-234q-28 0 -22 29l84 553l-324 872q-5 10 -0.5 20.5zM618.5 1659.5q-4.5 8.5 4.5 21.5l204 279q6 9 14 13.5t11.5 4.5h15.5 h174q19 0 22 -11t-9 -21l-260 -283q-9 -12 -27 -12h-131q-14 0 -18.5 8.5z" />
<glyph unicode="&#xde;" horiz-adv-x="1198" d="M63 29l222 1427q3 13 12 21t18 8h236q12 0 19 -8.5t5 -20.5l-32 -201h194q194 0 312 -101.5t118 -260.5q0 -41 -6 -96l-12 -109q-30 -219 -184.5 -325.5t-395.5 -106.5h-180l-37 -227q-7 -29 -33 -29h-235q-10 0 -17 8t-4 21zM426 504h166q129 0 193.5 55t80.5 162l11 70 v49q0 159 -191 159h-182z" />
<glyph unicode="&#xdf;" horiz-adv-x="1304" d="M72 27l159 1028q36 235 165.5 350t369.5 115q102 0 181.5 -29t128.5 -79.5t74.5 -115.5t25.5 -141q0 -114 -55 -203t-148 -118q276 -74 227 -400l-18 -115q-11 -72 -39.5 -131.5t-77 -108.5t-125 -76.5t-174.5 -27.5q-119 0 -202 46t-126 116q-18 27 13 51l110 103 q17 12 28.5 10t26.5 -22q49 -72 127 -72q139 0 162 158l17 110q5 51 3 88t-19.5 63t-36 42t-46 24.5t-49.5 11.5t-47 3h-90q-13 0 -20 8t-5 18l29 172q1 12 11 19.5t24 7.5h53q76 0 121 62t45 145q0 151 -164 151q-96 0 -147 -56.5t-70 -178.5l-160 -1026q-7 -29 -32 -29 h-230q-10 0 -16.5 7t-3.5 20z" />
<glyph unicode="&#xe0;" horiz-adv-x="1202" d="M68 295q0 91 8 143l43 269q32 205 159.5 314t374.5 109q129 0 264.5 -44.5t233.5 -100.5l-150 -948q-6 -37 -43 -37h-188q-41 0 -35 53l21 146q-19 -34 -48.5 -68t-76 -71.5t-114.5 -61t-144 -23.5q-77 0 -138 30t-96 78.5t-53 102.5t-18 109zM350 348q0 -66 37 -104.5 t105 -38.5q78 0 156.5 56t129.5 157l76 452q-108 36 -168 41q-21 2 -43 2q-105 0 -168.5 -60.5t-85.5 -205.5l-31 -198q-8 -50 -8 -101zM396 1551.5q6 11.5 26 11.5h174q29 0 37 -19l117 -278q6 -13 -1.5 -23t-21.5 -10h-131q-19 0 -25 12l-172 285q-9 10 -3 21.5z" />
<glyph unicode="&#xe1;" horiz-adv-x="1202" d="M68 295q0 91 8 143l43 269q32 205 159.5 314t374.5 109q129 0 264.5 -44.5t233.5 -100.5l-150 -948q-6 -37 -43 -37h-188q-41 0 -35 53l21 146q-19 -34 -48.5 -68t-76 -71.5t-114.5 -61t-144 -23.5q-77 0 -138 30t-96 78.5t-53 102.5t-18 109zM350 348q0 -66 37 -104.5 t105 -38.5q78 0 156.5 56t129.5 157l76 452q-108 36 -168 41q-21 2 -43 2q-105 0 -168.5 -60.5t-85.5 -205.5l-31 -198q-8 -50 -8 -101zM591.5 1245.5q-4.5 8.5 4.5 22.5l205 278q13 19 41 19h174q19 0 21.5 -11.5t-9.5 -21.5l-260 -283q-7 -12 -27 -12h-131 q-14 0 -18.5 8.5z" />
<glyph unicode="&#xe2;" horiz-adv-x="1202" d="M68 295q0 91 8 143l43 269q32 205 159.5 314t374.5 109q129 0 264.5 -44.5t233.5 -100.5l-150 -948q-6 -37 -43 -37h-188q-41 0 -35 53l21 146q-19 -34 -48.5 -68t-76 -71.5t-114.5 -61t-144 -23.5q-77 0 -138 30t-96 78.5t-53 102.5t-18 109zM350 348q0 -66 37 -104.5 t105 -38.5q78 0 156.5 56t129.5 157l76 452q-108 36 -168 41q-21 2 -43 2q-105 0 -168.5 -60.5t-85.5 -205.5l-31 -198q-8 -50 -8 -101zM438 1253q-3 8 4 17l209 260q14 18 21 22t28 4h121q18 0 25 -5.5t14 -20.5l129 -260q5 -9 -0.5 -17t-17.5 -8h-137q-14 0 -20 5.5 t-11 19.5l-58 160l-110 -164q-15 -21 -31 -21h-147q-16 0 -19 8z" />
<glyph unicode="&#xe3;" horiz-adv-x="1202" d="M68 295q0 91 8 143l43 269q32 205 159.5 314t374.5 109q129 0 264.5 -44.5t233.5 -100.5l-150 -948q-6 -37 -43 -37h-188q-41 0 -35 53l21 146q-19 -34 -48.5 -68t-76 -71.5t-114.5 -61t-144 -23.5q-77 0 -138 30t-96 78.5t-53 102.5t-18 109zM350 348q0 -66 37 -104.5 t105 -38.5q78 0 156.5 56t129.5 157l76 452q-108 36 -168 41q-21 2 -43 2q-105 0 -168.5 -60.5t-85.5 -205.5l-31 -198q-8 -50 -8 -101zM379 1364q-12 16 29 56.5t107 75t116 34.5q46 0 86.5 -19.5t71 -39t51.5 -19.5t41 10t32.5 22.5t25.5 24t19.5 14.5t14.5 -5l80 -101 q12 -18 -9 -39q-41 -48 -103 -84.5t-120 -36.5q-42 0 -77 13t-54 29t-43 29t-45 13q-32 0 -56 -18t-50 -53q-12 -19 -31 0z" />
<glyph unicode="&#xe4;" horiz-adv-x="1202" d="M68 295q0 91 8 143l43 269q32 205 159.5 314t374.5 109q129 0 264.5 -44.5t233.5 -100.5l-150 -948q-6 -37 -43 -37h-188q-41 0 -35 53l21 146q-19 -34 -48.5 -68t-76 -71.5t-114.5 -61t-144 -23.5q-77 0 -138 30t-96 78.5t-53 102.5t-18 109zM350 348q0 -66 37 -104.5 t105 -38.5q78 0 156.5 56t129.5 157l76 452q-108 36 -168 41q-21 2 -43 2q-105 0 -168.5 -60.5t-85.5 -205.5l-31 -198q-8 -50 -8 -101zM391 1288l31 187q8 36 39 36h168q15 0 23 -9.5t5 -26.5l-28 -187q-3 -17 -14 -27t-25 -10h-170q-15 0 -23.5 10t-5.5 27zM805 1288 l31 187q8 36 38 36h168q15 0 23.5 -9.5t5.5 -26.5l-29 -187q-3 -17 -14.5 -27t-26.5 -10h-167q-14 0 -23 10t-6 27z" />
<glyph unicode="&#xe5;" horiz-adv-x="1202" d="M68 295q0 91 8 143l43 269q32 205 159.5 314t374.5 109q129 0 264.5 -44.5t233.5 -100.5l-150 -948q-6 -37 -43 -37h-188q-41 0 -35 53l21 146q-19 -34 -48.5 -68t-76 -71.5t-114.5 -61t-144 -23.5q-77 0 -138 30t-96 78.5t-53 102.5t-18 109zM350 348q0 -66 37 -104.5 t105 -38.5q78 0 156.5 56t129.5 157l76 452q-108 36 -168 41q-21 2 -43 2q-105 0 -168.5 -60.5t-85.5 -205.5l-31 -198q-8 -50 -8 -101zM477 1403q13 88 82.5 144.5t157.5 56.5t138.5 -57t37.5 -144q-12 -85 -81 -141t-159 -56q-86 0 -137 56t-39 141zM606 1403 q-4 -34 15 -55t53 -21q36 0 62 21t30 55q4 37 -15.5 58.5t-56.5 21.5q-32 0 -57 -22t-31 -58z" />
<glyph unicode="&#xe6;" horiz-adv-x="1734" d="M39 244q0 77 22 138.5t58.5 104t91 74t113 49.5t131.5 28t138.5 12.5t141.5 0.5l6 47q1 8 7 29t6 31q0 64 -39 103.5t-123 39.5q-127 0 -203 -135q-17 -31 -47 -14l-141 77q-27 13 -13 41q49 83 106.5 138t145 88.5t199.5 33.5q180 0 289 -98q131 98 338 98 q95 0 174.5 -29.5t130.5 -78.5t79.5 -110.5t28.5 -125.5q0 -82 -32 -278q-6 -43 -64 -43h-596q-10 -68 -10 -105q0 -67 44 -111t120 -44q150 0 211 139q16 40 61 23l154 -62q23 -10 23.5 -31.5t-13.5 -46.5q-126 -252 -473 -252q-118 0 -207 45t-145 121 q-79 -64 -188.5 -115t-215.5 -51q-147 0 -228 76t-81 193zM324 307q-2 -44 27 -72t83 -28q70 0 140 26.5t118 79.5v21q0 26 7 70.5t6 60.5q-142 6 -222.5 -9.5t-114 -50t-44.5 -98.5zM1018 651h387q12 54 12 109q0 68 -45 110.5t-119 42.5q-95 0 -157.5 -60t-71.5 -151z" />
<glyph unicode="&#xe7;" horiz-adv-x="1067" d="M68 328q0 50 10 112l43 275q30 194 161.5 304.5t356.5 110.5q175 0 290 -94t126 -225q3 -50 -35 -55l-176 -27q-23 -3 -33.5 4.5t-13.5 34.5q-6 59 -50 96t-116 37q-84 0 -150 -53.5t-86 -181.5l-37 -238q-6 -35 -6 -61q0 -76 46.5 -119t119.5 -43q82 0 134 38.5t75 96.5 q19 45 66 27l151 -62q41 -16 17 -65q-104 -226 -383 -258l-9 -52q78 0 116 -47.5t28 -115.5l-2 -15q-10 -71 -82 -125.5t-176 -54.5q-129 0 -217 68q-9 7 -11 10.5t4 23.5l50 80q14 19 28 10q92 -51 148 -51q66 0 73 41l2 10q3 19 -10.5 33.5t-48 22.5t-92.5 0l24 162 q-145 20 -240 112t-95 234z" />
<glyph unicode="&#xe8;" horiz-adv-x="1112" d="M70 332q0 55 12 125l37 243q32 199 164 314.5t360 115.5q94 0 173.5 -29.5t130.5 -78.5t79.5 -110.5t28.5 -125.5q0 -76 -33 -278q-6 -43 -61 -43h-596q-13 -68 -13 -105q0 -66 44.5 -110.5t119.5 -44.5q154 0 211 139q17 41 64 23l151 -62q24 -8 24 -30.5t-14 -47.5 q-123 -252 -471 -252q-99 0 -179 29.5t-129.5 80t-76 114t-26.5 133.5zM386 1551.5q6 11.5 26 11.5h174q29 0 37 -19l116 -278q6 -13 -1 -23t-21 -10h-131q-19 0 -25 12l-172 285q-9 10 -3 21.5zM393 651h371q12 81 12 109q0 70 -37 111.5t-108 41.5q-98 0 -159.5 -59.5 t-72.5 -151.5z" />
<glyph unicode="&#xe9;" horiz-adv-x="1112" d="M70 332q0 55 12 125l37 243q32 199 164 314.5t360 115.5q94 0 173.5 -29.5t130.5 -78.5t79.5 -110.5t28.5 -125.5q0 -76 -33 -278q-6 -43 -61 -43h-596q-13 -68 -13 -105q0 -66 44.5 -110.5t119.5 -44.5q154 0 211 139q17 41 64 23l151 -62q24 -8 24 -30.5t-14 -47.5 q-123 -252 -471 -252q-99 0 -179 29.5t-129.5 80t-76 114t-26.5 133.5zM393 651h371q12 81 12 109q0 70 -37 111.5t-108 41.5q-98 0 -159.5 -59.5t-72.5 -151.5zM583.5 1242.5q-4.5 9.5 4.5 23.5l205 278q13 19 41 19h174q19 0 21.5 -11.5t-9.5 -21.5l-260 -285 q-9 -12 -27 -12h-131q-14 0 -18.5 9.5z" />
<glyph unicode="&#xea;" horiz-adv-x="1112" d="M70 332q0 55 12 125l37 243q32 199 164 314.5t360 115.5q94 0 173.5 -29.5t130.5 -78.5t79.5 -110.5t28.5 -125.5q0 -76 -33 -278q-6 -43 -61 -43h-596q-13 -68 -13 -105q0 -66 44.5 -110.5t119.5 -44.5q154 0 211 139q17 41 64 23l151 -62q24 -8 24 -30.5t-14 -47.5 q-123 -252 -471 -252q-99 0 -179 29.5t-129.5 80t-76 114t-26.5 133.5zM393 651h371q12 81 12 109q0 70 -37 111.5t-108 41.5q-98 0 -159.5 -59.5t-72.5 -151.5zM407.5 1253q-2.5 8 4.5 17l206 260q14 18 21.5 22t28.5 4h123q4 0 7 -0.5t5.5 -0.5t5 -1.5t3.5 -2t3 -2.5 t3 -2.5t2.5 -4t2 -3.5t2.5 -5l2 -4l129 -260q5 -9 -0.5 -17t-17.5 -8h-137q-14 0 -20 5.5t-11 19.5l-57 160l-111 -164q-15 -21 -31 -21h-147q-14 0 -16.5 8z" />
<glyph unicode="&#xeb;" horiz-adv-x="1112" d="M70 332q0 55 12 125l37 243q32 199 164 314.5t360 115.5q94 0 173.5 -29.5t130.5 -78.5t79.5 -110.5t28.5 -125.5q0 -76 -33 -278q-6 -43 -61 -43h-596q-13 -68 -13 -105q0 -66 44.5 -110.5t119.5 -44.5q154 0 211 139q17 41 64 23l151 -62q24 -8 24 -30.5t-14 -47.5 q-123 -252 -471 -252q-99 0 -179 29.5t-129.5 80t-76 114t-26.5 133.5zM326 1288l30 187q8 36 39 36h168q15 0 23.5 -9.5t5.5 -26.5l-29 -187q-3 -17 -14 -27t-25 -10h-170q-14 0 -22.5 10t-5.5 27zM393 651h371q12 81 12 109q0 70 -37 111.5t-108 41.5q-98 0 -159.5 -59.5 t-72.5 -151.5zM739 1288l31 187q8 36 39 36h168q16 0 24.5 -9.5t4.5 -26.5l-29 -187q-3 -17 -14.5 -27t-26.5 -10h-168q-14 0 -23 10t-6 27z" />
<glyph unicode="&#xec;" horiz-adv-x="561" d="M66 29l161 1046q3 16 14.5 25.5t24.5 9.5h217q12 0 20 -11t5 -24l-162 -1046q-5 -29 -37 -29h-217q-32 0 -26 29zM122 1551.5q5 11.5 25 11.5h175q28 0 36 -19l117 -278q6 -13 -1 -23t-21 -10h-131q-19 0 -25 12l-170 285q-10 10 -5 21.5z" />
<glyph unicode="&#xed;" horiz-adv-x="561" d="M66 29l161 1046q3 16 14.5 25.5t24.5 9.5h217q12 0 20 -11t5 -24l-162 -1046q-5 -29 -37 -29h-217q-32 0 -26 29zM321.5 1245.5q-4.5 8.5 4.5 22.5l204 278q13 19 41 19h174q19 0 22 -11.5t-9 -21.5l-260 -283q-7 -12 -27 -12h-131q-14 0 -18.5 8.5z" />
<glyph unicode="&#xee;" horiz-adv-x="561" d="M66 29l161 1046q3 16 14.5 25.5t24.5 9.5h217q12 0 20 -11t5 -24l-162 -1046q-5 -29 -37 -29h-217q-32 0 -26 29zM121 1270l209 260q14 18 21 22t28 4h121q18 0 25 -5.5t14 -20.5l129 -260q5 -9 -1 -17t-18 -8h-137q-14 0 -20 5.5t-11 19.5l-57 160l-111 -164 q-13 -18 -22 -20q-3 -1 -8 -1h-148q-31 0 -14 25z" />
<glyph unicode="&#xef;" horiz-adv-x="557" d="M66 29l161 1046q3 16 14.5 25.5t24.5 9.5h217q12 0 20 -11t5 -24l-162 -1046q-5 -29 -37 -29h-217q-32 0 -26 29zM76 1286l28 187q8 36 41 36h168q15 0 23.5 -9.5t5.5 -26.5l-29 -187q-3 -17 -14 -27t-25 -10h-172q-14 0 -21.5 10t-4.5 27zM489 1286l29 187q8 36 41 36 h168q15 0 23.5 -9.5t5.5 -26.5l-29 -187q-3 -17 -14.5 -27t-26.5 -10h-170q-14 0 -22 10t-5 27z" />
<glyph unicode="&#xf0;" horiz-adv-x="1206" d="M68 326q0 40 8 102l33 201q33 213 177.5 330.5t364.5 117.5q73 0 150.5 -30t99.5 -68q-30 146 -115 231l-71 -71q-9 -7 -21 -7t-18 7l-98 102q-6 7 -5.5 19.5t9.5 19.5l71 66q-20 22 -73 57q-14 10 -15.5 28.5t15.5 36.5l141 140q29 27 65 -2q10 -8 66 -64l76 74 q24 24 45 4l96 -104q6 -6 4.5 -19t-10.5 -22l-80 -78q214 -271 143 -746l-36 -241q-13 -82 -36 -145t-66 -119t-105.5 -92.5t-156.5 -57.5t-216 -21q-209 0 -325.5 100.5t-116.5 250.5zM352 367q2 -162 193 -162q43 0 75 5t65 20t56.5 40.5t42.5 69.5t29 104l25 164 q10 63 -2.5 111.5t-41.5 76.5t-65.5 42t-79.5 14q-103 0 -172.5 -59.5t-87.5 -176.5l-33 -196q-4 -40 -4 -53z" />
<glyph unicode="&#xf1;" horiz-adv-x="1204" d="M59 29l164 1052q2 12 11 20.5t22 8.5h217q26 0 23 -29l-21 -145q157 194 348 194q113 0 187 -66.5t98 -166.5q8 -33 8 -74q0 -45 -2 -65l-8 -70l-105 -659q-6 -29 -32 -29h-221q-14 0 -22 8t-5 21l98 610q12 78 12 135t-32 92t-101 35q-75 0 -146.5 -54.5t-102.5 -131.5 l-109 -686q-3 -12 -11 -19t-21.5 -9t-23.5 -2.5t-28 0.5t-25 1h-147q-13 0 -20.5 8t-4.5 21zM408 1362q-12 17 28.5 58t106.5 75.5t116 34.5q46 0 86.5 -19.5t71 -39t51.5 -19.5t41 10t33 22.5t26 24t20 14.5t16 -5l77 -101q13 -21 -8 -39q-42 -49 -102.5 -85t-120.5 -36 q-42 0 -77 13t-54 29t-43 29t-45 13q-54 0 -107 -71q-5 -8 -12.5 -8.5t-15.5 8.5z" />
<glyph unicode="&#xf2;" horiz-adv-x="1165" d="M68 313q0 62 8 117l43 268q35 218 164.5 325t392.5 107q191 0 307.5 -99.5t116.5 -246.5q0 -54 -10 -112l-41 -262q-34 -222 -166.5 -328.5t-390.5 -106.5q-190 0 -307 100t-117 238zM352 354q1 -72 49.5 -110.5t124.5 -38.5q95 0 160.5 53t83.5 166l35 221q8 52 8 100 q0 69 -45.5 112.5t-128.5 43.5q-97 0 -161 -57t-81 -162l-37 -231q-8 -40 -8 -97zM397.5 1553.5q5.5 11.5 24.5 11.5h174q29 0 37 -19l117 -278q6 -13 -1.5 -22t-21.5 -9h-131q-20 0 -25 12l-170 283q-9 10 -3.5 21.5z" />
<glyph unicode="&#xf3;" horiz-adv-x="1165" d="M68 313q0 62 8 117l43 268q35 218 164.5 325t392.5 107q191 0 307.5 -99.5t116.5 -246.5q0 -54 -10 -112l-41 -262q-34 -222 -166.5 -328.5t-390.5 -106.5q-190 0 -307 100t-117 238zM352 354q1 -72 49.5 -110.5t124.5 -38.5q95 0 160.5 53t83.5 166l35 221q8 52 8 100 q0 69 -45.5 112.5t-128.5 43.5q-97 0 -161 -57t-81 -162l-37 -231q-8 -40 -8 -97zM602.5 1242.5q-5.5 9.5 3.5 23.5l205 278q13 19 41 19h176q19 0 21.5 -11.5t-9.5 -21.5l-262 -285q-9 -12 -24 -12h-131q-15 0 -20.5 9.5z" />
<glyph unicode="&#xf4;" horiz-adv-x="1165" d="M68 313q0 62 8 117l43 268q35 218 164.5 325t392.5 107q191 0 307.5 -99.5t116.5 -246.5q0 -54 -10 -112l-41 -262q-34 -222 -166.5 -328.5t-390.5 -106.5q-190 0 -307 100t-117 238zM352 354q1 -72 49.5 -110.5t124.5 -38.5q95 0 160.5 53t83.5 166l35 221q8 52 8 100 q0 69 -45.5 112.5t-128.5 43.5q-97 0 -161 -57t-81 -162l-37 -231q-8 -40 -8 -97zM415.5 1253q-2.5 8 4.5 17l207 260q16 18 23 22t28 4h121q17 0 23.5 -5.5t13.5 -20.5l131 -260q5 -9 -1 -17t-18 -8h-137q-14 0 -20 5.5t-11 19.5l-59 160l-111 -164q-13 -18 -22 -20 q-3 -1 -8 -1h-148q-14 0 -16.5 8z" />
<glyph unicode="&#xf5;" horiz-adv-x="1165" d="M68 313q0 62 8 117l43 268q35 218 164.5 325t392.5 107q191 0 307.5 -99.5t116.5 -246.5q0 -54 -10 -112l-41 -262q-34 -222 -166.5 -328.5t-390.5 -106.5q-190 0 -307 100t-117 238zM352 354q0 -72 49.5 -110.5t124.5 -38.5q94 0 159.5 52.5t84.5 166.5l35 221 q8 52 8 100q0 69 -45.5 112.5t-128.5 43.5q-97 0 -161 -57t-81 -162l-37 -231q-8 -40 -8 -97zM354 1362q-13 17 27.5 58t106.5 75.5t116 34.5q46 0 86.5 -19.5t71 -39t51.5 -19.5t41 10t32.5 22.5t26 24t20 14.5t15.5 -5l78 -101q13 -20 -6 -39q-44 -49 -105 -85t-120 -36 q-42 0 -76.5 13t-53.5 29t-42.5 29t-44.5 13q-56 0 -109 -71q-5 -8 -13 -8.5t-16 8.5z" />
<glyph unicode="&#xf6;" horiz-adv-x="1165" d="M68 313q0 62 8 117l43 268q35 218 164.5 325t392.5 107q191 0 307.5 -99.5t116.5 -246.5q0 -54 -10 -112l-41 -262q-34 -222 -166.5 -328.5t-390.5 -106.5q-190 0 -307 100t-117 238zM352 354q1 -72 49.5 -110.5t124.5 -38.5q95 0 160.5 53t83.5 166l35 221q8 52 8 100 q0 69 -45.5 112.5t-128.5 43.5q-97 0 -161 -57t-81 -162l-37 -231q-8 -40 -8 -97zM367 1286l28 187q8 36 39 36h170q15 0 23.5 -9.5t5.5 -26.5l-29 -187q-3 -17 -14.5 -27t-26.5 -10h-170q-14 0 -21.5 10t-4.5 27zM780 1286l29 187q8 36 39 36h170q15 0 23.5 -9.5t5.5 -26.5 l-29 -187q-6 -37 -43 -37h-168q-14 0 -22 10t-5 27z" />
<glyph unicode="&#xf7;" horiz-adv-x="1198" d="M82 541v170q0 11 7.5 19.5t19.5 8.5h983q11 0 17.5 -9t6.5 -19v-170q0 -13 -7 -22t-19 -9h-981q-12 0 -19.5 9.5t-7.5 21.5zM475 115v225q0 15 8.5 26t24.5 11h178q15 0 25 -10t10 -27v-225q0 -15 -10 -26t-25 -11h-178q-13 0 -23 11t-10 26zM475 930v227q0 15 8.5 26 t24.5 11h178q15 0 25 -10t10 -27v-227q0 -15 -10 -25t-25 -10h-178q-14 0 -23.5 10t-9.5 25z" />
<glyph unicode="&#xf8;" horiz-adv-x="1165" d="M66 -59l106 145q-104 96 -104 227q0 62 8 117l43 270q21 109 58.5 186t103 133.5t164.5 84t235 26.5q25 0 65 -4q99 -13 164 -49l60 82q7 10 9 13t8 7t12.5 4.5t19.5 0.5h110q14 0 19 -9t-2 -18l-123 -166q78 -94 78 -207q0 -54 -10 -112l-41 -262 q-34 -222 -166.5 -328.5t-390.5 -106.5q-100 0 -191 31l-61 -80q-18 -24 -50 -24h-116q-35 0 -8 39zM352 354q0 -16 2 -24l400 538q-48 33 -115 33q-97 0 -161 -57t-81 -162l-37 -231q-8 -40 -8 -97zM453 215q38 -10 73 -10q95 0 160.5 53t83.5 166l21 143q2 12 6 37t6 37 q1 10 5 33t5 33z" />
<glyph unicode="&#xf9;" horiz-adv-x="1210" d="M90 274q0 76 16 170l101 637q2 12 11 20.5t22 8.5h225q11 0 17 -7.5t5 -19.5l-96 -614q-1 -10 -6 -39.5t-7.5 -51t-2.5 -44.5q0 -58 34.5 -93.5t98.5 -35.5q78 0 156.5 68.5t105.5 144.5l104 663q2 12 10.5 20.5t20.5 8.5h228q11 0 18 -7.5t6 -19.5l-166 -1054 q-3 -12 -11 -20.5t-17 -8.5h-220q-11 0 -17 8.5t-5 20.5l24 170q-20 -35 -52.5 -71.5t-78 -72t-106 -58t-123.5 -22.5q-134 0 -214.5 84.5t-80.5 214.5zM420 1551.5q5 11.5 24 11.5h174q28 0 39 -19l115 -278q6 -13 -1 -23t-21 -10h-132q-18 0 -24 12l-170 285 q-9 10 -4 21.5z" />
<glyph unicode="&#xfa;" horiz-adv-x="1210" d="M90 274q0 76 16 170l101 637q2 12 11 20.5t22 8.5h225q11 0 17 -7.5t5 -19.5l-96 -614q-1 -10 -6 -39.5t-7.5 -51t-2.5 -44.5q0 -58 34.5 -93.5t98.5 -35.5q78 0 156.5 68.5t105.5 144.5l104 663q2 12 10.5 20.5t20.5 8.5h228q11 0 18 -7.5t6 -19.5l-166 -1054 q-3 -12 -11 -20.5t-17 -8.5h-220q-11 0 -17 8.5t-5 20.5l24 170q-20 -35 -52.5 -71.5t-78 -72t-106 -58t-123.5 -22.5q-134 0 -214.5 84.5t-80.5 214.5zM604 1245.5q-5 8.5 4 22.5l203 278q13 19 43 19h174q19 0 21.5 -11.5t-9.5 -21.5l-260 -283q-7 -12 -26 -12h-131 q-14 0 -19 8.5z" />
<glyph unicode="&#xfb;" horiz-adv-x="1210" d="M90 274q0 76 16 170l101 637q2 12 11 20.5t22 8.5h225q11 0 17 -7.5t5 -19.5l-96 -614q-1 -10 -6 -39.5t-7.5 -51t-2.5 -44.5q0 -58 34.5 -93.5t98.5 -35.5q78 0 156.5 68.5t105.5 144.5l104 663q2 12 10.5 20.5t20.5 8.5h228q11 0 18 -7.5t6 -19.5l-166 -1054 q-3 -12 -11 -20.5t-17 -8.5h-220q-11 0 -17 8.5t-5 20.5l24 170q-20 -35 -52.5 -71.5t-78 -72t-106 -58t-123.5 -22.5q-134 0 -214.5 84.5t-80.5 214.5zM434 1253q-3 8 4 17l207 260q16 19 22.5 22.5t28.5 3.5h121q17 0 23.5 -5.5t13.5 -20.5l131 -260q5 -9 -0.5 -17 t-17.5 -8h-140q-14 0 -19.5 5.5t-10.5 19.5l-58 160l-110 -164q-15 -21 -31 -21h-147q-14 0 -17 8z" />
<glyph unicode="&#xfc;" horiz-adv-x="1210" d="M90 274q0 76 16 170l101 637q2 12 11 20.5t22 8.5h225q11 0 17 -7.5t5 -19.5l-96 -614q-1 -10 -6 -39.5t-7.5 -51t-2.5 -44.5q0 -58 34.5 -93.5t98.5 -35.5q78 0 156.5 68.5t105.5 144.5l104 663q2 12 10.5 20.5t20.5 8.5h228q11 0 18 -7.5t6 -19.5l-166 -1054 q-3 -12 -11 -20.5t-17 -8.5h-220q-11 0 -17 8.5t-5 20.5l24 170q-20 -35 -52.5 -71.5t-78 -72t-106 -58t-123.5 -22.5q-134 0 -214.5 84.5t-80.5 214.5zM381 1286l29 187q8 36 39 36h167q37 0 31 -36l-29 -187q-3 -17 -14.5 -27t-25.5 -10h-170q-14 0 -22 10t-5 27z M795 1286l28 187q8 36 39 36h168q37 0 31 -36l-29 -187q-3 -17 -15.5 -27t-27.5 -10h-168q-14 0 -21.5 10t-4.5 27z" />
<glyph unicode="&#xfd;" horiz-adv-x="1015" d="M-10 -274q-20 41 18 57q101 49 162 97t117 140l-197 1063q-2 9 3.5 18t17.5 9h251q18 0 21 -23l113 -759l303 751q13 31 41 31h223q13 0 19.5 -11t0.5 -22l-481 -1034q-84 -175 -209 -302t-256 -185q-46 -24 -59 0zM524 1245.5q-5 8.5 4 22.5l205 278q13 19 41 19h174 q21 0 23.5 -11.5t-10.5 -21.5l-261 -283q-7 -12 -26 -12h-131q-14 0 -19 8.5z" />
<glyph unicode="&#xfe;" horiz-adv-x="1259" d="M16 -393l293 1888q1 11 12 18t21 7h217q11 0 18.5 -7t6.5 -18l-82 -539q134 174 344 174q154 0 250 -93.5t96 -237.5q0 -35 -6 -82l-53 -334q-22 -137 -88 -230.5t-155.5 -135.5t-197.5 -42q-200 0 -315 179l-78 -547q-1 -12 -10.5 -20.5t-18.5 -8.5h-231q-10 0 -18 8 t-5 21zM426 436q0 -50 20.5 -101t70 -90.5t118.5 -39.5q94 0 148.5 52.5t72.5 174.5l37 234q8 46 8 79q0 70 -44.5 112t-121.5 42q-114 0 -185.5 -76t-96.5 -225z" />
<glyph unicode="&#xff;" horiz-adv-x="1015" d="M-10 -274q-20 41 18 57q101 49 162 97t117 140l-197 1063q-2 9 3.5 18t17.5 9h251q18 0 21 -23l113 -759l303 751q13 31 41 31h223q13 0 19.5 -11t0.5 -22l-481 -1034q-84 -175 -209 -302t-256 -185q-46 -24 -59 0zM315 1292l29 187q8 37 39 37h168q37 0 31 -37l-31 -187 q-3 -17 -14 -27t-25 -10h-170q-14 0 -22 10t-5 27zM729 1292l29 187q8 37 39 37h168q36 0 30 -37l-30 -187q-3 -17 -14.5 -27t-26.5 -10h-168q-14 0 -22 10t-5 27z" />
<glyph unicode="&#x152;" horiz-adv-x="1898" d="M94 401q-1 55 6 111l72 457q38 243 208 391.5t449 148.5q171 0 275 -77l8 53h821q13 0 19 -10t4 -23l-33 -195q-2 -11 -11 -20.5t-20 -9.5h-530l-55 -348h483q22 0 22 -31l-30 -193q-2 -9 -11.5 -17.5t-19.5 -8.5h-483l-58 -371h531q27 0 22 -33l-28 -196q-7 -29 -31 -29 h-823l8 57q-132 -82 -299 -82q-81 0 -151 16t-122.5 45t-95 69t-68 87.5t-42 100.5t-17.5 108zM395 551q-25 -156 29 -238t207 -82q151 0 230 82t104 234l63 387q49 319 -237 319q-152 0 -230.5 -81.5t-103.5 -235.5z" />
<glyph unicode="&#x153;" horiz-adv-x="1806" d="M68 313q0 62 8 117l43 268q35 218 164.5 325t392.5 107q200 0 313 -104q136 104 346 104q95 0 174.5 -29.5t131 -78.5t80 -110.5t28.5 -125.5q0 -76 -33 -278q-6 -43 -63 -43h-596q-10 -68 -10 -105q0 -67 43.5 -111t119.5 -44q150 0 211 139q16 41 62 23l153 -62 q40 -15 11 -78q-126 -252 -473 -252q-179 0 -297 103q-132 -103 -385 -103q-190 0 -307 100t-117 238zM352 354q1 -72 49.5 -110.5t124.5 -38.5q95 0 160.5 53t83.5 166l35 221q8 52 8 100q0 69 -45.5 112.5t-128.5 43.5q-97 0 -161 -57t-81 -162l-37 -231q-8 -40 -8 -97z M1087 651h390q10 67 10 109q0 68 -45 110.5t-119 42.5q-97 0 -158.5 -60t-70.5 -151z" />
<glyph unicode="&#x178;" horiz-adv-x="1136" d="M83.5 1474.5q4.5 10.5 14.5 10.5h246q25 0 35 -29l215 -614l401 624q11 19 29 19h260q12 0 16 -11t-2 -20l-598 -872l-88 -553q-6 -29 -32 -29h-234q-28 0 -22 29l84 553l-324 872q-5 10 -0.5 20.5zM397 1704l29 186q8 37 39 37h170q15 0 23.5 -10t5.5 -27l-29 -186 q-3 -17 -14 -27t-25 -10h-172q-14 0 -22 10t-5 27zM811 1704l29 186q8 37 39 37h170q15 0 23 -10t5 -27l-28 -186q-3 -17 -14.5 -27t-26.5 -10h-170q-14 0 -22 10t-5 27z" />
<glyph unicode="&#x2c6;" horiz-adv-x="819" d="M184 1253q-3 8 4 17l209 260q14 18 21 22t28 4h121q19 0 25.5 -5.5t13.5 -20.5l129 -260q5 -9 -0.5 -17t-17.5 -8h-137q-14 0 -20 5.5t-11 19.5l-57 160l-111 -164q-15 -21 -31 -21h-147q-16 0 -19 8z" />
<glyph unicode="&#x2dc;" horiz-adv-x="946" d="M186 1356q-12 17 29 58t107 75.5t116 34.5q46 0 86.5 -19.5t71 -39t51.5 -19.5t41 9.5t32.5 22t26 24t20 14.5t15.5 -5l78 -102q14 -19 -8 -37q-42 -49 -102.5 -85t-120.5 -36q-53 0 -93.5 21t-69.5 42t-54 21q-56 0 -109 -71q-5 -8 -13 -8.5t-16 8.5z" />
<glyph unicode="&#x2000;" horiz-adv-x="989" />
<glyph unicode="&#x2001;" horiz-adv-x="1978" />
<glyph unicode="&#x2002;" horiz-adv-x="989" />
<glyph unicode="&#x2003;" horiz-adv-x="1978" />
<glyph unicode="&#x2004;" horiz-adv-x="659" />
<glyph unicode="&#x2005;" horiz-adv-x="494" />
<glyph unicode="&#x2006;" horiz-adv-x="329" />
<glyph unicode="&#x2007;" horiz-adv-x="329" />
<glyph unicode="&#x2008;" horiz-adv-x="247" />
<glyph unicode="&#x2009;" horiz-adv-x="395" />
<glyph unicode="&#x200a;" horiz-adv-x="109" />
<glyph unicode="&#x2010;" horiz-adv-x="907" d="M51 535l29 159q4 29 29 29h722q28 0 25 -29l-29 -159q-3 -31 -32 -31h-715q-36 0 -29 31z" />
<glyph unicode="&#x2011;" horiz-adv-x="907" d="M51 535l29 159q4 29 29 29h722q28 0 25 -29l-29 -159q-3 -31 -32 -31h-715q-36 0 -29 31z" />
<glyph unicode="&#x2012;" horiz-adv-x="907" d="M51 535l29 159q4 29 29 29h722q28 0 25 -29l-29 -159q-3 -31 -32 -31h-715q-36 0 -29 31z" />
<glyph unicode="&#x2013;" horiz-adv-x="1032" d="M82 545l27 151q2 11 10 19t18 8h795q22 0 18 -29l-20 -149q-2 -11 -11.5 -20t-21.5 -9h-791q-12 0 -19 9t-5 20z" />
<glyph unicode="&#x2014;" horiz-adv-x="2035" d="M82 545l27 151q2 11 10 19t18 8h1798q23 0 19 -29l-21 -149q-2 -11 -11 -20t-21 -9h-1795q-12 0 -19 9t-5 20z" />
<glyph unicode="&#x2018;" horiz-adv-x="471" d="M102 969q18 114 61 211.5t100.5 163.5t117.5 110.5t123 67.5q25 8 39 -9l43 -63q22 -36 -8 -57q-100 -68 -136 -148t-65 -276q-7 -35 -41 -35h-201q-40 0 -33 35z" />
<glyph unicode="&#x2019;" horiz-adv-x="468" d="M91.5 1010q2.5 16 19.5 26q51 36 82 69.5t52.5 87t34 108t29.5 159.5q2 18 10 26.5t27 8.5h201q23 0 30 -8t5 -27q-19 -115 -62.5 -212t-100.5 -163.5t-117.5 -111t-123.5 -68.5q-22 -4 -37 13l-41 63q-11 13 -8.5 29z" />
<glyph unicode="&#x201a;" horiz-adv-x="563" d="M-73 -203q0 9 16 21q95 67 134 158.5t70 291.5q7 33 41 33h201q38 0 31 -33q-18 -113 -61.5 -213.5t-100.5 -171.5t-119 -119.5t-125 -72.5q-24 -5 -34 12l-41 70q-12 15 -12 24z" />
<glyph unicode="&#x201c;" horiz-adv-x="923" d="M102 981q18 116 61 213t100 163t117 110t124 67q26 9 39 -10l43 -62q10 -13 8 -30t-16 -27q-100 -68 -136 -147.5t-65 -276.5q-7 -33 -41 -33h-201q-23 0 -29.5 8t-3.5 25zM557 981q14 93 45 175t71 142t89 108.5t97.5 78.5t98.5 49q26 9 39 -10l39 -62q11 -13 9.5 -30 t-17.5 -27q-52 -36 -83 -69t-53 -86t-34.5 -109t-28.5 -160q-7 -33 -38 -33h-201q-23 0 -29.5 8t-3.5 25z" />
<glyph unicode="&#x201d;" horiz-adv-x="921" d="M92 1014q2 16 19 26q98 67 132.5 146.5t65.5 279.5q3 17 11.5 25t27.5 8h201q23 0 29.5 -8t3.5 -25q-19 -116 -62 -213.5t-100.5 -164t-117.5 -111t-124 -68.5q-24 -5 -37 13l-39 63q-12 13 -10 29zM544 1014q2 16 17 26q100 68 136 148.5t65 277.5q7 33 41 33h201 q15 0 22 -4t7.5 -11.5t-1.5 -17.5q-18 -116 -60 -213.5t-99 -164t-117.5 -111t-124.5 -68.5q-22 -5 -35 13l-43 63q-11 13 -9 29z" />
<glyph unicode="&#x201e;" horiz-adv-x="1015" d="M-71.5 -251.5q1.5 16.5 18.5 26.5q99 70 133 149t63 277q6 32 41 32h201q23 0 29 -7.5t4 -24.5q-18 -115 -61.5 -212t-100.5 -164t-118.5 -111.5t-125.5 -67.5q-22 -6 -35 12l-38 61q-12 13 -10.5 29.5zM382 -251.5q2 16.5 19 26.5q98 71 133 150.5t66 275.5q6 32 39 32 h201q23 0 29 -7.5t3 -24.5q-18 -114 -60.5 -211.5t-100 -164.5t-118.5 -111.5t-124 -67.5q-25 -5 -37 12l-41 61q-11 13 -9 29.5z" />
<glyph unicode="&#x2022;" horiz-adv-x="884" d="M90 588q0 77 28 149.5t78.5 131t129.5 93.5t172 35q129 0 213 -81t84 -203q0 -62 -17 -122.5t-52 -113.5t-83 -93t-114 -63.5t-142 -23.5q-127 0 -210.5 83t-86.5 208z" />
<glyph unicode="&#x2026;" horiz-adv-x="1490" d="M10 37l37 227q2 15 12.5 26t26.5 11h174q37 0 31 -37l-37 -227q-1 -17 -13 -27t-26 -10h-176q-12 0 -20.5 10t-8.5 27zM518 37l37 227q2 15 12.5 26t26.5 11h176q15 0 23.5 -10t5.5 -27l-37 -227q-1 -17 -12.5 -27t-26.5 -10h-176q-14 0 -22 10t-7 27zM1085 37l37 227 q2 14 13.5 25.5t27.5 11.5h174q32 0 29 -37l-37 -227q-1 -17 -12.5 -27t-26.5 -10h-176q-14 0 -22 10t-7 27z" />
<glyph unicode="&#x202f;" horiz-adv-x="395" />
<glyph unicode="&#x2039;" horiz-adv-x="653" d="M80 647l348 389q10 14 26 18.5t31 -5.5l113 -109q26 -17 2 -45l-258 -274l172 -322q9 -10 5.5 -23.5t-21.5 -21.5l-123 -72q-21 -9 -35 -4.5t-21 17.5z" />
<glyph unicode="&#x203a;" horiz-adv-x="686" d="M84 336l252 278l-168 308q-16 28 16 45l138 84q20 10 34 5.5t21 -18.5l227 -448l-354 -393q-10 -13 -26 -18.5t-29 5.5l-109 105q-28 17 -2 47z" />
<glyph unicode="&#x205f;" horiz-adv-x="494" />
<glyph unicode="&#x20ac;" horiz-adv-x="1402" d="M74 502l20 151q7 29 33 29h149l15 104h-144q-29 0 -26 31l24 156q6 31 35 31h148v12q34 215 201.5 353t406.5 138q84 0 158 -20.5t128 -54.5t95.5 -80t65.5 -96t34 -103q9 -49 -35 -61l-194 -56q-17 -4 -27 3.5t-12 23.5q-11 101 -69.5 154t-180.5 53q-118 0 -190.5 -67 t-90.5 -177l-2 -22h332q34 0 27 -31l-27 -156q-3 -31 -35 -31h-331l-17 -104h336q26 0 21 -29l-23 -151q-6 -33 -33 -33h-331l-9 -45q-4 -32 -4 -45q0 -81 53.5 -126.5t157.5 -45.5q227 0 311 207q19 46 58 32l155 -57q23 -11 29.5 -34.5t-6.5 -51.5q-85 -172 -224 -250 t-360 -78q-224 0 -343.5 105.5t-119.5 294.5q0 33 7 84l2 10h-144q-30 0 -24 33z" />
<glyph unicode="&#x2122;" horiz-adv-x="1226" d="M80 1391l14 79q5 15 15 15h438q15 0 10 -15l-12 -79q0 -4 -4 -9.5t-11 -5.5h-153l-78 -489q-4 -15 -14 -15h-103q-14 0 -10 15l76 489h-156q-5 0 -8.5 5.5t-3.5 9.5zM512 885l90 588q8 12 16 12h138q10 0 12 -10l29 -224q19 -112 22 -202q49 133 80 202l105 224 q2 10 14 10h137q12 0 12 -10l-94 -590q-3 -13 -12 -13h-103q-13 0 -10 13l49 262q3 21 10.5 58.5t10.5 54.5l-176 -377q-11 -11 -15 -11h-71q-11 0 -11 11l-59 379q0 -65 -8 -111l-41 -266q-3 -13 -12 -13h-105q-8 0 -8 13z" />
<glyph unicode="&#x25fc;" horiz-adv-x="1105" d="M0 0v1106h1106v-1106h-1106z" />
</font>
</defs>
</svg>
