<?xml version="1.0" standalone="no"?>
<!DOCTYPE svg PUBLIC "-//W3C//DTD SVG 1.1//EN" "http://www.w3.org/Graphics/SVG/1.1/DTD/svg11.dtd" >
<svg xmlns="http://www.w3.org/2000/svg" xmlns:xlink="http://www.w3.org/1999/xlink" version="1.1">
<metadata></metadata>
<defs>
<font id="frankmedium_italic" horiz-adv-x="1191" >
<font-face units-per-em="2048" ascent="1536" descent="-512" />
<missing-glyph horiz-adv-x="337" />
<glyph unicode="&#xfb01;" horiz-adv-x="1183" d="M119 907l22 140q4 22 19 22h129l18 94q34 165 146 260t299 95q132 0 218 -45.5t134 -106.5q28 -35 -2 -57l-107 -80q-19 -11 -28.5 -8t-24.5 20q-72 90 -186 90q-85 0 -145 -44.5t-76 -135.5l-15 -82h565q37 0 31 -41l-153 -999q-5 -29 -35 -29h-176q-27 0 -21 29 l131 856h-368l-136 -858q-1 -12 -9 -19.5t-19 -7.5h-180q-10 0 -17 7t-6 20l133 858h-127q-18 0 -14 22z" />
<glyph unicode="&#xfb02;" horiz-adv-x="1187" d="M117 909l22 133q5 27 27 27h123l16 90q30 162 160.5 260.5t306.5 98.5q119 0 216.5 -39t158.5 -84q27 -18 20 -56l-204 -1312q-6 -27 -31 -27h-182q-25 0 -19 27l193 1243q-71 71 -176 71q-95 0 -148 -56.5t-65 -133.5l-15 -82h172q21 0 17 -22l-25 -140q-4 -22 -22 -22 h-173l-131 -867q-2 -18 -24 -18h-187q-11 0 -16 3.5t-4 14.5l131 867h-121q-11 0 -16.5 7t-3.5 17z" />
<glyph horiz-adv-x="0" />
<glyph horiz-adv-x="682" />
<glyph unicode=" "  horiz-adv-x="337" />
<glyph unicode="&#x09;" horiz-adv-x="337" />
<glyph unicode="&#xa0;" horiz-adv-x="337" />
<glyph unicode="!" horiz-adv-x="573" d="M96 35l31 182q2 18 9 25.5t24 7.5h151q31 0 25 -35l-27 -180q-6 -35 -37 -35h-149q-33 0 -27 35zM190 467l129 1016q4 22 27 22h174q24 0 21 -22l-191 -1016q-5 -21 -28 -21h-111q-24 0 -21 21z" />
<glyph unicode="&#x22;" horiz-adv-x="690" d="M127 940l51 530q3 27 29 27h166q12 0 16.5 -8t1.5 -19l-115 -530q-3 -18 -28 -18h-96q-15 0 -20 3.5t-5 14.5zM502 940l51 530q3 27 27 27h165q25 0 21 -27l-115 -530q-3 -18 -30 -18h-97q-13 0 -17.5 3.5t-4.5 14.5z" />
<glyph unicode="#" horiz-adv-x="1343" d="M61 479l21 115q3 17 11 23t28 6h196l60 278h-191q-31 0 -26 29l22 117q3 26 33 26h205l90 416q6 20 31 20h151q21 0 17 -20l-93 -416h261l90 416q3 20 30 20h150q23 0 18 -18l-92 -418h182q32 0 27 -29l-22 -114q-3 -29 -33 -29h-195l-59 -278h182q34 0 27 -31l-21 -113 q-5 -28 -37 -28h-190l-94 -428q-7 -23 -31 -23h-147q-23 0 -19 23l94 428h-258l-94 -431q-6 -20 -31 -20h-149q-23 0 -19 20l95 431h-193q-32 0 -27 28zM514 623h262l60 278h-263z" />
<glyph unicode="$" horiz-adv-x="1112" d="M26.5 368q3.5 12 20.5 19l148 55q19 8 29.5 3t17.5 -25q21 -77 95 -137t185 -60q105 0 168.5 53.5t63.5 143.5q0 25 -8 48t-18 40.5t-34 39.5t-40.5 35.5t-55.5 37t-60 35.5t-71 40q-137 77 -210 165.5t-73 213.5q0 139 100.5 246t284.5 131l25 158q6 26 33 26h178 q15 0 23.5 -7.5t5.5 -20.5l-29 -168q117 -32 196.5 -110.5t106.5 -182.5q10 -38 -25 -47l-137 -41q-34 -9 -45 24q-29 81 -97.5 124.5t-160.5 43.5q-98 0 -155.5 -44t-57.5 -117q0 -34 14.5 -62t50 -57.5t70.5 -52.5t100 -62q11 -6 17 -10q64 -38 106.5 -67t87 -68.5 t70.5 -78.5t43 -91t17 -111q0 -175 -112 -282.5t-308 -127.5l-25 -147q-1 -14 -11 -21.5t-22 -7.5h-184q-26 0 -20 29l22 162q-222 55 -315 299q-8 22 -4.5 34z" />
<glyph unicode="%" horiz-adv-x="1517" d="M100 1004l43 274q17 117 105 178.5t221 61.5q121 0 193.5 -62.5t56.5 -177.5l-43 -274q-17 -116 -105.5 -177t-222.5 -61q-120 0 -192 62t-56 176zM148.5 8.5q-4.5 8.5 3.5 20.5l997 1444q11 14 18.5 18t26.5 4h141q12 0 16.5 -7.5t-1.5 -14.5l-1000 -1450 q-8 -13 -15.5 -18t-25.5 -5h-143q-13 0 -17.5 8.5zM281 1006q-7 -45 18.5 -70t73.5 -25q52 0 85 24.5t40 70.5l41 270q7 45 -19.5 69.5t-77.5 24.5q-50 0 -82 -25t-41 -71zM797 215l45 274q18 118 105 180t220 62q122 0 194.5 -63t53.5 -179l-43 -274q-18 -118 -105.5 -178 t-219.5 -60q-121 0 -194.5 61.5t-55.5 176.5zM975 217q-7 -46 17.5 -70t76.5 -24q111 0 125 94l41 272q8 46 -16.5 71.5t-75.5 25.5t-84 -25.5t-39 -71.5z" />
<glyph unicode="&#x26;" horiz-adv-x="1374" d="M45 381q0 86 32 168t86 146.5t115.5 114t127.5 83.5q-35 48 -55.5 83t-39 93t-18.5 119q0 135 100.5 233.5t276.5 98.5q83 0 148.5 -28t105 -74.5t61.5 -97.5t29 -106q1 -17 -8 -29t-23 -14l-133 -20q-31 -4 -35 31q-24 149 -156 149q-62 0 -104.5 -40t-42.5 -95 q0 -52 41.5 -127.5t92.5 -138.5t133 -162.5t126 -159.5q61 -79 101 -139q28 66 38 188q2 28 1.5 51t-1.5 38l-2 14q-3 28 23 28h154q28 0 30 -28q4 -78 -8 -168q-18 -170 -123 -313q80 -157 80 -299q0 -126 -60.5 -232.5t-152.5 -171.5q-30 -21 -57 10l-70 72q-28 32 2 59 q135 109 135 256q0 77 -34 152q-190 -148 -426 -148q-220 0 -355 115t-135 289zM281 414q0 -107 76 -175.5t204 -68.5q185 0 309 121q-31 46 -137 184l-217 285q-235 -132 -235 -346z" />
<glyph unicode="'" horiz-adv-x="315" d="M127 940l51 530q3 27 29 27h166q12 0 16.5 -8t1.5 -19l-115 -530q-3 -18 -28 -18h-96q-15 0 -20 3.5t-5 14.5z" />
<glyph unicode="(" horiz-adv-x="716" d="M106 414q0 190 50 393t153.5 398t243.5 323q30 27 51 6l113 -98q21 -16 0 -37q-178 -163 -277.5 -435t-99.5 -542q0 -161 34 -300t79 -226q7 -13 1.5 -21.5t-22.5 -21.5l-110 -68q-41 -28 -60 4q-61 104 -108.5 264t-47.5 361z" />
<glyph unicode=")" horiz-adv-x="735" d="M47 -125q-17 17 2 37q179 164 280 435.5t101 539.5q0 162 -35.5 300.5t-81.5 225.5q-5 17 -0.5 24.5t19.5 18.5l104 70q40 31 62 -2q62 -105 110.5 -266t48.5 -361q0 -190 -49 -393t-152 -398t-243 -323q-31 -31 -53 -8z" />
<glyph unicode="*" horiz-adv-x="720" d="M104 1200l56 121q12 28 37 14l196 -102l17 248q1 13 8 18.5t22 5.5h133q12 0 17 -7.5t2 -16.5l-62 -246l226 96q26 13 30 -12l19 -123q5 -29 -21 -35l-233 -55l131 -184q15 -21 -10 -39l-105 -72q-31 -22 -45 6l-96 211l-158 -209q-8 -11 -20 -14.5t-25 6.5l-84 78 q-19 19 4 39l187 178l-217 59q-25 7 -9 35z" />
<glyph unicode="+" horiz-adv-x="1206" d="M86 567v121q0 16 10.5 25.5t24.5 9.5h377v385q0 15 6 23t26 8h146q33 0 33 -31v-385h376q14 0 24.5 -9.5t10.5 -25.5v-121q0 -37 -35 -37h-376v-395q0 -33 -33 -33h-146q-20 0 -26 8.5t-6 24.5v395h-377q-35 0 -35 37z" />
<glyph unicode="," horiz-adv-x="512" d="M-57 -213q-20 23 4 39q88 67 123.5 153.5t64.5 280.5q6 29 37 29h164q18 0 22.5 -7t1.5 -22q-32 -200 -128.5 -337.5t-219.5 -198.5q-21 -13 -32 6z" />
<glyph unicode="-" horiz-adv-x="868" d="M57 547l23 129q4 26 29 26h682q23 0 20 -26l-23 -129q-3 -29 -28 -29h-678q-28 0 -25 29z" />
<glyph unicode="." horiz-adv-x="423" d="M16 35l35 219q6 35 35 35h162q32 0 26 -35l-36 -219q-1 -17 -11 -26t-24 -9h-160q-31 0 -27 35z" />
<glyph unicode="/" horiz-adv-x="903" d="M-13.5 16.5q1.5 6.5 7.5 18.5l788 1438q6 13 14.5 17.5t28.5 4.5h156q12 0 16.5 -6.5t-0.5 -15.5l-796 -1453q-11 -20 -41 -20h-154q-13 0 -17 5t-2.5 11.5z" />
<glyph unicode="0" horiz-adv-x="1263" d="M94 383q0 59 8 111l80 516q79 495 588 495q215 0 328.5 -107t113.5 -290q0 -46 -10 -111l-82 -524q-80 -498 -590 -498q-210 0 -323 114t-113 294zM334 391q0 -94 56 -147.5t175 -53.5q143 0 219.5 77.5t100.5 230.5l76 487q6 47 6 94q0 96 -58.5 154.5t-171.5 58.5 q-142 0 -218.5 -78t-100.5 -229l-76 -485q-8 -49 -8 -109z" />
<glyph unicode="1" horiz-adv-x="1019" d="M57 27l27 159q4 25 27 25h251l150 950l-285 -24q-27 -3 -24 22l6 125q0 21 20 27q266 53 334 94q47 26 80 80h158l-201 -1274h250q10 0 16 -7t4 -18l-24 -159q-4 -27 -27 -27h-739q-12 0 -18.5 8t-4.5 19z" />
<glyph unicode="2" horiz-adv-x="1275" d="M49 0l23 141q11 78 26 134t41.5 112.5t64.5 101.5t97 93t137.5 94.5t186.5 99.5q164 80 218 116q117 80 130 185q2 15 2 31q0 82 -55 133t-156 51q-111 0 -180.5 -46t-122.5 -140q-13 -25 -25.5 -31t-34.5 2l-122 56q-32 11 -15 49q73 161 211.5 242t317.5 81 q198 0 309.5 -108.5t111.5 -272.5q0 -79 -24.5 -145t-63 -115.5t-108 -99.5t-136 -86t-169.5 -86q-119 -57 -193 -101t-112 -84t-51.5 -71.5t-20.5 -77.5l-8 -45h723q24 0 20 -29l-22 -157q-8 -27 -31 -27h-969z" />
<glyph unicode="3" horiz-adv-x="1224" d="M53 319q-5 19 0 29t23 17l141 51q43 17 55 -25q52 -201 281 -201q121 0 190.5 54t83.5 145l7 53q15 91 -43.5 159.5t-182.5 68.5h-102q-22 0 -19 22l25 154q4 24 23 24h106q111 0 183.5 50t84.5 137l4 39q11 88 -44 142t-158 54q-204 0 -289 -153q-20 -33 -49 -23 l-137 53q-31 14 -13 48q152 288 518 288q96 0 178.5 -32.5t138 -87.5t80.5 -132t11 -163l-8 -48q-18 -106 -96 -180t-175 -92q95 -30 153.5 -124t45.5 -208l-6 -53q-23 -192 -166.5 -301t-370.5 -109q-99 0 -183.5 30t-142 79.5t-95 109.5t-52.5 125z" />
<glyph unicode="4" horiz-adv-x="1214" d="M63 494q0 18 15 36l837 973q23 26 46 6l118 -102q21 -18 0 -45l-702 -809h323l45 246q1 11 10 17.5t19 6.5h182q11 0 17.5 -7t5.5 -17l-41 -246h154q22 0 18 -27l-25 -159q-4 -27 -28 -27h-152l-49 -320q-6 -26 -31 -26h-186q-28 0 -25 26l54 320h-574q-19 0 -22 22z" />
<glyph unicode="5" horiz-adv-x="1228" d="M66 311q-6 25 0 36.5t28 19.5l137 51q44 14 54 -25q54 -203 276 -203q124 0 198.5 75.5t96.5 211.5l4 35q7 55 -1.5 103t-32.5 87.5t-69.5 62.5t-107.5 23q-152 0 -272 -135q-22 -25 -45 -12l-119 66l-10 7.5t-5.5 10.5t1.5 20l168 740h766q13 0 18.5 -8.5t3.5 -20.5 l-27 -156q-3 -26 -26 -26h-567l-95 -408l2 -2q53 52 138 84.5t178 32.5q94 0 166.5 -39.5t114 -105t58.5 -148t5 -170.5l-10 -67q-34 -228 -178 -352t-369 -124q-84 0 -158 21t-126.5 55t-94 79t-65 90t-35.5 91z" />
<glyph unicode="6" horiz-adv-x="1265" d="M102 483l82 521q78 501 594 501q81 0 149 -19.5t113 -50t78.5 -71.5t51 -78.5t26.5 -75.5q8 -40 -25 -49l-151 -45q-17 -6 -26 -2t-15 23q-47 155 -234 155q-137 0 -223 -83.5t-110 -245.5l-19 -132q48 62 144.5 108t205.5 46q95 0 173 -32t131.5 -90.5t76 -148 t6.5 -198.5l-10 -63q-33 -225 -179.5 -351.5t-393.5 -126.5q-237 0 -358 143.5t-87 364.5zM338 453q-18 -115 44 -189t196 -74q122 0 205 74.5t102 200.5l4 35q21 134 -33.5 211t-177.5 77q-129 0 -220.5 -79t-113.5 -209z" />
<glyph unicode="7" horiz-adv-x="1032" d="M135 27q23 143 93 314t168 336.5t204.5 315t218.5 279.5h-610q-26 0 -23 26l25 160q4 27 29 27h860q13 0 19.5 -8t4.5 -21l-16 -110q-5 -23 -25 -48q-120 -140 -233 -298t-213 -326t-169.5 -337.5t-90.5 -309.5q-6 -27 -31 -27h-188q-11 0 -18.5 6.5t-4.5 20.5z" />
<glyph unicode="8" horiz-adv-x="1290" d="M82 418l6 37q25 134 113 222t205 118q-89 29 -135 114.5t-31 182.5l6 34q29 176 166 277.5t376 101.5q111 0 198.5 -31t139.5 -83.5t74.5 -121t11.5 -145.5l-6 -32q-14 -115 -86.5 -193t-171.5 -104q102 -32 164.5 -123t44.5 -221l-6 -45q-28 -201 -185 -316t-417 -115 q-247 0 -373.5 128.5t-93.5 314.5zM324 428q-20 -108 44.5 -174t215.5 -66t230.5 58.5t100.5 175.5l5 18q22 117 -43.5 182.5t-214.5 65.5q-150 0 -231 -60t-103 -179zM469 1092q-15 -97 42.5 -155t178.5 -58q123 0 199.5 54.5t89.5 156.5l2 26q10 82 -45.5 137.5 t-177.5 55.5q-251 0 -285 -191z" />
<glyph unicode="9" horiz-adv-x="1255" d="M81 271.5q3 10.5 21 17.5l146 69q24 13 41 -20q33 -64 100.5 -107t165.5 -43q269 0 322 308l20 129q-50 -65 -142 -102.5t-194 -37.5q-139 0 -238 66.5t-140 175.5t-21 240l10 63q16 101 59 186t113.5 150.5t176 102t235.5 36.5q233 0 354.5 -136.5t83.5 -371.5l-84 -524 q-41 -252 -193 -375t-380 -123q-164 0 -278.5 76.5t-170.5 190.5q-10 19 -7 29.5zM401 971q-21 -138 36 -216.5t188 -78.5q132 0 217 76.5t104 205.5l8 56q19 132 -42 205t-187 73q-132 0 -213.5 -68.5t-101.5 -203.5z" />
<glyph unicode=":" horiz-adv-x="475" d="M45 35l35 219q3 35 35 35h161q31 0 25 -35l-35 -219q-3 -35 -37 -35h-159q-15 0 -21.5 10t-3.5 25zM174 856l33 219q6 35 35 35h161q15 0 22.5 -10t4.5 -25l-35 -219q-6 -35 -37 -35h-159q-32 0 -25 35z" />
<glyph unicode=";" horiz-adv-x="512" d="M-78 -213q-17 23 4 39q89 67 124.5 153t66.5 281q6 29 37 29h163q31 0 25 -29q-32 -200 -128.5 -337.5t-219.5 -198.5q-22 -13 -35 6zM211 856l33 219q3 19 11.5 27t25.5 8h159q34 0 27 -35l-35 -219q-1 -16 -12 -25.5t-25 -9.5h-159q-15 0 -21.5 10t-3.5 25z" />
<glyph unicode="&#x3c;" horiz-adv-x="1064" d="M106 557v135q0 29 29 39l748 254q14 5 23 -2.5t9 -26.5v-141q0 -28 -24 -37l-529 -153l529 -154q24 -6 24 -35v-141q0 -22 -11 -27.5t-40 4.5l-729 248q-10 2 -19.5 12.5t-9.5 24.5z" />
<glyph unicode="=" horiz-adv-x="1058" d="M113 397v135q0 29 22 29h787q24 0 24 -29v-135q0 -28 -26 -28h-783q-24 0 -24 28zM113 721v137q0 27 22 27h787q24 0 24 -27v-137q0 -27 -26 -27h-783q-24 0 -24 27z" />
<glyph unicode="&#x3e;" horiz-adv-x="1064" d="M147 295v141q0 29 25 35l533 154l-533 153q-25 9 -25 37v141q0 19 10.5 26.5t24.5 2.5l746 -254q28 -9 28 -39v-135q0 -14 -8.5 -24.5t-19.5 -12.5l-727 -248q-29 -10 -41.5 -4.5t-12.5 27.5z" />
<glyph unicode="?" horiz-adv-x="940" d="M164 1292q-13 18 14 49q79 81 183 130t223 49q154 0 247 -91t93 -212q0 -45 -4 -68q-11 -67 -44.5 -128t-76 -105t-91.5 -91.5t-91 -88t-74.5 -94.5t-42.5 -110l-11 -61q-1 -16 -12 -25.5t-24 -9.5h-140q-14 0 -20.5 10.5t-3.5 24.5l10 72q10 60 35.5 115t59 97.5 t71.5 81.5t76 74t69.5 69.5t54.5 73.5t29 79q2 14 2 41q0 70 -42 109.5t-124 39.5q-130 0 -239 -125q-23 -32 -49 -2zM221 35l29 180q8 35 35 35h139q14 0 22 -9t5 -26l-29 -180q-6 -35 -37 -35h-137q-14 0 -22 9t-5 26z" />
<glyph unicode="@" horiz-adv-x="1640" d="M67 344.5q-3 54.5 7 106.5l45 288q15 94 51.5 181t104.5 170t160 144t227 98.5t296 37.5q102 0 190 -17t153.5 -48t118 -73.5t84 -93t52.5 -107.5t22.5 -116.5t-5.5 -119.5l-49 -312q-25 -156 -102 -239.5t-228 -83.5q-97 0 -153.5 52.5t-63.5 123.5q-41 -77 -120 -129.5 t-195 -52.5q-104 0 -167 66t-63 159q0 63 6 113l35 231q25 152 130 239t265 87q98 0 196 -35t146 -76l-77 -510q-20 -121 88 -121q52 0 89.5 39.5t47.5 114.5l51 313q6 48 7.5 94t-11.5 89t-33.5 80.5t-59.5 69t-90.5 54t-124.5 35t-163 12.5q-124 0 -227 -28t-173.5 -75.5 t-122 -113t-79 -135.5t-39.5 -149l-35 -230q-13 -67 -9.5 -129.5t18 -117.5t50 -100t86.5 -77.5t128 -50.5t174 -18q146 0 259 24t173 51q27 10 30 -10l23 -100q6 -25 -21 -37q-233 -90 -489 -90q-94 0 -175.5 15.5t-142 44t-111 67t-82.5 84.5t-56.5 97.5t-33.5 105.5 t-12 108.5zM614 414q0 -45 30 -78t87 -33q84 0 145 64.5t89 167.5l49 317q-55 39 -160 39q-88 0 -136.5 -49t-68.5 -168l-24 -152q-11 -72 -11 -108z" />
<glyph unicode="A" d="M-67 9.5q-4 9.5 1 21.5l674 1433q19 37 45 37h201q31 0 37 -37l215 -1433q5 -31 -21 -31h-192q-26 0 -29 29l-49 366h-473l-164 -366q-7 -18 -15.5 -23.5t-23.5 -5.5h-190q-12 0 -16 9.5zM436 602h355l-76 655z" />
<glyph unicode="B" horiz-adv-x="1204" d="M74 0l229 1485h500q134 0 229 -56q94 -55 132 -143q27 -62 27 -131q0 -29 -5 -59l-6 -43q-18 -119 -94 -189.5t-179 -85.5q97 -22 163 -114q56 -77 56 -178q0 -20 -2 -40l-6 -51q-26 -185 -156.5 -290t-367.5 -105h-520zM344 211h223q145 0 220.5 45t93.5 154l8 39 q4 24 4 47q0 70 -43 116q-57 60 -182 60h-250zM446 862h228q121 0 190.5 52t81.5 147l4 31q2 15 2 30q0 62 -40 102q-48 50 -142 50h-256z" />
<glyph unicode="C" horiz-adv-x="1179" d="M94 403q0 61 8 111l80 500q36 232 183 361.5t393 129.5q93 0 174.5 -30t137.5 -80.5t89.5 -116.5t38.5 -137v-7q0 -40 -33 -44l-139 -25q-23 -4 -33.5 2.5t-13.5 28.5q-10 84 -71.5 140t-164.5 56q-134 0 -220 -82.5t-111 -234.5l-70 -447q-10 -45 -10 -110 q0 -97 64 -161t175 -64q115 0 190 53t109 145q12 30 37 30q10 0 23 -5l139 -49q21 -7 24 -24t-8 -46q-55 -141 -195 -231.5t-337 -90.5q-94 0 -172 25t-130 66.5t-88 97.5t-52.5 116t-16.5 123z" />
<glyph unicode="D" horiz-adv-x="1310" d="M74 0l229 1485h492q211 0 338 -117.5t127 -296.5q0 -32 -9 -106l-77 -500q-34 -215 -181.5 -340t-406.5 -125h-512zM344 211h246q159 0 243.5 75t108.5 228l70 438q8 54 8 95q0 227 -262 227h-246z" />
<glyph unicode="E" horiz-adv-x="1060" d="M74 0l229 1485h789q24 0 20 -31l-25 -154q-4 -26 -26 -26h-549l-66 -416h500q21 0 21 -27l-25 -153q-2 -10 -10 -18.5t-19 -8.5h-497l-72 -440h549q27 0 22 -29l-24 -155q-8 -27 -29 -27h-788z" />
<glyph unicode="F" horiz-adv-x="999" d="M76 27l227 1458h760q12 0 18.5 -8t3.5 -21l-24 -153q0 -11 -7 -20t-20 -9h-524l-72 -453h480q24 0 20 -28l-23 -152q-4 -27 -28 -27h-479l-93 -587q-6 -27 -28 -27h-189q-27 0 -22 27z" />
<glyph unicode="G" horiz-adv-x="1288" d="M94 399q0 57 6 101l78 491q39 252 184.5 384t413.5 132q103 0 189 -29.5t143 -80.5t90.5 -117t38.5 -141v-7q0 -36 -31 -42l-147 -27q-20 -3 -29 5.5t-12 31.5q-8 81 -73.5 136.5t-188.5 55.5q-293 0 -344 -327l-72 -449q-8 -54 -8 -86q0 -117 65 -178.5t193 -61.5 q139 0 235.5 71.5t118.5 217.5l21 127h-269q-24 0 -20 27l24 143q2 10 10 18.5t21 8.5h451q35 0 32 -37l-45 -301q-33 -231 -188 -360.5t-426 -129.5q-115 0 -205 35.5t-145 95.5t-83 134.5t-28 158.5z" />
<glyph unicode="H" horiz-adv-x="1413" d="M76 27l223 1433q6 25 29 25h188q11 0 17.5 -6.5t5.5 -18.5l-97 -610h613l94 610q6 25 29 25h186q14 0 21 -6.5t4 -18.5l-224 -1433q-5 -27 -28 -27h-187q-27 0 -22 27l94 610h-610l-97 -610q-6 -27 -28 -27h-191q-25 0 -20 27z" />
<glyph unicode="I" horiz-adv-x="563" d="M76 27l225 1431q1 13 10 20t19 7h188q11 0 16.5 -7.5t4.5 -19.5l-222 -1431q-7 -27 -30 -27h-189q-10 0 -17.5 7.5t-4.5 19.5z" />
<glyph unicode="J" horiz-adv-x="946" d="M-39 147q-20 30 4 54l101 96q26 23 51 -8q78 -99 198 -99q171 0 203 199l168 1069q1 13 10 20t19 7h188q24 0 21 -29l-166 -1067q-66 -414 -445 -414q-118 0 -209 49.5t-143 122.5z" />
<glyph unicode="K" horiz-adv-x="1210" d="M76 27l223 1429q5 29 31 29h188q10 0 16 -7t5 -20l-101 -631l600 639q2 2 5.5 5t5 4t4 3.5t4.5 3t5 1.5t6 1.5t7 0.5h221q14 0 17.5 -13t-6.5 -22l-529 -578l316 -845q4 -12 -2 -19.5t-17 -7.5h-213q-25 0 -31 18l-241 691l-199 -207l-76 -475q-6 -27 -28 -27h-191 q-10 0 -16.5 7t-3.5 20z" />
<glyph unicode="L" horiz-adv-x="1013" d="M74 0l227 1460q1 11 10 18t19 7h188q10 0 17 -7t6 -18l-197 -1249h594q25 0 18 -31l-22 -153q-4 -27 -27 -27h-833z" />
<glyph unicode="M" horiz-adv-x="1665" d="M76 27l229 1429q2 12 10 20.5t21 8.5h282q21 0 27 -23l107 -858q23 -209 23 -347q0 -25 -1 -48q73 259 184 506l334 747q3 8 11.5 13.5t25 7.5t25 2.5t32 0t25.5 -0.5h207q26 0 22 -27l-221 -1431q-6 -27 -28 -27h-170q-11 0 -17.5 7.5t-3.5 19.5l143 915q21 151 60 293 h-4l-527 -1210q-12 -25 -28 -25h-199q-21 0 -24 20l-154 1215q-4 -15 -17 -147.5t-20 -178.5q-24 -147 -70 -440.5t-69 -441.5q-6 -27 -29 -27h-166q-11 0 -17 7.5t-3 19.5z" />
<glyph unicode="N" horiz-adv-x="1421" d="M76 27l223 1425q4 33 33 33h270q22 0 31 -27l233 -749q83 -257 129 -453h6q17 224 50 436l118 768q4 25 27 25h180q25 0 21 -25l-223 -1433q-7 -27 -31 -27h-254q-24 0 -33 27l-254 770q-72 215 -125 430h-6q-14 -223 -43 -393l-125 -807q-6 -27 -27 -27h-180 q-10 0 -16.5 8t-3.5 19z" />
<glyph unicode="O" horiz-adv-x="1331" d="M94 418q0 44 8 94l78 504q36 241 186 365t441 124q113 0 204.5 -35t149.5 -95.5t88.5 -139t30.5 -168.5q0 -26 -8 -88l-80 -522q-37 -242 -192 -362t-435 -120q-116 0 -207.5 37t-148 99.5t-86 141t-29.5 165.5zM330 428q0 -108 67.5 -173t202.5 -65q162 0 249 79.5 t114 244.5l71 447q8 58 8 90q0 107 -66.5 174t-201.5 67q-169 0 -254 -84t-110 -241l-72 -445q-8 -54 -8 -94z" />
<glyph unicode="P" horiz-adv-x="1159" d="M82 27l227 1458h467q102 0 181.5 -31t127.5 -83.5t72.5 -117t24.5 -137.5q0 -59 -8 -106l-11 -62q-78 -428 -545 -428h-219l-77 -493q-3 -27 -29 -27h-187q-27 0 -24 27zM430 725h197q146 0 216.5 56.5t88.5 174.5l6 48q10 62 10 90q0 82 -52 131t-155 49h-225z" />
<glyph unicode="Q" horiz-adv-x="1331" d="M94 418q0 44 8 94l78 504q36 241 186 365t441 124q113 0 204.5 -35t149.5 -95.5t88.5 -139t30.5 -168.5q0 -26 -8 -88l-80 -522q-46 -289 -256 -402l145 -321q5 -10 -0.5 -17.5t-19.5 -7.5h-150q-22 0 -30 19l-121 266q-93 -19 -195 -19q-116 0 -207.5 37t-148 99.5 t-86 141t-29.5 165.5zM330 428q0 -108 67.5 -173t202.5 -65q31 0 66 7l-111 247q-5 11 0.5 20t19.5 9h154q17 0 27 -20l84 -191q95 76 123 252l71 447q8 58 8 90q0 107 -66.5 174t-201.5 67q-169 0 -254 -84t-110 -241l-72 -445q-8 -54 -8 -94z" />
<glyph unicode="R" horiz-adv-x="1189" d="M76 27l227 1458h475q197 0 301.5 -98.5t104.5 -247.5q0 -57 -6 -97l-15 -90q-20 -133 -99 -233t-214 -141l203 -551q4 -11 -2.5 -19t-16.5 -8h-205q-24 0 -30 18l-181 533h-221l-82 -524q-3 -27 -28 -27h-191q-23 0 -20 27zM430 760h238q126 0 186 50t78 157l10 67 q6 34 6 68q0 78 -51.5 125t-153.5 47h-233z" />
<glyph unicode="S" horiz-adv-x="1091" d="M20 329q3 11 19 17l151 57q35 14 46 -24q25 -78 98 -136.5t186 -58.5q105 0 172.5 55.5t67.5 145.5q0 37 -17.5 71.5t-54.5 69.5t-78.5 66.5t-104.5 75.5q-30 21 -46 32q-142 101 -216.5 196t-74.5 210q0 81 29 151.5t85.5 126.5t149.5 88.5t211 32.5q171 0 291.5 -89 t155.5 -224q6 -39 -27 -47l-133 -39q-17 -6 -29 0t-22 29q-27 76 -91.5 118.5t-158.5 42.5q-96 0 -156.5 -44t-60.5 -122q0 -28 9.5 -53.5t21.5 -43.5t41.5 -44t50 -41.5t68.5 -50t77 -55.5q68 -49 108 -81t88 -78t73.5 -86.5t43 -93.5t17.5 -112q0 -189 -137 -302.5 t-369 -113.5q-190 0 -314.5 91.5t-166.5 234.5q-6 17 -3 28z" />
<glyph unicode="T" horiz-adv-x="1118" d="M119 1300l26 156q4 29 27 29h1034q12 0 17.5 -8t3.5 -21l-27 -156q-4 -26 -29 -26h-397l-194 -1247q-3 -27 -27 -27h-193q-21 0 -18 27l195 1247h-396q-25 0 -22 26z" />
<glyph unicode="U" horiz-adv-x="1361" d="M119 383q0 57 6 98l156 977q3 27 26 27h189q24 0 20 -27l-151 -960q-7 -51 -7 -76q0 -232 271 -232q142 0 225 77t104 212l154 979q2 12 9 19.5t18 7.5h182q23 0 20 -27l-159 -1018q-35 -219 -183 -342t-407 -123q-116 0 -208 34t-149 92t-86.5 130t-29.5 152z" />
<glyph unicode="V" horiz-adv-x="1187" d="M141 1456q-3 29 23 29h196q22 0 25 -23l96 -696q35 -271 47 -559h4q85 261 218 559l307 696q10 23 30 23h193q12 0 18.5 -11t1.5 -22l-655 -1425q-13 -27 -37 -27h-217q-26 0 -29 27z" />
<glyph unicode="W" horiz-adv-x="1798" d="M168 1458q0 27 20 27h189q26 0 26 -25l35 -622q18 -307 18 -533q0 -51 -1 -98h2q77 288 209 629l235 624q9 25 35 25h182q26 0 29 -25l51 -620q31 -355 31 -603v-30h4q108 369 207 635l229 620q9 23 29 23h180q11 0 15.5 -8t0.5 -21l-548 -1429q-3 -10 -13.5 -18.5 t-21.5 -8.5h-221q-14 0 -22.5 7.5t-8.5 19.5l-53 708q-19 252 -21 412h-4q-56 -181 -143 -412l-265 -708q-3 -10 -13.5 -18.5t-24.5 -8.5h-220q-28 0 -28 27z" />
<glyph unicode="X" horiz-adv-x="1144" d="M-118.5 13q-5.5 13 3.5 24l572 715l-316 702q-6 14 0 22.5t17 8.5h198q20 0 31 -21l236 -534l393 536q14 19 31 19h217q11 0 14 -10t-4 -19l-545 -717l340 -712q5 -9 -1 -18t-19 -9h-199q-30 0 -39 20l-246 547l-413 -542q-21 -25 -46 -25h-204q-15 0 -20.5 13z" />
<glyph unicode="Y" horiz-adv-x="1095" d="M96 1456q-4 10 0 19.5t13 9.5h198q22 0 33 -27l227 -649l428 657q11 19 27 19h209q12 0 16 -11t-2 -20l-590 -860l-92 -567q-3 -27 -28 -27h-189q-26 0 -20 27l90 567z" />
<glyph unicode="Z" horiz-adv-x="1058" d="M-61 150l864 1124h-584q-23 0 -20 22l24 162q2 10 10.5 18.5t20.5 8.5h819q25 0 27 -25l22 -123l-866 -1126h692q26 0 21 -27l-25 -159q-2 -10 -10 -17.5t-19 -7.5h-923q-22 0 -25 20z" />
<glyph unicode="[" horiz-adv-x="786" d="M106 -291l289 1835h465q12 0 17.5 -7.5t3.5 -18.5l-21 -144q-4 -22 -31 -22h-237l-227 -1450h237q14 0 19.5 -8.5t3.5 -18.5l-23 -143q-2 -9 -10.5 -16t-20.5 -7h-465z" />
<glyph unicode="\" horiz-adv-x="1005" d="M8 1473q-5 9 0 15.5t17 6.5h155q20 0 28.5 -4.5t14.5 -17.5l789 -1438q9 -15 7.5 -25t-20.5 -10h-153q-30 0 -41 20z" />
<glyph unicode="]" horiz-adv-x="763" d="M-55 -268l24 143q5 27 29 27h238l227 1450h-238q-26 0 -22 22l22 144q4 26 31 26h465l-289 -1835h-463q-13 0 -19.5 6.5t-4.5 16.5z" />
<glyph unicode="^" horiz-adv-x="968" d="M80 680.5q-6 10.5 4 30.5l397 739q15 29 37 29h176q32 0 35 -31l162 -743q3 -35 -31 -35h-153q-29 0 -29 24l-103 557l-274 -557q-9 -24 -39 -24h-158q-18 0 -24 10.5z" />
<glyph unicode="_" horiz-adv-x="700" d="M-98 -246l18 115h776l-16 -115h-778z" />
<glyph unicode="`" horiz-adv-x="634" d="M207 1532q5 10 22 10h146q26 0 35 -18l118 -279q6 -12 0.5 -19t-18.5 -7h-109q-18 0 -24 12l-168 280q-7 11 -2 21z" />
<glyph unicode="a" horiz-adv-x="1167" d="M76 291q0 84 8 133l45 281q65 423 514 423q122 0 248.5 -40.5t220.5 -94.5l-151 -960q-6 -33 -39 -33h-152q-32 0 -32 32q0 6 1 13l25 166q-22 -36 -53 -72t-79 -75t-114.5 -63t-140.5 -24q-75 0 -134.5 28.5t-95 75t-53.5 100.5t-18 110zM309 332q0 -72 41.5 -118 t118.5 -46q88 0 175.5 67t139.5 171l82 491q-129 49 -235 49q-236 0 -279 -291l-35 -217q-8 -66 -8 -106z" />
<glyph unicode="b" horiz-adv-x="1165" d="M98 319q0 64 11 121l163 1057q3 23 29 23h180q12 0 19 -6t6 -17l-92 -565q34 49 76 89t117 73.5t161 33.5q148 0 238 -96t90 -231q0 -51 -9 -113l-45 -291q-34 -214 -166 -317t-368 -103q-187 0 -298.5 98t-111.5 244zM330 344q0 -83 54 -129.5t155 -46.5 q114 0 183.5 58.5t92.5 205.5l37 234q10 55 10 94q0 80 -50 128t-146 48q-110 0 -191.5 -82.5t-99.5 -194.5l-35 -219q-10 -63 -10 -96z" />
<glyph unicode="c" horiz-adv-x="1032" d="M76 319q0 51 10 109l45 289q31 194 160 302.5t336 108.5q163 0 270.5 -88t120.5 -213v-7q0 -38 -33 -42l-141 -22q-21 -3 -30.5 4t-12.5 31q-8 63 -56.5 104t-128.5 41q-91 0 -164.5 -62.5t-93.5 -195.5l-41 -252q-6 -40 -6 -74q0 -87 51 -134.5t132 -47.5q87 0 145.5 41 t85.5 106q11 29 35 29q9 0 20 -4l125 -51q21 -8 21 -29q0 -11 -6 -26q-54 -121 -167.5 -190t-291.5 -69q-162 0 -273.5 93.5t-111.5 248.5z" />
<glyph unicode="d" horiz-adv-x="1193" d="M78 291q0 81 8 133l45 285q31 200 152 309.5t321 109.5q148 0 297 -59l70 428q3 23 28 23h179q11 0 18 -5.5t6 -17.5l-231 -1464q-3 -33 -35 -33h-160q-15 0 -22 11.5t-4 27.5l24 172q-25 -39 -56 -74t-78.5 -74t-113 -62.5t-139.5 -23.5q-141 0 -225 92t-84 222z M311 330q0 -71 44 -116.5t124 -45.5q86 0 181 74.5t137 163.5l80 491q-111 49 -244 49q-118 0 -188 -71.5t-93 -225.5l-33 -213q-8 -49 -8 -106z" />
<glyph unicode="e" horiz-adv-x="1087" d="M78 322q0 52 12 122l39 258q32 198 159.5 312t344.5 114q176 0 284.5 -98.5t108.5 -232.5q0 -94 -33 -269q-6 -43 -57 -43h-608q-17 -96 -17 -139q0 -77 50 -127.5t139 -50.5q169 0 235 151q11 27 35 27q10 0 21 -4l122 -49q21 -9 21 -31q0 -15 -10 -37 q-118 -248 -455 -248q-96 0 -172.5 28.5t-123.5 77.5t-71 110t-24 129zM352 645h428q17 93 17 129q0 78 -45 125t-129 47q-106 0 -177 -67.5t-86 -176.5z" />
<glyph unicode="f" horiz-adv-x="751" d="M117 911l22 131q3 27 27 27h139l12 92q55 359 365 359q77 0 149 -22.5t115 -57.5q16 -11 18.5 -26.5t-10.5 -33.5l-65 -90q-13 -17 -30 -17q-14 0 -32 13q-50 41 -133 41q-119 0 -139 -141l-18 -117h264q23 0 20 -27l-18 -129q-6 -28 -33 -28h-264l-137 -858 q-3 -27 -33 -27h-174q-28 0 -25 27l137 858h-137q-10 0 -16 7.5t-4 18.5z" />
<glyph unicode="g" horiz-adv-x="1189" d="M18 -225q-22 28 7 53l96 82q10 8 20 8q17 0 35 -22q42 -65 119.5 -112.5t181.5 -47.5q236 0 279 297l26 200q-144 -233 -383 -233q-146 0 -228.5 90.5t-82.5 218.5q0 70 10 135l41 267q32 206 154.5 314t365.5 108q127 0 247 -37t210 -88l-145 -1004 q-35 -226 -167.5 -341.5t-354.5 -115.5q-78 0 -147.5 20t-122 55t-91.5 72t-70 81zM324 354q0 -70 42 -115.5t115 -45.5q105 0 188.5 67t135.5 166l78 475q-110 49 -234 49q-125 0 -194.5 -72t-92.5 -221l-30 -196q-8 -55 -8 -107z" />
<glyph unicode="h" horiz-adv-x="1177" d="M74 27l229 1466q3 27 31 27h178q26 0 23 -27l-93 -555q163 190 359 190q87 0 153.5 -45t98.5 -110.5t32 -136.5q0 -68 -12 -142l-106 -667q-5 -27 -31 -27h-176q-28 0 -25 27l103 632q10 68 10 129q0 68 -37 108t-111 40q-87 0 -164 -59t-120 -142l-111 -708 q-3 -27 -31 -27h-176q-13 0 -20 7t-4 20z" />
<glyph unicode="i" horiz-adv-x="534" d="M78 29l164 1046q3 16 13 25.5t21 9.5h173q12 0 18.5 -10t3.5 -23l-162 -1048q-5 -29 -35 -29h-172q-30 0 -24 29zM274 1294l31 193q7 33 35 33h170q33 0 27 -33l-29 -193q-6 -34 -39 -34h-170q-28 0 -25 34z" />
<glyph unicode="j" horiz-adv-x="528" d="M-141 -315q-16 21 16 49q91 65 142 148.5t71 211.5l154 983q3 14 12.5 23.5t19.5 9.5h175q12 0 19.5 -9.5t4.5 -25.5l-151 -979q-50 -318 -322 -522q-22 -17 -41 2zM274 1292l31 195q7 33 37 33h170q30 0 25 -35l-29 -193q-6 -32 -39 -32h-168q-15 0 -22 9t-5 23z" />
<glyph unicode="k" horiz-adv-x="1069" d="M74 29l229 1466q3 25 31 25h178q11 0 18.5 -7t6.5 -18l-131 -829l450 426q18 18 41 18h190q16 0 19.5 -12t-6.5 -21l-406 -393l262 -653q6 -13 0 -22t-20 -9h-191q-26 0 -32 18l-201 529l-145 -125l-62 -393q-3 -13 -11.5 -21t-19.5 -8h-178q-12 0 -18.5 8t-3.5 21z" />
<glyph unicode="l" horiz-adv-x="534" d="M78 29l227 1466q6 25 33 25h176q30 0 25 -27l-230 -1466q-5 -27 -33 -27h-176q-25 0 -22 29z" />
<glyph unicode="m" horiz-adv-x="1722" d="M70 27l166 1056q3 27 30 27h170q12 0 19 -7t4 -20l-21 -139q32 39 60.5 67t68.5 57t89 44.5t104 15.5q107 0 171.5 -65t84.5 -154q152 219 356 219q85 0 146.5 -41.5t89.5 -101t28 -127.5q0 -57 -12 -123l-111 -708q-3 -27 -30 -27h-174q-30 0 -27 27l104 653 q13 84 13 125q0 59 -30.5 95t-96.5 36q-74 0 -146 -62.5t-106 -138.5l-113 -708q-5 -27 -30 -27h-179q-28 0 -22 27l104 655q1 12 5 37.5t6 46t2 35.5q0 135 -131 135q-75 0 -145 -64t-103 -135l-113 -710q-3 -27 -33 -27h-174q-13 0 -20 7t-4 20z" />
<glyph unicode="n" horiz-adv-x="1171" d="M70 27l166 1056q3 27 30 27h172q24 0 21 -27l-21 -151q39 49 84 89t117 73.5t147 33.5q137 0 215 -91t78 -210q0 -70 -10 -129l-106 -671q-5 -27 -31 -27h-176q-13 0 -20.5 7t-4.5 20l103 632q10 65 10 132q0 64 -37.5 104.5t-112.5 40.5q-86 0 -163 -59t-117 -140 l-113 -710q-6 -27 -31 -27h-176q-13 0 -20 7t-4 20z" />
<glyph unicode="o" horiz-adv-x="1136" d="M76 309q0 57 8 109l45 282q33 211 161.5 319.5t373.5 108.5q183 0 293 -96t110 -241q0 -53 -10 -115l-43 -270q-33 -215 -162.5 -322t-370.5 -107q-184 0 -294.5 95.5t-110.5 236.5zM311 344q1 -86 55 -131t144 -45q107 0 181 62.5t93 191.5l37 231q10 65 10 105 q0 83 -51 130.5t-145 47.5q-111 0 -184 -65t-93 -187l-39 -246q-8 -46 -8 -94z" />
<glyph unicode="p" d="M12 -399l217 1390q248 137 500 137q192 0 292.5 -91.5t100.5 -237.5q0 -58 -10 -113l-47 -299q-32 -202 -149.5 -306t-274.5 -104q-59 0 -113 19.5t-92 51t-63.5 61.5t-40.5 59l-90 -569q-3 -27 -33 -27h-174q-11 0 -17.5 8t-5.5 21zM369 395q9 -88 77.5 -157.5 t159.5 -69.5q193 0 234 256l41 260q6 35 6 78q0 85 -50.5 129.5t-142.5 44.5q-139 0 -248 -53z" />
<glyph unicode="q" horiz-adv-x="1187" d="M78 289q0 81 8 133l45 283q67 423 506 423q132 0 259.5 -38t227.5 -91l-217 -1396q-5 -31 -39 -31h-155q-33 0 -33 38v7l94 588q-144 -228 -393 -228q-140 0 -221.5 90.5t-81.5 221.5zM311 324q0 -67 41 -111.5t113 -44.5q98 0 189 66t145 169l82 496q-134 49 -246 49 q-122 0 -191 -73.5t-92 -231.5l-33 -207q-8 -53 -8 -112z" />
<glyph unicode="r" horiz-adv-x="765" d="M70 27l166 1056q3 27 30 27h170q27 0 23 -29l-27 -186q58 96 154 164.5t202 68.5q35 0 35 -28q0 -7 -2 -15l-47 -172q-8 -29 -22 -35t-56 -6q-71 0 -155.5 -35t-124.5 -92l-115 -718q-1 -13 -10 -20t-19 -7h-182q-10 0 -16.5 7t-3.5 20z" />
<glyph unicode="s" horiz-adv-x="919" d="M31 242q-5 14 -5 26q0 25 25 35l111 41q38 14 49 -22q23 -67 80.5 -111.5t152.5 -44.5q80 0 125 38t45 99q0 54 -47 89.5t-170 94.5q-11 4 -16 7q-55 27 -96 55t-78 65.5t-56.5 86t-19.5 106.5q0 139 105 230t272 91q147 0 246.5 -69.5t130.5 -163.5q5 -18 -2.5 -30.5 t-20.5 -16.5l-121 -43q-19 -6 -28 -1.5t-15 21.5q-19 56 -69 89.5t-121 33.5q-77 0 -116.5 -36.5t-39.5 -90.5q0 -52 45.5 -88t171.5 -100q127 -63 197 -137t70 -185q0 -139 -110 -236.5t-284 -97.5q-86 0 -157 22t-119.5 61t-81.5 84t-53 98z" />
<glyph unicode="t" horiz-adv-x="776" d="M111 907l22 135q2 10 10 18.5t19 8.5h129l41 250q7 27 30 27h177q9 0 15 -7.5t3 -19.5l-39 -250h225q11 0 16 -8.5t3 -18.5l-21 -135q-7 -26 -30 -26h-215l-84 -521q-6 -42 -6 -63q0 -52 24 -75t86 -23h107q28 0 24 -29l-22 -141q-4 -29 -35 -29h-160q-124 0 -194 66.5 t-70 171.5q0 26 8 92l90 551h-133q-24 0 -20 26z" />
<glyph unicode="u" horiz-adv-x="1175" d="M98 270q0 70 13 150l106 663q3 27 29 27h180q11 0 17.5 -6.5t5.5 -18.5l-103 -643q-12 -78 -12 -123q0 -68 36.5 -109.5t108.5 -41.5q83 0 169.5 72.5t125.5 162.5l109 680q2 12 10 19.5t20 7.5h181q10 0 16.5 -7t5.5 -18l-166 -1058q-7 -27 -28 -27h-174 q-11 0 -17.5 7.5t-5.5 19.5l29 184q-23 -39 -58 -77t-82 -74.5t-108 -59.5t-123 -23q-131 0 -208 83.5t-77 209.5z" />
<glyph unicode="v" horiz-adv-x="958" d="M84 1079q-4 31 22 31h193q12 0 19.5 -8.5t9.5 -22.5l67 -473q33 -240 33 -411h4q70 223 154 407l215 477q12 31 39 31h188q12 0 15.5 -9.5t-1.5 -21.5l-507 -1052q-12 -27 -39 -27h-189q-28 0 -35 27z" />
<glyph unicode="w" horiz-adv-x="1445" d="M96 1079q-4 31 27 31h186q29 0 29 -29l35 -485q9 -126 9 -249q0 -74 -3 -148h8q47 188 123 393l182 491q10 27 33 27h186q27 0 27 -27l29 -485q13 -176 13 -318q0 -42 -1 -81h8q45 197 119 395l178 487q10 29 33 29h178q26 0 14 -31l-419 -1052q-12 -27 -35 -27h-213 q-26 0 -29 27l-31 383q-14 191 -14 309q0 48 2 84h-4q-47 -205 -119 -389l-153 -387q-10 -27 -37 -27h-215q-24 0 -27 27z" />
<glyph unicode="x" horiz-adv-x="958" d="M-64 12q-5 12 3 23l413 536l-233 504q-6 13 0 24t18 11h185q25 0 36 -29l150 -366l266 372q16 23 37 23h195q18 0 21.5 -11.5t-7.5 -23.5l-408 -534l234 -512q6 -9 0 -19t-23 -10h-184q-25 0 -37 27l-145 362l-264 -362q-20 -27 -48 -27h-194q-10 0 -15 12z" />
<glyph unicode="y" horiz-adv-x="989" d="M-2 -301q-19 34 14 49q94 44 162.5 105.5t126.5 164.5l-199 1065q-2 9 2.5 18t16.5 9h201q19 0 22 -23l127 -813l348 807q12 29 37 29h180q13 0 19.5 -10t1.5 -21l-512 -1069q-76 -156 -192 -275.5t-232 -174.5q-21 -10 -33.5 -9.5t-19.5 13.5z" />
<glyph unicode="z" horiz-adv-x="919" d="M-20 115l624 803h-434q-11 0 -16.5 7t-3.5 17l20 141q2 10 9 18.5t18 8.5h692q26 0 29 -27l12 -90l-617 -800h488q11 0 16.5 -7.5t3.5 -17.5l-20 -141q-7 -27 -31 -27h-745q-22 0 -29 27z" />
<glyph unicode="{" horiz-adv-x="761" d="M98 563l21 127q3 25 33 25q99 4 146 54t64 165l52 321q21 136 97.5 216.5t205.5 80.5h108q25 0 21 -26l-23 -142q-3 -24 -28 -24h-64q-95 0 -115 -105l-59 -387q-15 -100 -81.5 -166t-160.5 -81v-5q84 -16 132 -79t32 -158l-55 -365q-9 -63 10 -91.5t74 -28.5h57 q11 0 17 -7.5t4 -17.5l-21 -143q-4 -25 -30 -25h-109q-125 0 -178.5 81.5t-32.5 211.5l57 366q12 76 -26 120t-121 50q-30 3 -27 33z" />
<glyph unicode="|" horiz-adv-x="604" d="M27 -506l329 2103q6 27 33 27h162q29 0 24 -29l-327 -2101q-6 -26 -33 -26h-162q-29 0 -26 26z" />
<glyph unicode="}" horiz-adv-x="739" d="M-55 -264l22 139q4 25 31 25h55q55 0 84.5 29t38.5 91l57 365q13 95 79.5 163.5t152.5 82.5l2 6q-84 12 -127.5 76.5t-30.5 160.5l60 381q16 101 -80 101h-62q-12 0 -18 7.5t-4 18.5l22 138q0 10 7 17t20 7h108q128 0 180 -79.5t31 -215.5l-49 -307q-17 -117 12.5 -163.5 t131.5 -55.5q29 -4 26 -27l-22 -133q-1 -13 -9 -17.5t-26 -6.5q-180 -18 -201 -170l-59 -375q-21 -130 -98 -206.5t-203 -76.5h-109q-11 0 -17.5 7.5t-4.5 17.5z" />
<glyph unicode="~" horiz-adv-x="1062" d="M51 608q17 29 39 55t55 54t79 44.5t98 16.5q66 0 145.5 -27t152 -54t121.5 -27q48 0 80 19.5t62 58.5q21 26 37 10l90 -70q13 -10 0 -33q-33 -70 -102 -121t-169 -51q-76 0 -155 27.5t-147 54.5t-118 27q-45 0 -74.5 -22t-62.5 -64q-17 -25 -32 -10l-97 82q-9 9 -2 30z " />
<glyph unicode="&#xa1;" horiz-adv-x="702" d="M104 -354l191 1016q5 20 29 20h110q24 0 21 -20l-129 -1016q-4 -23 -27 -23h-174q-24 0 -21 23zM309 913l27 181q3 34 37 34h147q33 0 27 -34l-29 -183q-3 -18 -10 -25t-25 -7h-149q-31 0 -25 34z" />
<glyph unicode="&#xa2;" horiz-adv-x="1030" d="M88 430l43 262q27 177 128 283.5t257 138.5l25 162q6 27 30 27h166q21 0 29 -8.5t4 -30.5l-22 -152q111 -27 178 -107.5t75 -185.5q3 -44 -30 -49l-144 -20q-21 -3 -31.5 4.5t-11.5 31.5q-5 71 -43 109.5t-125 38.5q-96 0 -166 -64t-94 -211l-37 -231q-39 -252 173 -252 q87 0 144.5 42.5t84.5 103.5q20 42 55 26l119 -57q14 -6 16 -25t-8 -37q-107 -198 -332 -235l-26 -172q-6 -27 -31 -27h-176q-31 0 -25 27l29 174q-144 33 -213.5 148t-40.5 286z" />
<glyph unicode="&#xa3;" horiz-adv-x="1232" d="M68 92q1 4 3.5 9.5t8.5 13t11.5 14.5t15 18.5t16.5 20.5q144 184 180 410q0 20 6 47h-157q-17 0 -23.5 7t-3.5 19l22 146q0 10 8 18t21 8h152q1 33 -0.5 86.5t-1.5 69.5q0 237 139 381.5t371 144.5q149 0 249.5 -81.5t128.5 -219.5q5 -26 -1.5 -39.5t-28.5 -19.5 l-127 -33q-43 -10 -49 33q-14 78 -60 112.5t-139 34.5q-124 0 -184 -78t-60 -213q0 -18 1.5 -80.5t0.5 -97.5h301q23 0 23 -26l-25 -146q-3 -26 -28 -26h-293q-40 -265 -152 -414h637q24 0 19 -27l-25 -155q-6 -29 -31 -29h-889q-11 7 -24.5 43t-11.5 49z" />
<glyph unicode="&#xa4;" horiz-adv-x="1355" d="M76 530l16 123q8 27 31 27h149l17 121h-144q-27 0 -24 28l20 127q7 27 31 27h147l7 39q33 213 192.5 348t388.5 135q98 0 181 -28.5t139 -77t91 -108.5t48 -126q8 -45 -33 -57l-151 -43q-15 -5 -25.5 1t-11.5 21q-30 218 -266 218q-133 0 -214 -76t-100 -203l-6 -43h359 q30 0 22 -27l-20 -127q-3 -28 -31 -28h-359l-18 -121h360q24 0 19 -27l-19 -123q-3 -28 -28 -28h-359l-10 -53q-6 -60 -6 -72q0 -205 231 -205q246 0 332 215q19 45 53 31l123 -49q22 -9 27.5 -29.5t-6.5 -46.5q-77 -158 -213 -238t-346 -80q-214 0 -327.5 103.5 t-113.5 292.5q0 31 9 96l4 35h-144q-28 0 -22 28z" />
<glyph unicode="&#xa5;" horiz-adv-x="1095" d="M96 1456q-4 10 0 19.5t13 9.5h198q22 0 33 -27l227 -649l428 657q11 19 27 19h209q12 0 16 -11t-2 -20l-590 -860l-6 -29h301q23 0 19 -28l-21 -134q-2 -11 -9.5 -19.5t-18.5 -8.5h-299l-58 -348q-3 -27 -28 -27h-189q-26 0 -20 27l55 348h-242q-20 0 -20 28l22 136 q4 26 29 26h240l6 29z" />
<glyph unicode="&#xa6;" horiz-adv-x="577" d="M12 -510l144 913q1 12 10 19.5t16 7.5h166q9 0 14.5 -7.5t4.5 -19.5l-142 -913q-7 -27 -26 -27h-166q-9 0 -16.5 7.5t-4.5 19.5zM199 682l143 915q3 13 11.5 20t17.5 7h166q8 0 12.5 -8.5t3.5 -18.5l-141 -915q-1 -10 -9.5 -17.5t-17.5 -7.5h-166q-9 0 -16 7t-4 18z" />
<glyph unicode="&#xa7;" horiz-adv-x="1089" d="M88 109q0 6 1.5 10t2.5 6.5t5.5 5t6 3.5t7 3t6.5 2l141 37q17 3 25.5 -1t11.5 -23q13 -71 60.5 -114.5t127.5 -43.5q74 0 117 45t43 121q0 62 -52 108t-163 101q-116 59 -172.5 121.5t-56.5 156.5q0 99 63 179.5t162 113.5q-160 94 -160 240q0 65 24.5 124.5t71.5 108.5 t125 78t177 29q138 0 227.5 -72t109.5 -174q6 -28 -18 -35l-143 -45q-15 -4 -21.5 0.5t-11.5 19.5q-30 132 -158 132q-73 0 -112 -34.5t-39 -86.5q0 -53 44 -92.5t179 -104.5q126 -59 185 -123t59 -155q0 -107 -65.5 -192.5t-170.5 -121.5q164 -105 164 -254 q0 -161 -116.5 -263.5t-303.5 -102.5q-150 0 -250 75t-131 205q-2 7 -2 13zM414 672q0 -58 44 -99t107 -41q72 0 125 49.5t53 123.5q0 65 -43.5 100t-115.5 35q-71 0 -120.5 -50t-49.5 -118z" />
<glyph unicode="&#xa8;" horiz-adv-x="970" d="M176 1290l27 178q8 35 37 35h137q16 0 24 -9t5 -26l-29 -178q-6 -35 -37 -35h-139q-31 0 -25 35zM565 1290l27 178q8 35 37 35h137q16 0 24 -9t5 -26l-29 -178q-6 -35 -39 -35h-137q-31 0 -25 35z" />
<glyph unicode="&#xa9;" horiz-adv-x="1656" d="M96 586q0 177 66 335.5t178.5 272.5t269 181t330.5 67q287 0 454 -163t167 -427q0 -160 -63.5 -314t-173.5 -273t-270.5 -192t-340.5 -73q-281 0 -449 158t-168 428zM250 610q0 -212 130.5 -341.5t356.5 -129.5q131 0 254.5 57.5t214.5 151t146 220.5t55 259 q0 207 -132 341.5t-355 134.5q-143 0 -269 -57t-213 -152.5t-137.5 -221.5t-50.5 -262zM489 612l31 203q23 157 124 240.5t253 83.5q61 0 111.5 -21.5t82 -56.5t49.5 -75t21 -81q0 -23 -22 -28l-109 -23q-31 -9 -31 20q-4 50 -32 84.5t-88 34.5q-159 0 -189 -202l-26 -175 q-13 -96 17.5 -140t106.5 -44q64 0 104 33t56 78q11 27 35 18l100 -47q23 -11 9 -39q-40 -87 -127 -136.5t-203 -49.5q-143 0 -218.5 86.5t-54.5 236.5z" />
<glyph unicode="&#xaa;" horiz-adv-x="841" d="M106 903q0 24 2 47t6 49.5t5 36.5l28 181q22 142 114.5 216t223.5 74q98 0 182 -28.5t175 -77.5l-105 -672q-6 -27 -32 -27h-125q-30 0 -23 35l21 119q-36 -64 -105 -117t-154 -53q-100 0 -156.5 62.5t-56.5 154.5zM276 932q0 -42 27.5 -70t73.5 -28q64 0 138.5 72.5 t90.5 166.5l41 256q-84 33 -151 33q-167 0 -189 -180l-18 -138q-13 -80 -13 -112z" />
<glyph unicode="&#xab;" horiz-adv-x="1107" d="M86 641l354 393q8 12 23 15.5t26 -5.5l97 -92q22 -17 2 -41l-275 -293l185 -346q11 -27 -17 -41l-104 -61q-18 -8 -30 -4.5t-17 14.5zM549 641l352 393q10 12 25 15.5t26 -5.5l97 -92q22 -17 2 -41l-277 -293l184 -346q15 -26 -14 -41l-104 -61q-33 -17 -49 10z" />
<glyph unicode="&#xac;" horiz-adv-x="1228" d="M76 584v118q0 27 24 27h1024v-536q0 -23 -28 -23h-111q-10 0 -18.5 7t-8.5 18v360h-858q-11 0 -17.5 8.5t-6.5 20.5z" />
<glyph unicode="&#xad;" horiz-adv-x="929" d="M88 547l23 129q4 26 28 26h682q24 0 21 -26l-23 -129q-3 -29 -28 -29h-678q-28 0 -25 29z" />
<glyph unicode="&#xae;" horiz-adv-x="950" d="M86 1034q0 126 58.5 233t173.5 174.5t264 67.5q163 0 262.5 -102t99.5 -262q0 -95 -34 -180.5t-96 -151.5t-157 -104.5t-208 -38.5q-112 0 -196 51t-125.5 133t-41.5 180zM184 1034q0 -124 71 -202t208 -78q176 0 280.5 112.5t104.5 278.5q0 125 -72 202.5t-207 77.5 q-176 0 -280.5 -112.5t-104.5 -278.5zM336 885l65 424h148q72 0 109.5 -33t37.5 -90q0 -51 -28.5 -92t-77.5 -60l59 -149q0 -11 -8 -11h-82q-10 0 -10 9l-47 145h-53l-23 -145q-4 -9 -10 -9h-74q-3 0 -5 3.5t-1 7.5zM459 1096h53q45 0 69.5 23t24.5 65q0 55 -65 55h-60z" />
<glyph unicode="&#xaf;" horiz-adv-x="831" d="M190 1350l19 123q4 26 29 26h485q22 0 18 -26l-18 -123q-2 -11 -10.5 -19t-20.5 -8h-483q-23 0 -19 27z" />
<glyph unicode="&#xb0;" horiz-adv-x="780" d="M106 1137q0 167 111.5 274t276.5 107q125 0 205.5 -79t80.5 -192q0 -172 -111 -277.5t-278 -105.5q-125 0 -205 81.5t-80 191.5zM268 1165q0 -62 40 -103.5t106 -41.5q81 0 140.5 57t59.5 144q0 61 -39.5 101t-105.5 40q-80 0 -140.5 -56.5t-60.5 -140.5z" />
<glyph unicode="&#xb1;" horiz-adv-x="1208" d="M88 31v131q0 10 10.5 19t24.5 9h375v46v294h-377q-33 0 -33 37v121q0 17 9.5 26t23.5 9h377v385q0 31 32 31h148q31 0 31 -31v-385h378q13 0 23 -9.5t10 -25.5v-121q0 -37 -33 -37h-378v-340h376q10 0 17.5 -4t11 -8.5t5 -13.5t2 -14t0 -15t-0.5 -12v-88q0 -35 -37 -35 h-960q-14 0 -24.5 10.5t-10.5 20.5z" />
<glyph unicode="&#xb2;" horiz-adv-x="790" d="M82 705l18 116q17 103 77 171.5t177 123.5q126 61 157 84q50 38 50 90q0 34 -25 55t-79 21q-99 0 -154 -90q-17 -30 -39 -21l-69 48q-29 14 -7 45q59 82 129.5 119.5t161.5 37.5q121 0 185.5 -57t64.5 -145q0 -100 -66 -160.5t-225 -130.5q-92 -42 -126.5 -76t-43.5 -86 h353q21 0 18 -27l-14 -88q-3 -30 -31 -30h-512z" />
<glyph unicode="&#xb3;" horiz-adv-x="741" d="M63 864q-8 30 19 41l82 35q29 11 35 -14q33 -88 133 -88q60 0 95.5 34.5t35.5 90.5q0 42 -29.5 66t-73.5 24h-75q-21 0 -15 26l13 74q5 27 26 27h70q63 0 97 29.5t34 76.5q-4 80 -107 80q-98 0 -147 -70q-13 -17 -23 -20t-20 6l-57 45q-24 20 -6 43q100 135 274 135 q125 0 190.5 -55t65.5 -145q0 -71 -45 -124.5t-103 -64.5q39 -14 68 -58.5t29 -101.5q0 -112 -87 -187t-218 -75q-108 0 -173 48.5t-88 121.5z" />
<glyph unicode="&#xb4;" horiz-adv-x="665" d="M176 1226q-4 7 4 19l207 279q13 18 39 18h147q12 0 16.5 -5t2.5 -12t-8 -14l-256 -280q-9 -12 -27 -12h-108q-13 0 -17 7z" />
<glyph unicode="&#xb5;" horiz-adv-x="1204" d="M12 -414l236 1495q3 29 28 29h173q11 0 17 -7.5t5 -19.5l-104 -655q-14 -94 31.5 -157.5t138.5 -63.5q95 0 175.5 59.5t90.5 120.5l108 696q1 12 10 19.5t21 7.5h180q10 0 17 -7t6 -18l-166 -1058q-7 -27 -29 -27h-168q-8 0 -13.5 8t-4.5 19l18 127q-49 -72 -120.5 -122 t-161.5 -50q-72 0 -119.5 36t-63.5 80l-79 -512q-1 -11 -10 -18.5t-19 -7.5h-174q-11 0 -17.5 7t-5.5 19z" />
<glyph unicode="&#xb6;" horiz-adv-x="1300" d="M127 848q0 126 47 240t133 203.5t220.5 142.5t297.5 53h467q25 0 25 -21l-23 -127q-3 -24 -28 -24h-115l-246 -1571q-6 -29 -39 -29h-139q-11 0 -18.5 7t-6.5 20l250 1573h-127l-135 -856h-158q-189 0 -297 94.5t-108 294.5z" />
<glyph unicode="&#xb7;" horiz-adv-x="540" d="M150 518l34 219q2 14 11.5 24.5t23.5 10.5h143q14 0 22 -9t7 -26l-37 -219q-7 -33 -37 -33h-143q-12 0 -19.5 9t-4.5 24z" />
<glyph unicode="&#xb8;" horiz-adv-x="548" d="M12 -319l43 63q11 17 25 8q83 -49 137 -49q76 0 86 53l2 11q8 35 -31 54t-118 9l30 205h148l-19 -109q76 0 114.5 -45t29.5 -110l-2 -19q-10 -67 -77 -118.5t-167 -51.5q-108 0 -197 66q-17 13 -4 33z" />
<glyph unicode="&#xb9;" horiz-adv-x="577" d="M78 719l16 112q5 15 17 15h133l67 436l-149 -14q-8 -2 -13.5 2.5t-5.5 11.5l4 84q0 17 13 20q145 35 178 54q11 7 53 57h123l-102 -651h123q16 0 12 -17l-17 -110q0 -12 -16 -12h-426q-6 0 -9 3.5t-1 8.5z" />
<glyph unicode="&#xba;" horiz-adv-x="833" d="M115 926q0 39 4 57l37 231q23 147 119.5 220t256.5 73q131 0 212 -64t81 -169q0 -22 -4 -68l-35 -223q-24 -148 -126.5 -221.5t-253.5 -73.5q-134 0 -212.5 69t-78.5 169zM285 961q0 -58 36 -94t105 -36q171 0 197 164l30 203q4 28 4 39q0 125 -145 125 q-83 0 -132.5 -43.5t-60.5 -120.5l-30 -188q-4 -24 -4 -49z" />
<glyph unicode="&#xbb;" horiz-adv-x="1144" d="M78 282.5q0 11.5 10 20.5l272 297l-182 336q-12 24 17 41l114 70q15 8 28 4t19 -17l234 -456l-359 -394q-8 -13 -23 -17.5t-26 5.5l-92 90q-12 9 -12 20.5zM546 282.5q0 11.5 9 20.5l272 297l-182 336q-12 24 17 41l114 70q15 8 28 4t19 -17l234 -456l-359 -394 q-8 -13 -23 -17.5t-26 5.5l-92 90q-11 9 -11 20.5z" />
<glyph unicode="&#xbc;" horiz-adv-x="1456" d="M78 698l18 111q0 4 4 8t9 4h131l67 430l-153 -14q-18 -3 -15 12q0 4 -0.5 22t0 28t1.5 24t5 21.5t11 9.5q24 8 72.5 21t66.5 20t44.5 23t45.5 40h121l-98 -637h120q15 0 11 -12q0 -13 -4 -33l-13 -78q-4 -12 -16 -12h-418q-6 0 -9 3.5t-1 8.5zM184 35l994 1438 q7 10 10.5 13.5t11 6t19.5 2.5h120q28 0 15 -22l-1008 -1453q-14 -20 -41 -20h-110q-34 0 -11 35zM737 309q0 11 11 25l458 567q13 16 29 8q12 -9 27 -18l61 -45q17 -11 -8 -41l-369 -455h152l22 123q1 7 6 10.5t13.5 5t15.5 1.5t19 -0.5t16 -0.5h67q8 0 14 -4.5t5 -11.5 l-19 -123h84q15 0 15 -18q-1 -5 -3 -13.5t-3 -13.5l-11 -63q-5 -23 -20 -23h-86l-23 -151q-3 -21 -20 -21h-125q-19 0 -16 21l24 151h-315q-7 0 -11.5 6t-6 17t-2 21.5t-1 25t-0.5 20.5z" />
<glyph unicode="&#xbd;" horiz-adv-x="1564" d="M78 698l18 111q0 4 4 8t9 4h131l67 430l-153 -14q-18 -3 -15 12q0 4 -0.5 22t0 28t1.5 24t5 21.5t11 9.5q24 8 72.5 21t66.5 20t44.5 23t45.5 40h121l-98 -637h120q15 0 11 -12q0 -13 -4 -33l-13 -78q-4 -12 -16 -12h-418q-6 0 -9 3.5t-1 8.5zM184 35l994 1438 q7 10 10.5 13.5t11 6t19.5 2.5h120q28 0 15 -22l-1008 -1453q-14 -20 -41 -20h-110q-34 0 -11 35zM850 106l18 117q19 105 78 172.5t176 122.5q125 61 155 83q51 39 52 91q0 34 -25 55t-79 21q-99 0 -154 -90q-20 -29 -39 -21l-69 48q-30 13 -7 45q110 157 291 157 q120 0 185 -57t65 -145q0 -52 -17 -92t-57 -74.5t-89 -62t-128 -62.5q-92 -42 -127 -76t-43 -86h350q24 0 21 -27l-14 -88q-6 -31 -33 -31h-510z" />
<glyph unicode="&#xbe;" horiz-adv-x="1497" d="M57 803q-7 30 21 41l82 35q27 8 35 -17q29 -86 133 -86q59 0 94 34t35 91q0 42 -28.5 66t-72.5 24h-75q-20 0 -17 25l12 76q5 26 29 26h68q64 0 97.5 29.5t33.5 77.5q-4 80 -107 80q-95 0 -147 -70q-21 -33 -43 -14l-57 45q-23 23 -7 43q103 135 277 135q124 0 189 -56 t65 -145q0 -71 -44 -124t-104 -64q41 -14 70 -58.5t29 -101.5q0 -112 -88 -187t-218 -75q-108 0 -174 48t-88 122zM199 35l1013 1438q9 10 12.5 13.5t11.5 6t21 2.5h119q14 0 17.5 -7.5t-2.5 -14.5l-1031 -1453q-14 -20 -41 -20h-108q-39 0 -12 35zM793 309q0 12 8 25 l459 567q13 17 28 8l86 -61q15 -12 -2 -35l-375 -463h154l23 123q3 16 20 16h117q8 0 13.5 -4.5t4.5 -11.5l-18 -123h84q18 0 14 -18l-16 -99q-2 -8 -8 -15t-13 -7h-86l-22 -143q-1 -10 -7.5 -15.5t-13.5 -5.5h-123q-19 0 -16 21l22 143h-317q-5 0 -7.5 1.5t-4 5t-2.5 9.5z " />
<glyph unicode="&#xbf;" horiz-adv-x="868" d="M-27 -139q0 44 4 67q11 67 44.5 128t76 105t92 92t91.5 88.5t75 94.5t43 111l11 59q1 17 11.5 26t24.5 9h140q28 0 24 -33l-12 -73q-11 -69 -43.5 -132t-72.5 -107.5t-86.5 -91t-86 -83.5t-69 -82.5t-37.5 -91.5q-2 -14 -2 -43q2 -69 43.5 -108.5t124.5 -39.5 q133 0 239 125q24 30 47 0l78 -94q14 -19 -14 -51q-78 -79 -181.5 -127.5t-224.5 -48.5q-152 0 -246 90.5t-94 210.5zM449 862l28 182q1 16 12 25.5t25 9.5h137q14 0 22 -10t5 -25l-29 -182q-3 -14 -12.5 -24.5t-22.5 -10.5h-139q-14 0 -21.5 9t-4.5 26z" />
<glyph unicode="&#xc0;" d="M-67 9.5q-4 9.5 1 21.5l674 1433q19 37 45 37h201q31 0 37 -37l215 -1433q5 -31 -21 -31h-192q-26 0 -29 29l-49 366h-473l-164 -366q-7 -18 -15.5 -23.5t-23.5 -5.5h-190q-12 0 -16 9.5zM436 602h355l-76 655zM511 1962q4 10 21 10h148q26 0 33 -18l121 -279 q6 -11 -1 -18.5t-20 -7.5h-108q-17 0 -23 12l-168 281q-7 10 -3 20z" />
<glyph unicode="&#xc1;" d="M-67 9.5q-4 9.5 1 21.5l674 1433q19 37 45 37h201q31 0 37 -37l215 -1433q5 -31 -21 -31h-192q-26 0 -29 29l-49 366h-473l-164 -366q-7 -18 -15.5 -23.5t-23.5 -5.5h-190q-12 0 -16 9.5zM436 602h355l-76 655zM688 1658q-4 7 4 19l207 279q11 18 39 18h145 q18 0 20.5 -10t-7.5 -20l-256 -281q-9 -12 -29 -12h-106q-13 0 -17 7z" />
<glyph unicode="&#xc2;" d="M-67 9.5q-4 9.5 1 21.5l674 1433q19 37 45 37h201q31 0 37 -37l215 -1433q5 -31 -21 -31h-192q-26 0 -29 29l-49 366h-473l-164 -366q-7 -18 -15.5 -23.5t-23.5 -5.5h-190q-12 0 -16 9.5zM436 602h355l-76 655zM503 1658.5q-2 7.5 5 14.5l203 256q12 14 19.5 17.5 t25.5 3.5h106q16 0 22 -4.5t11 -16.5l127 -256q5 -9 -0.5 -15.5t-17.5 -6.5h-113q-13 0 -18.5 4.5t-10.5 15.5l-67 172l-123 -174q-15 -18 -31 -18h-123q-13 0 -15 7.5z" />
<glyph unicode="&#xc3;" d="M-67 9.5q-4 9.5 1 21.5l674 1433q7 13 15.5 21.5t22 12t20.5 4t25.5 0t21.5 -0.5h141q31 0 37 -37l215 -1433q5 -31 -21 -31h-192q-26 0 -29 29l-49 366h-473l-164 -366q-7 -18 -15.5 -23.5t-23.5 -5.5h-190q-12 0 -16 9.5zM436 602h355l-76 655zM449 1753 q-12 15 24.5 53t97.5 71.5t109 33.5q37 0 71 -13t54.5 -29t44 -29t41.5 -13q24 0 45 10.5t33.5 24t25 26t18.5 17t15 -3.5l66 -82q13 -16 -4 -33q-39 -49 -98 -86t-118 -37q-50 0 -89.5 22t-69.5 44t-56 22q-58 0 -114 -74q-3 -6 -10 -6.5t-15 6.5z" />
<glyph unicode="&#xc4;" d="M-67 9.5q-4 9.5 1 21.5l674 1433q19 37 45 37h201q31 0 37 -37l215 -1433q5 -31 -21 -31h-192q-26 0 -29 29l-49 366h-473l-164 -366q-7 -18 -15.5 -23.5t-23.5 -5.5h-190q-12 0 -16 9.5zM436 602h355l-76 655zM485 1690l27 178q8 35 37 35h137q14 0 22 -9t5 -26 l-27 -178q-6 -35 -37 -35h-139q-14 0 -21 10t-4 25zM872 1690l29 178q8 35 37 35h137q14 0 22 -9t5 -26l-27 -178q-3 -17 -14 -26t-25 -9h-137q-14 0 -22 10t-5 25z" />
<glyph unicode="&#xc5;" d="M-67 9.5q-4 9.5 1 21.5l674 1433q19 37 45 37h201q31 0 37 -37l215 -1433q5 -31 -21 -31h-192q-26 0 -29 29l-49 366h-473l-164 -366q-7 -18 -15.5 -23.5t-23.5 -5.5h-190q-12 0 -16 9.5zM436 602h355l-76 655zM604 1765q12 81 76 134t145 53q83 0 129 -52.5t33 -134.5 q-10 -79 -74 -131.5t-147 -52.5q-82 0 -128 52.5t-34 131.5zM715 1765q-5 -35 13.5 -57t53.5 -22q36 0 64.5 22t32.5 57q4 37 -15.5 59.5t-56.5 22.5q-34 0 -60 -23.5t-32 -58.5z" />
<glyph unicode="&#xc6;" horiz-adv-x="1708" d="M-63.5 9.5q-4.5 9.5 2.5 21.5l895 1417q12 19 21.5 28t23.5 9h860q11 0 16.5 -9.5t3.5 -21.5l-24 -156q-2 -11 -9.5 -18.5t-17.5 -7.5h-551l-63 -414h499q21 0 21 -27l-25 -153q-2 -10 -9.5 -18.5t-18.5 -8.5h-500l-70 -438h549q28 0 23 -29l-27 -157q-4 -27 -27 -27 h-759q-11 0 -19.5 8t-7.5 21l45 286h-403l-177 -286q-12 -18 -20 -23.5t-21 -5.5h-194q-12 0 -16.5 9.5zM492 518h309l104 664z" />
<glyph unicode="&#xc7;" horiz-adv-x="1179" d="M94 403q0 61 8 111l80 500q36 232 183 361.5t393 129.5q93 0 174.5 -30t137.5 -80.5t89.5 -116.5t38.5 -137q3 -46 -33 -51l-139 -25q-23 -4 -33.5 2.5t-13.5 28.5q-10 84 -71.5 140t-164.5 56q-134 0 -220 -82.5t-111 -234.5l-70 -447q-10 -45 -10 -110q0 -97 64 -161 t175 -64q115 0 190 53t109 145q17 43 60 25l139 -49q21 -7 24 -24t-8 -46q-49 -125 -166.5 -211t-283.5 -104l-12 -78q76 0 114 -45.5t29 -110.5l-2 -18q-10 -66 -78 -118t-168 -52q-113 0 -194 65q-18 13 -7 33l45 63q12 18 25 9q77 -49 135 -49q78 0 88 53l2 10 q6 35 -32 54t-117 9l24 173q-99 10 -176.5 50.5t-123.5 100.5t-69.5 129t-23.5 143z" />
<glyph unicode="&#xc8;" horiz-adv-x="1060" d="M74 0l229 1485h789q24 0 20 -31l-25 -154q-4 -26 -26 -26h-549l-66 -416h500q21 0 21 -27l-25 -153q-2 -10 -10 -18.5t-19 -8.5h-497l-72 -440h549q27 0 22 -29l-24 -155q-8 -27 -29 -27h-788zM460.5 1960.5q4.5 9.5 22.5 9.5h146q26 0 35 -18l120 -277q4 -13 -1.5 -20.5 t-18.5 -7.5h-109q-18 0 -24 12l-166 283q-9 9 -4.5 18.5z" />
<glyph unicode="&#xc9;" horiz-adv-x="1060" d="M74 0l229 1485h789q24 0 20 -31l-25 -154q-4 -26 -26 -26h-549l-66 -416h500q21 0 21 -27l-25 -153q-2 -10 -10 -18.5t-19 -8.5h-497l-72 -440h549q27 0 22 -29l-24 -155q-8 -27 -29 -27h-788zM661.5 1656q-3.5 7 4.5 19l206 279q11 18 39 18h146q18 0 20 -10t-8 -20 l-256 -281q-9 -12 -29 -12h-106q-13 0 -16.5 7z" />
<glyph unicode="&#xca;" horiz-adv-x="1060" d="M74 0l229 1485h789q24 0 20 -31l-25 -154q-4 -26 -26 -26h-549l-66 -416h500q21 0 21 -27l-25 -153q-2 -10 -10 -18.5t-19 -8.5h-497l-72 -440h549q27 0 22 -29l-24 -155q-8 -27 -29 -27h-788zM479 1673l203 256l10.5 10.5t8 6t11.5 4t15 0.5h107q11 0 17.5 -3.5 t8.5 -6.5t6 -11l127 -258q5 -9 -0.5 -15.5t-17.5 -6.5h-113q-19 0 -28 22l-68 170l-123 -174q-15 -18 -31 -18h-123q-26 0 -10 24z" />
<glyph unicode="&#xcb;" horiz-adv-x="1060" d="M74 0l229 1485h789q24 0 20 -31l-25 -154q-4 -26 -26 -26h-549l-66 -416h500q21 0 21 -27l-25 -153q-2 -10 -10 -18.5t-19 -8.5h-497l-72 -440h549q27 0 22 -29l-24 -155q-8 -27 -29 -27h-788zM432 1704l27 178q8 35 37 35h137q14 0 21.5 -9t4.5 -26l-26 -178 q-6 -35 -37 -35h-139q-31 0 -25 35zM819 1704l29 178q8 35 37 35h137q14 0 22 -9t5 -26l-27 -178q-3 -17 -14 -26t-25 -9h-137q-14 0 -22 9t-5 26z" />
<glyph unicode="&#xcc;" horiz-adv-x="563" d="M76 27l225 1431q1 13 10 20t19 7h188q11 0 16.5 -7.5t4.5 -19.5l-222 -1431q-7 -27 -30 -27h-189q-10 0 -17.5 7.5t-4.5 19.5zM184 1964q5 10 23 10h145q26 0 35 -18l119 -279q6 -11 0 -18.5t-19 -7.5h-108q-19 0 -25 12l-168 281q-7 10 -2 20z" />
<glyph unicode="&#xcd;" horiz-adv-x="563" d="M76 27l225 1431q1 13 10 20t19 7h188q11 0 16.5 -7.5t4.5 -19.5l-222 -1431q-7 -27 -30 -27h-189q-10 0 -17.5 7.5t-4.5 19.5zM389 1654.5q-4 7.5 4 20.5l207 277q14 18 39 18h147q12 0 16.5 -4.5t2.5 -11t-8 -12.5l-256 -283q-9 -12 -27 -12h-108q-13 0 -17 7.5z" />
<glyph unicode="&#xce;" horiz-adv-x="563" d="M76 27l225 1431q1 13 10 20t19 7h188q11 0 16.5 -7.5t4.5 -19.5l-222 -1431q-7 -27 -30 -27h-189q-10 0 -17.5 7.5t-4.5 19.5zM197 1671l204 256q8 10 12 13t12 5.5t21 2.5h105q11 0 18 -3.5t9 -6t8 -11.5l125 -258q4 -9 -1 -15.5t-16 -6.5h-112q-22 0 -31 22l-68 170 l-123 -174q-12 -18 -30 -18h-123q-26 0 -10 24z" />
<glyph unicode="&#xcf;" horiz-adv-x="563" d="M76 27l225 1431q1 13 10 20t19 7h188q11 0 16.5 -7.5t4.5 -19.5l-222 -1431q-7 -27 -30 -27h-189q-10 0 -17.5 7.5t-4.5 19.5zM164 1704l29 178q8 35 34 35h140q14 0 21.5 -9t4.5 -26l-26 -178q-3 -16 -13.5 -25.5t-23.5 -9.5h-142q-13 0 -20 9t-4 26zM553 1704l29 178 q8 35 34 35h140q14 0 21.5 -9t4.5 -26l-26 -178q-3 -17 -14 -26t-25 -9h-139q-13 0 -20.5 9.5t-4.5 25.5z" />
<glyph unicode="&#xd0;" horiz-adv-x="1318" d="M41 688l22 135q5 27 27 27h123l98 635h492q211 0 338 -117.5t127 -296.5q0 -45 -11 -106l-75 -500q-34 -215 -182 -340t-408 -125h-510l100 659h-116q-28 0 -25 29zM352 211h244q159 0 244.5 75t109.5 228l70 438q8 54 8 95q0 227 -262 227h-248l-67 -424h272q12 0 17 -8 t3 -19l-22 -135q-3 -29 -31 -29h-268z" />
<glyph unicode="&#xd1;" horiz-adv-x="1421" d="M76 27l223 1425q4 33 33 33h270q22 0 31 -27q23 -74 93 -294.5t105 -332.5t83.5 -280.5t80.5 -294.5h6q20 253 58 496l110 708q4 25 27 25h180q25 0 21 -25l-223 -1433q-7 -27 -31 -27h-254q-24 0 -33 27l-235 718q-84 237 -144 482h-6q-18 -246 -47 -424l-121 -776 q-6 -27 -27 -27h-180q-10 0 -16.5 8t-3.5 19zM596 1761q-12 15 24.5 53t98 71.5t110.5 33.5q36 0 69.5 -13t54 -29t44 -29t41.5 -13q29 0 54.5 15.5t38 32t27 27t20.5 -0.5l63 -82q11 -16 -4 -35q-38 -49 -96.5 -85t-118.5 -36q-50 0 -89.5 22t-69.5 44t-56 22 q-58 0 -113 -73q-11 -18 -26 -3z" />
<glyph unicode="&#xd2;" horiz-adv-x="1331" d="M94 418q0 44 8 94l78 504q36 241 186 365t441 124q113 0 204.5 -35t149.5 -95.5t88.5 -139t30.5 -168.5q0 -26 -8 -88l-80 -522q-37 -242 -192 -362t-435 -120q-116 0 -207.5 37t-148 99.5t-86 141t-29.5 165.5zM330 428q0 -108 67.5 -173t202.5 -65q162 0 249 79.5 t114 244.5l71 447q8 58 8 90q0 107 -66.5 174t-201.5 67q-169 0 -254 -84t-110 -241l-72 -445q-8 -54 -8 -94zM573 1963.5q5 10.5 21 10.5h147q26 0 35 -18l119 -279q6 -11 -1 -18.5t-20 -7.5h-106q-19 0 -25 12l-168 281q-7 9 -2 19.5z" />
<glyph unicode="&#xd3;" horiz-adv-x="1331" d="M94 418q0 44 8 94l78 504q36 241 186 365t441 124q113 0 204.5 -35t149.5 -95.5t88.5 -139t30.5 -168.5q0 -26 -8 -88l-80 -522q-37 -242 -192 -362t-435 -120q-116 0 -207.5 37t-148 99.5t-86 141t-29.5 165.5zM330 428q0 -108 67.5 -173t202.5 -65q162 0 249 79.5 t114 244.5l71 447q8 58 8 90q0 107 -66.5 174t-201.5 67q-169 0 -254 -84t-110 -241l-72 -445q-8 -54 -8 -94zM753.5 1656.5q-3.5 7.5 4.5 20.5l207 277q13 18 41 18h145q18 0 20 -9.5t-10 -18.5l-256 -283q-9 -12 -26 -12h-109q-13 0 -16.5 7.5z" />
<glyph unicode="&#xd4;" horiz-adv-x="1331" d="M94 418q0 44 8 94l78 504q36 241 186 365t441 124q113 0 204.5 -35t149.5 -95.5t88.5 -139t30.5 -168.5q0 -26 -8 -88l-80 -522q-37 -242 -192 -362t-435 -120q-116 0 -207.5 37t-148 99.5t-86 141t-29.5 165.5zM330 428q0 -108 67.5 -173t202.5 -65q162 0 249 79.5 t114 244.5l71 447q8 58 8 90q0 107 -66.5 174t-201.5 67q-169 0 -254 -84t-110 -241l-72 -445q-8 -54 -8 -94zM568.5 1656.5q-2.5 7.5 4.5 16.5l203 254q13 15 20 19t25 4h107q16 0 22 -5t11 -18l126 -256q5 -9 -0.5 -15.5t-17.5 -6.5h-113q-13 0 -18 4.5t-10 17.5l-68 170 l-123 -174q-15 -18 -30 -18h-123q-13 0 -15.5 7.5z" />
<glyph unicode="&#xd5;" horiz-adv-x="1331" d="M94 428q0 29 2 47l84 541q37 242 186 365.5t441 123.5q113 0 204.5 -35t149.5 -95.5t88.5 -139t30.5 -168.5q0 -26 -8 -88l-80 -522q-37 -242 -192 -362t-435 -120q-193 0 -311 95t-148 243q-12 53 -12 115zM330 428q0 -108 67.5 -173t202.5 -65q162 0 249 79.5 t114 244.5l67 418l8 61q4 23 4 58q0 107 -66.5 174t-201.5 67q-169 0 -254 -84t-110 -241l-76 -480q-4 -23 -4 -59zM500 1753q-12 15 24.5 53t98 71.5t110.5 33.5q36 0 69.5 -13t54 -29t44 -29t41.5 -13q24 0 45.5 10.5t33.5 24.5t25 26.5t19.5 16.5t15.5 -4l64 -82 q13 -16 -4 -33q-38 -49 -96.5 -85t-118.5 -36q-50 0 -89.5 21.5t-69.5 43t-56 21.5q-57 0 -113 -74q-12 -15 -27 0z" />
<glyph unicode="&#xd6;" horiz-adv-x="1331" d="M94 418q0 44 8 94l78 504q36 241 186 365t441 124q113 0 204.5 -35t149.5 -95.5t88.5 -139t30.5 -168.5q0 -26 -8 -88l-80 -522q-37 -242 -192 -362t-435 -120q-116 0 -207.5 37t-148 99.5t-86 141t-29.5 165.5zM330 428q0 -108 67.5 -173t202.5 -65q162 0 249 79.5 t114 244.5l71 447q8 58 8 90q0 107 -66.5 174t-201.5 67q-169 0 -254 -84t-110 -241l-72 -445q-8 -54 -8 -94zM512 1690l29 178q8 35 34 35h140q14 0 21.5 -9t4.5 -26l-26 -178q-3 -16 -13.5 -25.5t-23.5 -9.5h-141q-12 0 -20 10t-5 25zM901 1690l29 178q8 35 35 35h139 q14 0 21.5 -9t4.5 -26l-26 -178q-3 -17 -14 -26t-25 -9h-139q-12 0 -20 10t-5 25z" />
<glyph unicode="&#xd7;" horiz-adv-x="1124" d="M88 285l342 342l-334 336q-25 22 -2 45l86 88q21 19 43 4l338 -342l342 342q5 7 17 6.5t22 -10.5l86 -86q26 -23 2 -47l-336 -336l340 -340q22 -23 -2 -47l-82 -82q-22 -25 -47 -4l-342 342l-346 -346q-19 -18 -41 4l-84 86q-24 27 -2 45z" />
<glyph unicode="&#xd8;" horiz-adv-x="1331" d="M8 -53l158 217q-72 109 -72 254q0 44 8 94l78 504q36 241 186 365t441 124q167 0 276 -71l68 96q11 14 18.5 18t26.5 4h115q16 0 18.5 -7t-4.5 -15l-135 -191q90 -116 90 -272q0 -26 -8 -88l-80 -522q-37 -242 -192 -362t-435 -120q-180 0 -297 84l-88 -125 q-12 -13 -19.5 -17.5t-23.5 -4.5h-119q-33 0 -10 35zM330 428q0 -11 4 -31l612 850q-64 45 -172 45q-169 0 -254 -84t-110 -241l-72 -445q-8 -54 -8 -94zM406 248q67 -58 194 -58q162 0 249 79.5t114 244.5l71 447q8 58 8 90q0 36 -10 69z" />
<glyph unicode="&#xd9;" horiz-adv-x="1361" d="M119 383q0 57 6 98l156 977q3 27 26 27h189q24 0 20 -27l-151 -960q-7 -51 -7 -76q0 -232 271 -232q142 0 225 77t104 212l154 979q2 12 9 19.5t18 7.5h182q23 0 20 -27l-159 -1018q-35 -219 -183 -342t-407 -123q-116 0 -208 34t-149 92t-86.5 130t-29.5 152z M572.5 1964q4.5 10 21.5 10h147q26 0 33 -18l121 -279q6 -11 -1 -18.5t-20 -7.5h-108q-17 0 -23 12l-168 281q-7 10 -2.5 20z" />
<glyph unicode="&#xda;" horiz-adv-x="1361" d="M119 383q0 57 6 98l156 977q3 27 26 27h189q24 0 20 -27l-151 -960q-7 -51 -7 -76q0 -232 271 -232q142 0 225 77t104 212l154 979q2 12 9 19.5t18 7.5h182q23 0 20 -27l-159 -1018q-35 -219 -183 -342t-407 -123q-116 0 -208 34t-149 92t-86.5 130t-29.5 152z M749.5 1656q-3.5 7 4.5 19l207 279q13 18 38 18h148q12 0 16.5 -4.5t2 -11.5t-8.5 -14l-256 -281q-9 -12 -27 -12h-108q-13 0 -16.5 7z" />
<glyph unicode="&#xdb;" horiz-adv-x="1361" d="M119 383q0 57 6 98l156 977q3 27 26 27h189q24 0 20 -27l-151 -960q-7 -51 -7 -76q0 -232 271 -232q142 0 225 77t104 212l154 979q2 12 9 19.5t18 7.5h182q23 0 20 -27l-159 -1018q-35 -219 -183 -342t-407 -123q-116 0 -208 34t-149 92t-86.5 130t-29.5 152zM590 1673 l203 254q13 15 20 19t25 4h106q16 0 22 -5t11 -18l127 -256q4 -9 -1.5 -15.5t-17.5 -6.5h-112q-13 0 -18.5 4.5t-10.5 17.5l-67 170l-123 -174q-15 -18 -31 -18h-123q-26 0 -10 24z" />
<glyph unicode="&#xdc;" horiz-adv-x="1347" d="M119 383q0 57 6 98l156 977q3 27 26 27h189q24 0 20 -27l-151 -960q-7 -51 -7 -76q0 -232 271 -232q142 0 225 77t104 212l154 979q2 12 9 19.5t18 7.5h182q23 0 20 -27l-159 -1018q-35 -219 -183 -342t-407 -123q-116 0 -208 34t-149 92t-86.5 130t-29.5 152zM555 1690 l27 178q8 35 36 35h140q14 0 21.5 -9t4.5 -26l-28 -178q-3 -17 -12.5 -26t-22.5 -9h-141q-12 0 -20 10t-5 25zM944 1690l27 178q8 35 37 35h139q14 0 22 -9t5 -26l-29 -178q-6 -35 -37 -35h-139q-14 0 -21 10t-4 25z" />
<glyph unicode="&#xdd;" horiz-adv-x="1095" d="M96 1456q-4 10 0 19.5t13 9.5h198q22 0 33 -27l227 -649l428 657q11 19 27 19h209q12 0 16 -11t-2 -20l-590 -860l-92 -567q-3 -27 -28 -27h-189q-26 0 -20 27l90 567zM608 1658q-4 7 4 19l207 279q13 18 41 18h146q18 0 20 -10.5t-10 -19.5l-256 -281q-9 -12 -27 -12 h-108q-13 0 -17 7z" />
<glyph unicode="&#xde;" horiz-adv-x="1161" d="M74 27l223 1431q6 27 29 27h188q11 0 17.5 -7.5t5.5 -19.5l-33 -213h219q189 0 300.5 -97t111.5 -255q0 -17 -9 -100l-12 -97q-59 -415 -561 -415h-199l-41 -254q-7 -27 -30 -27h-189q-23 0 -20 27zM385 485h190q138 0 212 56t94 178l10 67q4 20 4 64q0 95 -54 139.5 t-163 44.5h-207z" />
<glyph unicode="&#xdf;" horiz-adv-x="1267" d="M78 25l164 1046q34 221 157.5 334t348.5 113q98 0 174 -29t121.5 -78.5t68.5 -111.5t23 -132q0 -119 -56 -208t-151 -121q133 -35 193 -134t40 -249l-16 -125q-11 -74 -40 -136t-78 -111.5t-126 -77.5t-174 -28q-112 0 -192.5 43t-124.5 109q-18 27 12 49l90 84 q15 12 25 9.5t22 -19.5q59 -82 156 -82q84 0 135.5 48.5t64.5 146.5l15 114q8 58 -1.5 103t-31 72t-54 44.5t-65 24t-67.5 6.5h-95q-24 0 -20 25l22 141q3 27 31 27h53q92 0 146.5 68t54.5 161q0 81 -45.5 127.5t-138.5 46.5q-106 0 -166 -64t-80 -196l-160 -1038 q-7 -27 -30 -27h-185q-23 0 -20 25z" />
<glyph unicode="&#xe0;" horiz-adv-x="1167" d="M76 291q0 84 8 133l45 281q65 423 514 423q122 0 248.5 -40.5t220.5 -94.5l-151 -960q-6 -33 -39 -33h-152q-38 0 -31 45l25 166q-22 -36 -53 -72t-79 -75t-114.5 -63t-140.5 -24q-75 0 -134.5 28.5t-95 75t-53.5 100.5t-18 110zM309 332q0 -72 41.5 -118t118.5 -46 q88 0 175.5 67t139.5 171l82 491q-129 49 -235 49q-236 0 -279 -291l-35 -217q-8 -66 -8 -106zM403.5 1553q4.5 10 22.5 10h145q25 0 35 -19l121 -276q4 -12 -2 -20.5t-18 -8.5h-109q-17 0 -25 12l-165 283q-9 9 -4.5 19z" />
<glyph unicode="&#xe1;" horiz-adv-x="1167" d="M76 291q0 84 8 133l45 281q65 423 514 423q122 0 248.5 -40.5t220.5 -94.5l-151 -960q-6 -33 -39 -33h-152q-38 0 -31 45l25 166q-22 -36 -53 -72t-79 -75t-114.5 -63t-140.5 -24q-75 0 -134.5 28.5t-95 75t-53.5 100.5t-18 110zM309 332q0 -72 41.5 -118t118.5 -46 q88 0 175.5 67t139.5 171l82 491q-129 49 -235 49q-236 0 -279 -291l-35 -217q-8 -66 -8 -106zM605.5 1248.5q-4.5 7.5 2.5 21.5l207 276q14 19 41 19h145q18 0 20.5 -10t-7.5 -19l-258 -283q-9 -12 -27 -12h-106q-13 0 -17.5 7.5z" />
<glyph unicode="&#xe2;" horiz-adv-x="1167" d="M76 291q0 84 8 133l45 281q65 423 514 423q122 0 248.5 -40.5t220.5 -94.5l-151 -960q-6 -33 -39 -33h-152q-38 0 -31 45l25 166q-22 -36 -53 -72t-79 -75t-114.5 -63t-140.5 -24q-75 0 -134.5 28.5t-95 75t-53.5 100.5t-18 110zM309 332q0 -72 41.5 -118t118.5 -46 q88 0 175.5 67t139.5 171l82 491q-129 49 -235 49q-236 0 -279 -291l-35 -217q-8 -66 -8 -106zM446 1255q-2 8 5 17l202 256q13 13 20 16.5t25 3.5h107q16 0 21.5 -4.5t11.5 -15.5l127 -258q5 -9 -1 -16t-18 -7h-112q-19 0 -29 23l-68 170l-123 -174q-1 -1 -3 -3.5t-3 -3.5 t-2.5 -3t-2.5 -3t-3 -2t-3.5 -1.5t-3.5 -1.5t-4 -1h-5h-123q-13 0 -15 8z" />
<glyph unicode="&#xe3;" horiz-adv-x="1167" d="M76 291q0 84 8 133l45 281q65 423 514 423q122 0 248.5 -40.5t220.5 -94.5l-151 -960q-6 -33 -39 -33h-152q-38 0 -31 45l25 166q-22 -36 -53 -72t-79 -75t-114.5 -63t-140.5 -24q-75 0 -134.5 28.5t-95 75t-53.5 100.5t-18 110zM309 332q0 -72 41.5 -118t118.5 -46 q88 0 175.5 67t139.5 171l82 491q-129 49 -235 49q-236 0 -279 -291l-35 -217q-8 -66 -8 -106zM387 1356q-7 8 5 27t37.5 41t56.5 42t68 33.5t67 13.5q36 0 69 -13t53.5 -28.5t44 -28.5t41.5 -13q24 0 45.5 10.5t34 23.5t25.5 25.5t19.5 17t15.5 -3.5l63 -82q13 -15 -4 -32 q-39 -49 -97.5 -86t-117.5 -37q-50 0 -89.5 22t-69.5 44t-56 22q-57 0 -113 -74q-11 -15 -26 0z" />
<glyph unicode="&#xe4;" horiz-adv-x="1167" d="M76 291q0 84 8 133l45 281q65 423 514 423q122 0 248.5 -40.5t220.5 -94.5l-151 -960q-6 -33 -39 -33h-152q-38 0 -31 45l25 166q-22 -36 -53 -72t-79 -75t-114.5 -63t-140.5 -24q-75 0 -134.5 28.5t-95 75t-53.5 100.5t-18 110zM309 332q0 -72 41.5 -118t118.5 -46 q88 0 175.5 67t139.5 171l82 491q-129 49 -235 49q-236 0 -279 -291l-35 -217q-8 -66 -8 -106zM412 1296l26 179q7 32 37 32h137q35 0 29 -34l-29 -177q-6 -34 -37 -34h-139q-30 0 -24 34zM801 1296l26 179q7 32 37 32h137q35 0 29 -34l-29 -177q-6 -34 -38 -34h-138 q-30 0 -24 34z" />
<glyph unicode="&#xe5;" horiz-adv-x="1167" d="M76 291q0 84 8 133l45 281q65 423 514 423q122 0 248.5 -40.5t220.5 -94.5l-151 -960q-6 -33 -39 -33h-152q-38 0 -31 45l25 166q-22 -36 -53 -72t-79 -75t-114.5 -63t-140.5 -24q-75 0 -134.5 28.5t-95 75t-53.5 100.5t-18 110zM309 332q0 -72 41.5 -118t118.5 -46 q88 0 175.5 67t139.5 171l82 491q-129 49 -235 49q-236 0 -279 -291l-35 -217q-8 -66 -8 -106zM498 1405q13 80 77.5 133t143.5 53q83 0 130 -52t34 -134q-12 -79 -75.5 -131.5t-145.5 -52.5t-128.5 52t-35.5 132zM610 1405q-6 -35 13.5 -57.5t54.5 -22.5q36 0 63 22.5 t31 57.5q6 37 -13.5 59.5t-56.5 22.5q-34 0 -60 -23.5t-32 -58.5z" />
<glyph unicode="&#xe6;" horiz-adv-x="1718" d="M51 244q0 77 22 139t59 104t92.5 73t113.5 47.5t132.5 26t139 11.5t142.5 0l10 64q1 6 4.5 28.5t3.5 34.5q0 75 -46 120.5t-136 45.5q-144 0 -226 -147q-15 -29 -43 -13l-114 64q-21 12 -8 39q145 247 430 247q195 0 293 -118q127 118 348 118q173 0 281 -98.5 t108 -232.5q0 -94 -33 -269q-6 -43 -57 -43h-609q-16 -96 -16 -139q0 -77 49.5 -127.5t138.5 -50.5q91 0 149.5 43t86.5 108q15 38 55 23l123 -49q34 -14 10 -68q-118 -248 -454 -248q-119 0 -205.5 45t-136.5 121q-80 -64 -188 -115t-218 -51q-141 0 -221 74t-80 193z M285 295q-2 -55 35 -90t102 -35q75 0 153.5 33t133.5 88q-2 12 -2 33q0 36 8.5 94t9.5 67q-241 9 -335.5 -30.5t-104.5 -159.5zM983 645h442q15 82 15 127q0 75 -51 124.5t-136 49.5q-106 0 -176.5 -67.5t-85.5 -176.5z" />
<glyph unicode="&#xe7;" horiz-adv-x="1032" d="M76 319q0 51 10 109l45 289q31 194 160 302.5t336 108.5q163 0 270.5 -88t120.5 -213q3 -44 -33 -49l-141 -22q-21 -3 -30.5 4t-12.5 31q-8 63 -56.5 104t-128.5 41q-91 0 -164.5 -62.5t-93.5 -195.5l-41 -252q-6 -40 -6 -74q0 -87 51 -134.5t132 -47.5q87 0 145.5 41 t85.5 106q15 40 55 25l125 -51q33 -13 15 -55q-100 -226 -377 -254l-11 -66q77 0 115 -46t29 -112l-2 -16q-10 -68 -77 -120t-167 -52q-117 0 -197 68q-18 9 -4 30l43 66q12 19 25 6q83 -49 137 -49q76 0 86 53l2 10q8 35 -31 55.5t-118 10.5l24 162q-140 18 -230.5 107.5 t-90.5 229.5z" />
<glyph unicode="&#xe8;" horiz-adv-x="1087" d="M78 322q0 52 12 122l39 258q32 198 159.5 312t344.5 114q176 0 284.5 -98.5t108.5 -232.5q0 -94 -33 -269q-6 -43 -57 -43h-608q-17 -96 -17 -139q0 -77 50 -127.5t139 -50.5q169 0 235 151q15 38 56 23l122 -49q35 -15 11 -68q-118 -248 -455 -248q-96 0 -172.5 28.5 t-123.5 77.5t-71 110t-24 129zM352 645h428q17 93 17 129q0 78 -45 125t-129 47q-106 0 -177 -67.5t-86 -176.5zM393 1553q5 10 23 10h145q25 0 35 -19l121 -276q4 -12 -2.5 -20.5t-18.5 -8.5h-108q-17 0 -25 12l-166 283q-9 9 -4 19z" />
<glyph unicode="&#xe9;" horiz-adv-x="1087" d="M78 322q0 52 12 122l39 258q32 198 159.5 312t344.5 114q176 0 284.5 -98.5t108.5 -232.5q0 -94 -33 -269q-6 -43 -57 -43h-608q-17 -96 -17 -139q0 -77 50 -127.5t139 -50.5q169 0 235 151q15 38 56 23l122 -49q35 -15 11 -68q-118 -248 -455 -248q-96 0 -172.5 28.5 t-123.5 77.5t-71 110t-24 129zM352 645h428q17 93 17 129q0 78 -45 125t-129 47q-106 0 -177 -67.5t-86 -176.5zM583.5 1247.5q-4.5 8.5 4.5 20.5l207 276q14 19 41 19h145q18 0 20 -10t-10 -19l-256 -283q-12 -12 -26 -12h-109q-12 0 -16.5 8.5z" />
<glyph unicode="&#xea;" horiz-adv-x="1087" d="M78 322q0 52 12 122l39 258q32 198 159.5 312t344.5 114q176 0 284.5 -98.5t108.5 -232.5q0 -94 -33 -269q-6 -43 -57 -43h-608q-17 -96 -17 -139q0 -77 50 -127.5t139 -50.5q169 0 235 151q15 38 56 23l122 -49q35 -15 11 -68q-118 -248 -455 -248q-96 0 -172.5 28.5 t-123.5 77.5t-71 110t-24 129zM352 645h428q17 93 17 129q0 78 -45 125t-129 47q-106 0 -177 -67.5t-86 -176.5zM411 1255q-2 8 5 17l202 256q13 13 20.5 16.5t25.5 3.5h106q20 0 33 -20l127 -258q5 -9 -1 -16t-18 -7h-112q-14 0 -20 5.5t-11 17.5l-66 170l-124 -174 q-13 -19 -31 -19h-121q-13 0 -15 8z" />
<glyph unicode="&#xeb;" horiz-adv-x="1087" d="M78 322q0 52 12 122l39 258q32 198 159.5 312t344.5 114q176 0 284.5 -98.5t108.5 -232.5q0 -94 -33 -269q-6 -43 -57 -43h-608q-17 -96 -17 -139q0 -77 50 -127.5t139 -50.5q169 0 235 151q15 38 56 23l122 -49q35 -15 11 -68q-118 -248 -455 -248q-96 0 -172.5 28.5 t-123.5 77.5t-71 110t-24 129zM352 645h428q17 93 17 129q0 78 -45 125t-129 47q-106 0 -177 -67.5t-86 -176.5zM358 1298l27 179q7 32 37 32h137q14 0 22 -9t5 -25l-27 -177q-6 -34 -37 -34h-139q-31 0 -25 34zM745 1298l29 179q7 32 37 32h137q14 0 22 -9t5 -25l-27 -177 q-6 -34 -39 -34h-137q-14 0 -22 9t-5 25z" />
<glyph unicode="&#xec;" horiz-adv-x="534" d="M78 29l164 1046q3 16 13 25.5t21 9.5h173q12 0 18.5 -10t3.5 -23l-162 -1048q-5 -29 -35 -29h-172q-30 0 -24 29zM128.5 1553q4.5 10 21.5 10h147q26 0 33 -19l121 -276q6 -12 -1 -20.5t-20 -8.5h-108q-15 0 -23 12l-168 283q-7 9 -2.5 19z" />
<glyph unicode="&#xed;" horiz-adv-x="534" d="M78 29l164 1046q3 16 13 25.5t21 9.5h173q12 0 18.5 -10t3.5 -23l-162 -1048q-5 -29 -35 -29h-172q-30 0 -24 29zM323.5 1248.5q-3.5 7.5 4.5 21.5l207 276q14 19 38 19h148q12 0 16.5 -5t2 -11.5t-8.5 -12.5l-256 -283q-9 -12 -26 -12h-109q-13 0 -16.5 7.5z" />
<glyph unicode="&#xee;" horiz-adv-x="534" d="M78 29l164 1046q3 16 13 25.5t21 9.5h173q12 0 18.5 -10t3.5 -23l-162 -1048q-5 -29 -35 -29h-172q-30 0 -24 29zM122 1255q-2 8 5 17l205 256q11 13 18.5 16.5t26.5 3.5h104q11 0 18 -3t9.5 -6t7.5 -11l125 -258q4 -9 -0.5 -16t-15.5 -7h-113q-14 0 -20 5.5t-11 17.5 l-67 170l-123 -174q-13 -19 -31 -19h-123q-13 0 -15 8z" />
<glyph unicode="&#xef;" horiz-adv-x="532" d="M78 29l164 1046q3 16 13 25.5t21 9.5h173q12 0 18.5 -10t3.5 -23l-162 -1048q-5 -29 -35 -29h-172q-30 0 -24 29zM98 1294l27 179q8 34 37 34h137q14 0 22 -9t5 -25l-27 -179q-6 -34 -37 -34h-139q-31 0 -25 34zM485 1294l29 179q8 34 37 34h137q14 0 22 -9t5 -25 l-27 -179q-6 -34 -39 -34h-137q-14 0 -22 9t-5 25z" />
<glyph unicode="&#xf0;" horiz-adv-x="1179" d="M76 322q0 38 8 96l35 209q32 203 173 320.5t357 117.5q86 0 164 -39.5t96 -73.5q-10 69 -42.5 145.5t-82.5 129.5l-82 -78q-9 -7 -20.5 -7t-15.5 7l-80 84q-6 6 -5.5 17t9.5 18l80 73q-16 17 -78 70q-12 9 -14 25t14 32l115 111q26 26 57 0q17 -15 74 -76l88 82 q20 21 39 2l79 -86q13 -18 -6 -37l-90 -84q110 -146 146 -327.5t0 -417.5l-37 -229q-16 -103 -51.5 -178.5t-99 -133.5t-165 -87.5t-241.5 -29.5q-204 0 -314 98t-110 247zM311 356q3 -188 219 -188q60 0 106.5 12t87 41.5t67 82.5t38.5 130l29 176q20 127 -44.5 195.5 t-168.5 68.5q-116 0 -197 -66.5t-100 -195.5l-33 -194q-4 -46 -4 -62z" />
<glyph unicode="&#xf1;" horiz-adv-x="1171" d="M70 27l166 1056q3 27 30 27h172q24 0 21 -27l-21 -151q39 49 84 89t117 73.5t147 33.5q121 0 196 -70.5t91 -174.5q6 -35 6 -70q0 -27 -4 -63l-8 -72l-104 -651q-5 -27 -31 -27h-176q-13 0 -20.5 7t-4.5 20l103 632q10 65 10 132q0 64 -37.5 104.5t-112.5 40.5 q-86 0 -163 -59t-117 -140l-113 -710q-2 -10 -8 -16t-17 -8.5t-17.5 -3t-22.5 0t-19 0.5h-123q-13 0 -20 7t-4 20zM403 1356q-7 8 5 27t37 41t56.5 42t67.5 33.5t66 13.5q37 0 70.5 -13t54 -28.5t44 -28.5t42.5 -13q24 0 45 10.5t33.5 24t25 26t18.5 16.5t15 -4l66 -82 q11 -16 -5 -32q-38 -49 -96.5 -85t-118.5 -36q-40 0 -74 13.5t-53.5 29.5t-43.5 29.5t-46 13.5q-56 0 -112 -74q-12 -16 -25 0z" />
<glyph unicode="&#xf2;" horiz-adv-x="1136" d="M76 309q0 57 8 109l45 282q33 211 161.5 319.5t373.5 108.5q183 0 293 -96t110 -241q0 -53 -10 -115l-43 -270q-33 -215 -162.5 -322t-370.5 -107q-184 0 -294.5 95.5t-110.5 236.5zM311 344q1 -86 55 -131t144 -45q107 0 181 62.5t93 191.5l37 231q10 65 10 105 q0 83 -51 130.5t-145 47.5q-111 0 -184 -65t-93 -187l-39 -246q-8 -46 -8 -94zM413.5 1555q4.5 10 20.5 10h148q24 0 34 -19l119 -276q6 -13 -0.5 -21t-19.5 -8h-107q-18 0 -24 12l-168 283q-7 9 -2.5 19z" />
<glyph unicode="&#xf3;" horiz-adv-x="1136" d="M76 309q0 57 8 109l45 282q33 211 161.5 319.5t373.5 108.5q183 0 293 -96t110 -241q0 -53 -10 -115l-43 -270q-33 -215 -162.5 -322t-370.5 -107q-184 0 -294.5 95.5t-110.5 236.5zM311 344q1 -86 55 -131t144 -45q107 0 181 62.5t93 191.5l37 231q10 65 10 105 q0 83 -51 130.5t-145 47.5q-111 0 -184 -65t-93 -187l-39 -246q-8 -46 -8 -94zM609.5 1248.5q-4.5 7.5 2.5 19.5l207 278q14 19 41 19h146q12 0 17 -5.5t3 -12.5t-8 -13l-258 -281q-9 -12 -27 -12h-106q-13 0 -17.5 7.5z" />
<glyph unicode="&#xf4;" horiz-adv-x="1136" d="M76 309q0 57 8 109l45 282q33 211 161.5 319.5t373.5 108.5q183 0 293 -96t110 -241q0 -53 -10 -115l-43 -270q-33 -215 -162.5 -322t-370.5 -107q-184 0 -294.5 95.5t-110.5 236.5zM311 344q1 -86 55 -131t144 -45q107 0 181 62.5t93 191.5l37 231q10 65 10 105 q0 83 -51 130.5t-145 47.5q-111 0 -184 -65t-93 -187l-39 -246q-8 -46 -8 -94zM425 1255q-2 8 5 17l205 256q11 13 18 16.5t25 3.5h106q16 0 22 -4.5t11 -15.5l127 -258q5 -9 -0.5 -16t-17.5 -7h-111q-14 0 -20 5.5t-11 17.5l-67 170l-123 -174q-16 -19 -31 -19h-123 q-13 0 -15 8z" />
<glyph unicode="&#xf5;" horiz-adv-x="1136" d="M76 309q0 57 8 109l45 282q33 211 161.5 319.5t373.5 108.5q183 0 293 -96t110 -241q0 -53 -10 -115l-43 -270q-33 -215 -162.5 -322t-370.5 -107q-184 0 -294.5 95.5t-110.5 236.5zM311 344q0 -85 55.5 -130.5t143.5 -45.5q107 0 180 62.5t94 191.5l37 231q10 65 10 105 q0 83 -51 130.5t-145 47.5q-111 0 -184 -65t-93 -187l-39 -246q-8 -46 -8 -94zM358 1356q-7 8 5 27t37 41t56.5 42t67.5 33.5t66 13.5q37 0 70.5 -13t54 -28.5t44 -28.5t42.5 -13q24 0 45 10.5t33.5 24t25 26t18.5 16.5t15 -4l66 -82q11 -16 -5 -32q-38 -49 -96.5 -85 t-118.5 -36q-40 0 -74 13.5t-53.5 29.5t-43.5 29.5t-46 13.5q-56 0 -112 -74q-12 -16 -25 0z" />
<glyph unicode="&#xf6;" horiz-adv-x="1136" d="M76 309q0 57 8 109l45 282q33 211 161.5 319.5t373.5 108.5q183 0 293 -96t110 -241q0 -53 -10 -115l-43 -270q-33 -215 -162.5 -322t-370.5 -107q-184 0 -294.5 95.5t-110.5 236.5zM311 344q1 -86 55 -131t144 -45q107 0 181 62.5t93 191.5l37 231q10 65 10 105 q0 83 -51 130.5t-145 47.5q-111 0 -184 -65t-93 -187l-39 -246q-8 -46 -8 -94zM393 1294l27 179q8 34 37 34h139q14 0 22 -9t5 -25l-29 -179q-6 -34 -35 -34h-141q-12 0 -20 9.5t-5 24.5zM782 1294l27 179q8 34 37 34h139q14 0 22 -9t5 -25l-29 -179q-6 -34 -37 -34h-139 q-14 0 -21 9.5t-4 24.5z" />
<glyph unicode="&#xf7;" horiz-adv-x="1210" d="M86 557v137q0 11 7 20t18 9h989q11 0 17.5 -9.5t6.5 -19.5v-137q0 -27 -24 -27h-989q-11 0 -18 8t-7 19zM502 131v219q0 14 8 24.5t22 10.5h146q14 0 23.5 -9t9.5 -26v-219q0 -15 -9.5 -24t-23.5 -9h-146q-14 0 -22 9t-8 24zM502 918v219q0 14 8 24t22 10h146 q14 0 23.5 -9t9.5 -25v-219q0 -15 -9.5 -24t-23.5 -9h-146q-14 0 -22 9t-8 24z" />
<glyph unicode="&#xf8;" horiz-adv-x="1136" d="M61 -61l109 149q-94 91 -94 221q0 57 8 109l43 270q35 215 156 324.5t364 115.5q12 0 34 -1t32 -1q104 -9 180 -51l61 84q10 15 17 19t26 4h99q13 0 17 -9t-3 -16l-117 -162q74 -90 74 -204q0 -53 -10 -115l-43 -270q-33 -215 -162.5 -322t-370.5 -107q-119 0 -200 37 l-66 -88q-8 -13 -16.5 -17.5t-26.5 -4.5h-102q-32 0 -9 35zM311 344q0 -34 8 -53l445 610q-50 35 -129 35q-111 0 -184 -65t-93 -187l-39 -246q-8 -46 -8 -94zM408 188q48 -20 102 -20q107 0 181 62.5t93 191.5l29 176q6 44 12 84q0 70 -2 84z" />
<glyph unicode="&#xf9;" horiz-adv-x="1175" d="M98 270q0 70 13 150l106 663q3 27 29 27h180q11 0 17.5 -6.5t5.5 -18.5l-103 -643q-12 -78 -12 -123q0 -68 36.5 -109.5t108.5 -41.5q83 0 169.5 72.5t125.5 162.5l109 680q2 12 10 19.5t20 7.5h181q10 0 16.5 -7t5.5 -18l-166 -1058q-7 -27 -28 -27h-174 q-11 0 -17.5 7.5t-5.5 19.5l29 184q-23 -39 -58 -77t-82 -74.5t-108 -59.5t-123 -23q-131 0 -208 83.5t-77 209.5zM421.5 1553q4.5 10 22.5 10h146q26 0 35 -19l120 -276q4 -12 -2 -20.5t-18 -8.5h-109q-16 0 -24 12l-166 283q-9 9 -4.5 19z" />
<glyph unicode="&#xfa;" horiz-adv-x="1175" d="M98 270q0 70 13 150l106 663q3 27 29 27h180q11 0 17.5 -6.5t5.5 -18.5l-103 -643q-12 -78 -12 -123q0 -68 36.5 -109.5t108.5 -41.5q83 0 169.5 72.5t125.5 162.5l109 680q2 12 10 19.5t20 7.5h181q10 0 16.5 -7t5.5 -18l-166 -1058q-7 -27 -28 -27h-174 q-11 0 -17.5 7.5t-5.5 19.5l29 184q-23 -39 -58 -77t-82 -74.5t-108 -59.5t-123 -23q-131 0 -208 83.5t-77 209.5zM595.5 1248.5q-3.5 7.5 4.5 21.5l207 276q12 19 39 19h145q18 0 20.5 -10t-7.5 -19l-256 -283q-9 -12 -29 -12h-107q-13 0 -16.5 7.5z" />
<glyph unicode="&#xfb;" horiz-adv-x="1175" d="M98 270q0 70 13 150l106 663q3 27 29 27h180q11 0 17.5 -6.5t5.5 -18.5l-103 -643q-12 -78 -12 -123q0 -68 36.5 -109.5t108.5 -41.5q83 0 169.5 72.5t125.5 162.5l109 680q2 12 10 19.5t20 7.5h181q10 0 16.5 -7t5.5 -18l-166 -1058q-7 -27 -28 -27h-174 q-11 0 -17.5 7.5t-5.5 19.5l29 184q-23 -39 -58 -77t-82 -74.5t-108 -59.5t-123 -23q-131 0 -208 83.5t-77 209.5zM433.5 1255q-2.5 8 4.5 17l203 256q13 13 20 16.5t25 3.5h107q11 0 17.5 -3t8.5 -6t6 -11l127 -258q5 -9 -0.5 -16t-17.5 -7h-113q-12 0 -17.5 5t-10.5 18 l-68 170l-123 -174q-16 -19 -31 -19h-122q-13 0 -15.5 8z" />
<glyph unicode="&#xfc;" horiz-adv-x="1175" d="M98 270q0 70 13 150l106 663q3 27 29 27h180q11 0 17.5 -6.5t5.5 -18.5l-103 -643q-12 -78 -12 -123q0 -68 36.5 -109.5t108.5 -41.5q83 0 169.5 72.5t125.5 162.5l109 680q2 12 10 19.5t20 7.5h181q10 0 16.5 -7t5.5 -18l-166 -1058q-7 -27 -28 -27h-174 q-11 0 -17.5 7.5t-5.5 19.5l29 184q-23 -39 -58 -77t-82 -74.5t-108 -59.5t-123 -23q-131 0 -208 83.5t-77 209.5zM397 1294l27 179q8 34 37 34h137q35 0 29 -34l-29 -179q-6 -34 -37 -34h-139q-14 0 -21 9.5t-4 24.5zM786 1294l27 179q8 34 37 34h137q35 0 29 -34l-29 -179 q-6 -34 -39 -34h-137q-14 0 -21 9.5t-4 24.5z" />
<glyph unicode="&#xfd;" horiz-adv-x="989" d="M-2 -301q-19 34 14 49q94 44 162.5 105.5t126.5 164.5l-199 1065q-2 9 2.5 18t16.5 9h201q19 0 22 -23l127 -813l348 807q12 29 37 29h180q13 0 19.5 -10t1.5 -21l-512 -1069q-76 -156 -192 -275.5t-232 -174.5q-21 -10 -33.5 -9.5t-19.5 13.5zM522 1248.5q-4 7.5 4 21.5 l207 276q14 19 41 19h146q18 0 20 -10t-10 -19l-256 -283q-9 -12 -27 -12h-108q-13 0 -17 7.5z" />
<glyph unicode="&#xfe;" horiz-adv-x="1214" d="M20 -393l295 1890q1 11 11 17t20 6h172q12 0 19 -6t6 -17l-86 -553q56 76 145 130t207 54q156 0 246 -92t90 -239q0 -22 -8 -84l-52 -320q-31 -205 -149 -310.5t-285 -105.5q-81 0 -148.5 30.5t-103.5 67t-63 81.5l-82 -549q-1 -11 -10 -19t-19 -8h-182q-10 0 -18 7.5 t-5 19.5zM379 416q-2 -91 62 -169.5t167 -78.5q105 0 167.5 62.5t82.5 199.5l39 242q8 54 8 84q0 85 -47.5 132.5t-134.5 47.5q-117 0 -201.5 -84t-107.5 -229z" />
<glyph unicode="&#xff;" horiz-adv-x="989" d="M-2 -301q-19 34 14 49q94 44 162.5 105.5t126.5 164.5l-199 1065q-2 9 2.5 18t16.5 9h201q19 0 22 -23l127 -813l348 807q12 29 37 29h180q13 0 19.5 -10t1.5 -21l-512 -1069q-76 -156 -192 -275.5t-232 -174.5q-21 -10 -33.5 -9.5t-19.5 13.5zM332 1298l26 179 q8 34 37 34h140q32 0 26 -34l-29 -177q-6 -34 -34 -34h-142q-13 0 -20 9t-4 23zM721 1298l27 179q8 34 36 34h140q32 0 26 -34l-28 -177q-6 -34 -37 -34h-140q-30 0 -24 32z" />
<glyph unicode="&#x152;" horiz-adv-x="1882" d="M97.5 359q-7.5 63 4.5 128l80 506q36 233 200.5 372.5t430.5 139.5q197 0 297 -108l14 88h789q11 0 16.5 -9.5t3.5 -21.5l-26 -156q-4 -26 -29 -26h-549l-63 -414h499q21 0 21 -27l-25 -153q-2 -10 -9 -18.5t-17 -8.5h-502l-70 -438h551q26 0 21 -29l-25 -157 q-8 -27 -29 -27h-788l12 90q-138 -115 -332 -115q-88 0 -163.5 20t-129 55t-94.5 83.5t-61 105.5t-27.5 120zM344 514q-24 -156 40 -240t222 -84q159 0 250 84t117 236l71 463q24 152 -41.5 235.5t-222.5 83.5q-312 0 -362 -325z" />
<glyph unicode="&#x153;" horiz-adv-x="1785" d="M76 309q0 57 8 109l45 282q33 211 161.5 319.5t373.5 108.5q210 0 315 -124q134 124 352 124q176 0 284.5 -98.5t108.5 -232.5q0 -70 -30 -269q-6 -43 -58 -43h-608q-18 -96 -18 -139q0 -77 50 -127.5t138 -50.5q92 0 151 43t87 108q12 39 55 23l123 -49q34 -14 10 -68 q-121 -248 -457 -248q-198 0 -303 123q-132 -123 -383 -123q-184 0 -294.5 95.5t-110.5 236.5zM311 344q1 -86 55 -131t144 -45q107 0 181 62.5t93 191.5l37 231q10 65 10 105q0 83 -51 130.5t-145 47.5q-111 0 -184 -65t-93 -187l-39 -246q-8 -46 -8 -94zM1053 645h440 q14 58 14 129q0 76 -50 124t-136 48q-106 0 -176 -67.5t-84 -176.5z" />
<glyph unicode="&#x178;" horiz-adv-x="1095" d="M96 1456q-4 10 0 19.5t13 9.5h198q22 0 33 -27l227 -649l428 657q11 19 27 19h209q12 0 16 -11t-2 -20l-590 -860l-92 -567q-3 -27 -28 -27h-189q-26 0 -20 27l90 567zM410 1704l26 178q8 35 37 35h139q14 0 22 -9t5 -26l-29 -178q-3 -17 -12.5 -26t-22.5 -9h-141 q-13 0 -20 9t-4 26zM799 1704l26 178q8 35 37 35h139q14 0 22 -9t5 -26l-29 -178q-6 -35 -36 -35h-140q-30 0 -24 35z" />
<glyph unicode="&#x2c6;" horiz-adv-x="798" d="M190 1255q-2 8 5 17l204 254q11 14 18.5 18t26.5 4h105q16 0 22 -4.5t13 -17.5l125 -256q4 -9 -1 -16t-16 -7h-112q-14 0 -20 5t-11 18l-68 170l-123 -174q-13 -19 -30 -19h-123q-13 0 -15 8z" />
<glyph unicode="&#x2dc;" horiz-adv-x="931" d="M193 1352q-7 8 5 27t37 41t56 42t68 33.5t67 13.5q36 0 69.5 -13t54 -29t44 -29t41.5 -13q29 0 54.5 15.5t38 32t26.5 27t20 -0.5l64 -82q11 -16 -4 -35q-38 -48 -97 -84t-119 -36q-50 0 -89.5 22t-69.5 44t-56 22q-34 0 -59.5 -19t-52.5 -55q-11 -18 -27 -2z" />
<glyph unicode="&#x2000;" horiz-adv-x="987" />
<glyph unicode="&#x2001;" horiz-adv-x="1974" />
<glyph unicode="&#x2002;" horiz-adv-x="987" />
<glyph unicode="&#x2003;" horiz-adv-x="1974" />
<glyph unicode="&#x2004;" horiz-adv-x="658" />
<glyph unicode="&#x2005;" horiz-adv-x="493" />
<glyph unicode="&#x2006;" horiz-adv-x="329" />
<glyph unicode="&#x2007;" horiz-adv-x="329" />
<glyph unicode="&#x2008;" horiz-adv-x="246" />
<glyph unicode="&#x2009;" horiz-adv-x="394" />
<glyph unicode="&#x200a;" horiz-adv-x="109" />
<glyph unicode="&#x2010;" horiz-adv-x="868" d="M57 547l23 129q4 26 29 26h682q23 0 20 -26l-23 -129q-3 -29 -28 -29h-678q-28 0 -25 29z" />
<glyph unicode="&#x2011;" horiz-adv-x="868" d="M57 547l23 129q4 26 29 26h682q23 0 20 -26l-23 -129q-3 -29 -28 -29h-678q-28 0 -25 29z" />
<glyph unicode="&#x2012;" horiz-adv-x="868" d="M57 547l23 129q4 26 29 26h682q23 0 20 -26l-23 -129q-3 -29 -28 -29h-678q-28 0 -25 29z" />
<glyph unicode="&#x2013;" horiz-adv-x="1040" d="M88 547l21 125q3 24 26 24h799q22 0 18 -26l-18 -123q-2 -10 -10 -18.5t-19 -8.5h-796q-11 0 -17 8.5t-4 18.5z" />
<glyph unicode="&#x2014;" horiz-adv-x="2043" d="M88 547l21 125q3 24 26 24h1802q23 0 19 -26l-19 -123q-2 -10 -9.5 -18.5t-18.5 -8.5h-1800q-11 0 -17 8.5t-4 18.5z" />
<glyph unicode="&#x2018;" horiz-adv-x="419" d="M109 1008q16 103 51.5 190t84 148.5t100 104t110.5 71.5q21 12 37 -4l36 -54q8 -10 6.5 -24t-14.5 -23q-91 -68 -123 -142.5t-61 -266.5q-6 -29 -35 -29h-166q-18 0 -23 7t-3 22z" />
<glyph unicode="&#x2019;" horiz-adv-x="417" d="M99 1034q3 14 16 23q88 68 119.5 142.5t62.5 266.5q3 29 33 29h166q18 0 23 -7t3 -22q-16 -104 -51 -190.5t-83 -148.5t-100 -105t-112 -72q-19 -10 -35 6l-37 54q-8 10 -5 24z" />
<glyph unicode="&#x201a;" horiz-adv-x="512" d="M-57 -213q-20 23 4 39q88 67 123.5 153.5t64.5 280.5q6 29 37 29h164q18 0 22.5 -7t1.5 -22q-32 -200 -128.5 -337.5t-219.5 -198.5q-21 -13 -32 6z" />
<glyph unicode="&#x201c;" horiz-adv-x="825" d="M109 1016q16 104 51 191t83 148.5t100 104.5t112 72q24 10 37 -8l36 -49q18 -29 -8 -50q-92 -68 -123.5 -142.5t-60.5 -266.5q-7 -29 -35 -29h-166q-30 0 -26 29zM516 1016q30 200 124 326.5t222 189.5q25 10 35 -8l37 -49q18 -29 -8 -50q-38 -29 -63.5 -56.5t-44 -56.5 t-32 -74.5t-23 -93t-22.5 -128.5q-7 -29 -34 -29h-164q-34 0 -27 29z" />
<glyph unicode="&#x201d;" horiz-adv-x="823" d="M106 1012q-20 27 9 49q90 66 121.5 141t62.5 268q4 29 33 29h166q31 0 24 -29q-16 -104 -51 -191.5t-83 -149t-100 -105t-112 -72.5q-5 -4 -16.5 -2t-18.5 11zM512 1012q-20 27 8 49q91 67 123.5 142.5t61.5 266.5q4 29 34 29h164q31 0 27 -29q-16 -104 -51.5 -191.5 t-84 -149t-100.5 -105t-112 -72.5q-20 -10 -33 9z" />
<glyph unicode="&#x201e;" horiz-adv-x="917" d="M-57 -254q-20 26 6 49q49 36 77 68t48.5 82.5t31 104t25.5 155.5q6 28 37 28h164q19 0 23.5 -6.5t2.5 -21.5q-16 -104 -51 -190.5t-83.5 -148.5t-101 -105t-112.5 -72q-20 -10 -33 8zM350 -254q-20 26 6 49q92 68 124 143t61 267q6 28 34 28h164q19 0 24.5 -6.5 t2.5 -21.5q-16 -104 -50.5 -190.5t-83 -148.5t-100.5 -105t-112 -72q-23 -9 -35 8z" />
<glyph unicode="&#x2022;" horiz-adv-x="817" d="M96 592q0 93 41.5 175t125.5 135.5t194 53.5q115 0 189.5 -71t74.5 -180q0 -94 -42 -177t-126 -137.5t-193 -54.5q-115 0 -188.5 72.5t-75.5 183.5z" />
<glyph unicode="&#x2026;" horiz-adv-x="1388" d="M16 35l35 219q2 15 11.5 25t25.5 10h141q33 0 27 -35l-35 -219q-1 -17 -11 -26t-24 -9h-145q-11 0 -18.5 9.5t-6.5 25.5zM606 35l35 219q2 14 12.5 24.5t24.5 10.5h143q14 0 22 -9t5 -26l-35 -219q-6 -35 -37 -35h-143q-30 0 -27 35zM899 35l35 219q2 15 11.5 25t25.5 10 h141q33 0 27 -35l-35 -219q-3 -35 -37 -35h-143q-13 0 -20.5 9.5t-4.5 25.5z" />
<glyph unicode="&#x202f;" horiz-adv-x="394" />
<glyph unicode="&#x2039;" horiz-adv-x="645" d="M86 641l354 393q8 12 23 15.5t26 -5.5l97 -92q22 -17 2 -41l-275 -293l185 -346q11 -27 -17 -41l-104 -61q-18 -8 -30 -4.5t-17 14.5z" />
<glyph unicode="&#x203a;" horiz-adv-x="677" d="M78 282.5q0 11.5 10 20.5l272 297l-182 336q-12 24 17 41l114 70q15 8 28 4t19 -17l234 -456l-359 -394q-8 -13 -23 -17.5t-26 5.5l-92 90q-12 9 -12 20.5z" />
<glyph unicode="&#x205f;" horiz-adv-x="493" />
<glyph unicode="&#x20ac;" horiz-adv-x="1355" d="M76 530l16 123q8 27 31 27h149l17 121h-144q-27 0 -24 28l20 127q7 27 31 27h147l7 39q33 213 192.5 348t388.5 135q98 0 181 -28.5t139 -77t91 -108.5t48 -126q8 -45 -33 -57l-151 -43q-15 -5 -25.5 1t-11.5 21q-30 218 -266 218q-133 0 -214 -76t-100 -203l-6 -43h359 q30 0 22 -27l-20 -127q-3 -28 -31 -28h-359l-18 -121h360q24 0 19 -27l-19 -123q-3 -28 -28 -28h-359l-10 -53q-6 -60 -6 -72q0 -205 231 -205q246 0 332 215q19 45 53 31l123 -49q22 -9 27.5 -29.5t-6.5 -46.5q-77 -158 -213 -238t-346 -80q-214 0 -327.5 103.5 t-113.5 292.5q0 31 9 96l4 35h-144q-28 0 -22 28z" />
<glyph unicode="&#x2122;" horiz-adv-x="1200" d="M88 1394.5q-2 5.5 0 10.5l10 63q4 17 13 17h424q12 0 8 -17l-11 -63q0 -16 -12 -16h-155l-78 -490q0 -12 -15 -12h-88q-10 0 -10 12l78 490h-156q-6 0 -8 5.5zM508 899l88 574q4 12 14 12h123q7 0 12 -10l33 -248q16 -103 21 -183q35 101 73 183l115 248q3 10 14 10h121 q13 0 13 -10l-91 -576q-3 -12 -12 -12h-88q-13 0 -10 12l51 291q3 20 10.5 55t10.5 51l-187 -399q-10 -10 -14 -10h-62q-10 0 -10 10l-61 401q0 -50 -8 -100l-48 -299q-3 -12 -12 -12h-88q-8 0 -8 12z" />
<glyph unicode="&#x25fc;" horiz-adv-x="1105" d="M0 0v1106h1106v-1106h-1106z" />
</font>
</defs>
</svg>
